<svg enable-background="new 0 0 32.2 21.2" viewBox="0 0 32.2 21.2" xmlns="http://www.w3.org/2000/svg"><path d="m19.8 7.3c-1.2-1.5-3.5-3.9-6.5-2-3.4 2.2-.7 6.8-.7 6.8-.8-3.5.7-4.8 2.2-5.1.5-.1.9 0 1.3.2 1 .4 1.9 1.8 3 2.6.8.5 1.3.7 1.3.7 4.4 1.2 5.7-3.4 5.7-3.4-.3.8-4 3.1-6.3.2z" fill="#fbb015"/><g fill="#173558"><ellipse cx="19.9" cy="2.4" rx="2.4" ry="2.4" transform="matrix(.02497607 -.9997 .9997 .02497607 16.9413 22.2481)"/><path d="m13.4 16.1c0 .3-.2.5-.5.5s-.5-.2-.5-.5.2-.5.5-.5.5.2.5.5z"/><path d="m14.4 14.8c0 .3-.2.5-.5.5s-.5-.2-.5-.5.2-.5.5-.5c.2 0 .5.2.5.5z"/><path d="m14 13.7c0 .3-.2.5-.5.5s-.5-.2-.5-.5.2-.5.5-.5.5.2.5.5z"/><path d="m15.1 12.5c0 .4-.3.7-.7.7s-.7-.3-.7-.7.3-.7.7-.7.7.3.7.7z"/><path d="m15.7 15.1c0 .3-.3.6-.6.6s-.6-.3-.6-.6.3-.6.6-.6.6.2.6.6z"/><path d="m15.4 13.8c0 .3-.3.6-.6.6s-.6-.3-.6-.6.3-.6.6-.6.6.3.6.6z"/><path d="m16.3 12.1c0 .4-.3.7-.7.7s-.7-.3-.7-.7.3-.7.7-.7.7.3.7.7z"/><path d="m16.9 14.6c0 .4-.3.7-.7.7s-.7-.3-.7-.7.3-.7.7-.7c.4.1.7.3.7.7z"/><path d="m16.5 13.4c0 .4-.3.7-.7.7s-.7-.3-.7-.7.3-.7.7-.7.7.3.7.7z"/><path d="m14.6 16.2c0 .3-.2.5-.5.5s-.5-.2-.5-.5.2-.5.5-.5c.3-.1.5.2.5.5z"/><path d="m13.7 17.5c0 .3-.2.5-.5.5s-.5-.2-.5-.5.2-.5.5-.5c.2-.1.5.2.5.5z"/><path d="m12.3 17.5c0 .3-.2.5-.5.5s-.5-.2-.5-.5.2-.5.5-.5.5.2.5.5z"/><path d="m12.7 18.7c0 .3-.2.5-.5.5s-.5-.2-.5-.5.2-.5.5-.5.5.2.5.5z"/><path d="m11 17.3c0 .3-.2.5-.5.5s-.5-.2-.5-.5.2-.5.5-.5c.2 0 .5.2.5.5z"/><path d="m11.4 18.5c0 .3-.2.5-.5.5s-.5-.2-.5-.5.2-.5.5-.5c.2 0 .5.2.5.5z"/><path d="m11.8 19.8c0 .3-.2.5-.5.5s-.5-.2-.5-.5.2-.5.5-.5c.3-.1.5.2.5.5z"/><path d="m10.2 19c0 .3-.2.5-.5.5s-.5-.2-.5-.5.2-.5.5-.5c.2 0 .5.2.5.5z"/><path d="m9.1 20.3c0 .2-.2.4-.4.4s-.4-.2-.4-.4.2-.4.4-.4c.2-.1.4.1.4.4z"/><path d="m8.7 19c0 .2-.2.4-.4.4s-.4-.2-.4-.4.2-.4.4-.4.4.2.4.4z"/><path d="m8.4 17.8c0 .2-.2.4-.4.4s-.4-.2-.4-.4.2-.4.4-.4.4.2.4.4z"/><path d="m7.7 19.7c0 .2-.2.4-.4.4s-.4-.2-.4-.4.2-.4.4-.4.4.2.4.4z"/><path d="m7.3 18.4c0 .2-.2.4-.4.4s-.4-.2-.4-.4.2-.4.4-.4.4.2.4.4z"/><path d="m6.2 17.5c0 .2-.2.4-.4.4s-.4-.2-.4-.4.2-.4.4-.4c.2-.1.4.1.4.4z"/><path d="m6.1 19.1c0 .2-.2.4-.4.4s-.4-.2-.4-.4.2-.4.4-.4c.2-.1.4.1.4.4z"/><path d="m5 17.8c0 .2-.2.4-.4.4s-.4-.2-.4-.4.2-.4.4-.4c.2-.1.4.1.4.4z"/><path d="m4.1 16.7c0 .2-.2.4-.4.4s-.4-.2-.4-.4.2-.4.4-.4.4.2.4.4z"/><path d="m2.5 16.6c0 .3-.2.4-.5.4-.2 0-.4-.2-.4-.4s.2-.4.4-.4c.3 0 .5.2.5.4z"/><path d="m.9 15.3c0 .2-.2.4-.4.4s-.4-.2-.4-.4.2-.4.4-.4.4.2.4.4z"/><path d="m9.7 17.8c0 .3-.2.5-.5.5s-.5-.2-.5-.5.2-.5.5-.5c.2-.1.5.2.5.5z"/><path d="m10.5 20.2c0 .3-.2.5-.5.5s-.5-.2-.5-.5.2-.5.5-.5.5.2.5.5z"/><path d="m12.2 16.3c0 .3-.2.5-.5.5s-.5-.2-.5-.5.2-.5.5-.5c.2-.1.5.2.5.5z"/><path d="m13.1 14.8c0 .3-.2.5-.5.5s-.5-.2-.5-.5.2-.5.5-.5c.3-.1.5.2.5.5z"/><path d="m15.7 11.4c-.1 0-.1 0-.2.1l.8 3.8c5.4-1.4 15.9 6 15.9 6-8.5-8.3-13-10.6-16.5-9.9z"/></g></svg>