<svg enable-background="new 0 0 52.6 42" viewBox="0 0 52.6 42" xmlns="http://www.w3.org/2000/svg"><path d="m52.5 17.8c-.6-.8-1.5-1.3-2.5-1.3-.5 0-1 .1-1.5.3v-.7c0-.3-.2-.5-.4-.6-.4-.1-1.3-.2-2.1.4-.2.2-.5.4-.7.6-1-9.2-9.1-16.5-19-16.5-9.8 0-18 7.3-19 16.7-.2-.3-.4-.5-.7-.6-.8-.6-1.7-.5-2.1-.4-.3.1-.4.3-.4.6v.7c-.5-.2-1-.3-1.5-.3-1 0-1.9.4-2.5 1.3-.2 0-.1.4.1.6 0 0 3.2 2.8 4.3 4.3.8 1 2.1 3.3 3.9 6.9l.2.2c.2.4 2.2 2.7 3.9 4.7l-.9.4h-.1s-.1.1-.1.1-.1.1-.1.1v.1.1l-.1 4.8c0 .3.2.5.5.6 2.7.7 5.4 1 8.2 1 1.3 0 2.5-.1 3.8-.2h.2c.3 0 .6-.3.5-.7l-.4-3.9c.8.1 1.6.2 2.4.2s1.6-.1 2.4-.2l-.4 3.9c0 .3.2.6.5.7h.2c1.3.1 2.5.2 3.8.2 2.8 0 5.5-.3 8.2-1 .3-.1.5-.3.5-.6l-.1-4.8v-.1-.1s0-.1-.1-.1-.1-.1-.1-.1h-.1l-.9-.4c1.7-1.9 3.7-4.3 3.9-4.7l.1-.3c1.8-3.5 3.2-5.9 3.9-6.9 1.1-1.5 4.3-4.3 4.3-4.3.1-.1.2-.5 0-.7zm-9.6 11.7c-.3.4-3.4 4-5.5 6.4-3.5.5-6.4.1-7.4-.1 0-.2-.1-.5-.1-.7-.2-2.4.5-4.8 2-6.9l1.3-1.7c.7-.3 3.4-1.5 4.6-3.6.5-.8 1-1 1.4-.9.2.1.4.4.3.8-.4 1-1.3 2.2-1.9 2.9 0 0 0 0-.1 0l-1.8 1.7c-.2.2-.2.6 0 .8.1.1.3.2.4.2.2 0 .3-.1.4-.2l1.2-1.2c.5-.1 4.4-1.4 7.6-5.9 1.6-2.3 3.3-3.6 4.7-3.6.4 0 .8.1 1.1.4-.9.8-3.1 2.8-4 4-.8 1.1-2.2 3.5-4.1 7.1zm-33.3-.3c-1.9-3.6-3.2-6-4.1-7.1-.9-1.2-3.1-3.2-4-4 .3-.2.7-.4 1.1-.4 1.4 0 3.1 1.3 4.7 3.6 3.2 4.5 7.1 5.7 7.6 5.9l1.2 1.2c.1.1.3.2.4.2.2 0 .3-.1.4-.2.2-.2.2-.6 0-.8l-1.8-1.7s0 0-.1 0c-.6-.7-1.6-1.9-1.9-2.9-.2-.4 0-.7.3-.8.3-.2.9.1 1.4.9 1.2 2.1 3.9 3.3 4.6 3.6l1.3 1.7c1.6 2 2.3 4.5 2 6.9 0 .3-.1.5-.1.7-1 .2-4 .6-7.4.1-2.1-2.3-5.3-5.9-5.5-6.4zm34.8-10.3c-.1.6-.2 1.2-.2 1.9-.2.2-.3.5-.5.7 0-1.4.4-2.2.7-2.6zm1.2.1c.2-1.2.7-1.7 1-2 .2-.2.5-.2.6-.3v.8c-.4.4-1 .9-1.6 1.5zm-31.7-.3c0-6.7 5.6-12.2 12.4-12.2 6.9 0 12.4 5.5 12.4 12.2 0 .7-.1 1.5-.2 2.2-.6.1-1.3.6-1.8 1.5-.2.4-.6.8-1 1.2.8-1.4 1.2-3.1 1.2-4.8 0-5.8-4.8-10.5-10.7-10.5s-10.7 4.7-10.7 10.5c0 1.8.4 3.4 1.2 4.9-.4-.3-.7-.7-1-1.2-.5-.9-1.2-1.4-1.8-1.5 0-.8 0-1.6 0-2.3zm6.1 2.1v-4.3h4.1v-4h4.4v4h4.1v4.3h-4.1v4h-4.4v-4zm2.4 7.6c1.2.5 2.6.7 4 .7s2.7-.3 4-.7c-.4.7-.8 1.4-1 2.1-.9.2-1.9.3-2.9.3s-2-.1-2.9-.3c-.5-.7-.8-1.4-1.2-2.1zm-13.5-6.9c-.2-.2-.4-.5-.5-.7 0-.7-.1-1.3-.2-1.9.3.4.7 1.2.7 2.6zm-3-4.5c.4.3.8.8 1 2-.6-.6-1.1-1.1-1.7-1.5v-.8c.3.1.5.1.7.3zm20.4-15.8c9.5 0 17.2 7.2 17.8 16.3-.1.1-.2.1-.3.2-1 .9-1.5 2.5-1.4 4.9v.2c-1 1-2 1.7-2.9 2.2.4-.6.7-1.2.9-1.7.3-.9 0-1.9-.8-2.3.1-.8.2-1.5.2-2.3 0-7.4-6.1-13.4-13.7-13.4-7.5 0-13.7 6-13.7 13.4 0 .8.1 1.6.2 2.3-.8.4-1.2 1.4-.8 2.3.2.6.6 1.2 1 1.7-.9-.5-1.9-1.2-2.9-2.2 0-.1 0-.1 0-.2.1-2.4-.3-4-1.4-4.9-.1-.1-.2-.2-.3-.2.9-9.1 8.6-16.3 18.1-16.3zm0 35c-.8 0-1.7-.1-2.5-.2.1-.3.1-.5.1-.9.1-1.1 0-2.2-.2-3.3.8.2 1.7.2 2.5.2.9 0 1.7-.1 2.5-.2-.2 1.1-.3 2.2-.2 3.3 0 .3.1.6.1.9-.6.1-1.5.2-2.3.2z" fill="#aaa9a9"/></svg>