<svg enable-background="new 0 0 51.3 45.1" viewBox="0 0 51.3 45.1" xmlns="http://www.w3.org/2000/svg"><path d="m48.6 41.8h.2l.2-11.1c-.1-1.4.6-7.5.6-7.5.3-1.9 1.8-8 1.8-8v-.1-.1c.1-5-2.1-8.5-2.1-8.5-3-5.3-5.4-6.5-5.4-6.5-2 1.1-4.8 6.2-4.8 6.2-2.4 4.7-6.5 10.4-6.5 10.4-.1.1-7.3 9.9-7.3 9.9-.6.8-5 6.7-5 6.7-2-1.4-4.9-.9-4.9-.9-.9.4-13.9 6.1-13.9 6.1-.8.5-1.4 1.1-1.5 1.9-.1.5.3 1.1.6 1.4 0 0 0 0-.1 0 0 0-.1.4 1 .7.4.1 1.2.3 2.2.5 1.8.5 4.7 1.2 6.7 1.4 0 0 7.4 1 12.6.4 0 0 4.6-.4 7-3 0 0 1.8-2.2 2.4-3.9 0 0 2.5-6.4 4.3-8.7 0 0 3.7-5.2 7.1-7.3.2.1.4.2.6.4 0 0 .6.4 1 1.6l.2 1c.1 1 .4 6.9.6 9.7l.2 9 2.4-.1z" fill="#123241"/></svg>