<svg enable-background="new 0 0 60.9 60.8" viewBox="0 0 60.9 60.8" xmlns="http://www.w3.org/2000/svg"><g fill="#123241"><path d="m3.5 36.7h.2 15.2c.6 0 1.2.4 1.5 1l2.7 6.2 6-20.5c.2-.7.8-1.1 1.5-1.1s1.3.5 1.5 1.2l4.2 15.5 2.4-7.2c.2-.6.8-1.1 1.5-1.1.7 0 1.2.4 1.5 1l2.3 6.2h12.3c1.1-1.7 2-3.6 2.6-5.8 1.9-6.7-.8-19.6-13.5-20.9s-15.4 8.5-15.4 8.5c-.7-5.6-7.1-8.3-7.1-8.3-11.7-3.4-17.5 4.1-20.1 8.2-2.6 4.2-2.9 10.7.2 16.3.1.3.3.6.5.8z"/><path d="m42.9 41c-.7 0-1.2-.4-1.5-1l-1.2-3.1-2.7 8c-.2.7-.8 1.1-1.5 1.1s-1.3-.5-1.5-1.2l-4.1-15.1-5.6 19.3c-.2.6-.8 1.1-1.4 1.1h-.1c-.6 0-1.2-.4-1.5-1l-4-9.3h-12c4.1 4.7 10.3 9.3 12.4 10.9 2.7 2.1 11.3 8 11.3 8 2.6-2.4 8.4-5.6 16-11 3.5-2.5 6.2-4.6 8.3-6.8h-10.9z"/></g></svg>