<svg enable-background="new 0 0 60.9 60.8" viewBox="0 0 60.9 60.8" xmlns="http://www.w3.org/2000/svg"><g fill="#123241"><path d="m15.7 5c1.4-2.3 4.7-6.4 11.1-4.5 0 0 3.5 1.5 3.9 4.6 0 0 1.5-5.4 8.5-4.7s8.5 7.8 7.4 11.5-3.2 5.7-7.4 8.7-7.4 4.7-8.8 6c0 0-4.7-3.2-6.2-4.4s-6.7-5.1-8.4-8.2c-1.7-3.2-1.6-6.7-.1-9z"/><path d="m53.3 18.8s-6 1.1-12.4 6.4c-2.9 2.5-6.1 4.4-12.6 7.1 0 0 .4 2.5 5.5 1.5s7.3-3.3 7.3-3.3-8.6 26-8.9 27.3c0 0-.3.8.4 1 .9.4 1.3-.7 1.3-.7l5.7-12.6s.3-.4.8-.2c.7.2.3.9.3.9l-5.7 13.1s-.4 1.1.4 1.4c.9.3 1.4-.9 1.4-.9l7-13.1s.4-.4.7-.2c.5.2.1.7.1.7l-5.4 12s-.3.9.4 1.1 1.1-.5 1.1-.5l7.3-12.8s.3-.6.8-.3c.5.2 0 1 0 1l-4.6 9.5s-.4.7.5.7c1.1 0 6.2-7.6 8-11 1.7-3.5 6.7-11.9 7.9-17.1 0 0 .8-4.3.2-7.5-.2-.2-1-4.2-7.5-3.5z"/><path d="m7.5 18.8s6 1.1 12.4 6.4c2.9 2.5 6.1 4.4 12.6 7.1 0 0-.4 2.5-5.5 1.5s-7.3-3.3-7.3-3.3 8.6 26 8.9 27.3c0 0 .3.8-.4 1-.9.4-1.3-.7-1.3-.7l-5.7-12.6s-.3-.4-.8-.2c-.7.2-.3.9-.3.9l5.7 13.2s.4 1.1-.4 1.4c-.8.2-1.4-1-1.4-1l-7-13.1s-.4-.4-.7-.2c-.5.2-.1.7-.1.7l5.4 12s.3.9-.4 1.1-1.1-.5-1.1-.5l-7.2-12.8s-.3-.6-.8-.3c-.5.2 0 1 0 1l4.6 9.5s.4.7-.5.7c-1.1 0-6.2-7.6-8-11-1.7-3.5-6.7-11.9-7.9-17.1 0 0-.8-4.3-.2-7.5.2-.2.9-4.2 7.4-3.5z"/></g></svg>