<svg enable-background="new 0 0 41.7 43.9" viewBox="0 0 41.7 43.9" xmlns="http://www.w3.org/2000/svg"><g fill="#aaa9a9"><path d="m21 29.3c.1.1.2.1.4.1.1 0 .3 0 .4-.1.4-.3 9.9-7.1 9.9-12.7 0-3.1-2.6-5.6-5.6-5.6-1.9 0-3.7 1-4.7 2.5-1-1.6-2.8-2.5-4.7-2.5-3.1 0-5.6 2.5-5.6 5.6-.1 5.6 9.4 12.4 9.9 12.7zm-4.4-17.1c1.8 0 3.5 1.2 4.1 2.9.1.3.3.4.6.4s.5-.2.6-.4c.6-1.8 2.2-2.9 4.1-2.9 2.3 0 4.3 1.9 4.3 4.3 0 4.4-7.2 10.1-9 11.4-1.8-1.3-9-7-9-11.4.1-2.4 2-4.3 4.3-4.3z"/><path d="m39.8 32.1c-.5-.3-1.1-.5-1.7-.6l.5-.7c.1-.1.1-.2.1-.3 1.9-3 3-6.6 3-10.5 0-11-9.2-20-20.5-20-11.2 0-20.4 9-20.4 20 0 2.9.7 5.7 1.8 8.2-.7 1.4-3.6 7.5-2.3 15.2 0 .2.1.3.3.4.1.1.2.1.3.1h.2s3-.8 7.8-.7c.3 0 .6-.2.7-.5l.2-.7c6.7-.1 14.5-.4 15.2-.7l.3-.2c4.1-2.3 7-3.7 8.4-4.2 2.1-.7 7-1.4 7-1.4.3 0 .6-.3.6-.7 0-1.1-.5-2-1.5-2.7zm-6.5 3.6c-1.5.5-4.4 1.9-8.6 4.3l-.3.2c-.9.2-9 .5-14.4.6l1.1-6.1 5.9-3.7c1 .2 4.3.7 6.7-.5 1.1-.5 1.7-.3 2 0 .2.3.2.7-.3 1.1-1 .7-2.8 1.3-3.8 1.6h-.1l-2.9.5c-.4.1-.6.4-.5.7s.3.5.6.5h.1l2-.4c.5.1 5.1 1.5 11.2-.9 3.1-1.2 5.6-1.4 7-.5.4.3.7.7.9 1.1-1.4.4-4.8.9-6.6 1.5zm3-5.3c.4 0 .7.1.9.2l-.5.8c-.9 0-1.8.2-2.9.4 1.1-1.1 1.9-1.4 2.5-1.4zm-4.9 2.2c-.4.2-.8.3-1.2.4 1.2-1.6 2.1-2.2 2.8-2.3-.5.5-1 1.1-1.6 1.9zm-10.2-31.3c10.6 0 19.1 8.4 19.1 18.7 0 3.4-1 6.7-2.6 9.4-.4-.2-.9-.4-1.5-.4s-1.2.2-1.7.5c-.4-.2-.9-.3-1.5-.2-1.6.2-3.1 1.5-4.5 3.9 0 .1-.1.1-.1.2-1.8.4-3.4.4-4.6.3.8-.3 1.7-.7 2.3-1.2 1-.7 1.2-1.9.6-2.8s-1.9-1.4-3.7-.5c-2.4 1.2-6.1.3-6.1.3-.2 0-.4 0-.5.1l-5.1 3.1v-.2c0-.3-.1-.5-.3-.7-.1 0-5.2-2.7-7.2-4.2-1.1-2.4-1.8-5-1.8-7.8.1-10.1 8.7-18.5 19.2-18.5z"/></g></svg>