<svg enable-background="new 0 0 187.6 77.5" viewBox="0 0 187.6 77.5" xmlns="http://www.w3.org/2000/svg"><path d="m187.6 69.5c0 4.4-3.6 8-8 8h-171.6c-4.4 0-8-3.6-8-8v-61.5c0-4.4 3.6-8 8-8h171.7c4.4 0 8 3.6 8 8v61.5z" fill="#f2f2f2"/><path d="m186.6 6.8c-.1-.1-.1-.1 0 0l-4.2 2.9-3.7-2.9-4.1 2.9-3.7-2.9-4.1 2.9-3.7-2.9-4.1 2.9-3.7-2.9-4.1 2.9-4.2-3-4.1 2.9-3.7-2.9-4.1 2.9-3.7-2.9-4.4 2.9-3.7-2.9-4.1 2.9-3.7-2.9-4.1 2.9-3.7-2.9-4.1 2.9-3.7-2.9-4.1 2.9-3.7-2.9-4.1 2.9-3.7-2.9-4.1 2.9-3.7-2.9-4.1 2.9-3.7-2.9-4.1 2.9-3.7-2.9-4.1 2.9-4.8-2.9-4.1 2.9-3.7-2.9-4.1 2.9-3.7-2.9-4.4 2.9-3.7-2.9-4.1 2.9-3.7-2.9h-.1v.1l3.6 3 4.1-2.9 3.9 2.9 4.1-2.9 3.7 2.9 4.2-2.9 3.7 2.9 4.3-2.9 3.7 2.9 4.1-2.9 3.7 2.9 4.1-2.9 3.7 2.9 4.1-2.9 3.7 2.9 4.1-2.9 3.7 2.9 4.1-2.9 3.7 2.9 4.1-2.9 3.7 2.9 4.1-2.9 3.7 2.9 4.1-2.9 3.7 2.9 4.1-2.9 3.7 2.9 4.1-2.9 3.7 2.9 4.1-2.9 3.7 2.9 4.1-2.9 3.7 2.9 4.1-2.9 3.7 2.9 4.1-2.9 3.7 2.9 4.1-2.9 3.7 2.9 4.1-2.9 3.7 2.9z" fill="#d5eadc"/><path d="m186.6 7.9c-.1 0-.1 0 0 0l-4.2 2.9-3.7-2.9-4.1 2.9-3.7-2.9-4.1 2.9-3.7-2.9-4.1 2.9-3.7-2.9-4.1 2.9-4.2-2.9-4.1 2.9-3.7-2.9-4.1 2.9-3.7-2.9-4.1 2.9-3.7-2.9-4.1 2.9-3.7-2.9-4.1 2.9-3.7-2.9-4.1 2.9-3.7-2.9-4.1 2.9-3.7-2.9-4.1 2.9-3.7-2.9-4.1 2.9-3.7-2.9-4.1 2.9-3.7-2.9-4.1 2.9-3.7-2.9-4.1 2.9-5.1-2.9-4.1 2.9-3.7-2.9-4.1 2.9-3.7-2.9-4.4 2.9-3.7-2.9-4.1 2.9-3.7-2.9h-.1v.1l3.8 2.9 4.1-2.9 3.7 2.9 4.1-2.9 3.7 2.9 4.2-2.8 3.7 2.9 4.3-2.9 3.7 2.9 4.1-2.9 3.7 2.9 4.1-2.9 3.7 2.9 4.1-2.9 3.7 2.9 4.1-2.9 3.7 2.9 4.1-2.9 3.7 2.9 4.1-2.9 3.7 2.9 4.1-2.9 3.7 2.9 4.1-2.9 3.7 2.9 4.1-2.9 3.7 2.9 4.1-2.9 3.7 2.9 4.1-2.9 3.7 2.9 4.1-2.9 3.7 2.9 4.1-2.9 3.7 2.9 4.1-2.9 3.7 2.9 4.1-2.9 3.7 2.9 4.1-2.9 3.7 2.9 6.1-3.1c0 .1 0 .1 0 0z" fill="#d5eadc"/><path d="m186.6 9.1c-.1 0-.1 0 0 0l-4.2 2.9-3.7-2.9-4.1 2.9-3.7-2.9-4.1 2.9-3.7-2.9-4.1 2.9-3.7-2.9-4.1 2.9-4.2-2.9-4.1 2.9-3.7-2.9-4.1 2.9-3.7-2.9-4.4 2.9-3.7-2.9-4.1 2.9-3.7-2.9-4.1 2.9-3.7-2.9-4.1 2.9-3.7-2.9-4.6 2.9-3.7-2.9-4.2 2.9-3.7-2.9-4.2 2.9-3.7-2.9-4.2 2.9-3.7-2.9-4.2 2.9-3.7-2.9-4.3 2.9-3.7-2.9-4.2 2.9-3.7-2.9-4.2 2.9-3.7-2.9-4.2 2.9-3.7-2.9-4.2 2.9-3.7-2.9h-.1v.1l3.8 2.9 4.1-2.9 3.7 2.9 4.1-2.9 3.7 2.9 4.3-2.9 3.7 2.9 4.3-2.9 3.7 2.9 4.1-2.9 3.7 2.9 4.1-2.9 3.7 2.9 4.1-2.9 3.7 2.9 4.1-2.9 3.7 2.9 4.1-2.9 3.7 2.9 4.1-2.9 3.7 2.9 4.1-2.9 3.7 2.9 4.1-2.9 3.7 2.9 4.1-2.9 3.7 2.9 4.1-2.9 3.7 2.9 4.1-2.9 3.7 2.9 4.1-2.9 3.7 2.9 4.1-2.9 3.7 2.9 4.1-2.9 3.7 2.9 4.1-2.9 3.7 2.9 4.1-2.9 3.7 2.9 6.1-3c0 .1 0 .1 0 0z" fill="#d5eadc"/><path d="m186.6 10.3c-.1 0-.1 0 0 0l-4.2 2.9-3.7-2.9-4.1 2.9-3.7-2.9-4.1 2.9-3.7-2.9-4.1 2.9-3.7-2.9-4.1 2.9-3.7-2.9-4.1 2.9-3.7-2.9-4.1 2.9-3.7-2.9-4.1 2.9-3.7-2.9-4.1 2.9-3.7-2.9-4.1 2.9-3.7-2.9-4.1 2.9-3.7-2.9-4.1 2.9-3.7-2.9-4.1 2.9-3.7-2.9-4.1 2.9-3.7-2.9-4.1 2.9-3.7-2.9-4.1 2.9-3.7-2.9-4.1 2.9-5.6-2.9-4.1 2.9-3.7-2.9-4.1 2.9-3.7-2.9-4.4 2.9-3.7-2.9-4.1 2.9-3.7-2.9h-.1v.1l3.8 2.9 4.1-2.9 3.7 2.9 4.1-2.9 3.7 2.9 4.1-2.9 3.7 2.9 4.1-2.9 3.7 2.9 4.1-2.9 3.7 2.9 4.1-2.9 3.7 2.9 4.1-2.9 3.7 2.9 4.1-2.9 3.7 2.9 4.1-2.9 3.7 2.9 4.1-2.9 3.7 2.9 4.1-2.9 3.7 2.9 4.1-2.9 3.7 2.9 4.1-2.9 3.7 2.9 4.1-2.9 3.7 2.9 4.1-2.9 3.7 2.9 4.1-2.9 3.7 2.9 4.1-2.9 3.7 2.9 4.1-2.9 3.7 2.9 4.1-2.9 3.7 2.9 4.1-2.9 3.7 2.9z" fill="#d5eadc"/><path d="m186.6 11.5c-.1-.1-.1-.1 0 0l-4.2 2.9-3.7-2.9-4.1 2.9-3.7-2.9-4.1 2.9-3.7-2.9-4.1 2.9-3.7-2.9-4.1 2.9-3.7-2.9-4.1 2.9-3.7-2.9-4.1 2.9-3.7-2.9-4.1 2.9-3.7-2.9-4.1 2.9-3.7-2.9-4.1 2.9-3.7-2.9-4.1 2.9-3.7-2.9-4.1 2.9-3.7-2.9-4.1 2.9-3.7-2.9-4.1 2.9-3.7-2.9-4.1 2.9-3.7-2.9-4.1 2.9-3.7-2.9-4.1 2.9-5.6-2.9-4.1 2.9-3.7-2.9-4.1 2.9-3.7-2.9-4.4 2.8-3.7-2.9-4.1 2.9-3.7-2.9h-.1v.1l3.8 2.9 4.1-2.9 3.7 2.9 4.1-2.9 3.7 2.9 4.1-2.9 3.7 2.9 4.1-2.9 3.7 2.9 4.1-2.9 3.7 2.9 4.1-2.9 3.7 2.9 4.1-2.9 3.7 2.9 4.1-2.9 3.7 2.9 4.1-2.9 3.7 2.9 4.1-2.9 3.7 2.9 4.1-2.9 3.7 2.9 4.1-2.9 3.7 2.9 4.1-2.9 3.7 2.9 4.1-2.9 3.7 2.9 4.1-2.9 3.7 2.9 4.1-2.9 3.7 2.9 4.1-2.9 3.7 2.9 4.1-2.9 3.7 2.9 4.1-2.9 3.7 2.9 4.1-2.9 3.7 2.9z" fill="#d5eadc"/><path d="m186.6 12.7c-.1-.1-.1-.1 0 0l-4.2 2.9-3.7-2.9-4.1 2.9-3.7-2.9-4.1 2.9-3.7-2.9-4.1 2.9-3.7-2.9-4.1 2.9-3.7-2.9-4.1 2.9-3.7-2.9-4.1 2.9-3.7-2.9-4.1 2.9-3.7-2.9-4.1 2.9-3.7-2.9-4.1 2.9-3.7-2.9-4.1 2.9-3.7-2.9-4.1 2.9-3.7-2.9-4.1 2.9-3.7-2.9-4.1 2.9-3.7-2.9-4.1 2.9-3.7-2.9-4.1 2.9-3.7-2.9-4.1 2.9-5.6-3-4.1 2.9-3.7-2.9-4.1 2.9-3.7-2.9-4.4 2.9-3.7-2.9-4.1 2.9-3.7-2.9h-.1v.1l3.8 2.9 4.1-2.9 3.7 2.9 4.1-2.9 3.7 2.9 4.1-2.9 3.7 2.9 4.1-2.9 3.7 2.9 4.1-2.9 3.7 2.9 4.1-2.9 3.7 2.9 4.1-2.9 3.7 2.9 4.1-2.9 3.7 2.9 4.1-2.9 3.7 2.9 4.1-2.9 3.7 2.9 4.1-2.9 3.7 2.9 4.1-2.9 3.7 2.9 4.1-2.9 3.7 2.9 4.1-2.9 3.7 2.9 4.1-2.9 3.7 2.9 4.1-2.9 3.7 2.9 4.1-2.9 3.7 2.9 4.1-2.9 3.7 2.9 4.1-2.9 3.7 2.9 4.1-2.9 3.7 2.9z" fill="#d5eadc"/><path d="m186.6 13.8c-.1 0-.1 0 0 0l-4.2 2.9-3.7-2.9-4.1 2.9-3.7-2.9-4.1 2.9-3.7-2.9-4.1 2.9-3.7-2.9-4.1 2.9-3.7-2.9-4.1 2.9-3.7-2.9-4.1 2.9-3.7-2.9-4.1 2.9-3.7-2.9-4.1 2.9-3.7-2.9-4.1 2.9-3.7-2.9-4.1 2.9-3.7-2.9-4.1 2.9-3.7-2.9-4.1 2.9-3.7-2.9-4.1 2.9-3.7-2.9-4.1 2.9-3.7-2.9-4.1 2.9-3.7-2.9-4.1 2.9-5.6-2.9-4.1 2.9-3.7-2.9-4.1 2.9-3.7-2.9-4.4 2.9-3.7-2.9-4.1 2.9-3.7-2.9h-.1v.1l3.8 2.9 4.1-2.9 3.7 2.9 4.1-2.9 3.7 2.9 4.2-2.8 3.7 2.9 4.3-2.9 3.7 2.9 4.1-2.9 3.7 2.9 4.1-2.9 3.7 2.9 4.1-2.9 3.7 2.9 4.1-2.9 3.7 2.9 4.1-2.9 3.7 2.9 4.1-2.9 3.7 2.9 4.1-2.9 3.7 2.9 4.1-2.9 3.7 2.9 4.1-2.9 3.7 2.9 4.1-2.9 3.7 2.9 5.3-2.9 3.7 2.9 4.1-2.9 3.7 2.9 4.1-2.9 3.7 2.9 4.1-2.9 3.7 2.9 4.1-2.9 3.7 2.9 4.1-2.9 3.7 2.9 4.9-3.1c0 .1 0 .1 0 0z" fill="#d5eadc"/><path d="m186.6 15c-.1 0-.1 0 0 0l-4.2 2.9-3.7-2.9-4.1 2.9-3.7-2.9-4.1 2.9-3.7-2.9-4.1 2.9-3.7-2.9-4.1 2.9-4.2-2.9-4.1 2.9-3.7-2.9-4.1 2.9-3.7-2.9-4.1 2.9-3.7-2.9-4.1 2.9-3.7-2.9-4.1 2.9-3.7-2.9-4.1 2.9-4.4-2.9-4.1 2.9-3.8-2.9-4.1 2.9-3.8-2.9-4.1 2.9-3.9-2.9-4.1 2.9-3.8-2.9-4.1 2.9-3.8-2.9-4.1 2.9-3.8-2.9-4.1 2.9-3.8-2.9-4.1 2.9-3.8-2.9-4.2 2.9-3.7-2.9-4.1 2.9-3.9-2.9h-.1v.1l3.8 2.9 4.1-2.9 3.9 2.9 4.1-2.9 3.7 2.9 4.1-2.9 3.7 2.9 4.1-2.9 3.7 2.9 4.1-2.9 3.7 2.9 4.1-2.9 3.7 2.9 4.1-2.9 3.7 2.9 4.1-2.9 3.7 2.9 4.1-2.9 3.7 2.9 4.1-2.9 3.7 2.9 4.1-2.9 3.7 2.9 4.1-2.9 4.9 2.9 4.1-2.9 3.7 2.9 4.1-2.9 3.7 2.9 4.1-2.9 3.7 2.9 4.1-2.9 3.7 2.9 4.1-2.9 3.7 2.9 4.1-2.9 3.7 2.9 4.1-2.9 3.7 2.9 4.1-2.9 3.7 2.9z" fill="#d5eadc"/><path d="m186.6 16.2c-.1 0-.1-.1 0 0l-4.2 2.9-3.7-2.9-4.1 2.9-3.7-2.9-4.1 2.9-3.7-2.9-4.1 2.9-3.7-2.9-4.1 2.9-3.7-2.9-4.1 2.9-3.7-2.9-4.1 2.9-3.7-2.9-4.9 2.8-3.7-2.9-4.1 2.9-3.7-2.9-4.1 2.9-3.7-2.9-4.1 2.9-3.7-2.9-4.6 2.9-3.7-2.9-4.2 2.9-3.7-2.9-4.2 2.9-3.7-2.9-4.2 2.9-3.7-2.9-4.2 2.9-3.7-2.9-4.3 2.9-3.7-2.8-4.2 2.8-3.7-2.9-4.2 2.9-3.7-2.9-4.2 2.9-3.7-2.9-4.2 2.9-3.7-2.9h-.1v.1l3.8 2.9 4.1-2.9 3.7 2.9 4.1-2.9 3.7 2.9 4.1-2.9 3.7 2.9 4.1-2.9 3.7 2.9 4.1-2.9 3.7 2.9 4.1-2.9 3.7 2.9 4.1-2.9 3.7 2.9 4.1-2.9 3.7 2.9 4.1-2.9 3.7 2.9 4.1-2.9 3.7 2.9 4.1-2.9 3.7 2.9 4.1-2.9 3.7 2.9 4.1-2.9 3.7 2.9 4.1-2.9 3.7 2.9 4.1-2.9 3.7 2.9 4.1-2.9 3.7 2.9 4.1-2.9 3.7 2.9 4.1-2.9 3.7 2.9 4.1-2.9 3.7 2.9 4.1-2.9 3.7 2.9z" fill="#d5eadc"/><path d="m186.6 17.4c-.1-.1-.1-.1 0 0l-4.2 2.9-3.7-2.9-4.1 2.9-3.7-2.9-4.1 2.9-3.7-2.9-4.1 2.9-3.7-2.9-4.1 2.9-3.7-2.9-4.1 2.9-3.7-2.9-4.1 2.9-3.7-2.9-4.1 2.9-3.7-2.9-4.1 2.9-3.7-2.9-4.1 2.9-3.7-2.9-4.1 2.9-3.7-2.9-4.1 2.9-3.7-2.9-4.1 2.9-3.7-2.9-4.1 2.9-3.7-2.9-4.1 2.9-3.7-2.9-4.1 2.9-3.7-2.9-4.1 2.9-5.6-3-4.1 2.9-3.7-2.9-4.1 2.9-3.7-2.9-4.4 2.9-3.7-2.9-4.1 2.9-3.7-2.9h-.1v.1l3.8 2.9 4.1-2.9 3.7 2.9 4.1-2.9 3.7 2.9 4.1-2.9 3.7 2.9 4.1-2.9 3.7 2.9 4.1-2.9 3.7 2.9 4.1-2.9 3.7 2.9 4.1-2.9 3.7 2.9 4.1-2.9 3.7 2.9 4.1-2.9 3.7 2.9 4.1-2.9 3.7 2.9 4.1-2.9 3.7 2.9 4.1-2.9 3.7 2.9 4.1-2.9 3.7 2.9 4.1-2.9 3.7 2.9 4.1-2.9 3.7 2.9 4.1-2.9 3.7 2.9 4.1-2.9 3.7 2.9 4.1-2.9 3.7 2.9 4.1-2.9 3.7 2.9 4.1-2.9 3.7 2.9z" fill="#d5eadc"/><path d="m186.6 18.5c-.1 0-.1 0 0 0l-4.2 2.9-3.7-2.9-4.1 2.9-3.7-2.9-4.1 2.9-3.7-2.9-4.1 2.9-3.7-2.9-4.1 2.9-3.7-2.9-4.1 2.9-3.7-2.9-4.1 2.9-3.7-2.9-4.1 2.9-3.7-2.9-4.1 2.9-3.7-2.9-4.1 2.9-3.7-2.9-4.1 2.9-3.7-2.9-4.1 2.9-3.7-2.9-4.1 2.9-3.7-2.9-4.1 2.9-3.7-2.9-4.1 2.9-3.7-2.9-4.1 2.9-3.7-2.9-4.1 2.9-5.6-2.9-4.1 2.9-3.7-2.9-4.1 2.9-3.7-2.9-4.4 2.9-3.7-2.9-4.1 2.9-3.7-2.9h-.1v.1l3.8 2.9 4.1-2.9 3.7 2.9 4.1-2.9 3.7 2.9 4.1-2.9 3.7 2.9 4.1-2.9 3.7 2.9 4.1-2.9 3.7 2.9 4.1-2.9 3.7 2.9 4.1-2.9 3.7 2.9 4.1-2.9 3.7 2.9 4.1-2.9 3.7 2.9 4.1-2.9 3.7 2.9 4.1-2.9 3.7 2.9 4.1-2.9 3.7 2.9 4.1-2.9 3.7 2.9 4.1-2.9 3.7 2.9 4.1-2.9 3.7 2.9 4.1-2.9 3.7 2.9 4.1-2.9 3.7 2.9 4.1-2.9 3.7 2.9 4.1-2.9 3.7 2.9 4.1-2.9 3.7 2.9 6.4-3c0 .1 0 .1 0 0z" fill="#d5eadc"/><path d="m186.6 19.7c-.1 0-.1 0 0 0l-4.2 2.9-3.7-2.9-4.1 2.9-3.7-2.9-4.1 2.9-3.7-2.9-4.1 2.9-3.7-2.9-4.1 2.9-3.7-2.9-4.1 2.9-3.7-2.9-4.1 2.9-3.7-2.9-4.1 2.9-3.7-2.9-4.1 2.9-3.7-2.9-4.1 2.9-3.7-2.9-4.1 2.9-3.7-2.9-4.1 2.9-3.7-2.9-4.1 2.9-3.7-2.9-4.1 2.9-3.7-2.9-4.1 2.9-3.7-2.9-4.1 2.9-3.7-2.9-4.1 2.9-5.6-2.9-4.1 2.9-3.7-2.9-4.1 2.9-3.7-2.9-4.4 2.9-3.7-2.9-4.1 2.9-3.7-2.9h-.1v.1l3.8 2.9 4.1-2.9 3.7 2.9 4.1-2.9 3.7 2.9 4.1-2.9 3.7 2.9 4.1-2.9 3.7 2.9 4.1-2.9 3.7 2.9 4.1-2.9 3.7 2.9 4.1-2.9 3.7 2.9 4.1-2.9 3.7 2.9 4.1-2.9 3.7 2.9 4.1-2.9 3.7 2.9 4.1-2.9 3.7 2.9 4.1-2.9 3.7 2.9 4.1-2.9 3.7 2.9 4.1-2.9 3.7 2.9 4.1-2.9 3.7 2.9 4.1-2.9 3.7 2.9 4.1-2.9 3.7 2.9 4.1-2.9 3.7 2.9 4.1-2.9 3.7 2.9 4.1-2.9 3.7 2.9z" fill="#d5eadc"/><path d="m186.6 20.9c-.1 0-.1 0 0 0l-4.2 2.9-3.7-2.9-4.1 2.9-3.7-2.9-4.1 2.9-3.7-2.9-4.1 2.9-3.7-2.9-4.1 2.9-3.7-2.9-4.1 2.9-3.7-2.9-4.1 2.9-3.7-2.9-4.1 2.9-3.7-2.9-4.1 2.9-3.7-2.9-4.1 2.9-3.7-2.9-4.1 2.9-3.7-2.9-4.1 2.9-3.7-2.9-4.1 2.9-3.7-2.9-4.1 2.9-3.7-2.9-4.1 2.9-3.7-2.9-4.1 2.9-3.7-2.9-4.1 2.9-5.6-2.9-4.1 2.9-3.7-2.9-4.1 2.9-3.7-2.9-4.4 2.9-3.7-2.9-4.1 2.9-3.7-2.9h-.1v.1l3.8 2.9 4.1-2.9 3.7 2.9 4.1-2.9 3.7 2.9 4.2-2.9 3.7 2.9 4.3-2.9 3.7 2.9 4.1-2.9 3.7 2.9 4.1-2.9 3.7 2.9 4.1-2.9 3.7 2.9 4.1-2.9 3.7 2.9 4.1-2.9 3.7 2.9 4.1-2.9 3.7 2.9 4.1-2.9 3.7 2.9 4.1-2.9 3.7 2.9 4.1-2.9 3.7 2.9 4.1-2.9 3.7 2.9 5.3-2.9 3.7 2.9 4.1-2.9 3.7 2.9 4.1-2.9 3.7 2.9 4.1-2.9 3.7 2.9 4.1-2.9 3.7 2.9 4.1-2.9 3.7 2.9z" fill="#d5eadc"/><path d="m186.6 22.1c-.1-.1-.1-.1 0 0l-4.2 2.9-3.7-2.9-4.1 2.9-3.7-2.9-4.1 2.9-3.7-2.9-4.1 2.9-3.7-2.9-4.1 2.9-3.7-2.9-4.1 2.9-3.7-2.9-4.1 2.9-3.7-2.9-4.1 2.9-3.7-2.9-4.1 2.9-3.7-2.9-4.1 2.9-3.7-2.9-4.1 2.9-3.7-2.9-4.1 2.9-3.7-2.9-4.1 2.9-3.7-2.9-4.1 2.9-3.7-2.9-4.1 2.9-3.7-2.9-4.1 2.9-3.7-2.9-4.1 2.9-5.6-2.9-4.1 2.9-3.7-2.9-4.1 2.9-3.7-2.9-4.4 2.8-3.7-2.9-4.1 2.9-3.7-2.9h-.1v.1l3.8 2.9 4.1-2.9 3.7 2.9 4.1-2.9 3.7 2.9 4.1-2.9 3.7 2.9 4.1-2.9 3.7 2.9 4.1-2.9 3.7 2.9 4.1-2.9 3.7 2.9 4.1-2.9 3.7 2.9 4.1-2.9 3.7 2.9 4.1-2.9 3.7 2.9 4.1-2.9 3.7 2.9 4.1-2.9 3.7 2.9 4.1-2.9 3.7 2.9 4.1-2.9 3.7 2.9 4.1-2.9 3.7 2.9 4.1-2.9 3.7 2.9 4.1-2.9 3.7 2.9 4.1-2.9 3.7 2.9 4.1-2.9 3.7 2.9 4.1-2.9 3.7 2.9 4.1-2.9 3.7 2.9z" fill="#d5eadc"/><path d="m186.6 23.3c-.1-.1-.1-.1 0 0l-4.2 2.9-3.7-2.9-4.1 2.9-3.7-2.9-4.1 2.9-3.7-2.9-4.1 2.9-3.7-2.9-4.1 2.9-3.7-2.9-4.1 2.9-3.7-2.9-4.1 2.9-3.7-2.9-4.1 2.9-3.7-2.9-4.1 2.9-3.7-2.9-4.1 2.9-3.7-2.9-4.1 2.9-3.7-2.9-4.1 2.9-3.7-2.9-4.1 2.9-3.7-2.9-4.1 2.9-3.7-2.9-4.1 2.9-3.7-2.9-4.1 2.9-3.7-2.9-4.1 2.9-5.6-3-4.1 2.9-3.7-2.9-4.1 2.9-3.7-2.9-4.4 2.9-3.7-2.9-4.1 2.9-3.7-2.9h-.1v.1l3.8 2.9 4.1-2.9 3.7 2.9 4.1-2.9 3.7 2.9 4.1-2.9 3.7 2.9 4.1-2.9 3.7 2.9 4.1-2.9 3.7 2.9 4.1-2.9 3.7 2.9 4.1-2.9 3.7 2.9 4.1-2.9 3.7 2.9 4.1-2.9 3.7 2.9 4.1-2.9 3.7 2.9 4.1-2.9 3.7 2.9 4.1-2.9 3.7 2.9 4.1-2.9 3.7 2.9 4.1-2.9 3.7 2.9 4.1-2.9 3.7 2.9 4.1-2.9 3.7 2.9 4.1-2.9 3.7 2.9 4.1-2.9 3.7 2.9 4.1-2.9 3.7 2.9 4.1-2.9 3.7 2.9z" fill="#d5eadc"/><path d="m186.6 24.4c-.1 0-.1 0 0 0l-4.2 2.9-3.7-2.9-4.1 2.9-3.7-2.9-4.1 2.9-3.7-2.9-4.1 2.9-3.7-2.9-4.1 2.9-3.7-2.9-4.1 2.9-3.7-2.9-4.1 2.9-3.7-2.9-4.1 2.9-3.7-2.9-4.1 2.9-3.7-2.9-4.1 2.9-3.7-2.9-4.1 2.9-3.7-2.9-4.1 2.9-3.7-2.9-4.1 2.9-3.7-2.9-4.1 2.9-3.7-2.9-4.1 2.9-3.7-2.9-4.1 2.9-3.7-2.9-4.1 2.9-5.6-2.9-4.1 2.9-3.7-2.9-4.1 2.9-3.7-2.9-4.4 2.9-3.7-2.9-4.1 2.9-3.7-2.9h-.1v.1l3.8 2.9 4.1-2.9 3.7 2.9 4.1-2.9 3.7 2.9 4.1-2.9 3.7 2.9 4.1-2.9 3.7 2.9 4.1-2.9 3.7 2.9 4.1-2.9 3.7 2.9 4.1-2.9 3.7 2.9 4.1-2.9 3.7 2.9 4.1-2.9 3.7 2.9 4.1-2.9 3.7 2.9 4.1-2.9 3.7 2.9 4.1-2.9 3.7 2.9 4.1-2.9 3.7 2.9 4.1-2.9 3.7 2.9 4.1-2.9 3.7 2.9 4.1-2.9 3.7 2.9 4.1-2.9 3.7 2.9 4.1-2.9 3.7 2.9 4.1-2.9 3.7 2.9 4.1-2.9 3.7 2.9 6.4-3c0 .1 0 .1 0 0z" fill="#d5eadc"/><path d="m186.6 25.6c-.1 0-.1 0 0 0l-4.2 2.9-3.7-2.9-4.1 2.9-3.7-2.9-4.1 2.9-3.7-2.9-4.1 2.9-3.7-2.9-4.1 2.9-3.7-2.9-4.1 2.9-3.7-2.9-4.1 2.9-3.7-2.9-4.1 2.9-3.7-2.9-4.1 2.9-3.7-2.9-4.1 2.9-3.7-2.9-4.1 2.9-3.7-2.9-4.1 2.9-3.7-2.9-4.1 2.9-3.7-2.9-4.1 2.9-3.7-2.9-4.1 2.9-3.7-2.9-4.1 2.9-3.7-2.9-4.1 2.9-5.6-2.9-4.1 2.9-3.7-2.9-4.1 2.9-3.7-2.9-4.4 2.9-3.7-2.9-4.1 2.9-3.7-2.9h-.1v.1l3.8 2.9 4.1-2.9 3.7 2.9 4.1-2.9 3.7 2.9 4.1-2.9 3.7 2.9 4.1-2.9 3.7 2.9 4.1-2.9 3.7 2.9 4.1-2.9 3.7 2.9 4.1-2.9 3.7 2.9 4.1-2.9 3.7 2.9 4.1-2.9 3.7 2.9 4.1-2.9 3.7 2.9 4.1-2.9 3.7 2.9 4.1-2.9 3.7 2.9 4.1-2.9 3.7 2.9 4.1-2.9 3.7 2.9 4.1-2.9 3.7 2.9 4.1-2.9 3.7 2.9 4.1-2.9 3.7 2.9 4.1-2.9 3.7 2.9 4.1-2.9 3.7 2.9 4.1-2.9 3.7 2.9z" fill="#d5eadc"/><path d="m186.6 26.8c-.1 0-.1-.1 0 0l-4.2 2.9-3.7-2.9-4.1 2.9-3.7-2.9-4.1 2.9-3.7-2.9-4.1 2.9-3.7-2.9-4.1 2.9-3.7-2.9-4.1 2.9-3.7-2.9-4.1 2.9-3.7-2.9-4.1 2.9-3.7-2.9-4.1 2.9-3.7-2.9-4.1 2.9-3.7-2.9-4.1 2.9-3.7-2.9-4.1 2.9-3.7-2.9-4.1 2.9-3.7-2.9-4.1 2.9-3.7-2.9-4.1 2.9-3.7-2.9-4.1 2.9-3.7-2.9-4.1 2.9-5.6-2.9-4.1 2.9-3.7-2.9-4.1 2.9-3.7-2.9-4.4 2.8-3.7-2.9-4.1 2.9-3.7-2.9h-.1v.1l3.8 2.9 4.1-2.9 3.7 2.9 4.1-2.9 3.7 2.9 4.1-2.9 3.7 2.9 4.1-2.9 3.7 2.9 4.1-2.9 3.7 2.9 4.1-2.9 3.7 2.9 4.1-2.9 3.7 2.9 4.1-2.9 3.7 2.9 4.1-2.9 3.7 2.9 4.1-2.9 3.7 2.9 4.1-2.9 3.7 2.9 4.1-2.9 3.7 2.9 4.1-2.9 3.7 2.9 4.1-2.9 3.7 2.9 4.1-2.9 3.7 2.9 4.1-2.9 3.7 2.9 4.1-2.9 3.7 2.9 4.1-2.9 3.7 2.9 4.1-2.9 3.7 2.9 4.1-2.9 3.7 2.9z" fill="#d5eadc"/><path d="m186.6 28c-.1-.1-.1-.1 0 0l-4.2 2.9-3.7-2.9-4.1 2.9-3.7-2.9-4.1 2.9-3.7-2.9-4.1 2.9-3.7-2.9-4.1 2.9-3.7-2.9-4.1 2.9-3.7-2.9-4.1 2.9-3.7-2.9-4.1 2.9-3.7-2.9-4.1 2.9-3.7-2.9-4.1 2.9-3.7-2.9-4.1 2.9-3.7-2.9-4.1 2.9-3.7-2.9-4.1 2.9-3.7-2.9-4.1 2.9-3.7-2.9-4.1 2.9-3.7-2.9-4.1 2.9-3.7-2.9-4.1 2.9-5.6-3-4.1 2.9-3.7-2.9-4.1 2.9-3.7-2.9-4.4 2.9-3.7-2.9-4.1 2.9-3.7-2.9h-.1v.1l3.6 3 4.1-2.9 3.9 2.9 4.1-2.9 3.7 2.9 4.1-2.9 3.7 2.9 4.1-2.9 3.7 2.9 4.1-2.9 3.7 2.9 4.1-2.9 3.7 2.9 4.1-2.9 3.7 2.9 4.1-2.9 3.7 2.9 4.1-2.9 3.7 2.9 4.1-2.9 3.7 2.9 4.1-2.9 3.7 2.9 4.1-2.9 4.9 2.9 4.1-2.9 3.7 2.9 4.1-2.9 3.7 2.9 4.1-2.9 3.7 2.9 4.1-2.9 3.7 2.9 4.1-2.9 3.7 2.9 4.1-2.9 3.7 2.9 4.1-2.9 3.7 2.9 4.1-2.9 3.7 2.9z" fill="#d5eadc"/><path d="m186.6 29.1c-.1 0-.1 0 0 0l-4.2 2.9-3.7-2.9-4.1 2.9-3.7-2.9-4.1 2.9-3.7-2.9-4.1 2.9-3.7-2.9-4.1 2.9-3.7-2.9-4.1 2.9-3.7-2.9-4.1 2.9-3.7-2.9-4.9 2.9-3.7-2.9-4.1 2.9-3.7-2.9-4.1 2.9-3.7-2.9-4.1 2.9-3.7-2.9-4.6 2.9-3.7-2.9-4.2 2.9-3.7-2.9-4.2 2.9-3.7-2.9-4.2 2.9-3.7-2.9-4.2 2.9-3.7-2.9-4.3 2.9-3.7-2.9-4.2 2.9-3.7-2.9-4.2 2.9-3.7-2.9-4.2 2.9-3.7-2.9-4.2 2.9-3.7-2.9h-.1v.1l3.8 2.9 4.1-2.9 3.7 2.9 4.1-2.9 3.7 2.9 4.1-2.9 3.7 2.9 4.1-2.9 3.7 2.9 4.1-2.9 3.7 2.9 4.1-2.9 3.7 2.9 4.1-2.9 3.7 2.9 4.1-2.9 3.7 2.9 4.1-2.9 3.7 2.9 4.1-2.9 3.7 2.9 4.1-2.9 3.7 2.9 4.1-2.9 3.7 2.9 4.1-2.9 3.7 2.9 4.1-2.9 3.7 2.9 4.1-2.9 3.7 2.9 4.1-2.9 3.7 2.9 4.1-2.9 3.7 2.9 4.1-2.9 3.7 2.9 4.1-2.9 3.7 2.9 4.1-2.9 3.7 2.9 6.5-3c0 .1 0 .1 0 0z" fill="#d5eadc"/><path d="m186.6 30.3c-.1 0-.1 0 0 0l-4.2 2.9-3.7-2.9-4.1 2.9-3.7-2.9-4.1 2.9-3.7-2.9-4.1 2.9-3.7-2.9-4.1 2.9-3.7-2.9-4.1 2.9-3.7-2.9-4.1 2.9-3.7-2.9-4.1 2.9-3.7-2.9-4.1 2.9-3.7-2.9-4.1 2.9-3.7-2.9-4.1 2.9-3.7-2.9-4.1 2.9-3.7-2.9-4.1 2.9-3.7-2.9-4.1 2.9-3.7-2.9-4.1 2.9-3.7-2.9-4.1 2.9-3.7-2.9-4.1 2.9-5.6-2.9-4.1 2.9-3.7-2.9-4.1 2.9-3.7-2.9-4.4 2.9-3.7-2.9-4.1 2.9-3.7-2.9h-.1v.1l3.8 2.9 4.1-2.9 3.7 2.9 4.1-2.9 3.7 2.9 4.1-2.9 3.7 2.9 4.1-2.9 3.7 2.9 4.1-2.9 3.7 2.9 4.1-2.9 3.7 2.9 4.1-2.9 3.7 2.9 4.1-2.9 3.7 2.9 4.1-2.9 3.7 2.9 4.1-2.9 3.7 2.9 4.1-2.9 3.7 2.9 4.1-2.9 3.7 2.9 4.1-2.9 3.7 2.9 4.1-2.9 3.7 2.9 4.1-2.9 3.7 2.9 4.1-2.9 3.7 2.9 4.1-2.9 3.7 2.9 4.1-2.9 3.7 2.9 4.1-2.9 3.7 2.9 4.1-2.9 3.7 2.9z" fill="#d5eadc"/><path d="m186.6 31.5c-.1 0-.1 0 0 0l-4.2 2.9-3.7-2.9-4.1 2.9-3.7-2.9-4.1 2.9-3.7-2.9-4.1 2.9-3.7-2.9-4.1 2.9-3.7-2.9-4.1 2.9-3.7-2.9-4.1 2.9-3.7-2.9-4.1 2.9-3.7-2.9-4.1 2.9-3.7-2.9-4.1 2.9-3.7-2.9-4.1 2.9-3.7-2.9-4.1 2.9-3.7-2.9-4.1 2.9-3.7-2.9-4.1 2.9-3.7-2.9-4.1 2.9-3.7-2.9-4.1 2.9-3.7-2.9-4.1 2.9-5.6-2.9-4.1 2.9-3.7-2.9-4.1 2.9-3.7-2.9-4.4 2.9-3.7-2.9-4.1 2.9-3.7-2.9h-.1v.1l3.8 2.9 4.1-2.9 3.7 2.9 4.1-2.9 3.7 2.9 4.1-2.9 3.7 2.9 4.1-2.9 3.7 2.9 4.1-2.9 3.7 2.9 4.1-2.9 3.7 2.9 4.1-2.9 3.7 2.9 4.1-2.9 3.7 2.9 4.1-2.9 3.7 2.9 4.1-2.9 3.7 2.9 4.1-2.9 3.7 2.9 4.1-2.9 3.7 2.9 4.1-2.9 3.7 2.9 4.1-2.9 3.7 2.9 4.1-2.9 3.7 2.9 4.1-2.9 3.7 2.9 4.1-2.9 3.7 2.9 4.1-2.9 3.7 2.9 4.1-2.9 3.7 2.9 4.1-2.9 3.7 2.9z" fill="#d5eadc"/><path d="m186.6 32.7c-.1-.1-.1-.1 0 0l-4.2 2.9-3.7-2.9-4.1 2.9-3.7-2.9-4.1 2.9-3.7-2.9-4.1 2.9-3.7-2.9-4.1 2.9-3.7-2.9-4.1 2.9-3.7-2.9-4.1 2.9-3.7-2.9-4.1 2.9-3.7-2.9-4.1 2.9-3.7-2.9-4.1 2.9-3.7-2.9-4.1 2.9-3.7-2.9-4.1 2.9-3.7-2.9-4.1 2.9-3.7-2.9-4.1 2.9-3.7-2.9-4.1 2.9-3.7-2.9-4.1 2.9-3.7-2.9-4.1 2.9-5.6-2.9-4.1 2.9-3.7-2.9-4.1 2.9-3.7-2.9-4.4 2.8-3.7-2.9-4.1 2.9-3.7-2.9h-.1v.1l3.8 2.9 4.1-2.9 3.7 2.9 4.1-2.9 3.7 2.9 4.1-2.9 3.7 2.9 4.1-2.9 3.7 2.9 4.1-2.9 3.7 2.9 4.1-2.9 3.7 2.9 4.1-2.9 3.7 2.9 4.1-2.9 3.7 2.9 4.1-2.9 3.7 2.9 4.1-2.9 3.7 2.9 4.1-2.9 3.7 2.9 4.1-2.9 3.7 2.9 4.1-2.9 3.7 2.9 4.1-2.9 3.7 2.9 4.1-2.9 3.7 2.9 4.1-2.9 3.7 2.9 4.1-2.9 3.7 2.9 4.1-2.9 3.7 2.9 4.1-2.9 3.7 2.9 4.1-2.9 3.7 2.9z" fill="#d5eadc"/><path d="m186.6 33.8c-.1 0-.1 0 0 0l-4.2 2.9-3.7-2.9-4.1 2.9-3.7-2.9-4.1 2.9-3.7-2.9-4.1 2.9-3.7-2.9-4.1 2.9-3.7-2.9-4.1 2.9-3.7-2.9-4.1 2.9-3.7-2.9-4.1 2.9-3.7-2.9-4.1 2.9-3.7-2.9-4.1 2.9-3.7-2.9-4.1 2.9-3.7-2.9-4.1 2.9-3.7-2.9-4.1 2.9-3.7-2.9-4.1 2.9-3.7-2.9-4.1 2.9-3.7-2.9-4.1 2.9-3.7-2.9-4.1 2.9-5.6-2.9-4.1 2.9-3.7-2.9-4.1 2.9-3.7-2.9-4.4 2.9-3.7-2.9-4.1 2.9-3.7-2.9h-.1v.1l3.8 2.9 4.1-2.9 3.7 2.9 4.1-2.9 3.7 2.9 4.2-2.8 3.7 2.9 4.3-2.9 3.7 2.9 4.1-2.9 3.7 2.9 4.1-2.9 3.7 2.9 4.1-2.9 3.7 2.9 4.1-2.9 3.7 2.9 4.1-2.9 3.7 2.9 4.1-2.9 3.7 2.9 4.1-2.9 3.7 2.9 4.1-2.9 3.7 2.9 4.1-2.9 3.7 2.9 4.1-2.9 3.7 2.9 5.3-2.9 3.7 2.9 4.1-2.9 3.7 2.9 4.1-2.9 3.7 2.9 4.1-2.9 3.7 2.9 4.1-2.9 3.7 2.9 4.1-2.9 3.7 2.9 4.9-3.1c0 .1 0 .1 0 0z" fill="#d5eadc"/><path d="m186.6 35c-.1 0-.1 0 0 0l-4.2 2.9-3.7-2.9-4.1 2.9-3.7-2.9-4.1 2.9-3.7-2.9-4.1 2.9-3.7-2.9-4.1 2.9-4.2-2.9-4.1 2.9-3.7-2.9-4.1 2.9-3.7-2.9-4.1 2.9-3.7-2.9-4.1 2.9-3.7-2.9-4.1 2.9-3.7-2.9-4.1 2.9-4.4-2.9-4.1 2.9-3.8-2.9-4.1 2.9-3.8-2.9-4.1 2.9-3.9-2.9-4.1 2.9-3.8-2.9-4.1 2.9-3.8-2.9-4.1 2.9-3.8-2.9-4.1 2.9-3.8-2.9-4.1 2.9-3.8-2.9-4.2 2.9-3.7-2.9-4.1 2.9-3.9-2.9h-.1v.1l3.8 2.9 4.1-2.9 3.9 2.9 4.1-2.9 3.7 2.9 4.1-2.9 3.7 2.9 4.1-2.9 3.7 2.9 4.1-2.9 3.7 2.9 4.1-2.9 3.7 2.9 4.1-2.9 3.7 2.9 4.1-2.9 3.7 2.9 4.1-2.9 3.7 2.9 4.1-2.9 3.7 2.9 4.1-2.9 3.7 2.9 4.1-2.9 4.9 2.9 4.1-2.9 3.7 2.9 4.1-2.9 3.7 2.9 4.1-2.9 3.7 2.9 4.1-2.9 3.7 2.9 4.1-2.9 3.7 2.9 4.1-2.9 3.7 2.9 4.1-2.9 3.7 2.9 4.1-2.9 3.7 2.9 5.2-3c0 .1 0 .1 0 0z" fill="#d5eadc"/><path d="m186.6 36.2c-.1 0-.1 0 0 0l-4.2 2.9-3.7-2.9-4.1 2.9-3.7-2.9-4.1 2.9-3.7-2.9-4.1 2.9-3.7-2.9-4.1 2.9-3.7-2.9-4.1 2.9-3.7-2.9-4.1 2.9-3.7-2.9-4.1 2.9-3.7-2.9-4.1 2.9-3.7-2.9-4.1 2.9-3.7-2.9-4.1 2.9-3.7-2.9-4.1 2.9-3.7-2.9-4.1 2.9-3.7-2.9-4.1 2.9-3.7-2.9-4.1 2.9-3.7-2.9-4.1 2.9-3.7-2.9-4.1 2.9-5.6-2.9-4.1 2.9-3.7-2.9-4.1 2.9-3.7-2.9-4.4 2.9-3.7-2.9-4.1 2.9-3.7-2.9h-.1v.1l3.8 2.9 4.1-2.9 3.7 2.9 4.1-2.9 3.7 2.9 4.1-2.9 3.7 2.9 4.1-2.9 3.7 2.9 4.1-2.9 3.7 2.9 4.1-2.9 3.7 2.9 4.1-2.9 3.7 2.9 4.1-2.9 3.7 2.9 4.1-2.9 3.7 2.9 4.1-2.9 3.7 2.9 4.1-2.9 3.7 2.9 4.1-2.9 3.7 2.9 4.1-2.9 3.7 2.9 4.1-2.9 3.7 2.9 4.1-2.9 3.7 2.9 4.1-2.9 3.7 2.9 4.1-2.9 3.7 2.9 4.1-2.9 3.7 2.9 4.1-2.9 3.7 2.9 4.1-2.9 3.7 2.9z" fill="#d5eadc"/><path d="m186.6 37.4c-.1-.1-.1-.1 0 0l-4.2 2.9-3.7-2.9-4.1 2.9-3.7-2.9-4.1 2.9-3.7-2.9-4.1 2.9-3.7-2.9-4.1 2.9-3.7-2.9-4.1 2.9-3.7-2.9-4.1 2.9-3.7-2.9-4.1 2.9-3.7-2.9-4.1 2.9-3.7-2.9-4.1 2.9-3.7-2.9-4.1 2.9-3.7-2.9-4.1 2.9-3.7-2.9-4.1 2.9-3.7-2.9-4.1 2.9-3.7-2.9-4.1 2.9-3.7-2.9-4.1 2.9-3.7-2.9-4.1 2.9-5.6-2.9-4.1 2.9-3.7-2.9-4.1 2.9-3.7-2.9-4.4 2.8-3.7-2.9-4.1 2.9-3.7-2.9h-.1v.1l3.8 2.9 4.1-2.9 3.7 2.9 4.1-2.9 3.7 2.9 4.1-2.9 3.7 2.9 4.1-2.9 3.7 2.9 4.1-2.9 3.7 2.9 4.1-2.9 3.7 2.9 4.1-2.9 3.7 2.9 4.1-2.9 3.7 2.9 4.1-2.9 3.7 2.9 4.1-2.9 3.7 2.9 4.1-2.9 3.7 2.9 4.1-2.9 3.7 2.9 4.1-2.9 3.7 2.9 4.1-2.9 3.7 2.9 4.1-2.9 3.7 2.9 4.1-2.9 3.7 2.9 4.1-2.9 3.7 2.9 4.1-2.9 3.7 2.9 4.1-2.9 3.7 2.9 4.1-2.9 3.7 2.9z" fill="#d5eadc"/><path d="m186.6 38.6c-.1-.1-.1-.1 0 0l-4.2 2.9-3.7-2.9-4.1 2.9-3.7-2.9-4.1 2.9-3.7-2.9-4.1 2.9-3.7-2.9-4.1 2.9-3.7-2.9-4.1 2.9-3.7-2.9-4.1 2.9-3.7-2.9-4.1 2.9-3.7-2.9-4.1 2.9-3.7-2.9-4.1 2.9-3.7-2.9-4.1 2.9-3.7-2.9-4.1 2.9-3.7-2.9-4.1 2.9-3.7-2.9-4.1 2.9-3.7-2.9-4.1 2.9-3.7-2.9-4.1 2.9-3.7-2.9-4.1 2.9-5.6-3-4.1 2.9-3.7-2.9-4.1 2.9-3.7-2.9-4.4 2.9-3.7-2.9-4.1 2.9-3.7-2.9h-.1v.1l3.8 2.9 4.1-2.9 3.7 2.9 4.1-2.9 3.7 2.9 4.1-2.9 3.7 2.9 4.1-2.9 3.7 2.9 4.1-2.9 3.7 2.9 4.1-2.9 3.7 2.9 4.1-2.9 3.7 2.9 4.1-2.9 3.7 2.9 4.1-2.9 3.7 2.9 4.1-2.9 3.7 2.9 4.1-2.9 3.7 2.9 4.1-2.9 3.7 2.9 4.1-2.9 3.7 2.9 4.1-2.9 3.7 2.9 4.1-2.9 3.7 2.9 4.1-2.9 3.7 2.9 4.1-2.9 3.7 2.9 4.1-2.9 3.7 2.9 4.1-2.9 3.7 2.9 4.1-2.9 3.7 2.9z" fill="#d5eadc"/><path d="m186.6 39.7c-.1 0-.1 0 0 0l-4.2 2.9-3.7-2.9-4.1 2.9-3.7-2.9-4.1 2.9-3.7-2.9-4.1 2.9-3.7-2.9-4.1 2.9-3.7-2.9-4.1 2.9-3.7-2.9-4.1 2.9-3.7-2.9-4.1 2.9-3.7-2.9-4.1 2.9-3.7-2.9-4.1 2.9-3.7-2.9-4.1 2.9-3.7-2.9-4.1 2.9-3.7-2.9-4.1 2.9-3.7-2.9-4.1 2.9-3.7-2.9-4.1 2.9-3.7-2.9-4.1 2.9-3.7-2.9-4.1 2.9-5.6-2.9-4.1 2.9-3.7-2.9-4.1 2.9-3.7-2.9-4.4 2.9-3.7-2.9-4.1 2.9-3.7-2.9h-.1v.1l3.8 2.9 4.1-2.9 3.7 2.9 4.1-2.9 3.7 2.9 4.1-2.9 3.7 2.9 4.1-2.9 3.7 2.9 4.1-2.9 3.7 2.9 4.1-2.9 3.7 2.9 4.1-2.9 3.7 2.9 4.1-2.9 3.7 2.9 4.1-2.9 3.7 2.9 4.1-2.9 3.7 2.9 4.1-2.9 3.7 2.9 4.1-2.9 3.7 2.9 4.1-2.9 3.7 2.9 4.1-2.9 3.7 2.9 4.1-2.9 3.7 2.9 4.1-2.9 3.7 2.9 4.1-2.9 3.7 2.9 4.1-2.9 3.7 2.9 4.1-2.9 3.7 2.9 4.1-2.9 3.7 2.9 6.4-3c0 .1 0 .1 0 0z" fill="#d5eadc"/><path d="m186.6 40.9c-.1 0-.1 0 0 0l-4.2 2.9-3.7-2.9-4.1 2.9-3.7-2.9-4.1 2.9-3.7-2.9-4.1 2.9-3.7-2.9-4.1 2.9-3.7-2.9-4.1 2.9-3.7-2.9-4.1 2.9-3.7-2.9-4.1 2.9-3.7-2.9-4.1 2.9-3.7-2.9-4.1 2.9-3.7-2.9-4.1 2.9-3.7-2.9-4.1 2.9-3.7-2.9-4.1 2.9-3.7-2.9-4.1 2.9-3.7-2.9-4.1 2.9-3.7-2.9-4.1 2.9-3.7-2.9-4.1 2.9-5.6-2.9-4.1 2.9-3.7-2.9-4.1 2.9-3.7-2.9-4.4 2.9-3.7-2.9-4.1 2.9-3.7-2.9h-.1v.1l3.8 2.9 4.1-2.9 3.7 2.9 4.1-2.9 3.7 2.9 4.2-2.9 3.7 2.9 4.3-2.9 3.7 2.9 4.1-2.9 3.7 2.9 4.1-2.9 3.7 2.9 4.1-2.9 3.7 2.9 4.1-2.9 3.7 2.9 4.1-2.9 3.7 2.9 4.1-2.9 3.7 2.9 4.1-2.9 3.7 2.9 4.1-2.9 3.7 2.9 4.1-2.9 3.7 2.9 4.1-2.9 3.7 2.9 5.3-2.9 3.7 2.9 4.1-2.9 3.7 2.9 4.1-2.9 3.7 2.9 4.1-2.9 3.7 2.9 4.1-2.9 3.7 2.9 4.1-2.9 3.7 2.9z" fill="#d5eadc"/><path d="m186.6 42.1c-.1 0-.1 0 0 0l-4.2 2.9-3.7-2.9-4.1 2.9-3.7-2.9-4.1 2.9-3.7-2.9-4.1 2.9-3.7-2.9-4.1 2.9-3.7-2.9-4.1 2.9-3.7-2.9-4.1 2.9-3.7-2.9-4.9 2.9-3.7-2.9-4.1 2.9-3.7-2.9-4.1 2.9-3.7-2.9-4.1 2.9-3.7-2.9-4.6 2.9-3.7-2.9-4.2 2.9-3.7-2.9-4.2 2.9-3.7-2.9-4.2 2.9-3.7-2.9-4.2 2.9-3.7-2.9-4.3 2.9-3.7-2.9-4.2 2.9-3.7-2.9-4.2 2.9-3.7-2.9-4.2 2.9-3.7-2.9-4.2 2.9-3.7-2.9h-.1v.1l3.8 2.9 4.1-2.9 3.7 2.9 4.1-2.9 3.7 2.9 4.1-2.9 3.7 2.9 4.1-2.9 3.7 2.9 4.1-2.9 3.7 2.9 4.1-2.9 3.7 2.9 4.1-2.9 3.7 2.9 4.1-2.9 3.7 2.9 4.1-2.9 3.7 2.9 4.1-2.9 3.7 2.9 4.1-2.9 3.7 2.9 4.1-2.9 3.7 2.9 4.1-2.9 3.7 2.9 4.1-2.9 3.7 2.9 4.1-2.9 3.7 2.9 4.1-2.9 3.7 2.9 4.1-2.9 3.7 2.9 4.1-2.9 3.7 2.9 4.1-2.9 3.7 2.9 4.1-2.9 3.7 2.9z" fill="#d5eadc"/><path d="m186.6 43.3c-.1-.1-.1-.1 0 0l-4.2 2.9-3.7-2.9-4.1 2.9-3.7-2.9s0 0 0 0l-4.1 2.9-3.7-2.9-4.1 2.9-3.7-2.9s0 0 0 0l-4.1 2.9-3.7-2.9s0 0 0 0l-4.1 2.9-3.7-2.9-4.1 2.9-3.7-2.9-4.1 2.9-3.7-2.9-4.1 2.9-3.7-2.9-4.1 2.9-3.7-2.9s0 0 0 0l-4.1 2.9-3.7-2.9-4.1 2.9-3.7-2.9-4.1 2.9-3.7-2.9-4.1 2.9-3.7-2.9-4.1 2.9-3.7-2.9-4.1 2.9-3.7-2.9-4.1 2.9-5.6-2.9-4.1 2.9-3.7-2.9-4.1 2.9-3.7-2.9-4.4 2.8-3.7-2.9-4.1 2.9-3.7-2.9h-.1v.1l3.8 2.9 4.1-2.9 3.7 2.9 4.1-2.9 3.7 2.9 4.1-2.9 3.7 2.9 4.1-2.9 3.7 2.9 4.1-2.9 3.7 2.9 4.1-2.9 3.7 2.9 4.1-2.9 3.7 2.9 4.1-2.9 3.7 2.9 4.1-2.9 3.7 2.9 4.1-2.9 3.7 2.9 4.1-2.9 3.7 2.9 4.1-2.9 3.7 2.9 4.1-2.9 3.7 2.9 4.1-2.9 3.7 2.9 4.1-2.9 3.7 2.9 4.1-2.9 3.7 2.9 4.1-2.9 3.7 2.9 4.1-2.9 3.7 2.9 4.1-2.9 3.7 2.9 4.1-2.9 3.7 2.9z" fill="#d5eadc"/><path d="m186.6 44.4c-.1 0-.1 0 0 0l-4.2 2.9-3.7-2.9-4.1 2.9-3.7-2.9-4.1 2.9-3.7-2.9-4.1 2.9-3.7-2.9-4.1 2.9-3.7-2.9-4.1 2.9-3.7-2.9-4.1 2.9-3.7-2.9-4.1 2.9-3.7-2.9-4.1 2.9-3.7-2.9-4.1 2.9-3.7-2.9-4.1 2.9-3.7-2.9-4.1 2.9-3.7-2.9-4.1 2.9-3.7-2.9-4.1 2.9-3.7-2.9-4.1 2.9-3.7-2.9-4.1 2.9-3.7-2.9-4.1 2.9-5.6-2.9-4.1 2.9-3.7-2.9-4.1 2.9-3.7-2.9-4.4 2.9-3.7-2.9-4.1 2.9-3.7-2.9h-.1v.1l3.8 2.9 4.1-2.9 3.7 2.9 4.1-2.9 3.7 2.9 4.1-2.9 3.7 2.9 4.1-2.9 3.7 2.9 4.1-2.9 3.7 2.9 4.1-2.9 3.7 2.9 4.1-2.9 3.7 2.9 4.1-2.9 3.7 2.9 4.1-2.9 3.7 2.9 4.1-2.9 3.7 2.9 4.1-2.9 3.7 2.9 4.1-2.9 3.7 2.9 4.1-2.9 3.7 2.9 4.1-2.9 3.7 2.9 4.1-2.9 3.7 2.9 4.1-2.9 3.7 2.9 4.1-2.9 3.7 2.9 4.1-2.9 3.7 2.9 4.1-2.9 3.7 2.9 4.1-2.9 3.7 2.9 6.4-3c0 .1 0 .1 0 0z" fill="#d5eadc"/><path d="m186.6 45.6c-.1 0-.1 0 0 0l-4.2 2.9-3.7-2.9-4.1 2.9-3.7-2.9-4.1 2.9-3.7-2.9-4.1 2.9-3.7-2.9-4.1 2.9-3.7-2.9-4.1 2.9-3.7-2.9-4.1 2.9-3.7-2.9-4.1 2.9-3.7-2.9-4.1 2.9-3.7-2.9-4.1 2.9-3.7-2.9-4.1 2.9-3.7-2.9-4.1 2.9-3.7-2.9-4.1 2.9-3.7-2.9-4.1 2.9-3.7-2.9-4.1 2.9-3.7-2.9-4.1 2.9-3.7-2.9-4.1 2.9-5.6-2.9-4.1 2.9-3.7-2.9-4.1 2.9-3.7-2.9-4.4 2.9-3.7-2.9-4.1 2.9-3.7-2.9h-.1v.1l3.8 2.9 4.1-2.9 3.7 2.9 4.1-2.9 3.7 2.9 4.1-2.9 3.7 2.9 4.1-2.9 3.7 2.9 4.1-2.9 3.7 2.9 4.1-2.9 3.7 2.9 4.1-2.9 3.7 2.9 4.1-2.9 3.7 2.9 4.1-2.9 3.7 2.9 4.1-2.9 3.7 2.9 4.1-2.9 3.7 2.9 4.1-2.9 3.7 2.9 4.1-2.9 3.7 2.9 4.1-2.9 3.7 2.9 4.1-2.9 3.7 2.9 4.1-2.9 3.7 2.9 4.1-2.9 3.7 2.9 4.1-2.9 3.7 2.9 4.1-2.9 3.7 2.9 4.1-2.9 3.7 2.9 6.4-3c0 .1 0 .1 0 0z" fill="#d5eadc"/><path d="m186.6 46.8c-.1 0-.1 0 0 0l-4.2 2.9-3.7-2.9-4.1 2.9-3.7-2.9-4.1 2.9-3.7-2.9-4.1 2.9-3.7-2.9-4.1 2.9-3.7-2.9-4.1 2.9-3.7-2.9-4.1 2.9-3.7-2.9-4.1 2.9-3.7-2.9-4.1 2.9-3.7-2.9-4.1 2.9-3.7-2.9-4.1 2.9-3.7-2.9-4.1 2.9-3.7-2.9-4.1 2.9-3.7-2.9-4.1 2.9-3.7-2.9-4.1 2.9-3.7-2.9-4.1 2.9-3.7-2.9-4.1 2.9-5.6-2.9-4.1 2.9-3.7-2.9-4.1 2.9-3.7-2.9-4.4 2.9-3.7-2.9-4.1 2.9-3.7-2.9h-.1v.1l3.8 2.9 4.1-2.9 3.7 2.9 4.1-2.9 3.7 2.9 4.1-2.9 3.7 2.9 4.1-2.9 3.7 2.9 4.1-2.9 3.7 2.9 4.1-2.9 3.7 2.9 4.1-2.9 3.7 2.9 4.1-2.9 3.7 2.9 4.1-2.9 3.7 2.9 4.1-2.9 3.7 2.9 4.1-2.9 3.7 2.9 4.1-2.9 3.7 2.9 4.1-2.9 3.7 2.9 4.1-2.9 3.7 2.9 4.1-2.9 3.7 2.9 4.1-2.9 3.7 2.9 4.1-2.9 3.7 2.9 4.1-2.9 3.7 2.9 4.1-2.9 3.7 2.9 4.1-2.9 3.7 2.9z" fill="#d5eadc"/><path d="m186.6 48c-.1-.1-.1-.1 0 0l-4.2 2.9-3.7-2.9-4.1 2.9-3.7-2.9-4.1 2.9-3.7-2.9-4.1 2.9-3.7-2.9-4.1 2.9-4.2-2.9-4.1 2.9-3.7-2.9-4.1 2.9-3.7-2.9-4.1 2.9-3.7-2.9-4.1 2.9-3.7-2.9-4.1 2.9-3.7-2.9-4.1 2.9-4.4-2.9-4.1 2.9-3.8-2.9-4.1 2.9-3.8-2.9-4.1 2.9-3.9-2.9-4.1 2.9-3.8-2.9-4.1 2.9-3.8-2.9-4.1 2.9-3.8-2.9-4.1 2.9-3.8-2.9-4.1 2.9-3.8-2.9-4.2 2.8-3.7-2.8-4.1 2.9-3.9-2.9h-.1v.1l3.8 2.9 4.1-2.9 3.9 2.9 4.1-2.9 3.7 2.9 4.1-2.9 3.7 2.9 4.1-2.9 3.7 2.9 4.1-2.9 3.7 2.9 4.1-2.9 3.7 2.9 4.1-2.9 3.7 2.9 4.1-2.9 3.7 2.9 4.1-2.9 3.7 2.9 4.1-2.9 3.7 2.9 4.1-2.9 3.7 2.9 4.1-2.9 4.9 2.9 4.1-2.9 3.7 2.9 4.1-2.9 3.7 2.9 4.1-2.9 3.7 2.9 4.1-2.9 3.7 2.9 4.1-2.9 3.7 2.9 4.1-2.9 3.7 2.9 4.1-2.9 3.7 2.9 4.1-2.9 3.7 2.9z" fill="#d5eadc"/><path d="m186.6 49.2c-.1-.1-.1-.1 0 0l-4.2 2.9-3.7-2.9-4.1 2.9-3.7-2.9-4.1 2.9-3.7-2.9-4.1 2.9-3.7-2.9-4.1 2.9-3.7-2.9-4.1 2.9-3.7-2.9-4.1 2.9-3.7-2.9-4.9 2.8-3.7-2.9-4.1 2.9-3.7-2.9-4.1 2.9-3.7-2.9-4.1 2.9-3.7-2.9-4.6 2.9-3.7-2.9-4.2 2.9-3.7-2.9-4.2 2.9-3.7-2.9-4.2 2.9-3.7-2.9-4.2 2.9-3.7-2.9-4.3 2.9-3.7-2.9-4.2 2.9-3.7-2.9-4.2 2.9-3.7-2.9-4.2 2.9-3.7-2.9-4.2 2.9-3.7-2.9h-.1v.1l3.8 2.9 4.1-2.9 3.7 2.9 4.1-2.9 3.7 2.9 4.1-2.9 3.7 2.9 4.1-2.9 3.7 2.9 4.1-2.9 3.7 2.9 4.1-2.9 3.7 2.9 4.1-2.9 3.7 2.9 4.1-2.9 3.7 2.9 4.1-2.9 3.7 2.9 4.1-2.9 3.7 2.9 4.1-2.9 3.7 2.9 4.1-2.9 3.7 2.9 4.1-2.9 3.7 2.9 4.1-2.9 3.7 2.9 4.1-2.9 3.7 2.9 4.1-2.9 3.7 2.9 4.1-2.9 3.7 2.9 4.1-2.9 3.7 2.9 4.1-2.9 3.7 2.9 4.1-2.9 3.7 2.9z" fill="#d5eadc"/><path d="m186.6 50.3c-.1 0-.1 0 0 0l-4.2 2.9-3.7-2.9-4.1 2.9-3.7-2.9-4.1 2.9-3.7-2.9-4.1 2.9-3.7-2.9-4.1 2.9-3.7-2.9-4.1 2.9-3.7-2.9-4.1 2.9-3.7-2.9-4.1 2.9-3.7-2.9-4.1 2.9-3.7-2.9-4.1 2.9-3.7-2.9-4.1 2.9-3.7-2.9-4.1 2.9-3.7-2.9-4.1 2.9-3.7-2.9-4.1 2.9-3.7-2.9-4.1 2.9-3.7-2.9-4.1 2.9-3.7-2.9-4.1 2.9-5.6-2.9-4.1 2.9-3.7-2.9-4.1 2.9-3.7-2.9-4.4 2.9-3.7-2.9-4.1 2.9-3.7-2.9h-.1v.1l3.8 2.9 4.1-2.9 3.7 2.9 4.1-2.9 3.7 2.9 4.1-2.9 3.7 2.9 4.1-2.9 3.7 2.9 4.1-2.9 3.7 2.9 4.1-2.9 3.7 2.9 4.1-2.9 3.7 2.9 4.1-2.9 3.7 2.9 4.1-2.9 3.7 2.9 4.1-2.9 3.7 2.9 4.1-2.9 3.7 2.9 4.1-2.9 3.7 2.9 4.1-2.9 3.7 2.9 4.1-2.9 3.7 2.9 4.1-2.9 3.7 2.9 4.1-2.9 3.7 2.9 4.1-2.9 3.7 2.9 4.1-2.9 3.7 2.9 4.1-2.9 3.7 2.9 4.1-2.9 3.7 2.9 6.4-3c0 .1 0 .1 0 0z" fill="#d5eadc"/><path d="m186.6 51.5c-.1 0-.1 0 0 0l-4.2 2.9-3.7-2.9-4.1 2.9-3.7-2.9-4.1 2.9-3.7-2.9-4.1 2.9-3.7-2.9-4.1 2.9-3.7-2.9-4.1 2.9-3.7-2.9-4.1 2.9-3.7-2.9-4.1 2.9-3.7-2.9-4.1 2.9-3.7-2.9-4.1 2.9-3.7-2.9-4.1 2.9-3.7-2.9-4.1 2.9-3.7-2.9-4.1 2.9-3.7-2.9-4.1 2.9-3.7-2.9-4.1 2.9-3.7-2.9-4.1 2.9-3.7-2.9-4.1 2.9-5.6-2.9-4.1 2.9-3.7-2.9-4.1 2.9-3.7-2.9-4.4 2.9-3.7-2.9-4.1 2.9-3.7-2.9h-.1v.1l3.8 2.9 4.1-2.9 3.7 2.9 4.1-2.9 3.7 2.9 4.1-2.9 3.7 2.9 4.1-2.9 3.7 2.9 4.1-2.9 3.7 2.9 4.1-2.9 3.7 2.9 4.1-2.9 3.7 2.9 4.1-2.9 3.7 2.9 4.1-2.9 3.7 2.9 4.1-2.9 3.7 2.9 4.1-2.9 3.7 2.9 4.1-2.9 3.7 2.9 4.1-2.9 3.7 2.9 4.1-2.9 3.7 2.9 4.1-2.9 3.7 2.9 4.1-2.9 3.7 2.9 4.1-2.9 3.7 2.9 4.1-2.9 3.7 2.9 4.1-2.9 3.7 2.9 4.1-2.9 3.7 2.9z" fill="#d5eadc"/><path d="m186.6 52.7c-.1 0-.1 0 0 0l-4.2 2.9-3.7-2.9-4.1 2.9-3.7-2.9-4.1 2.9-3.7-2.9-4.1 2.9-3.7-2.9-4.1 2.9-3.7-2.9-4.1 2.9-3.7-2.9-4.1 2.9-3.7-2.9-4.1 2.9-3.7-2.9-4.1 2.9-3.7-2.9-4.1 2.9-3.7-2.9-4.1 2.9-3.7-2.9-4.1 2.9-3.7-2.9-4.1 2.9-3.7-2.9-4.1 2.9-3.7-2.9-4.1 2.9-3.7-2.9-4.1 2.9-3.7-2.9-4.1 2.9-5.6-2.9-4.1 2.9-3.7-2.9-4.1 2.9-3.7-2.9-4.4 2.8-3.7-2.9-4.1 2.9-3.7-2.9h-.1v.1l3.8 2.9 4.1-2.9 3.7 2.9 4.1-2.9 3.7 2.9 4.1-2.9 3.7 2.9 4.1-2.9 3.7 2.9 4.1-2.9 3.7 2.9 4.1-2.9 3.7 2.9 4.1-2.9 3.7 2.9 4.1-2.9 3.7 2.9 4.1-2.9 3.7 2.9 4.1-2.9 3.7 2.9 4.1-2.9 3.7 2.9 4.1-2.9 3.7 2.9 4.1-2.9 3.7 2.9 4.1-2.9 3.7 2.9 4.1-2.9 3.7 2.9 4.1-2.9 3.7 2.9 4.1-2.9 3.7 2.9 4.1-2.9 3.7 2.9 4.1-2.9 3.7 2.9 4.1-2.9 3.7 2.9z" fill="#d5eadc"/><path d="m186.5 5.6-4.1 2.9-3.7-2.9-4.1 2.9-3.7-2.9-4.1 2.9-3.7-2.9-4.1 2.9-3.7-2.9-4.1 2.9-4.2-2.9-4.1 2.9-3.7-2.9-4.1 2.9-3.7-2.9-4.4 2.8-3.7-2.9-4.1 2.9-3.7-2.9-4.1 2.9-3.7-2.9-4.1 2.9-3.7-2.9-4.1 2.9-3.7-2.9-4.1 2.9-3.7-2.9-4.1 2.9-3.7-2.9-4.1 2.9-3.7-2.9-4.1 2.9-3.7-2.9-4.1 2.9-4.8-2.8-4.1 2.9-3.7-2.9-4.1 2.9-3.7-2.9-4.4 2.8-3.7-2.9-4.1 2.9-3.7-2.9h-.1v.1l3.6 3 4.1-2.9 3.9 2.9 4.1-2.9 3.7 2.9 4.2-2.9 3.7 2.9 4.3-2.9 3.7 2.9 4.1-2.9 3.7 2.9 4.1-2.9 3.7 2.9 4.1-2.9 3.7 2.9 4.1-2.9 3.7 2.9 4.1-2.9 3.7 2.9 4.1-2.9 3.7 2.9 4.1-2.9 3.7 2.9 4.1-2.9 3.7 2.9 4.1-2.9 3.7 2.9 4.1-2.9 3.7 2.9 4.1-2.9 3.7 2.9 4.1-2.9 3.7 2.9 4.1-2.9 3.7 2.9 4.1-2.9 3.7 2.9 4.1-2.9 3.7 2.9 4.1-2.9 3.7 2.9 4.1-2.9c1.9 0 1.9-.1 1.9-.1z" fill="#d5eadc"/><path d="m186 4.7-3.7 2.6-3.7-2.9-4.1 2.9-3.7-2.9-4.1 2.9-3.7-2.9-4.1 2.9-3.7-2.9-4.1 2.9-4.1-2.9-4.1 2.9-3.7-2.9-4.1 2.9-3.7-2.9-4.4 2.9-3.7-2.9-4.1 2.9-3.7-2.9-4.1 2.9-3.7-2.9-4.1 2.9-3.7-2.9-4.1 2.9-3.7-2.9-4.1 2.9-3.7-2.9-4.1 2.9-3.7-2.9-4.1 2.9-3.7-2.9-4.1 2.9-3.7-2.9-4.1 2.9-4.8-2.9-4.1 2.9-3.7-2.9-4.1 2.9-3.7-2.9-4.4 2.9-3.7-2.9-4.1 2.9-3.7-2.9h-.1v.1l3.6 2.9 4.1-2.9 3.9 2.9 4.1-2.9 3.7 2.9 4.2-2.9 3.7 2.9 4.3-2.9 3.7 2.9 4.1-2.9 3.7 2.9 4.1-2.9 3.7 2.9 4.1-2.9 3.7 2.9 4.1-2.9 3.7 2.9 4.1-2.9 3.7 2.9 4.1-2.9 3.7 2.9 4.1-2.9 3.7 2.9 4.1-2.9 3.7 2.9 4.1-2.9 3.7 2.9 4.1-2.9 3.7 2.9 4.1-2.9 3.7 2.9 4.1-2.9 3.7 2.9 4.1-2.9 3.7 2.9 4.1-2.9 3.7 2.9 4.1-2.9 3.7 2.9 4.1-2.9 3.7 2.9 3.7-2.6c1.9 0 1.9-.1 1.8-.1z" fill="#d5eadc"/><path d="m185.5 3.9-3.2 2.2-3.7-2.9-4.1 2.9-3.7-2.9-4.1 2.9-3.7-2.9-4.1 2.9-3.7-2.9-4.1 2.9-4.1-2.9-4.1 2.9-3.7-2.9-4.1 2.9-3.7-2.9-4.4 2.9-3.7-2.9-4.1 2.9-3.7-2.9-4.1 2.9-3.7-2.9-4.1 2.9-3.7-2.9-4.1 2.9-3.7-2.9-4.1 2.9-3.7-2.9-4.1 2.9-3.7-2.9-4.1 2.9-3.7-2.9-4.1 2.9-3.7-2.9-4.1 2.9-4.8-2.9-4.1 2.9-3.7-2.9-4.1 2.9-3.7-2.9-4.4 2.9-3.7-2.9-4.1 2.9-3.7-2.9h-.1v.1l3.6 2.9 4.1-2.9 3.9 2.9 4.1-2.9 3.7 2.9 4.2-2.8 3.7 2.9 4.3-2.9 3.7 2.9 4.1-2.9 3.7 2.9 4.1-2.9 3.7 2.9 4.1-2.9 3.7 2.9 4.1-2.9 3.7 2.9 4.1-2.9 3.7 2.9 4.1-2.9 3.7 2.9 4.1-2.9 3.7 2.9 4.1-2.9 3.7 2.9 4.1-2.9 3.7 2.9 4.1-2.9 3.7 2.9 4.1-2.9 3.7 2.9 4.1-2.9 3.7 2.9 4.1-2.9 3.7 2.9 4.1-2.9 3.7 2.9 4.1-2.9 3.7 2.9 4.1-2.9 3.7 2.9 3.2-2.2c1.9-.1 1.9-.2 1.8-.2z" fill="#d5eadc"/><path d="m184.9 3.1-2.5 1.8-3.8-2.9-4.1 2.9-3.8-2.9-4.1 2.9-3.8-2.9-4.1 2.9-3.8-2.9-4.1 2.9-3.8-2.9-4.1 2.9-3.8-2.9-4.1 2.9-3.9-2.9-4.1 2.9-3.8-2.9-4.1 2.9-3.8-2.9-4.1 2.9-3.8-2.9-4.1 2.9-3.8-2.9-4.1 2.9-3.8-2.9-4.1 2.9-3.8-2.9-4.1 2.9-3.9-2.9-4.1 2.9-3.8-2.9-4.1 2.9-3.8-2.9-4.1 2.9-3.8-2.9-4.1 2.9-3.8-2.9-4.1 2.9-3.8-2.9-4.2 2.9-3.7-2.9-4.1 2.9-3.9-2.9h-.1v.1l3.8 3 4.1-2.9 3.9 2.9 4.1-2.9 3.7 2.9 4.2-2.9 3.7 2.9 4.3-2.9 3.7 2.9 4.1-2.9 3.7 2.9 4.1-2.9 3.7 2.9 4.1-2.9 3.7 2.9 4.1-2.9 3.7 2.9 4.1-2.9 3.7 2.9 4.1-2.9 3.7 2.9 4.1-2.9 3.7 2.9 4.1-2.9 3.7 2.9 4.1-2.9 3.7 2.9 4.1-2.9 3.7 2.9 4.1-2.9 3.7 2.9 4.1-2.9 3.7 2.9 4.1-2.9 3.7 2.9 4.1-2.9 3.7 2.9 4.1-2.9 3.7 2.9 4.1-2.9 3.7 2.9 2.6-1.8c1.9-.1 1.8-.1 1.8-.2z" fill="#d5eadc"/><path d="m184.2 2.4-1.8 1.3-3.7-2.9-4.1 2.9-3.7-2.9-4.1 2.9-3.7-2.9-4.1 2.9-3.7-2.9-4.1 2.9-4.2-2.8-4.1 2.9-3.7-2.9-4.1 2.9-3.7-2.9-4.4 2.8-3.7-2.9-4.1 2.9-3.7-2.9-4.1 2.9-3.7-2.9-4.1 2.9-3.7-2.9-4.1 2.9-3.7-2.9-4.1 2.9-3.7-2.9-4.1 2.9-3.7-2.9-4.1 2.9-3.7-2.9-4.1 2.9-3.7-2.9-4.1 2.9-4.8-2.8-4.1 2.9-3.7-2.9-4.1 2.9-3.7-2.9-4.4 2.8-3.7-2.9-4.1 2.9-3.7-2.9h-.1v.1l3.6 3 4.2-2.9 3.8 2.9 4.1-2.9 3.7 2.9 4.2-2.9 3.7 2.9 4.3-2.9 3.7 2.9 4.2-2.9 3.7 2.9 4.2-2.9 3.7 2.9 4.2-2.9 3.7 2.9 4.2-2.9 3.7 2.9 4.2-2.9 3.7 2.9 4.2-2.9 3.7 2.9 4.1-2.9 3.7 2.9 4.1-2.9 3.7 2.9 4.1-2.9 3.7 2.9 4.1-2.9 3.7 2.9 4.7-2.9 3.7 2.9 4.1-2.9 3.7 2.9 4.1-2.9 3.7 2.9 4.1-2.9 3.7 2.9 4.1-2.9 3.7 2.9 4.1-2.9 3.7 2.9 1.9-1.3c.7-.1.6-.1.6-.2z" fill="#d5eadc"/><path d="m50 44.8h.3v2.5c0 .2.1.2.3.2h1.3v.3h-1.3c-.3 0-.6-.1-.6-.5z" fill="#939498"/><path d="m53 45.6c.7 0 1 .3 1 1.2 0 .8-.2 1.1-1 1.1-.7 0-1-.3-1-1.1.1-.9.3-1.2 1-1.2zm0 2c.4 0 .7-.1.7-.8 0-.8-.2-.8-.7-.8s-.7.1-.7.8c.1.7.3.8.7.8z" fill="#939498"/><path d="m54.5 45.7h.2l.1.3c.3-.1.5-.3.8-.3h.3v.3s-.2 0-.3 0c-.3 0-.5.1-.8.2v1.7h-.3z" fill="#939498"/><path d="m57.1 45.6c.5 0 .8 0 .8.8 0 .3-.2.5-.6.5h-.9c0 .5.1.6.4.6h1v.2c-.3.1-.7.1-1 .1-.6 0-.7-.3-.7-1.1 0-.9.3-1.1 1-1.1zm.2 1c.2 0 .3-.1.3-.2 0-.4-.1-.5-.5-.5-.5 0-.7 0-.7.7z" fill="#939498"/><path d="m58.3 45.7h.2l.1.3c.3-.1.5-.3.8-.3s.5.1.6.3c.2-.2.5-.3.9-.3s.7.3.7.7v1.5h-.3v-1.5c0-.2-.2-.4-.4-.4-.3 0-.5.1-.8.2v.2 1.5h-.3v-1.5c0-.2-.2-.4-.4-.4-.3 0-.5.1-.8.2v1.7h-.3z" fill="#939498"/><path d="m63 45.1c0-.1 0-.1.1-.1h.2c.1 0 .1 0 .1.1v.2c0 .1 0 .1-.1.1h-.2c-.1 0-.1 0-.1-.1zm.1.6h.3v2.2h-.3z" fill="#939498"/><path d="m63.9 45.7h.2l.1.2c.1-.1.5-.3.8-.3.6 0 .7.6.7 1.1 0 .6-.1 1.1-.7 1.1-.2 0-.6-.1-.8-.2v1.4h-.3zm1.1 1.9c.3 0 .4-.2.4-.8 0-.5-.1-.8-.4-.8s-.6.1-.8.2v1.3c.3 0 .5.1.8.1z" fill="#939498"/><path d="m66 46.2c0-.3.1-.5.6-.5.2 0 .9 0 1.1.1v.2h-1.1c-.3 0-.3.1-.3.2v.2c0 .2.1.2.3.2h.7c.4 0 .5.2.5.5v.2c0 .5-.3.5-.5.5s-1-.1-1.1-.1v-.2h1.1s.2 0 .2-.2v-.2c0-.1 0-.2-.2-.2h-.7c-.4 0-.6-.1-.6-.5z" fill="#939498"/><path d="m68.2 45.7h.3v1.5c0 .3.2.4.4.4.3 0 .5-.1.8-.2v-1.7h.3v2.2h-.2l-.1-.3c-.3.1-.5.3-.8.3-.4 0-.7-.3-.7-.7z" fill="#939498"/><path d="m70.5 45.7h.2l.1.3c.3-.1.5-.3.8-.3s.5.1.6.3c.2-.2.5-.3.9-.3s.7.3.7.7v1.5h-.3v-1.5c0-.2-.2-.4-.4-.4-.3 0-.5.1-.8.2v.2 1.5h-.3v-1.5c0-.2-.2-.4-.4-.4-.3 0-.5.1-.8.2v1.7h-.3z" fill="#939498"/><path d="m75.9 45.6c.2 0 .5.1.8.2v-1.2h.3v3.3h-.2l-.1-.2c-.1.1-.5.3-.8.3-.6 0-.7-.6-.7-1.1 0-.7.1-1.3.7-1.3zm0 2c.3 0 .6-.1.8-.2v-1.4c-.3-.1-.5-.1-.8-.1s-.4.2-.4.8.2.9.4.9z" fill="#939498"/><path d="m78.5 45.6c.7 0 1 .3 1 1.2 0 .8-.2 1.1-1 1.1-.7 0-1-.3-1-1.1 0-.9.3-1.2 1-1.2zm0 2c.4 0 .7-.1.7-.8 0-.8-.2-.8-.7-.8s-.7.1-.7.8.2.8.7.8z" fill="#939498"/><path d="m79.9 44.6h.3v2.5c0 .4.1.4.2.5 0 0 .3.1.4.1v.2h-.4c-.3 0-.5-.2-.5-.8z" fill="#939498"/><path d="m81.9 45.6c.7 0 1 .3 1 1.2 0 .8-.2 1.1-1 1.1-.7 0-1-.3-1-1.1 0-.9.2-1.2 1-1.2zm0 2c.4 0 .7-.1.7-.8 0-.8-.2-.8-.7-.8s-.7.1-.7.8.2.8.7.8z" fill="#939498"/><path d="m83.3 45.7h.2l.1.3c.3-.1.5-.3.8-.3h.3v.3s-.2 0-.3 0c-.3 0-.5.1-.8.2v1.7h-.3z" fill="#939498"/><path d="m86 46.2c0-.3.1-.5.6-.5.2 0 .9 0 1.1.1v.2h-1.1c-.3 0-.3.1-.3.2v.2c0 .2.1.2.3.2h.7c.4 0 .5.2.5.5v.2c0 .5-.3.5-.5.5s-1-.1-1.1-.1v-.2h1.1s.2 0 .2-.2v-.2c0-.1 0-.2-.2-.2h-.7c-.4 0-.6-.1-.6-.5z" fill="#939498"/><path d="m88.2 45.1c0-.1 0-.1.1-.1h.2c.1 0 .1 0 .1.1v.2c0 .1 0 .1-.1.1h-.2c-.1 0-.1 0-.1-.1zm0 .6h.3v2.2h-.3z" fill="#939498"/><path d="m88.8 45.7.4-.1.1-.6h.2v.6h.6v.4h-.6v1.1c0 .4.1.4.2.5 0 0 .3.1.4.1v.2h-.4c-.3 0-.5-.2-.5-.8v-1.1h-.4z" fill="#939498"/><path d="m91.5 47.1c0-.3.2-.6.6-.6h.9v-.3c0-.3-.1-.3-.3-.3-.3 0-.7 0-1.1 0v-.2c.3-.1.7-.1 1.1-.1.3 0 .6.2.6.6v1.6h-.2l-.1-.2s-.5.3-.9.3c-.3 0-.6-.2-.6-.5zm.6.5c.3 0 .9-.2.9-.2v-.6l-.9.1c-.2 0-.2.1-.2.3v.2c-.1.1 0 .2.2.2z" fill="#939498"/><path d="m93.8 45.7h.2l.1.3c.3-.1.5-.3.8-.3s.5.1.6.3c.2-.2.5-.3.9-.3s.7.3.7.7v1.5h-.3v-1.5c0-.2-.2-.4-.4-.4-.3 0-.5.1-.8.2v.2 1.5h-.3v-1.5c0-.2-.2-.4-.4-.4-.3 0-.5.1-.8.2v1.7h-.3z" fill="#939498"/><path d="m98.4 45.6c.5 0 .8 0 .8.8 0 .3-.2.5-.6.5h-.9c0 .5.1.6.4.6h1v.2c-.3.1-.7.1-1 .1-.6 0-.7-.3-.7-1.1 0-.9.3-1.1 1-1.1zm.2 1c.2 0 .3-.1.3-.2 0-.4-.1-.5-.5-.5-.5 0-.7 0-.7.7z" fill="#939498"/><path d="m99.5 45.7.4-.1.1-.6h.2v.6h.6v.4h-.6v1.1c0 .4.1.4.2.5 0 0 .3.1.4.1v.2h-.4c-.3 0-.5-.2-.5-.8v-1.1h-.4z" fill="#939498"/><g fill="#818285"><path d="m36.1 71.1h1.2v1.2h-1.2z"/><path d="m75.3 71.1h1.2v1.2h-1.2z"/><path d="m121.4 71.1h1.2v1.2h-1.2z"/><path d="m39.8 70.7c0-.4.3-.7.7-.7h.7c.5 0 .7.3.7.7v1.7c0 .5-.3.7-.7.7h-.7c-.4 0-.7-.2-.7-.7zm.7 2h.7c.3 0 .4-.1.4-.4v-1.7c0-.2-.1-.4-.4-.4h-.7c-.3 0-.4.2-.4.4v1.7c0 .3.2.4.4.4z"/><path d="m42.4 70.4.7-.4h.3v3h-.3v-2.7l-.7.2z"/><path d="m43.9 70c.4-.1.8-.1 1.3-.1.6 0 .8.4.8.9 0 .8-1.2 1.7-1.5 1.9h1.5v.3h-2.1v-.3c.5-.3 1.8-1.2 1.8-1.9 0-.3-.2-.6-.5-.6h-1.3z"/><path d="m46.5 72.7c0-.1 0-.1.1-.1h.2c.1 0 .1 0 .1.1v.2c0 .1 0 .1-.1.1h-.2c-.1 0-.1 0-.1-.1z"/><path d="m47.4 70.1c.4-.1.8-.1 1.3-.1s.7.3.7.7v.3c0 .3-.1.5-.3.6.2.1.3.3.3.6v.2c0 .5-.2.7-.7.7s-.9 0-1.3-.1v-.2h1.2c.2 0 .4 0 .4-.4v-.2c0-.3-.2-.4-.4-.4h-1v-.2h1c.3 0 .4-.2.4-.4v-.3c0-.3-.2-.4-.4-.4h-1.3v-.4z"/><path d="m51.2 70h.4l-1.2 1.9h1.2v-.9l.2-.3h.2v1.2h.4v.2l-.4.1v.8h-.3v-.8h-1.7l-.1-.2z"/><path d="m52.6 72.7h1.3c.3 0 .4-.2.4-.4v-.5c0-.1 0-.4-.4-.4h-.6c-.2 0-.3.1-.3.3h-.3l.1-1.8h1.8v.3h-1.6v1c.1-.1.2-.1.3-.1h.6c.5 0 .7.3.7.7v.5c0 .6-.4.7-.7.7-.5 0-.7 0-1.3-.1z"/><path d="m55.1 72.7c0-.1 0-.1.1-.1h.2c.1 0 .1 0 .1.1v.2c0 .1 0 .1-.1.1h-.2c-.1 0-.1 0-.1-.1z"/><path d="m56.9 70c.4 0 .9 0 1.3.1v.2h-1.2c-.4 0-.5.7-.5 1.1.4 0 .8-.1 1.1-.1.6 0 .7.3.7.6v.5c0 .5-.3.6-.7.6h-.6c-.5 0-.8-.3-.8-1.6 0-1.1.3-1.4.7-1.4zm0 2.7h.6c.2 0 .4 0 .4-.3v-.5c0-.3-.2-.3-.4-.3h-1.1c.1.4.1 1.1.5 1.1z"/><path d="m58.6 70h1.9l.1.2-1.1 2.8h-.4l1.1-2.7h-1.6z"/><path d="m61 72c0-.3.2-.4.4-.4-.3-.1-.4-.4-.4-.6v-.3c0-.6.3-.7.7-.7h.6c.4 0 .7.2.7.7v.3c0 .1 0 .4-.3.5.2 0 .3.4.3.5v.4c0 .5-.4.6-.7.6h-.6c-.7 0-.7-.5-.7-.6zm.7-.7h.7c.3 0 .4-.2.4-.3v-.3c0-.3-.1-.4-.4-.4h-.6c-.3 0-.4 0-.4.4v.3c0 .3.2.3.3.3zm.1 1.4h.6c.2 0 .4-.1.4-.3v-.4c0-.2-.2-.3-.4-.3h-.7c-.2 0-.4.1-.4.3v.4c.1.2.2.3.5.3z"/><path d="m63.6 70.6c0-.5.3-.6.7-.6h.6c.5 0 .8.3.8 1.6 0 1.1-.4 1.5-.7 1.5-.4 0-.9 0-1.3-.1v-.2h1.2c.4 0 .5-.7.5-1.1-.4 0-.8.1-1.1.1-.6 0-.7-.3-.7-.6zm.7.8h1.1c0-.4 0-1.2-.5-1.2h-.6c-.2 0-.4 0-.4.3v.5c0 .4.2.4.4.4z"/><path d="m66.2 70.7c0-.4.3-.7.7-.7h.7c.5 0 .7.3.7.7v1.7c0 .5-.3.7-.7.7h-.6c-.4 0-.7-.2-.7-.7v-1.7zm.8 2h.7c.3 0 .4-.1.4-.4v-1.7c0-.2-.1-.4-.4-.4h-.7c-.3 0-.4.2-.4.4v1.7c-.1.3.2.4.4.4z"/><path d="m80.2 70c.2 0 .7 0 1 .1v.2s-.6 0-1 0c-.5 0-.7.2-.7 1.2 0 .7.2 1.2.7 1.2h1v.3c-.3.1-.8.1-1 .1-.8 0-1-.7-1-1.6 0-1 .2-1.5 1-1.5z"/><path d="m82.3 70.8c.7 0 1 .3 1 1.2 0 .8-.2 1.1-1 1.1-.7 0-1-.3-1-1.1.1-.9.3-1.2 1-1.2zm0 2c.4 0 .7-.1.7-.8 0-.8-.2-.8-.7-.8s-.7.1-.7.8c.1.7.3.8.7.8z"/><path d="m83.8 70.8h.2l.1.3c.3-.1.5-.3.8-.3s.5.1.6.3c.2-.2.5-.3.9-.3s.7.3.7.7v1.5h-.3v-1.5c0-.2-.2-.4-.4-.4-.3 0-.5.1-.8.2v.2 1.5h-.3v-1.5c0-.2-.2-.4-.4-.4-.3 0-.5.1-.8.2v1.7h-.3z"/><path d="m87.5 70.8h.2l.1.2c.1-.1.5-.3.8-.3.6 0 .7.6.7 1.1 0 .6-.1 1.1-.7 1.1-.2 0-.6-.1-.8-.2v1.3h-.3zm1.1 2c.3 0 .4-.2.4-.8 0-.5-.1-.8-.4-.8s-.6.1-.8.2v1.3c.3 0 .5.1.8.1z"/><path d="m89.7 72.3c0-.3.2-.6.6-.6h.9v-.3c0-.3-.1-.3-.3-.3-.3 0-.7 0-1.1 0v-.2c.3-.1.7-.1 1.1-.1.3 0 .6.2.6.6v1.6h-.2l-.1-.3s-.5.3-.9.3c-.3 0-.6-.2-.6-.5zm.5.5c.3 0 .9-.2.9-.2v-.6h-.9c-.2 0-.2.1-.2.3v.2c0 .2.1.3.2.3z"/><path d="m91.9 70.8h.2l.1.3c.3-.1.5-.3.8-.3.4 0 .7.3.7.7v1.5h-.3v-1.5c0-.3-.2-.4-.4-.4-.3 0-.5.1-.8.2v1.7h-.3z"/><path d="m94.3 70.8.5 1.7c.1.2.3.2.3.2l.6-1.9h.3l-1 2.9-.3.4h-.2l.5-1.1c-.1 0-.4 0-.5-.5l-.5-1.7z"/><path d="m96.4 70.8h.2l.1.3c.3-.1.5-.3.8-.3.4 0 .7.3.7.7v1.5h-.3v-1.5c0-.3-.2-.4-.4-.4-.3 0-.5.1-.8.2v1.7h-.3z"/><path d="m98.6 72.3c0-.3.2-.6.6-.6h.9v-.3c0-.3-.1-.3-.3-.3-.3 0-.7 0-1.1 0v-.2c.3-.1.7-.1 1.1-.1.3 0 .6.2.6.6v1.6h-.2l-.1-.3s-.5.3-.9.3c-.3 0-.6-.2-.6-.5zm.5.5c.3 0 .9-.2.9-.2v-.6h-.9c-.2 0-.2.1-.2.3v.2c0 .2.1.3.2.3z"/><path d="m100.8 70.8h.2l.1.3c.3-.1.5-.3.8-.3s.5.1.6.3c.2-.2.5-.3.9-.3s.7.3.7.7v1.5h-.3v-1.5c0-.2-.2-.4-.4-.4-.3 0-.5.1-.8.2v.2 1.5h-.3v-1.5c0-.2-.2-.4-.4-.4-.3 0-.5.1-.8.2v1.7h-.3z"/><path d="m105.4 70.8c.5 0 .8.1.8.8 0 .3-.2.5-.6.5h-.9c0 .5.1.6.4.6h1v.2c-.3.1-.7.1-1 .1-.6 0-.7-.3-.7-1.1.1-1 .4-1.1 1-1.1zm.3 1c.2 0 .3-.1.3-.2 0-.4-.1-.5-.5-.5-.5 0-.7 0-.7.7z"/><path d="m106.7 72.7c0-.1 0-.1.1-.1h.2c.1 0 .1 0 .1.1v.2c0 .1 0 .1-.1.1h-.2c-.1 0-.1 0-.1-.1z"/><path d="m108.4 70.8c.2 0 .7.1.9.1v.2s-.6 0-.9 0c-.2 0-.4 0-.4.8 0 .6.1.8.4.8h1v.2c-.3.1-.6.1-1 .1s-.7-.2-.7-1.1.3-1.1.7-1.1z"/><path d="m110.6 70.8c.7 0 1 .3 1 1.2 0 .8-.2 1.1-1 1.1-.7 0-1-.3-1-1.1 0-.9.3-1.2 1-1.2zm0 2c.4 0 .7-.1.7-.8 0-.8-.2-.8-.7-.8s-.7.1-.7.8.3.8.7.8z"/><path d="m112 70.8h.2l.1.3c.3-.1.5-.3.8-.3s.5.1.6.3c.2-.2.5-.3.9-.3s.7.3.7.7v1.5h-.3v-1.5c0-.2-.2-.4-.4-.4-.3 0-.5.1-.8.2v.2 1.5h-.3v-1.5c0-.2-.2-.4-.4-.4-.3 0-.5.1-.8.2v1.7h-.3z"/><path d="m126.3 70c.2 0 .7 0 1 .1v.2s-.6 0-1 0c-.5 0-.7.2-.7 1.2 0 .7.2 1.2.7 1.2h1v.3c-.3.1-.8.1-1 .1-.8 0-1-.7-1-1.6-.1-1 .1-1.5 1-1.5z"/><path d="m128.4 70.8c.7 0 1 .3 1 1.2 0 .8-.2 1.1-1 1.1-.7 0-1-.3-1-1.1 0-.9.3-1.2 1-1.2zm0 2c.4 0 .7-.1.7-.8 0-.8-.2-.8-.7-.8s-.7.1-.7.8.3.8.7.8z"/><path d="m129.8 70.8h.2l.1.3c.3-.1.5-.3.8-.3s.5.1.6.3c.2-.2.5-.3.9-.3s.7.3.7.7v1.5h-.3v-1.5c0-.2-.2-.4-.4-.4-.3 0-.5.1-.8.2v.2 1.5h-.3v-1.5c0-.2-.2-.4-.4-.4-.3 0-.5.1-.8.2v1.7h-.3z"/><path d="m133.5 70.8h.2l.1.2c.1-.1.5-.3.8-.3.6 0 .7.6.7 1.1 0 .6-.1 1.1-.7 1.1-.2 0-.6-.1-.8-.2v1.3h-.3zm1.1 2c.3 0 .4-.2.4-.8 0-.5-.1-.8-.4-.8s-.6.1-.8.2v1.3c.3 0 .5.1.8.1z"/><path d="m135.7 72.3c0-.3.2-.6.6-.6h.9v-.3c0-.3-.1-.3-.3-.3-.3 0-.7 0-1.1 0v-.2c.3-.1.7-.1 1.1-.1.3 0 .6.2.6.6v1.6h-.2l-.1-.3s-.5.3-.9.3c-.3 0-.6-.2-.6-.5zm.6.5c.3 0 .9-.2.9-.2v-.6l-.9.1c-.2 0-.2.1-.2.3v.2c0 .1.1.2.2.2z"/><path d="m138 70.8h.2l.1.3c.3-.1.5-.3.8-.3.4 0 .7.3.7.7v1.5h-.3v-1.5c0-.3-.2-.4-.4-.4-.3 0-.5.1-.8.2v1.7h-.3z"/><path d="m140.4 70.8.5 1.7c.1.2.3.2.3.2l.6-1.9h.3l-1 2.9-.3.4h-.2l.4-1.1c-.1 0-.4 0-.5-.5l-.5-1.7z"/><path d="m142.5 70.8h.2l.1.3c.3-.1.5-.3.8-.3.4 0 .7.3.7.7v1.5h-.3v-1.5c0-.3-.2-.4-.4-.4-.3 0-.5.1-.8.2v1.7h-.3z"/><path d="m144.6 72.3c0-.3.2-.6.6-.6h.9v-.3c0-.3-.1-.3-.3-.3-.3 0-.7 0-1.1 0v-.2c.3-.1.7-.1 1.1-.1.3 0 .6.2.6.6v1.6h-.2l-.1-.3s-.5.3-.9.3c-.3 0-.6-.2-.6-.5zm.6.5c.3 0 .9-.2.9-.2v-.6l-.9.1c-.2 0-.2.1-.2.3v.2c0 .1.1.2.2.2z"/><path d="m146.9 70.8h.2l.1.3c.3-.1.5-.3.8-.3s.5.1.6.3c.2-.2.5-.3.9-.3s.7.3.7.7v1.5h-.3v-1.5c0-.2-.2-.4-.4-.4-.3 0-.5.1-.8.2v.2 1.5h-.3v-1.5c0-.2-.2-.4-.4-.4-.3 0-.5.1-.8.2v1.7h-.3z"/><path d="m151.5 70.8c.5 0 .8.1.8.8 0 .3-.2.5-.6.5h-.9c0 .5.1.6.4.6h1v.2c-.3.1-.7.1-1 .1-.6 0-.7-.3-.7-1.1 0-1 .3-1.1 1-1.1zm.3 1c.2 0 .3-.1.3-.2 0-.4-.1-.5-.5-.5-.5 0-.7 0-.7.7z"/><path d="m152.8 71.6c0-.1 0-.7.7-.7h.9c.3 0 .6.1.6.6v1.5h-.2l-.1-.3s-.4.3-.7.3-.5-.2-.5-.5v-.2c0-.3.2-.6.5-.6h.7v-.3c0-.2-.1-.3-.3-.3h-.9c-.2 0-.4 0-.4.4v1.5c0 .4.2.4.4.4h1.4c.3 0 .4-.1.4-.4v-2.1c0-.3-.2-.5-.4-.5h-1.7v-.2c.2 0 .7-.1 1.2-.1h.5c.4 0 .7.3.7.8v2.1c0 .4-.2.7-.7.7h-1.4c-.4 0-.7-.3-.7-.7zm1.2 1.2c.2 0 .5-.1.7-.2v-.6l-.7.1c-.2 0-.3.1-.2.3v.2c-.1.1.1.2.2.2z"/><path d="m157.2 70.8c.5 0 .8.1.8.8 0 .3-.2.5-.6.5h-.9c0 .5.1.6.4.6h1v.2c-.3.1-.7.1-1 .1-.6 0-.7-.3-.7-1.1 0-1 .3-1.1 1-1.1zm.2 1c.2 0 .3-.1.3-.2 0-.4-.1-.5-.5-.5-.5 0-.7 0-.7.7z"/><path d="m158.4 70.8h.2l.1.3c.3-.1.5-.3.8-.3s.5.1.6.3c.2-.2.5-.3.9-.3s.7.3.7.7v1.5h-.3v-1.5c0-.2-.2-.4-.4-.4-.3 0-.5.1-.8.2v.2 1.5h-.3v-1.5c0-.2-.2-.4-.4-.4-.3 0-.5.1-.8.2v1.7h-.3z"/><path d="m162.1 72.3c0-.3.2-.6.6-.6h.9v-.3c0-.3-.1-.3-.3-.3-.3 0-.7 0-1.1 0v-.2c.3-.1.7-.1 1.1-.1.3 0 .6.2.6.6v1.6h-.2l-.1-.3s-.5.3-.9.3c-.3 0-.6-.2-.6-.5zm.5.5c.3 0 .9-.2.9-.2v-.6l-.9.1c-.2 0-.2.1-.2.3v.2c0 .1.1.2.2.2z"/><path d="m164.3 70.3c0-.1 0-.1.1-.1h.2c.1 0 .1 0 .1.1v.2c0 .1 0 .1-.1.1h-.2c-.1 0-.1 0-.1-.1zm0 .5h.3v2.2h-.3z"/><path d="m165.1 69.8h.3v2.5c0 .4.1.4.2.5 0 0 .3.1.4.1v.1h-.4c-.3 0-.5-.2-.5-.8z"/><path d="m166.5 72.7c0-.1 0-.1.1-.1h.2c.1 0 .1 0 .1.1v.2c0 .1 0 .1-.1.1h-.2c-.1 0-.1 0-.1-.1z"/><path d="m168.2 70.8c.2 0 .7.1.9.1v.2s-.6 0-.9 0c-.2 0-.4 0-.4.8 0 .6.1.8.4.8h1v.2c-.3.1-.6.1-1 .1s-.7-.2-.7-1.1c-.1-.9.2-1.1.7-1.1z"/><path d="m170.4 70.8c.7 0 1 .3 1 1.2 0 .8-.2 1.1-1 1.1-.7 0-1-.3-1-1.1 0-.9.3-1.2 1-1.2zm0 2c.4 0 .7-.1.7-.8 0-.8-.2-.8-.7-.8s-.7.1-.7.8.3.8.7.8z"/><path d="m171.8 70.8h.2l.1.3c.3-.1.5-.3.8-.3s.5.1.6.3c.2-.2.5-.3.9-.3s.7.3.7.7v1.5h-.3v-1.5c0-.2-.2-.4-.4-.4-.3 0-.5.1-.8.2v.2 1.5h-.3v-1.5c0-.2-.2-.4-.4-.4-.3 0-.5.1-.8.2v1.7h-.3z"/></g><path d="m57.3 24.3c-.7.8-1.2 1.7-1.6 2.9-.4 1.1-.8 2.4-1.1 3.6-.4 1.3-.7 2.6-1.1 3.9s-.9 2.6-1.6 3.8-1.5 2.2-2.5 3.1-2.3 1.6-3.8 2-2.7.5-3.7.3-1.9-.6-2.5-1.2-1-1.3-1.3-2.2c-.2-.9-.3-1.8-.2-2.8s.4-2 .8-3 1-1.9 1.8-2.6c-.5-.7-.8-1.6-1-2.5s-.2-1.9 0-2.9c.1-1 .4-2.1.9-3.2.4-1.1 1-2.2 1.8-3.2-.8.1-1.5.2-2.3.4-.7.1-1.5.4-2.2.7s-1.4.7-2.1 1.1c-.7.5-1.3 1-1.9 1.7s-1 1.3-1.2 2-.3 1.3-.3 1.9.2 1.1.5 1.5.7.7 1.2.9l-1.2.8c-.6 0-1.2-.2-1.9-.7s-1.2-1.1-1.7-2c-.5-.8-.7-1.7-.8-2.8-.1-1 .2-2.1.9-3.1.5-.8 1.1-1.5 1.8-2s1.5-.9 2.3-1.1c.8-.3 1.7-.4 2.5-.5.9-.1 1.8-.1 2.6-.1h2.5c.8 0 1.6 0 2.3-.1.8-.9 1.7-1.8 2.7-2.6s2.1-1.6 3.4-2.2c1.2-.7 2.6-1.2 4-1.7s3-.8 4.6-1c1.2-.2 2.2-.1 2.9.3s1.1.9 1.3 1.6.2 1.5-.1 2.4c-.2.9-.7 1.8-1.3 2.6-.6.9-1.4 1.6-2.3 2.4-.9.7-2 1.2-3.2 1.6-1.1.3-2 .4-2.7.2s-1.2-.5-1.5-1-.4-1-.3-1.7.4-1.4 1-2l-1.4.5c-.4.1-.9.3-1.4.5s-1.1.3-1.6.5c-.8 1.1-1.5 2.2-2 3.4s-.9 2.3-1.1 3.4c-.2.9-.2 1.9-.1 2.9s.3 1.8.8 2.5c.4.7 1 1.2 1.8 1.6s1.7.5 2.8.3h.3c.1 0 .2 0 .3-.1.3-1.1.7-2.1 1.1-3.1s.8-2 1.3-2.9 1-1.6 1.7-2.3c.6-.6 1.4-1.1 2.2-1.3zm-8.1 10.8c-1.8.2-3.3.2-4.6-.1s-2.3-.9-3.1-1.6c-.5.6-1 1.2-1.3 2-.3.7-.5 1.5-.6 2.2s-.1 1.4.1 2.1c.1.7.4 1.3.8 1.8s.9.8 1.6 1.1c.6.2 1.4.2 2.4.1.7-.1 1.2-.4 1.7-.9s.9-1 1.3-1.7.8-1.4 1.1-2.3c.3-.8.6-1.7.9-2.6zm5.7-14.3c.9-.2 1.7-.6 2.4-1.1s1.4-1.1 1.9-1.7.9-1.3 1.2-2 .4-1.3.3-1.8-.3-.9-.8-1.2-1.2-.4-2.1-.3c-1.9.2-3.6.8-5.1 1.6-1.5.9-2.8 1.9-4 3.1 1-.4 1.9-.7 2.7-1.1s1.4-.7 1.9-1c.6-.3 1.1-.7 1.5-1l.5 1.1c-.5.1-1 .4-1.4.8s-.8.8-1.1 1.2c-.3.5-.5.9-.6 1.4s-.1.9 0 1.2.4.6.8.7c.6.3 1.1.3 1.9.1z" fill="#81b9cd"/><path d="m65.6 28.1c-.1.5-.3.9-.6 1.3s-.6.8-1 1.1-.8.6-1.2.8-.9.4-1.3.4c-.9.1-1.6-.1-2-.6s-.5-1.4-.2-2.7c.1-.2.2-.6.3-1.1s.3-1 .4-1.5.3-1 .4-1.5.2-.8.3-1c.1-.4.1-.7-.1-.9-.1-.2-.4-.3-.9-.2h-.3l.4-1.3c.1-.1.3-.1.5-.2.1-.1.3-.1.5-.1s.4-.1.5-.1c1.1-.1 1.8.1 2.1.6.3.6.3 1.5 0 2.8-.1.3-.2.7-.3 1.2s-.3 1-.4 1.5c-.2.6-.3 1.2-.5 1.8-.1.4 0 .7.2.8s.5.1.8 0 .6-.3 1-.7c.3-.3.6-.8.8-1.3zm-.2-10.8c.1.5-.1.9-.3 1.3-.3.4-.7.6-1.1.7-.5.1-.9-.1-1.3-.3-.4-.3-.6-.7-.7-1.1-.1-.5.1-.9.3-1.3.3-.4.7-.6 1.2-.7s.9.1 1.3.3c.3.3.5.7.6 1.1z" fill="#81b9cd"/><path d="m66.6 21.1c.5-1.9 1.3-3.4 2.3-4.5s2.3-1.7 3.7-1.9c.9-.1 1.5.1 1.9.6s.6 1.1.7 1.8l1.6-.2.3-1.2 3.3-1.1-.4 1.8 2.6-.3-.6 1.5-2.4.3c-.2.9-.5 1.8-.7 2.7-.3 1-.5 1.9-.7 2.7s-.4 1.6-.6 2.1c-.2.6-.2 1-.3 1.1-.1.4-.1.6.2.7.2.1.5.1.8 0s.6-.3 1-.6c.3-.3.6-.8.8-1.3l.6.7c-.1.5-.3.9-.6 1.3s-.6.8-1 1.1-.8.6-1.2.8-.9.4-1.3.4c-.4.1-.8 0-1.2-.1-.3-.1-.6-.3-.8-.6s-.3-.6-.4-1.1c0-.4 0-1 .2-1.6l.1-.4c-.9.8-2 1.4-3.5 1.8-.1.3-.1.7-.2 1.1s-.2.8-.3 1.2c-.6 1.8-1.3 3.2-2.1 4.3-.8 1-1.6 1.6-2.5 1.7s-1.6-.1-2-.7-.5-1.4-.2-2.7zm2.4 9c.3-.8.5-1.5.5-2 .1-.6.1-1 0-1.4-.1-.3-.2-.6-.4-.7s-.4-.2-.7-.1l-1.8 6.9c-.1.4-.1.6 0 .8s.3.1.5 0c.2-.2.5-.5.9-1.1.4-.7.7-1.4 1-2.4zm6.1-6.7c.2-.8.4-1.7.7-2.6.2-.9.5-1.7.7-2.5l-1.4.2c0 .1 0 .2-.1.3-.2.5-.4.9-.6 1.3-.2.3-.4.6-.7.8-.2.2-.4.4-.6.5s-.4.2-.5.2c-.5.1-.9-.1-1.1-.5s-.3-.9-.1-1.6.6-1.3 1.1-1.7 1-.6 1.6-.7c.1-.4 0-.7-.2-1s-.5-.4-.9-.3c-.4 0-.7.2-1 .5s-.6.7-.9 1.1c-.3.5-.5 1-.7 1.5-.2.6-.4 1.1-.5 1.7l-1 3.9c1.1-.1 1.8.6 2.1 1.9.5-.1 1-.2 1.5-.4s.9-.4 1.2-.7c.4-.3.7-.6.9-.9.2-.4.4-.7.5-1z" fill="#81b9cd"/><path d="m49.2 37.1c9.5 7.9 22.1 5.3 32.9 2.1 6.3-1.8 12.5-3.8 18.9-5 3.7-.7 7.4-1.2 11.2-1.4 3.6-.2 7.7-.6 11.1.7.8.3 1.6.1 2.3-.3.4-.2 1-1.1.3-1.3-3.1-1.1-6.4-1.1-9.7-1.1-3.7.1-7.4.4-11.1 1-6.8 1-13.4 2.7-19.9 4.7-10.6 3.2-23.4 7.3-33-.6-.9-.9-3.9.4-3 1.2z" fill="#81b9cd"/><path d="m76.6 36.6-.5.1-2.4-3.6.4-.1 2.1 3.3.1-3.9.4-.1z" fill="#81b9cd"/><path d="m79.8 34.8c0 .2-.1.4-.1.5-.1.2-.2.3-.3.4-.1.2-.3.3-.4.3-.2 0-.3.1-.5 0-.2 0-.3-.1-.5-.2-.1-.1-.3-.2-.4-.4s-.2-.3-.2-.5c-.1-.2-.1-.4-.1-.6s.1-.4.1-.5c.1-.2.2-.3.3-.4s.3-.2.4-.2c.2 0 .3-.1.5 0 .2 0 .3.1.5.2.1.1.3.2.4.4s.2.3.2.5c.1.2.2.3.1.5zm-.6-.8c-.1-.1-.2-.2-.3-.3s-.2-.1-.3-.1-.2 0-.3 0-.2.1-.3.2-.2.2-.2.3-.1.2-.1.4v.4c0 .1.1.3.2.4s.2.2.3.3.2.1.3.1h.3c.1 0 .2-.1.3-.2s.2-.2.2-.3c.1-.1.1-.2.1-.4 0-.1 0-.3 0-.4 0-.2-.1-.3-.2-.4z" fill="#81b9cd"/><path d="m82.1 35-.1-.3c-.1.2-.2.3-.3.4s-.2.1-.3.2c-.1 0-.3 0-.4 0s-.2-.1-.3-.1c-.1-.1-.2-.2-.3-.3s-.1-.2-.2-.4l-.5-1.7.3-.1.4 1.6c0 .1.1.2.1.3.1.1.1.2.2.2.1.1.2.1.2.1h.3c.1 0 .2-.1.2-.1.1-.1.1-.1.2-.2 0-.1.1-.2.1-.3s0-.2 0-.3l-.4-1.6.3-.1.8 2.6z" fill="#81b9cd"/><path d="m84.1 32.1c-.1 0-.2-.1-.4-.1-.1 0-.2 0-.3 0s-.2.1-.3.2-.2.2-.2.3c-.1.1-.1.2-.1.4v.4c0 .2.1.3.2.4s.2.2.3.3.2.1.3.1h.4c.1 0 .1-.1.2-.1l.2-.2s.1-.1.1-.1l.2.4c-.1.1-.1.2-.2.2-.1.1-.2.1-.3.1-.2.1-.4.1-.5 0-.2 0-.3-.1-.5-.2-.1-.1-.3-.2-.4-.4s-.2-.3-.2-.5c-.1-.2-.1-.4-.1-.6s0-.4.1-.5c.1-.2.2-.3.3-.4s.3-.2.5-.2c.1 0 .2 0 .3-.1h.2.2.2z" fill="#81b9cd"/><path d="m86.9 33.7-.4-1.4c0-.1-.1-.2-.1-.3-.1-.1-.1-.2-.2-.2-.1-.1-.2-.1-.3-.1s-.2 0-.3 0-.1 0-.2.1-.1.1-.2.2c-.1-.1-.2 0-.2.1v.3l.5 1.6-.3.1-1.1-4 .3-.1.5 1.7c.1-.2.2-.4.3-.5s.2-.2.3-.2h.4c.1 0 .2.1.4.1.1.1.2.1.3.2s.2.2.2.3l.5 1.8z" fill="#81b9cd"/><path d="m87.6 32c.1.3.3.6.5.7s.4.2.7.1c.2-.1.3-.1.4-.2s.2-.3.3-.4l.2.4c-.1.1-.2.3-.4.4s-.3.2-.5.3-.4.1-.6 0c-.2 0-.3-.1-.5-.2-.1-.1-.3-.2-.4-.4s-.2-.4-.3-.6-.1-.4-.1-.6 0-.4.1-.5c.1-.2.2-.3.3-.4s.3-.2.5-.2c.2-.1.3-.1.5 0 .2 0 .3.1.4.2s.2.2.3.4.2.3.2.5zm1.4-.8c-.1-.2-.3-.4-.5-.5s-.3-.1-.5-.1c-.3.1-.5.4-.6.9z" fill="#81b9cd"/><path d="m91 30.2c-.1 0-.2-.1-.2-.1-.1 0-.2 0-.3 0s-.2.1-.3.1c-.1.1-.1.1-.1.2v.3c0 .1 0 .2.1.3l.4 1.5-.3.1-.8-2.6.3-.1.1.3c.1-.1.1-.2.1-.2 0-.1.1-.1.1-.2 0 0 .1-.1.1-.1s.1 0 .1-.1c.2-.1.4-.1.6 0z" fill="#81b9cd"/><path d="m19.5 0h-11.5c-4.4 0-8 3.6-8 8v61.5c0 4.4 3.6 8 8 8h11.5z" fill="#da4d65"/><path d="m6.5 49.5c0-.2 0-.7.1-1h.2v1c0 .5.2.7 1.2.7.7 0 1.2-.2 1.2-.7 0-.4 0-1 0-1h.2c.1.3.1.8.1 1 0 .8-.7 1-1.6 1-.8 0-1.4-.2-1.4-1z" fill="#fff"/><path d="m6.5 47c0-.7.1-1.2 1.6-1.2 1.3 0 1.5.4 1.5 1.2 0 .7-.1 1.2-1.5 1.2-1.5 0-1.6-.5-1.6-1.2zm2.8 0c0-.6-.2-.9-1.2-.9-1.2 0-1.3.3-1.3.9s0 .9 1.3.9c1 0 1.2-.2 1.2-.9z" fill="#fff"/><path d="m6.5 45.3v-.4l2.6-.9-2.5-.8v-.4l3-.2v.3l-2.5.2 2.5.8v.3l-2.5.8 2.5.2v.3z" fill="#fff"/><path d="m6.5 42.1v-1.2c0-.3.1-.7.9-.7.9 0 .9.4.9.7 0 .2-.1.9-.1.9h1.3v.3zm1.5-1.2c0-.2-.1-.4-.6-.4s-.6.3-.6.4v.9h1.2z" fill="#fff"/><path d="m6.5 39v-.3l3-1.1v.4l-.8.3v1.2l.8.3v.4zm1.9-.6-1.4.5 1.4.5z" fill="#fff"/><path d="m6.5 37.2v-.3l2.5-1.6h-2.5v-.3h3v.3l-2.5 1.6h2.5v.3z" fill="#fff"/><path d="m6.5 34.2 1.6-.8-1.6-.9v-.3l2 1h1.1v.3h-1.1l-2 1z" fill="#fff"/><path d="m6.5 30.7v-.3l2.5-1.6h-2.5v-.3h3v.3l-2.5 1.6h2.5v.3z" fill="#fff"/><path d="m6.5 27v-.3l3-1.1v.4l-.8.3v1.2l.8.3v.4zm1.9-.7-1.4.5 1.4.5z" fill="#fff"/><path d="m6.5 25v-.4l2.5-.8-2.5-.8v-.4l3-.2v.3l-2.5.2 2.5.8v.3l-2.5.8 2.5.2v.3z" fill="#fff"/><path d="m7.1 21.9c-.4 0-.6-.2-.5-.5l.1-1.3h.2v1.3c0 .2.1.2.2.2h.8v-1.4h.2v1.4h.8c.2 0 .2-.1.2-.3v-1.3h.2l.1 1.3c0 .3-.1.6-.5.6z" fill="#fff"/><path d="m10.9 50.5c-.4 0-.5-.2-.5-.5 0-.1 0-.5.1-.6v.6c0 .2.1.4.4.5l.2-.1c.3 0 .3-.2.3-.4v-.3c0-.4.2-.5.4-.5h.2c.4 0 .5.3.5.5v.7c0-.1 0-.4 0-.7s-.1-.5-.4-.5h-.2c-.2 0-.3.1-.3.4v.4c0 .4-.2.5-.4.5z" fill="#fff"/><path d="m10.3 48.8 1.7-.1c.4 0 .5-.2.5-.3v-.2.2c0 .2-.2.3-.5.3h-1.7z" fill="#fff"/><path d="m11 47.6c0-.5.3-.6.8-.6s.7.1.7.6-.2.6-.7.6c-.6 0-.8-.2-.8-.6zm1.4 0c0-.4-.1-.6-.7-.6s-.7.2-.7.6c0 .3.1.5.7.5.7 0 .7-.2.7-.5z" fill="#fff"/><path d="m12 46.4c-.1.2-.3.2-.4.2-.4 0-.5-.1-.5-.5v-.9.3c0-.1.1-.2.5-.2.2 0 .5.1.5.5l-.1.6s.1.2.2.2.2-.1.2-.2v-.6c0-.3.2-.4.4-.4h.1c.2 0 .4.1.4.4v.4c0 .3-.2.4-.4.4h-.3-.3-.1c-.1 0-.2-.1-.2-.2zm-.1-.3v-.3c0-.3-.2-.4-.4-.4-.3 0-.5.1-.5.3v.4c0 .3.2.4.5.4s.4-.1.4-.4zm1.3.1v-.4c0-.2-.1-.4-.3-.4h-.1c-.2 0-.3.1-.3.3v.6c0 .2-.1.2-.1.2h.5c.2 0 .3-.2.3-.3z" fill="#fff"/><path d="m12 45c-.2 0-.4-.1-.4-.4v-.7h-.2c-.2.1-.4.1-.4.4 0 .2 0 .4.1.6 0-.2-.1-.4-.1-.6s.1-.4.4-.4h1.1-.2s.2.4.2.7c0 .2-.1.4-.4.4zm.4-.4c0-.2-.2-.7-.2-.7h-.6v.7c0 .2.1.3.3.3h.2c.3.1.3-.1.3-.3z" fill="#fff"/><path d="m11 43.5.2-.1c-.1-.2-.2-.4-.2-.6 0-.3.2-.5.5-.5h1v.1h-1c-.2 0-.4.1-.4.4 0 .2.1.4.2.6h1.3v.1z" fill="#fff"/><path d="m10.4 41.1 1-.1v-1.2h-1v-.1h2.1v.1h-1v1.2h1v.1z" fill="#fff"/><path d="m11 38.7c0-.3 0-.6.5-.6.2 0 .3.1.3.4v.7c.6 0 .7-.2.7-.4 0-.3 0-.4-.1-.6.1.2.1.4.1.6 0 .4-.2.5-.8.5s-.7-.2-.7-.6zm.7-.2c0-.2 0-.3-.2-.3-.4 0-.5.2-.5.5 0 .4.1.5.7.5z" fill="#fff"/><path d="m11 37.8.2-.1c-.1-.2-.2-.4-.2-.6 0-.1 0-.2 0-.2h.1v.2c0 .3.1.4.2.6h1.2v.1z" fill="#fff"/><path d="m11 36.1c0-.3 0-.6.5-.6.2 0 .3.1.3.4v.7c.6 0 .7-.2.7-.4 0-.3 0-.4-.1-.6.1.2.1.4.1.6 0 .4-.2.5-.8.5s-.7-.2-.7-.6zm.7-.2c0-.2 0-.3-.2-.3-.4 0-.5.2-.5.5 0 .4.1.5.7.5z" fill="#fff"/><path d="m12.5 57.2v-5.1h-5.1z" fill="#fff"/><path d="m6.7 52.6v5.3h5.3z" fill="#fff"/><path d="m148 59.7c-.3 0-.6 0-.9 0-.1 0-.2-.1-.2-.2s.1-.2.2-.2h1.9c.1 0 .2.1.2.2s-.1.2-.2.2c-.3 0-.6 0-1 0zm-2.7-.2c-.6-.1-1.3-.2-1.9-.3-.1 0-.2-.1-.2-.3 0-.1.1-.2.3-.2.6.1 1.2.2 1.8.3.1 0 .2.1.2.3 0 .1-.1.2-.2.2zm5.6 0c-.1 0-.2-.1-.2-.2s.1-.2.2-.3c.6-.1 1.2-.2 1.8-.3.1 0 .3.1.3.2s-.1.2-.2.3c-.6.1-1.3.2-1.9.3zm-9.3-.7c-.7-.2-1.3-.3-1.9-.5-.1 0-.2-.2-.1-.3 0-.1.2-.2.3-.1.6.2 1.2.4 1.8.5.1 0 .2.2.2.3-.1.1-.2.1-.3.1zm13 0c-.1 0-.2-.1-.2-.2s0-.3.2-.3c.6-.2 1.2-.3 1.8-.5.1 0 .3 0 .3.1s0 .3-.1.3c-.8.3-1.4.5-2 .6zm-16.5-1.2c-.1 0-.1 0 0 0-.7-.3-1.2-.5-1.8-.8-.1-.1-.2-.2-.1-.3s.2-.2.3-.1c.5.3 1.1.5 1.7.8.1.1.2.2.1.3s-.1.1-.2.1zm20 0c-.1 0-.2-.1-.2-.1-.1-.1 0-.3.1-.3.6-.2 1.1-.5 1.7-.8.1-.1.3 0 .3.1.1.1 0 .3-.1.3-.5.3-1.1.5-1.8.8zm-23.4-1.7h-.1c-.5-.3-1.1-.7-1.6-1-.1-.1-.1-.2-.1-.3.1-.1.2-.1.3-.1.5.4 1 .7 1.5 1 .1.1.1.2.1.3.1.1 0 .1-.1.1zm26.7 0c-.1 0-.2 0-.2-.1-.1-.1 0-.3.1-.3.5-.3 1-.7 1.5-1 .1-.1.3-.1.3.1.1.1.1.3-.1.3-.5.4-1 .7-1.6 1zm-29.7-2.1c-.1 0-.1 0-.1-.1-.5-.4-1-.8-1.4-1.3-.1-.1-.1-.2 0-.3s.2-.1.3 0c.4.4.9.8 1.4 1.2.1.1.1.2 0 .3s-.2.2-.2.2zm32.8-.1c-.1 0-.1 0-.2-.1s-.1-.2 0-.3c.5-.4.9-.8 1.4-1.2.1-.1.2-.1.3 0s.1.2 0 .3c-.5.4-.9.9-1.4 1.3zm-35.5-2.5c-.1 0-.1 0-.2-.1-.4-.5-.8-1-1.2-1.4-.1-.1-.1-.2 0-.3s.2-.1.3 0c.4.5.8 1 1.2 1.4.1.1.1.2 0 .3 0 0-.1.1-.1.1zm38.2-.1c-.1 0-.1 0-.2-.1s-.1-.2 0-.3c.4-.5.8-.9 1.2-1.4.1-.1.2-.1.3 0s.1.2 0 .3c-.4.5-.8 1-1.2 1.5zm-40.5-2.9c-.1 0-.2 0-.2-.1-.3-.5-.7-1.1-1-1.6-.1-.1 0-.3.1-.3.1-.1.3 0 .3.1.3.5.6 1.1 1 1.6.1.1 0 .3-.1.3zm42.7-.1h-.1c-.1-.1-.1-.2-.1-.3.3-.5.7-1 1-1.6.1-.1.2-.2.3-.1s.2.2.1.3c-.3.5-.6 1.1-1 1.6 0 .1-.1.1-.2.1zm-44.6-3.1c-.1 0-.2 0-.2-.1-.3-.6-.5-1.2-.7-1.7 0-.1 0-.3.1-.3s.3 0 .3.1c.2.6.5 1.1.7 1.7.1.1 0 .3-.1.3 0-.1 0 0-.1 0zm46.5-.1c-.1 0-.1 0 0 0-.2-.1-.3-.2-.2-.3.3-.6.5-1.1.7-1.7 0-.1.2-.2.3-.1.1 0 .2.2.1.3-.2.6-.5 1.2-.7 1.7 0 0-.1.1-.2.1zm-47.8-3.4c-.1 0-.2-.1-.2-.2-.2-.6-.3-1.2-.5-1.8 0-.1.1-.3.2-.3s.3.1.3.2c.1.6.3 1.2.5 1.8 0 .1-.1.2-.3.3zm49.1-.1c-.2 0-.3-.2-.2-.3.2-.6.3-1.2.5-1.8 0-.1.2-.2.3-.2s.2.2.2.3c-.1.6-.3 1.2-.5 1.8-.1.1-.2.2-.3.2zm-49.9-3.6c-.1 0-.2-.1-.2-.2-.1-.6-.2-1.3-.2-1.9 0-.1.1-.2.2-.3.1 0 .2.1.3.2 0 .6.1 1.2.2 1.8-.1.3-.2.4-.3.4zm50.7-.1c-.2 0-.3-.1-.2-.3.1-.6.2-1.2.2-1.8 0-.1.1-.2.3-.2.1 0 .2.1.2.3 0 .6-.1 1.3-.2 1.9-.1 0-.2.1-.3.1zm-51-3.6c-.1 0-.2-.1-.2-.2v-.1c0-.6 0-1.3.1-1.9 0-.1.1-.2.3-.2.1 0 .2.1.2.3 0 .6-.1 1.2-.1 1.9v.1c-.1 0-.2.1-.3.1zm51.3-.1c-.1 0-.2-.1-.2-.2 0-.6 0-1.2-.1-1.9 0-.1.1-.2.2-.3.1 0 .2.1.3.2 0 .6.1 1.3.1 1.9-.1.2-.2.3-.3.3zm-51-3.7c-.2 0-.3-.1-.2-.3.1-.6.2-1.2.3-1.9 0-.1.2-.2.3-.2s.2.2.2.3c-.1.6-.2 1.2-.3 1.8-.1.2-.2.3-.3.3zm50.7 0c-.1 0-.2-.1-.2-.2-.1-.6-.2-1.2-.3-1.8 0-.1.1-.3.2-.3s.3.1.3.2c.1.6.3 1.2.3 1.9 0 0-.1.1-.3.2zm-49.9-3.7c-.2 0-.3-.2-.2-.3.2-.6.4-1.2.6-1.8 0-.1.2-.2.3-.1.1 0 .2.2.1.3-.2.6-.4 1.2-.6 1.8 0 .1-.1.1-.2.1zm49.1 0c-.1 0-.2-.1-.2-.2-.2-.6-.4-1.2-.6-1.8 0-.1 0-.3.1-.3s.3 0 .3.1c.2.6.4 1.2.6 1.8.1.2 0 .4-.2.4zm-47.8-3.5c-.2-.1-.3-.2-.2-.3.3-.6.6-1.1.9-1.7.1-.1.2-.2.3-.1s.2.2.1.3c-.3.5-.6 1.1-.9 1.7 0 .1-.1.1-.2.1zm46.5 0c-.1 0-.2 0-.2-.1-.3-.6-.5-1.1-.9-1.6-.1-.1 0-.3.1-.3.1-.1.3 0 .3.1.3.5.6 1.1.9 1.7 0 0 0 .1-.2.2zm-44.6-3.2h-.1c-.1-.1-.1-.2-.1-.3.3-.5.7-1 1.1-1.5.1-.1.2-.1.3 0s.1.2 0 .3c-.4.5-.7 1-1.1 1.5 0-.1-.1 0-.1 0zm42.7 0c-.1 0-.2 0-.2-.1-.3-.5-.7-1-1.1-1.5-.1-.1-.1-.3 0-.3.1-.1.3-.1.3 0 .4.5.8 1 1.1 1.5.1.1 0 .3-.1.3.1 0 .1.1 0 .1zm-40.5-3c-.1 0-.1 0-.2-.1s-.1-.2 0-.3c.4-.5.9-.9 1.3-1.4.1-.1.2-.1.3 0s.1.2 0 .3c-.4.4-.9.9-1.3 1.3.1.2 0 .2-.1.2zm38.2 0c-.1 0-.1 0-.2-.1-.4-.5-.8-.9-1.3-1.3-.1-.1-.1-.2 0-.3s.2-.1.3 0c.5.4.9.9 1.3 1.4.1.1.1.2 0 .3 0 0 0 0-.1 0zm-35.5-2.6c-.1 0-.1 0-.2-.1s-.1-.2 0-.3c.5-.4 1-.8 1.5-1.2.1-.1.3-.1.3.1.1.1.1.3-.1.3-.5.4-1 .7-1.5 1.1.1.1.1.1 0 .1zm32.8 0c-.1 0-.1 0-.1-.1-.5-.4-1-.8-1.5-1.1-.1-.1-.1-.2-.1-.3.1-.1.2-.1.3-.1.5.4 1 .8 1.5 1.2.1.1.1.2 0 .3.1.1 0 .1-.1.1zm-29.7-2.2c-.1 0-.2 0-.2-.1-.1-.1 0-.3.1-.3.5-.3 1.1-.6 1.6-.9.1-.1.3 0 .3.1.1.1 0 .3-.1.3-.5.3-1.1.6-1.6.9zm26.7 0h-.1c-.5-.3-1.1-.6-1.6-.9-.1-.1-.2-.2-.1-.3s.2-.2.3-.1c.6.3 1.1.6 1.6.9.1.1.1.2.1.3-.1.1-.1.1-.2.1zm-23.4-1.7c-.1 0-.2-.1-.2-.1-.1-.1 0-.3.1-.3.6-.2 1.2-.5 1.8-.7.1 0 .3 0 .3.1s0 .3-.1.3c-.7.2-1.2.5-1.9.7zm20.1 0c-.1 0-.1 0 0 0-.7-.3-1.2-.5-1.8-.7-.1 0-.2-.2-.1-.3 0-.1.2-.2.3-.1.6.2 1.2.4 1.8.7.1.1.2.2.1.3-.2.1-.3.1-.3.1zm-16.6-1.2c-.1 0-.2-.1-.2-.2s0-.3.2-.3c.6-.2 1.2-.3 1.8-.4.1 0 .3.1.3.2s-.1.3-.2.3c-.6.1-1.2.2-1.9.4.1 0 .1 0 0 0zm13 0c-.7-.2-1.3-.3-1.9-.4-.1 0-.2-.1-.2-.3 0-.1.1-.2.3-.2.6.1 1.2.3 1.8.4.1 0 .2.2.2.3s-.1.2-.2.2zm-9.3-.7c-.1 0-.2-.1-.2-.2s.1-.2.2-.3c.6-.1 1.3-.1 1.9-.1.1 0 .2.1.2.2s-.1.2-.2.2c-.6.1-1.2.2-1.9.2zm5.6 0c-.6-.1-1.3-.1-1.9-.1-.1 0-.2-.1-.2-.2s.1-.2.2-.2c.6 0 1.3.1 1.9.1.1 0 .2.1.2.3.1 0 0 .1-.2.1z" fill="#81b9cd"/><ellipse cx="148" cy="33.8" fill="#81b9cd" rx="24.3" ry="24.3" transform="matrix(.0596796 -.9982 .9982 .0596796 105.4872 179.5469)"/><path d="m134.6 38.3c.1.1.1.2.2.2.1.1.1.2.1.3-.2.1-.3.2-.4.3s-.2.3-.2.4c-.1.3 0 .7.1 1 .2.3.4.6.8.7.6.2 1.1.1 1.5-.4.3-.4.5-1 .6-1.6 0-.6-.2-1.2-.8-1.7-.5-.5-1.1-1.1-1.7-1.6-.3-.3-.6-.6-.8-.9s-.4-.6-.5-1c-.1-.3-.2-.7-.2-1 0-.4.1-.7.2-1 .3-.6.7-1 1.2-1.3.3-.1.5-.2.8-.3 0-.3 0-.6 0-.9 0-.4 0-.9-.1-1.3h.3.1c.1 0 .2.1.3.1 0 .4-.1.8-.1 1.2 0 .3 0 .6-.1.9.2 0 .4 0 .5.1.2.1.3.1.5.2.1.1.2.2.3.4.3.4.4.9.3 1.5-.1.5-.4.9-1 1-.1 0-.1-.1-.1-.2s0-.2 0-.2c.5-.1.8-.5.8-1.1s-.2-1-.7-1.1c-.7-.2-1.2 0-1.6.6-.3.6-.4 1.3-.2 2.2.2.6.5 1.1 1.2 1.6.6.5 1.2 1.1 1.7 1.7.3.3.5.7.6 1.1.1.3.2.7.2 1.1v.3c-.1.9-.5 1.5-1.2 1.9-.3.2-.7.3-1 .3 0 .3 0 .7.1 1.1v1.3c-.1 0-.2.1-.3.1h-.1c-.1 0-.2-.1-.3-.1 0-.4 0-.8.1-1.2 0-.4 0-.7.1-1.1-.2 0-.5-.1-.7-.1-.5-.1-.9-.4-1.1-.9s-.3-1-.2-1.4c0-.2.1-.4.3-.6.2-.3.3-.4.5-.6z" fill="#fff"/><path d="m143.1 28.9c.8.2 1.4.5 1.7 1 .4.5.6 1.1.6 1.9v.2c0 .8-.2 1.8-.5 2.8-.4 1.1-.9 2.3-1.6 3.4-.3.6-.7 1.3-1.1 1.9s-.9 1.2-1.3 1.8c.2.1.4.3.6.4s.5.2.8.3c.5.1 1 .2 1.4.1.5-.1.8-.3 1-.8.1 0 .2 0 .3.1s.2.2.2.4c-.4.6-.8 1-1.2 1.1-.2 0-.4.1-.6.1-.3 0-.6 0-.8-.1-.3-.1-.5-.2-.7-.3s-.5-.3-.7-.5-.5-.2-.7.1-.4.5-.7.6c-.2 0-.3-.1-.4-.2s-.1-.2-.2-.4c.5-.8 1-1.7 1.6-2.8s1.1-2.2 1.6-3.4c.5-1.1.9-2.2 1.1-3.2.3-1 .4-1.9.3-2.6 0-.4-.1-.7-.3-.9s-.4-.4-.7-.5c-.5-.1-.9 0-1.3.4s-.6.8-.6 1.3c0 .2 0 .3.1.5s.2.3.3.5c-.1.1-.1.2-.2.2-.1.1-.2.1-.3.1-.5-.5-.6-1.1-.4-1.8s.7-1.2 1.3-1.5c.2-.1.4-.2.7-.2h.3c0-.1.2-.1.4 0z" fill="#fff"/><path d="m153 29.2c0 .1.1.2 0 .4 0 .1 0 .3-.1.4-.3-.3-.8-.4-1.3-.4-.6 0-1.2 0-1.7.1-.3 0-.6 0-.9.1-.3 0-.5 0-.7 0v4.2c.1-.1.4-.3.8-.5s.9-.3 1.4-.3c.3 0 .5.1.8.2s.6.3.8.5c.3.3.5.6.7 1s.4.8.5 1.3c.1.6.2 1.1.2 1.7 0 .4 0 .8-.1 1.1-.1 1-.5 1.9-1 2.7-.4.5-.8.9-1.4 1.2-.5.3-1.1.4-1.8.4-.1 0-.2 0-.3 0-.3 0-.6-.1-.9-.2s-.5-.3-.7-.5-.3-.5-.5-.8c-.1-.3-.2-.6-.3-.9-.1-.4-.1-.8-.1-1.1 0-.1 0-.3 0-.4 0-.5.1-.8.3-.9.3-.1.5 0 .6.1s.1.2.2.3c-.2.3-.3.7-.3 1.2s.1 1 .4 1.4c.1.3.3.5.6.7.2.2.5.3.8.3.4 0 .8 0 1.2-.2.3-.2.6-.4.9-.7s.5-.7.6-1.1c.2-.4.3-.8.3-1.3.1-.8.1-1.7 0-2.5s-.4-1.5-.8-1.9c-.5-.6-1.1-.8-1.7-.6-.6.1-1.1.5-1.3 1-.1 0-.3 0-.5-.1s-.3-.3-.4-.4l.5-5.5c.6.1 1.2.1 1.9.1.7-.1 1.4-.2 2-.2h.3.6c0-.1.2 0 .4.1z" fill="#fff"/><path d="m159 28.7c.1 0 .3.1.3.3.1.2.1.3 0 .4-.5 0-.9.1-1.2.3-.4.2-.7.5-.9.9-.5.8-.8 1.7-.9 2.9s-.2 2.4 0 3.6c.1 1 .2 1.9.5 2.7.2.9.5 1.5.8 2 .2.3.4.5.6.6s.4.2.6.2c.3 0 .6-.2.9-.3.3-.2.5-.4.7-.7.4-.6.7-1.3 1-2.2.2-.9.4-1.8.4-2.8.1-1.2 0-2.3-.1-3.4-.2-1.1-.5-1.9-.8-2.5-.2-.3-.4-.5-.7-.6s-.6-.1-.9.1c-.1 0-.1-.1-.1-.2s.1-.2.1-.3c.3-.1.7-.2 1-.1s.6.2.8.4c.5.4.8 1 1.1 1.9.3.8.5 1.7.5 2.8v1.1c0 .9-.1 1.8-.2 2.7-.2 1.3-.6 2.4-1.2 3.2-.3.5-.7.8-1.1 1.1s-.9.4-1.4.5c-.1 0-.1 0-.2 0-.4 0-.7-.1-1-.2-.4-.2-.7-.4-1-.7-.6-.6-1-1.4-1.4-2.4-.3-1-.5-2.1-.6-3.2 0-.2 0-.4 0-.6 0-1 .1-1.9.3-2.8.3-1.1.7-2.1 1.3-2.8.4-.5.8-.9 1.3-1.1.2-.6.8-.7 1.5-.8z" fill="#fff"/><path d="m142.7 26.8h-.7l-.7-2.9h.5l.6 2.5.6-2.5h.5z" fill="#fff"/><path d="m146.4 26.8h-.5l-.2-.7h-.8l-.2.7h-.5l.8-2.9h.6zm-.7-1.1-.4-1.5-.3 1.5z" fill="#fff"/><path d="m147.9 23.9v2.5h.9v.3h-1.4v-2.9h.5z" fill="#fff"/><path d="m150.9 26.8c-.8 0-1-.4-1-1.1v-1.8h.5v1.8c0 .5 0 .9.5.9s.5-.5.5-.9v-1.7h.4v1.7c0 .7-.2 1.1-.9 1.1z" fill="#fff"/><path d="m154.5 24.2h-.9v.9h.8v.3h-.8v1h1v.3h-1.5v-2.9h1.5v.4z" fill="#fff"/><path d="m25.3 68.5h1.2v1.2h-1.2z" fill="#221f20"/><path d="m27.2 67.7h-2.6v2.6h2.6zm-.4 2.3h-2v-2h2z" fill="#221f20"/><path d="m25.3 73.8h1.2v1.2h-1.2z" fill="#221f20"/><path d="m24.5 75.7h2.6v-2.7h-2.6zm.3-2.3h2v2h-2z" fill="#221f20"/><path d="m30.6 68.5h1.2v1.2h-1.2z" fill="#221f20"/><path d="m32.5 67.7h-2.6v2.6h2.6zm-.3 2.3h-2v-2h2z" fill="#221f20"/><path d="m28.3 67.7h.4v.4h-.4z" fill="#221f20"/><path d="m29.1 69.2h.4v.4h-.4z" fill="#221f20"/><path d="m31.7 71.5h.4v.4h-.4z" fill="#221f20"/><path d="m32.1 71.1h.4v.4h-.4z" fill="#221f20"/><path d="m27.6 75.3h.4v.4h-.4z" fill="#221f20"/><path d="m29.8 75.3h.4v.4h-.4z" fill="#221f20"/><path d="m30.6 75.3h.4v.4h-.4z" fill="#221f20"/><path d="m31.7 75.3h.4v.4h-.4z" fill="#221f20"/><path d="m28 70h.3v.7h.4v-.7h.4v.3h.3v-.3h-.3v-.4h-1.1v-.4h.3v-.4h.4v.4h.4v-.7h-.8v.3h-.3v-.3h-.4v2.3h.4z" fill="#221f20"/><path d="m29.5 73.4v.8h-.4v.7h-.4v.8h.4v-.4h.4.3v-1.1h.4v.8h.4v-.4h.4v.7h.7v-.7-.1-.3h-1.1v-.8h-.4v.4h-.4v-.4h.4v-.4h-.7z" fill="#221f20"/><path d="m31.3 71.9v-.4-.1-.3h.4v-.4h-1.9v.4h.8v.4h.4v.7h-1.1v-.3h-.4v-.4-.4h-.4v-.4h-.4v.4h-.3v-.4h-.4v.4h.3v.8h-.4v-.8h-.4v1.9h.1.2.4v-.4h.4v-.4h.4v.8h.4v-.4h.7v.4h.9v-.4h.4v-.2-.1h.4v-.4zm-2.2 0h-.4v-.4h.4z" fill="#221f20"/><path d="m31.3 72.7v.3h.4v.4h-.7v.4h.7.4v.4h.4v-.4-.4h-.4v-.4h.4v-.7h-.8v.4z" fill="#221f20"/><path d="m29.1 74.2v-.4h-.4v-.4h.4v-.4h-.7v.4h-.8v1.5h.4v-.4h.4v.4h.4v-.8h.3zm-.8 0h-.4v-.4h.4z" fill="#221f20"/><path d="m26.8 71.5v-.3h.4v-.5h-1.9v.5h.7v.7h.4v-.4z" fill="#221f20"/><path d="m26.8 71.9h-.4v.8h.4.4v-.4h-.4v-.4h.4v-.4h-.4z" fill="#221f20"/><path d="m25.7 71.9h.4v.4h-.4z" fill="#221f20"/><path d="m25.3 71.5v-.3h-.4v-.5h-.4v.8h.4.4v.4h.4v-.4z" fill="#221f20"/><path d="m24.9 72.3h.4v.4h-.4z" fill="#221f20"/><path d="m24.5 71.9h.4v.4h-.4z" fill="#221f20"/></svg>