<svg enable-background="new 0 0 334.5 191.3" viewBox="0 0 334.5 191.3" xmlns="http://www.w3.org/2000/svg" xmlns:xlink="http://www.w3.org/1999/xlink"><defs><path id="a" d="m68.8 103.7s2.8-10 12.3-6.8c5.5 1.8 7.9 8.3 8.5 10.4.6 2 5.3 9 7.3 11 2 1.9 5 .3 8.6 4.4s4.7 6.9 5.4 7.6c.7.6 2.9 3.5 3.5 4 .5.5 2.2 2.1 2 3.6s-2.5 2.1-3.3 2.8-1.4 2.6-2 3.1-1.8 1.1-1.8 1.1-.2.4-.9.6-1 .2-1 .2.4.2-.3.2c-.8 0-.9-.1-.9-.1s-.5.2-.8.2-.5-.2-.5-.2.2 0-.2 0-.8-.3-.8-.3-1.2.2-1.6-.8c-.4-.9.2-1.6 1-2.1s.6-1.6 1.7-2.1c1.2-.5 3.9-4.6 3.9-4.6s-8.7-8.9-11.2-9.8-5.5-.5-7.7-2.4-6.6-6.5-7.7-7.5-10.4-7.4-10.4-7.4z"/><clipPath id="b"><use xlink:href="#a"/></clipPath></defs><ellipse cx="87.8" cy="57.9" fill="#ebf2ed" rx="11" ry="11.6"/><path d="m132.2 86.1c-5.2-19.4-76-34.2-108.6-13.4s-.8 18.2-15.1 55c-20.4 52.5 29.5 72.7 62.1 51.8 32.6-20.7 78.7-30 61.6-93.4z" fill="#d4f9ff"/><path d="m128.7 179.4c4.5 2.6 11.8 2.6 16.3 0s4.5-6.8.1-9.4c-4.5-2.6-11.8-2.6-16.3 0-4.6 2.6-4.6 6.8-.1 9.4z" fill="#dde9ed"/><path d="m129.9 161.6c0 1.1.7 2.2 2.1 3 2.8 1.6 7.4 1.6 10.2 0 1.4-.8 2.1-1.9 2.1-2.9 0-1.1-.7-2.2-2.1-3-2.8-1.6-7.4-1.6-10.2 0-1.4.8-2.1 1.9-2.1 2.9z" fill="#ce6f3f"/><path d="m128 161.7 1.9 12.3c0 1.1.7 2.1 2.1 3 2.8 1.6 7.4 1.6 10.2 0 .7-.4 1.2-.9 1.6-1.4s.5-1 .5-1.6l1.9-12.4c0 1.1-2.6 2.1-4 2.9-2.8 1.6-7.4 1.6-10.2 0-1.4-.7-4-1.7-4-2.8z" fill="#ea3a9e"/><path d="m128 161.6c0 1.4.9 2.7 2.7 3.7 3.6 2.1 9.3 2 12.9 0 1.8-1 2.7-2.4 2.7-3.7 0-1.4-.9-2.7-2.7-3.8-3.6-2-9.3-2-12.9 0-1.8 1.2-2.7 2.5-2.7 3.8z" fill="#f33fab"/><path d="m129.4 161.6c0 .5.1.9.3 1.3.3.7 1 1.3 1.9 1.9 3 1.7 7.9 1.7 11 0 1-.6 1.6-1.2 2-1.9.2-.4.3-.8.3-1.2 0-1.2-.7-2.3-2.3-3.2-3-1.7-7.9-1.7-11 0-1.4.9-2.2 2-2.2 3.1z" fill="#b7237f"/><path d="m129.7 162.9c.3.7 1 1.3 1.9 1.9 3 1.7 7.9 1.7 11 0 1-.6 1.6-1.2 2-1.9-.3-.7-1-1.3-1.9-1.9-3-1.7-7.9-1.7-11 0-1 .6-1.7 1.2-2 1.9z" fill="#004f77"/><path d="m138.1 161.7s0-.1-.1-.2-.1-.4-.2-.7c-.1-.6-.3-1.4-.3-2.5 0-2.1 0-5.1.2-8.2.3-6.3 1.1-13.4 1.3-17 .1-1.4.3-3.9.3-6.8.1-2.9.1-6.2 0-9.4 0-3.2-.2-6.2-.4-8.3-.2-2.2-.4-3.6-.4-3.6s0 .6.1 1.6c0 1 .1 2.3.1 3.7 0 2.7-.1 5.7-.1 6.5v5.2c0 2 0 4.2-.1 6.6-.2 4.7-.7 10-1 14.9-.4 4.9-.5 9.5-.5 12.9 0 1.7 0 3.1.2 4 .1.5.2.8.3 1.1.1.2.1.4.1.4z" fill="#09bcb4"/><g fill="#56a8c1"><path d="m137.3 155.6s.1-.5.6-1.2 1.3-1.7 2.6-2.5c1.3-.9 3.2-1.2 4.7-1.4 1.5-.1 2.7-.1 2.7-.1s-.1.3-.3.7-.5 1-.8 1.6c-.7 1.2-1.8 2.5-3.3 2.8s-3 .3-4.2.2c-1.2 0-2-.1-2-.1z"/><path d="m137.8 147.7s1.3-2.2 3.7-3.9c2.5-1.7 7-1.5 7-1.5s-.3 1.2-1 2.4-1.7 2.5-3.1 2.8c-2.9.5-6.6.2-6.6.2z"/><path d="m138.6 138.1s2.3-2.1 4.5-3.9c2.3-1.8 6.6-1.9 6.6-1.9s-.2 1.2-.8 2.5-1.5 2.6-2.9 2.9c-2.7.7-7.4.4-7.4.4z"/><path d="m139.2 129.3s.7-.6 1.6-1.5 2.1-2 3-3c.5-.5 1.1-.9 1.7-1.2s1.3-.6 2-.8c1.2-.4 2.3-.5 2.3-.5s0 .3-.1.7c0 .2-.1.5-.1.8-.1.3-.1.6-.2 1-.4 1.4-1.1 2.8-2.4 3.2-2.6 1-7.8 1.3-7.8 1.3z"/><path d="m139.2 120.4s2.5-2.8 4.1-4.9c1.6-2 5.4-3 5.4-3s.1 1.2-.2 2.5c-.2 1.3-.8 2.7-1.9 3.2-2.3 1.1-7.4 2.2-7.4 2.2z"/><path d="m139.2 111.6s1.2-2.5 2.5-4.7c.6-1.1 1.8-2 2.8-2.6s1.8-1 1.8-1 .1.3.1.7c.1.4.1 1.1.1 1.7 0 1.3-.4 2.8-1.4 3.4-2 1.4-5.9 2.5-5.9 2.5z"/><path d="m137.4 155.6s-.1-.5-.6-1.2c-.4-.7-1.2-1.7-2.4-2.7s-3-1.6-4.5-1.9-2.7-.4-2.7-.4.1.3.2.9c.1.5.4 1.2.7 2 .6 1.5 1.7 3 3.2 3.4 1.5.3 3 .3 4.2.3 1.1-.2 1.9-.4 1.9-.4z"/><path d="m137.5 147.7s-.9-2.4-3.1-4.5-6.7-2.6-6.7-2.6.1 1.3.6 2.7 1.3 2.9 2.7 3.4c2.7.9 6.5 1 6.5 1z"/><path d="m138.3 138.1s-1.9-2.5-3.8-4.5c-2-2-6.2-2.6-6.2-2.6s.1 1.1.5 2.4 1.1 2.7 2.4 3.2c2.4 1 7.1 1.5 7.1 1.5z"/><path d="m138.9 129.4s-.6-.7-1.4-1.6-1.9-2.1-2.9-3c-.5-.5-1.1-.8-1.7-1.2-.6-.3-1.3-.6-2-.8-1.2-.4-2.3-.5-2.3-.5s0 .3.1.7.2 1 .4 1.6c.4 1.1 1 2.4 2.2 2.9 2.4 1 7.6 1.9 7.6 1.9z"/><path d="m139.3 120.4s-2.5-2.8-4.2-4.6-5.6-2.4-5.6-2.4 0 1 .4 2.2c.3 1.1.9 2.4 2 2.9 2.2.9 7.4 1.9 7.4 1.9z"/><path d="m138.9 111.7s-1.5-2.4-3.1-4.1c-.8-.9-2.1-1.4-3.3-1.7-1.1-.3-2-.4-2-.4s0 .2.1.6c0 .4.1.9.3 1.4.3 1.1.8 2.2 1.9 2.7 2 .8 6.1 1.5 6.1 1.5z"/><path d="m138.7 106.5s-.7-.8-1.4-1.8-1.5-2.3-1.8-3.5c-.2-1.1.1-2.3.5-3.2s.9-1.6.9-1.6.7.4 1.4 1.1 1.5 1.7 1.7 2.8c.3 1.5 0 3.1-.4 4.2-.5 1.2-.9 2-.9 2z"/></g><path d="m27.1 120.5c4.2 2.4 11 2.4 15.2 0s5.5-7.1 1.3-9.5-13.3-3.1-17.5-.6c-4.3 2.4-3.2 7.7 1 10.1z" fill="#156f84"/><path d="m27.2 118.3c4.2 2.4 11 2.4 15.2 0s4.2-6.3 0-8.7-11-2.4-15.2 0c-4.1 2.3-4.1 6.3 0 8.7z" fill="#297991"/><path d="m33.1 27.4v87.1c0 .3.2.5.5.7.7.4 1.7.4 2.4 0 .3-.2.5-.4.5-.7v-87.1z" fill="#3f8aa8"/><path d="m43.7 15.3c-1.5.9-3.3 1.5-5.2 1.8-2.4.4-5.1.4-7.5 0-1.9-.3-3.6-1-5.1-1.8-2.5-1.4-3.7-3.3-3.7-5.2v-.2c.1-1.8 1.3-3.5 3.6-4.9 4.9-2.8 12.9-2.8 17.8 0 2.3 1.4 3.5 3.1 3.7 4.8.2 2.1-1 4-3.6 5.5zm2.4-5.5c-.2-1.6-1.3-3.1-3.3-4.3-4.5-2.6-11.7-2.6-16.1 0-2.1 1.2-3.2 2.8-3.3 4.4-.2 1.8 1 3.6 3.3 4.9 4.5 2.6 11.7 2.6 16.2 0 2.3-1.3 3.4-3.1 3.2-5z" fill="#ff76ce"/><path d="m46.1 9.8c.2 1.8-.9 3.7-3.3 5-4.5 2.5-11.7 2.5-16.2 0-2.3-1.4-3.5-3.2-3.3-4.9.1-1.6 1.2-3.1 3.3-4.4 4.5-2.6 11.7-2.5 16.1 0 2.2 1.2 3.3 2.8 3.4 4.3z" fill="#ea3a9e"/><path d="m50 25c.4 2.5-1.1 5.1-4.4 7-6 3.5-15.7 3.4-21.7 0-3.3-1.9-4.8-4.5-4.5-7 0 0 2.7-14.8 2.7-14.8 0 1.9 1.2 3.7 3.7 5.2 1.5.8 3.2 1.5 5.1 1.8 2.4.4 5.1.5 7.5 0 1.9-.3 3.7-.9 5.2-1.8 2.6-1.5 3.8-3.5 3.6-5.5.2 0 2.9 15.1 2.8 15.1z" fill="#f33fab"/><path d="m26.6 178.8c7 4 13.1 7.9 20.4 4.6 84.3-38.7 66.7-48.2 59.7-52.2s-73.1 29-80.1 33.1c-6.9 4-7 10.5 0 14.5z" fill="#dde9ed"/><path d="m96.5 28.6c-.2.5-.7 1-.6 1.6s-.1 1.8-.7 2.2-1.4 4.2-2.7 6.5-1.4 3.1-1.4 3.1-.3.7-.8 2c-1.7 4.5-5.8 15.4-5.8 18.6 0 4.1.8 6.1.3 10.5-.4 4.4-9.9 31.5-9.9 31.5l-11.6 3s-1.4-8.2 1.5-14.6 5.8-8.8 8.7-14.8c2.9-5.9 2.9-6.4 3-11.1.1-4.8.6-8 2.3-10.9s7.3-13.8 7.3-13.8-2.1-2.1-1.3-3.9c0 0 0-.1.1-.1.8-1.7 2.6-2.9 3.5-5.1 1-2.3 1.1-3.5 1.9-4.5.8-1.1 1.3-.7 1.3-.7s-.1-.7.7-.8l.6.4.5-.3c.5 0 .7.4.7.4s.4-.4.7-.1.2.7.2.7.2-.8.8-.7c.1 0 .3.1.4.2.3.1.5.4.3.7z" fill="#f0b699"/><path d="m84.6 62.6c0 4.1.8 6.1.3 10.5-.4 4.4-9.9 31.5-9.9 31.5l-11.6 3s-1.4-8.2 1.5-14.6 5.8-8.8 8.7-14.8c2.9-5.9 2.9-6.4 3-11.1.1-4.8.6-8 2.3-10.9s7.3-13.8 7.3-13.8 2.7-.1 3.6.9c.2.2.4.5.5.7-1.7 4.5-5.7 15.4-5.7 18.6z" fill="#e92e8d"/><use fill="#f25aaa" xlink:href="#a"/><path clip-path="url(#b)" d="m103.6 136.7 5.5-.9s.3.9 2.2.4c1.9-.6 2.2-3 2.2-3l5.6 4.3s2.5 6.1.2 8.8c-2.3 2.8-9.9 8-9.9 8l-13.4-2-2.2-7.6z" fill="#fec6a7"/><path d="m77.5 116.3c-1.2 1.2-2.7 2.2-3 3.2s-1.7 5.3-1.7 5.3-1.1 6.5-1.7 8c-.3.6-1.3 2-2.5 3.6-2 2.5-4.7 5.5-6.2 5.9-1.2.4-5.7-4-5.7-4l-.4 2-.5 1.9s1 1.7-.7 2.3c-1.7.7-6.1-1-6.1-2.5s.7-2.7 1.3-3.3c.8-.8 1.4-3 1.4-3h-.1c-.7.2-4.4 1.2-4.4 1s-1.5-4.9.8-9.1c.2-.4.4-.7.7-1.1 2.7-3.7 6.5-8.1 7.8-9.7.3-.3.4-.5.5-.6.3-.4 2.7-4.7 3.9-6.3s1.4-4.9 1.7-6.6c.1-.6.5-1.8 1.7-1.9s13.6 4.8 14.2 8.8c.5 4.2.2 4.9-1 6.1z" fill="#fec6a7"/><path d="m49.4 127.2h-.4l-1.2.5s-3.6 6.2-4.3 8.9c-.8 2.7-5.1 9-5.1 9s-2.8 5.6-4.2 9-4.9 8.4-4.9 8.4l-2.8 2s-3.6 3-3.7 3.1-.3.4.4.4 3.5-2.2 3.5-2.2-4.1 3.5-3.8 3.7c.3.3.4.3 1.1 0s3.5-2.7 3.5-2.7-3.4 3.7-3.4 3.8c0 .2 0 .6.7.5s4-3.4 4-3.4-2.9 3.5-2.7 3.7.5.4 1.2 0c.7-.3 3-3.5 3.7-3.7s1.2.4 1.3.4 0 1.4.2 1.6-.4.9-.2 1.5.8 1.1 1.1.4c.2-.7.4-2.4.7-2.6s-.2-6.2-.2-6.4 3.1-6.5 4.2-7.6 4.1-6.9 5-9 5.5-7.1 6.3-9.4c.6-2.3 4.7-9.6 0-9.9z" fill="#f0b699"/><path d="m57.5 120.7-1.3-1.6.3-2.2.9-1.4s0 1.1 1.4 2.3c1.4 1.1 7.6 4.7 10.4 5.4 2.9.6 4 .4 4.2-.2s-.6 1.9-.6 1.9l-2.5 3.1-10.9-5z" fill="#eef"/><path d="m57.2 145.3c0 1.3-1 5.4-1.5 5.9s-1 3-2.2 4.3c-.6.7-1.2.9-1.8 1s-1.2.1-2.1.3c-1 .2-2.8-.1-4.4-.9-1.6-.7-3-1.8-3.4-3.1-.9-2.7-1.3-5.9 1.4-9.4 3.9-4.9 7.3-3 7.3-3 1.8 0 4.1 1.1 5.2 1.9.3.3 1.5 1.7 1.5 3z" fill="#2e2b53"/><path d="m47.6 142.5s1.1-1.8 2.6-2c1.6-.3 5.5 1.1 6.4 2.7.8 1.6-2.3 13.4-6.1 14-6.8.9-10.4-6.3-2.9-14.7z" fill="#3a3960"/><path d="m42.9 158.5c-.1.6-.1 1.6 1.1 2.1s.7 1.2.7 1.2.3-.5.3-1.1-1-1.1-1.1-1.9c-.1-.7 1.1-1.5 1.3-2.2s-.5-1.2-.5-1.2.2.8-.2 1.2-1.4.9-1.6 1.9z" fill="#2e2b53"/><path d="m57.9 145.8c0 1.3-1.7 4.9-2.2 5.4s-1 3-2.2 4.3c-.6.7-1.2.9-1.8 1v-.1c-.1-.4 1-1 1.4-1.1.3-.1 1.2-2.9 1.2-2.9s-.6.8-.9.8c-.3.1-1-.5-.3-2.5.6-1.9 2.1-2.1 2.1-2.1s.7.2.9-.3c2-4.5-.1-6-.1-6l.3-1c.4.2.7.4.9.5.6.2.7 2.7.7 4z" fill="#f0b699"/><path d="m62.3 102.9-.1 2.4s.5-1.5 3.2-.9 9.1 4.3 10.5 6.6 1.6 2.5 1.4 3.7c-.2 1.1-.8 2.5-.8 2.5s1.8-1.3 2.4-2.2c.6-.8 2.2-4.9-3.1-8.8-5.3-4-8.3-5.3-9.9-5.3s-2.9-.2-3.6 2z" fill="#eef"/><path d="m56 148.9s-1 1.4-.1 1.7 1.7 1.1 1.7.4c.1-.7.2-1.3-.4-1.6s-1.2-.5-1.2-.5z" fill="#3a3960"/><path d="m54.7 146.4s-.7 1.5.1 1.7c.9.3 1.8 1.8 1.9 1.1s.2-1.3-.4-1.6c-.6-.2-1.6-1.2-1.6-1.2z" fill="#3a3960"/><path d="m55.6 145.3s1.8.9 1.8 1.9c.1 1 1 2.6 0 3s-1.4-1.8-1.4-1.8-1.3-2.8-.4-3.1z" fill="#2e2b53"/><path d="m57.3 151.9s-.2-2.3.1-2.7c.4-.4.8-.1 1 .5.2.7-.3 2-.7 2.2-.3.3-.4 0-.4 0z" fill="#2e2b53"/><path d="m57.8 152.9s-.2-.8.2-1.4c.3-.6.4-1.4.9-.9s.2 1.9-.1 2.1c-.4.2-1 1.2-1 .2z" fill="#2e2b53"/><path d="m58 153.8s0 0 .3-.6.5-1.1 1-.5c.5.5-.1 1.3-.4 1.6-.3.1-.9.5-.9-.5z" fill="#2e2b53"/><path d="m57.3 150.9s-1.4-.8-1.4-.3-.2.6.2.8.9 1 1.2.5 0-1 0-1z" fill="#3a3960"/><path d="m58 153.8s-.6 1-.5 2.4.8 1.5 1.2 2c.3.4.2.7.2.7s0-1.2.5-2.3-.1-2.5-.3-2.7c-.2-.1-1.1-.1-1.1-.1z" fill="#2e2b53"/><path d="m57.9 152s-1.4-.8-1.4-.3-.2.6.2.8.9 1 1.2.5 0-1 0-1z" fill="#3a3960"/><path d="m58.3 153.1s-.3-.2-.6-.3c-.4-.2-.8-.3-.8 0 0 .5-.2.6.2.8s.9 1 1.2.5c.3-.6 0-1 0-1z" fill="#3a3960"/><path d="m58 140s.2 3.8.1 4.7c0 1-1.8 5.3-1.9 7.2s-1.7 7.7-1.7 7.7-2.7 4.3-4.1 8-4.9 8.9-4.9 8.9-4-.1-4.2 0-1.5.9-2.1.9-1.2 0-1 .3-.1.6 1 .9 2.2-.3 2.2-.3l1 .2-1.3.9s-4.7 2.4-4.2 2.8.3.3.9.2c.5-.1 4.2-2.1 4.2-2.1s-4.2 3-4.1 3.3.3.4.7.4c.4-.1 4.2-2.6 4.2-2.6s-3.2 3-3.1 3.1 0 .3.5.3 3.6-2.9 3.6-2.9-2.3 2.9-2.1 3.1.6.2 1-.2 4.2-4.3 4.5-4.7c.3-.3 1.1-.8 1.2-1.3.1-.6 8.2-11.9 9.1-13.1.9-1.3 2.4-7.5 2.4-7.5s3.1-8.4 3.4-10.7c.3-2.2 5.7-10.5 5.6-11.8s-5.3-2.4-8.3-.7c-2.8 1.6-2 3.1-2.6 5z" fill="#f9c7a9"/><path d="m72.8 124.8s-.1 7.2-.7 8.7c-.3.6-2.3 1.8-3.5 3.4 0 0 .5-3.6-.7-4.2-2.4-1.2-7.2 3.5-8.4 4.4-1 .8-1.3 3.5-1.3 3.5l-1.4-2c0-4.5 7.8-7 6.9-8.9-1.3-2.4-5.2-4.2-5.2-4.2s-4.4-1.6-5.5-.5-2 4.6-2 6 .8 4.8.8 4.8c-.1 0-.3.5-.3.5h-1.6s-1.3-4.4-1.3-6c0-.5 1.1-4.8 1.3-5.2 2.7-3.7 5.2-6.7 6.5-8.3-.4 2 10.9 7.8 13 8 2.3.4 3.4 0 3.4 0z" fill="#ac4df2"/><path d="m96.2 27.8v.2s-.9 1.2-1 2c-.1.9-.6 1.3-1.2 1.7s-2.7 1.7-3.2 2.4-.5 2.9-1.5 3.8c-.9.9-1.9 1.8-3.2 1.6-.8-.1-1.1-.6-1.2-1.2.8-1.8 2.6-2.9 3.5-5.1 1-2.3 1.1-3.5 1.9-4.5.8-1.1 1.3-.7 1.3-.7s-.1-.7.7-.8l.6.4.5-.3c.5 0 .7.4.7.4s.4-.4.7-.1.2.7.2.7.2-.8.8-.7c.1 0 .3.1.4.2z" fill="#ffd2b3"/><path d="m1 190.7-.5-20.6v20.6z" fill="#fff"/><ellipse cx="196.8" cy="159.6" fill="#fff" rx="11" ry="11.6"/><ellipse cx="103.7" cy="165" fill="#fff" rx="11" ry="11.6"/><g fill="#e34d17"><path d="m306.4 133.7h-66.2c-4.9 0-8.9-5.1-8.9-11.3s4-11.3 8.9-11.3h66.2c4.9 0 8.9 5.1 8.9 11.3-.1 6.2-4 11.3-8.9 11.3zm-66.2-21.6c-4.4 0-8 4.6-8 10.2s3.6 10.2 8 10.2h66.2c4.4 0 8-4.6 8-10.2s-3.6-10.2-8-10.2z"/><path d="m169.2 38.3 2.4.4c-.4 2.8-.9 5.8-1.5 9-.7-.2-1.4-.4-2.4-.6.5-2.4 1-5.3 1.5-8.8zm3.4-8.1h2.6v7.7l1.4-.9c1.5 1.7 2.8 3.3 4 4.9l-2.1 1.5c-1-1.6-2.1-3.1-3.2-4.5v25.6h-2.6v-34.3zm5.1 17.4h9.4c.2-1.9.3-4.8.4-8.7h-7.4v-2.5h7.4c0-1.9 0-3.9 0-6.2h2.8v6.2h8.6v11.2h3.4v2.5h-11.4c1.9 5.3 5.7 9.2 11.2 11.7-.6.6-1.4 1.5-2.4 2.7-5.3-3-8.9-7.3-10.8-12.8-1.4 5.3-4.8 9.6-10.3 13.1-.8-1-1.5-1.8-2.1-2.4 5.6-3.3 9-7.4 10.2-12.3h-9zm18.4-8.7h-5.9c0 3.7-.2 6.6-.3 8.7h6.2z"/><path d="m220 61.1c5.8.1 12.7 0 20.5-.1-.3.8-.6 1.7-1 2.8-7.8 0-14.4 0-20-.1-4 0-6.8-1.4-8.4-4.1-1 .9-2.4 2.5-4.2 4.7l-1.4-2.9c2.1-2 3.6-3.4 4.5-4.3v-12h-4.2v-2.6h6.9v15c1.4 2.4 3.8 3.6 7.3 3.6zm-10.5-30.4c1.2 1.5 2.8 3.7 4.9 6.6l-2.5 1.8c-1.9-3-3.5-5.3-4.7-6.9zm8 9.1h8.8v-3.4h-10.4v-2.4h10.5v-3.8h2.6v3.8h11v2.4h-11v3.4h8.8v10.1h-2.5v-1.1h-6.3v2.5l.9-1.4c3.5 1.9 6.8 3.8 10 5.7l-1.6 2.5c-3.3-2.2-6.4-4.1-9.3-5.8v7.6h-2.6v-9.1c-2.8 3.1-6.1 5.8-9.7 8-.4-.6-1-1.4-1.9-2.3 4.3-2.1 7.9-4.7 10.8-7.8h-5.5v1.1h-2.5v-10zm2.6 6.7h6.3v-4.4h-6.3zm15.2-4.4h-6.3v4.4h6.3z"/><path d="m253.1 32 2.3-1.7c2.6 1.6 5.5 5.8 8.6 12.4 4.4 9.6 9.1 15.4 14.3 17.5l-2.5 3.1c-5.1-3-9.9-9.5-14.2-19.3-.4-.8-.7-1.5-1-2.3-2.7 9.3-7.8 16.6-15.2 21.7-.6-.9-1.3-1.8-2.1-2.6 7.6-4.8 12.7-12.4 15.4-22.7-1.9-2.9-3.7-5-5.6-6.1z"/><path d="m283.8 37.1h2.8v27.3h-2.8zm1.6-5.5 2-1.8c1.6 1.5 3.2 3.1 5 4.9l-2.3 2c-1.6-1.8-3.2-3.6-4.7-5.1zm9 3.5v-2.7h19.1v26.5c0 3.4-1.6 5-4.8 5-1.5 0-3.3 0-5.6-.1-.1-.8-.3-1.8-.6-2.9 2.2.1 4 .2 5.6.2 1.7 0 2.6-.9 2.6-2.7v-23.3z"/><path d="m258.7 119.3v1.1h-5.7c-.2.5-.4 1-.7 1.5h7.7v1.1h-3.8c.9 1.1 2.3 2 4.1 2.4l-.5 1.2c-2.2-.6-4-1.8-5.3-3.6h-2.9c-1.1 1.5-2.7 2.7-5.1 3.6l-.6-1.2c1.7-.6 2.9-1.3 3.9-2.4h-3.7l.3-1.1h4.3c.3-.5.6-.9.8-1.5h-4l.3-1.1h4.1c.2-.5.3-1 .4-1.6h-5.4l.3-1.1h2.6l-.7-1.2 1.4-.3.9 1.5h3.2l.9-1.5 1.4.3-.7 1.2h3.1v1.1h-5.6c-.1.5-.2 1.1-.3 1.6zm-7.2 5.6c0 2.4-1.2 4-3.6 4.9l-.8-1.2c2-.7 3.1-1.9 3.1-3.9zm4.6-.1v5h-1.4v-5z"/><path d="m265.9 119.2h-1.7v3.3l1.5-.5.2 1.2-1.7.6v5c0 .6-.3 1.1-1.1 1l-2-.2v-1.2l1.5.1c.2 0 .3-.1.3-.3v-4l-1.6.6-.2-1.2 1.9-.6v-3.8h-2l.3-1.1h1.6v-3h1.4v3h1.7v1.1zm5.8-4.1v2h2.9c.4 0 .8.3.8.7v4.2c0 .4-.3.8-.8.8h-6.6v.8c0 2.1-.7 4.6-1.9 6.1l-1.2-.7c1.2-1.6 1.7-3.7 1.7-5.7v-5.5c0-.4.3-.7.8-.7h2.9v-1.7zm-3.3 3.1c-.2 0-.4.2-.4.4v3.2h5.5c.2 0 .4-.2.4-.4v-2.8c0-.2-.2-.4-.4-.4z"/><path d="m281.8 119h-2.1v4.1l2-.4.1 1.1-2.1.5v4.3c0 .8-.5 1.2-1 1.2l-2.3-.2v-1.1l1.7.1c.2 0 .3-.1.3-.3v-3.8l-2.1.5-.1-1.2 2.2-.4v-4.4h-2.2l.4-1.1h1.8v-2.8h1.4v2.8h2.1v1.1zm2 9.4 2.2.2c.4 0 .4-.2.4-.4v-11h-4.2l.3-1.1h8.2v1.1h-3v11.4c0 .8-.5 1.2-1.3 1.2l-2.7-.2v-1.2z"/><path d="m298.7 115.1v2h6.2v1.1h-6.2v2.7h7.2v1.1h-14.5l.4-1.1h5.5v-5.7h1.4zm0 7.3v7.4h-1.4v-7.4zm1.7 1.3c2.1 1.1 3.8 2.1 5.5 3.2l-.7 1.1c-1.7-1.2-3.7-2.3-5.5-3.3z"/></g><path d="m169.3 87c1.9-1.7 3.5-3.6 4.6-5.8h1.8c-.3.6-.6 1.2-1 1.8h13.7v1.4h-14.7c-1 1.5-2.2 2.7-3.5 3.8-.2-.4-.6-.8-.9-1.2zm0 4.2h2.9l.9-5h13c-.1 1.8-.1 3.4-.2 4.9h2.9v1.4h-2.9c-.1 1.3-.1 2.5-.2 3.6h2.4v1.4h-2.5c-.1 1-.4 1.7-.8 2.1-.5.6-1.4.8-2.7.8-.7 0-1.7 0-2.8-.1-.1-.4-.2-1-.3-1.6 1.4.1 2.3.2 2.9.2.8 0 1.4-.2 1.6-.5.2-.2.3-.5.4-1h-12.5v-1.5l.6-3.5h-2.6zm15 1.4h-10.7l-.6 3.6h11.1c.1-1.2.2-2.4.2-3.6zm.2-5h-10l-.6 3.6h10.5c0-1.2.1-2.4.1-3.6zm-7.4 6.1.9-1c1 .8 1.9 1.5 2.6 2.2l-1 1.2c-1-1-1.9-1.8-2.5-2.4zm.1-5 .9-1c1 .8 1.9 1.5 2.6 2.2l-1.1 1.2c-.7-.9-1.5-1.6-2.4-2.4z" fill="#4b7078"/><path d="m193.2 82.6h14.1v17.9h-1.7v-1.4h-10.7v1.4h-1.7zm1.7 1.5v5.9h10.7v-5.9zm0 7.4v6.2h10.7v-6.2z" fill="#4b7078"/><path d="m224.9 97.1c-1.5.9-3.3 1.3-5.2 1.3-2.2 0-4-.7-5.3-2.1-1.4-1.4-2-3.3-2-5.6 0-2.4.7-4.3 2.2-5.8s3.4-2.3 5.7-2.3c1.7 0 3 .3 4.2.8v2.1c-1.2-.8-2.7-1.2-4.4-1.2s-3 .6-4.1 1.7-1.6 2.6-1.6 4.5.5 3.4 1.5 4.5 2.3 1.6 4 1.6c1.2 0 2.2-.2 3-.7v-4.1h-3.3v-1.7h5.3z" fill="#4b7078"/><path d="m237.6 98.1h-8.2v-15.3h7.9v1.8h-5.9v4.9h5.5v1.7h-5.5v5.1h6.2z" fill="#4b7078"/><path d="m250.8 84.6h-4.4v13.5h-2v-13.5h-4.4v-1.8h10.8z" fill="#4b7078"/><path d="m257 85.9 1.6.6c-1.3 3.6-2.7 7-4.4 10.2-.4-.3-1-.6-1.6-.9 1.5-2.6 2.9-5.9 4.4-9.9zm4.7-4.3h1.8v16.4c0 1.7-.9 2.6-2.8 2.6-.7 0-1.7 0-2.9-.1-.1-.6-.2-1.2-.3-1.9 1.3.1 2.2.2 2.9.2.9 0 1.4-.4 1.4-1.3v-15.9zm4.1 5 1.5-.7c1.7 3 3.3 6.2 4.9 9.6l-1.8.8c-1.7-3.7-3.2-6.9-4.6-9.7z" fill="#4b7078"/><path d="m273.8 90.1h4c.1-1.2.1-2.7.1-4.6h-1.7c-.4 1.1-.8 2.1-1.2 3-.6-.3-1.1-.4-1.5-.6 1-2 1.8-4.2 2.4-6.7l1.5.4c-.3.9-.5 1.7-.8 2.5h6v1.4h-3.3c0 1.8-.1 3.3-.1 4.6h3.8v1.4h-3.9c0 .3-.1.7-.1 1 1.7 1.9 3.1 3.6 4.3 5.1l-1.3 1c-1.3-1.7-2.4-3.1-3.4-4.3-.8 2.5-2.2 4.7-4.2 6.4-.3-.5-.7-.9-1.1-1.4 2.5-2 3.9-4.6 4.3-7.8h-3.9v-1.4zm10.3-6.6h8.4v16.8h-1.6v-2h-5.3v2h-1.5zm6.8 1.4h-5.3v11.9h5.3z" fill="#4b7078"/><path d="m301.9 94c.1.6.2 1.1.3 1.6-1.2.9-2.3 1.8-3.4 2.6-.3.2-.6.5-.9.9l-1.2-1.2c.4-.4.6-1 .6-1.7v-6.8h-2.5v-1.4h4v8.4c1.2-.9 2.2-1.6 3.1-2.4zm-4-12.3c1.3 1.3 2.3 2.4 3.1 3.3l-1.4 1.1c-1-1.3-2-2.4-2.9-3.4zm7.2 12.3 1.3.9c-1.6 1.9-3.3 3.8-5.3 5.7-.3-.3-.7-.7-1.2-1.1 1.9-1.6 3.6-3.5 5.2-5.5zm-2.8-11.3h10.9v10.4h-1.5v-1.2h-7.8v1.2h-1.5zm9.4 1.4h-7.8v6.4h7.8zm-3 10.9 1.3-.9c1.6 1.7 3.2 3.5 4.8 5.4l-1.4 1.1c-1.5-2-3.1-3.8-4.7-5.6z" fill="#4b7078"/></svg>