<svg enable-background="new 0 0 334.7 191.3" viewBox="0 0 334.7 191.3" xmlns="http://www.w3.org/2000/svg"><path d="m0 0h334.5v190.7h-334.5z" fill="#fff"/><path d="m25.9 76.9 5.4-1.5v-5.4h-5v-2.4h5v-5.1h2.7v5.2h4.1v2.4h-4.1v4.6c1.3-.4 2.6-.8 3.8-1.2 0 1.1 0 2 .1 2.7-.1 0-1.4.5-3.9 1.2v5.2c0 2.8-1.3 4.3-4 4.3-1 0-2.1 0-3.3-.1-.1-.8-.2-1.8-.4-2.9 1.1.2 2.2.3 3.1.3 1.2 0 1.9-.6 1.9-1.9v-4c-1.4.4-3 1-4.9 1.5zm4.1 11.4 2.5 1.1c-1.1 2.4-2.3 4.9-3.9 7.5-.7-.4-1.5-.8-2.4-1.2 1.6-2.6 2.8-5 3.8-7.4zm5.7 1.4 2.3-1c1.1 2 2.2 4.1 3.3 6.5l-2.6 1.1c-.9-2.3-2-4.6-3-6.6zm3-14.3 1.5-2c1.1.7 2.2 1.3 3.2 2 .4-1.6.6-3.3.6-5.2h-4.3v-2.5h4.4c0-1.9.1-3.7.1-5.3h2.7c0 1.5 0 3.3-.1 5.3h8.2c-.2 6.9-.1 11.6.5 14.1.3 1.4.8 2.1 1.3 2.1s.8-.4.9-1.2c.2-1.1.4-2.7.6-4.7.9.3 1.8.6 2.6.8-.2 2.1-.5 3.7-.7 5-.5 2.2-1.6 3.2-3.3 3.2-2 0-3.4-1.6-4.1-4.9-.4-2.2-.6-6.1-.5-11.9h-5.5c0 2.4-.3 4.7-.8 6.7 1.7 1.1 3.3 2.2 4.9 3.3l-1.8 2.5c-1.4-1.1-2.7-2.1-4-3-1.5 3.5-3.8 6.2-7.1 8.2-.6-.7-1.3-1.5-2-2.3 3.2-1.7 5.5-4.2 6.8-7.5-1.5-1-2.8-1.9-4.1-2.7zm5.9 14.2 2.3-1c1.2 2.1 2.3 4.2 3.4 6.4l-2.6 1.1c-.8-2.2-1.9-4.4-3.1-6.5zm8.7-.7 2.3-1.3c1.5 2.3 3 4.6 4.5 7.1l-2.5 1.5c-1.3-2.4-2.7-4.8-4.3-7.3z" fill="#e34d17"/><path d="m66 69.6h2.8v27.3h-2.8zm1.5-5.5 2-1.8c1.6 1.5 3.2 3.1 5 4.9l-2.3 2c-1.6-1.8-3.2-3.5-4.7-5.1zm9.1 3.6v-2.7h19.1v26.5c0 3.4-1.6 5-4.8 5-1.5 0-3.3 0-5.6-.1-.1-.8-.3-1.8-.6-2.9 2.2.1 4 .2 5.6.2 1.7 0 2.6-.9 2.6-2.7v-23.3z" fill="#e34d17"/><path d="m101 81.3c1.6-.4 3.1-.7 4.5-1.1v-8.5h-4.3v-2.5h4.3v-6.7h2.6v6.7h4.1v2.5h-4.1v7.8c1.4-.4 2.8-.8 4.1-1.2 0 1.1.1 2 .2 2.7-1.5.4-3 .8-4.3 1.2v10.7c0 2.4-.9 3.6-2.8 3.8-1.2.1-2.4.1-3.6.1-.1-.9-.2-1.9-.4-2.9 1.2.1 2.1.1 2.8.1.9 0 1.3-.5 1.3-1.4v-9.6c-1.5.4-2.9.8-4.2 1.2zm9.1-5.8c3-3.6 5.6-8 7.9-13l2.6.9c-.9 1.9-1.8 3.7-2.8 5.4h17.6v2.4h-8.7v5.3h8.2v2.4h-8.2v5.4h8.2v2.4h-8.2v5.6h9.3v2.3h-19.3v2.6h-2.7v-22.5c-.7.9-1.3 1.8-2 2.7-.4-.5-1.1-1.1-1.9-1.9zm6.6 1h7.3v-5.4h-7.3zm0 7.9h7.3v-5.4h-7.3zm0 7.9h7.3v-5.6h-7.3zm6.4-28.4 2.2-1.4c1.1 1.5 2.2 2.9 3.2 4.4l-2.4 1.5c-.9-1.5-1.9-3-3-4.5z" fill="#e34d17"/><path d="m139.9 72.5h9.6c.3-.5.6-1.1.8-1.6h2.8c-.3.6-.5 1.1-.8 1.6h20.6v2.5h-21.9c-.9 1.6-1.8 3-2.7 4.4v17.5h-2.7v-13.9c-1.6 2-3.3 3.7-5.1 5.2-.6-.9-1.2-1.7-1.7-2.4 3.6-2.9 6.7-6.5 9.3-10.8h-8.2zm-.1-6.7h9.3v-3.1h2.7v3.1h9.8v-3.2h2.7v3.2h9.1v2.5h-9.1v2.6h-2.7v-2.6h-9.8v2.2h-2.7v-2.2h-9.3zm11 19.7h10.6v-1.7l5.1-3.3h-13.8v-2.4h18.2v2.4l-6.8 4.3v.7h9.2v2.5h-9.2v4.7c0 2.8-1.3 4.1-3.8 4.1-1.5 0-3.5 0-6.1 0-.1-.9-.3-1.8-.5-2.8 2.2.2 4.1.3 5.9.3 1.2 0 1.8-.7 1.8-2v-4.3h-10.6z" fill="#e34d17"/><path d="m25.7 28.5h9.2c-.3-.5-.6-1-.8-1.4l1.5-.6c.4.6.8 1.3 1.1 2h8.8v1.2h-19.8zm2.7 16.7h-1.5v-8.9h17.6v6.4c0 1.6-.8 2.3-2.3 2.3-.9 0-1.8 0-2.9 0-.1-.4-.2-.9-.3-1.5 1.2.1 2.2.1 2.8.1.8 0 1.2-.4 1.2-1.2v-5h-14.5v7.8zm.7-14.2h13v4.6h-1.5v-.6h-10v.6h-1.5zm11.5 1.1h-10v1.7h10zm-9.5 6.7h9.1v4h-7.6v.8h-1.4v-4.8zm7.6 2.8v-1.6h-6.2v1.6z" fill="#8bbbaf"/><path d="m48.3 33.6h5c.5-1.1 1-2.1 1.4-3.2l1.6.5c-.4.7-.9 1.6-1.5 2.6h2.4v1.2h-7.5v3.9c0 2.7-.5 5-1.6 6.7-.4-.5-.7-.9-1.1-1.3.8-1.3 1.2-3.1 1.2-5.5v-4.9zm-.6-4.6h4.5c-.2-.5-.6-1.1-1-1.8l1.3-.6c.5.7.9 1.3 1.3 1.9l-.9.4h4.3v1.2h-9.5zm1.6 2 1.3-.6c.6.9 1.1 1.7 1.5 2.4l-1.4.6c-.4-.7-.9-1.6-1.4-2.4zm1.1 14.5c-.3-.4-.5-.8-.8-1.2 2.5-.9 4.7-2.1 6.8-3.6l.9 1c-2.3 1.6-4.6 2.9-6.9 3.8zm.5-7c-.3-.5-.6-.9-.8-1.2 1.7-.5 3.5-1.3 5.4-2.4l.8 1.1c-1.8 1-3.6 1.8-5.4 2.5zm0 3.3c-.3-.5-.6-.9-.8-1.2 2.1-.7 4.1-1.7 5.9-2.9l.8 1c-2 1.3-4 2.4-5.9 3.1zm10.5-8.1h1.4v2.4c0 1.8-.2 3.2-.6 4.4 1.9 1.3 3.6 2.5 5 3.8l-1.1 1.1c-1.4-1.3-2.9-2.5-4.5-3.6-.8 1.3-2.3 2.6-4.4 3.8-.2-.3-.6-.7-1.1-1.2 2.1-1 3.5-2.2 4.3-3.4.7-1 1-2.7 1-5zm-3.5-2.2h2.7l.4-2.6h-3.6v-1.3h9.8v1.3h-4.6l-.6 2.6h4.2v9.4h-1.4v-8.2h-5.6v8.2h-1.4v-9.4z" fill="#8bbbaf"/><path d="m68.7 36c1.8-2.5 3.2-5.6 4.2-9.2l1.5.4c-.5 1.6-1.1 3.2-1.7 4.6v13.4h-1.5v-10.4c-.6 1-1.2 1.9-1.8 2.8-.2-.5-.5-1.1-.7-1.6zm5 7.5h2v-11.7h4.7v-1.7h-5.8v-1.3h5.8v-2h1.5v2h6.3v1.3h-6.2v1.7h4.9v11.7h1.9v1.3h-15.1zm11.7-10.5h-8.2v1.7h8.2zm-8.2 4.6h8.2v-1.7h-8.2zm0 3h8.2v-1.7h-8.2zm0 2.9h8.2v-1.7h-8.2z" fill="#8bbbaf"/><path d="m90.4 42.5c1.8-.4 3.9-.8 6.2-1.4 0 .7-.1 1.1-.1 1.4-1.8.4-3.7.9-5.7 1.4zm2.5-4.4c1.3-.2 2.6-.4 3.9-.6-.1.5-.1 1-.2 1.4-1.8.3-3.7.5-5.5.8l-.3-1.4c.7-.7 1.7-2 2.9-4-1.2.1-2.1.1-2.9.2l-.4-1.3c1.2-1.5 2.4-3.7 3.7-6.7l1.5.6c-1.4 2.6-2.6 4.6-3.5 6h2.2c.5-.8 1-1.7 1.6-2.8l1.5.6c-1.6 2.9-3.1 5.3-4.5 7.2zm9 .8c.2.5.4.9.6 1.3-1.2.7-2.8 1.7-4.8 3l-.9-1.2c1.8-1 3.5-2.1 5.1-3.1zm-4.9-5.1h9.5l.1-1.8h-8.2v-1.2h8.3l.1-1.8h-8.8v-1.3h10.4l-.5 6.1h2.5v1.3h-6v.8c.4 1 .8 1.9 1.4 2.7 1.1-.8 2.1-1.7 2.9-2.7l1.2 1c-.9.9-2 1.8-3.3 2.8 1.1 1.2 2.3 2.1 3.8 2.8-.5.4-.9.8-1.3 1.2-1.9-1-3.5-2.6-4.7-4.8v3.8c0 1.6-.8 2.4-2.5 2.4-.6 0-1.5 0-2.6 0-.1-.5-.2-1-.3-1.6 1 .1 1.9.2 2.5.2.9 0 1.3-.4 1.3-1.3v-7.3h-5.8zm1.4 2c.9.7 1.8 1.5 2.7 2.3-.4.3-.8.7-1.1 1-.9-.9-1.8-1.8-2.6-2.5z" fill="#8bbbaf"/><path d="m112 38.7c1.2-2 2.2-4.2 2.8-6.7h-2.6v-1.2h2.7v-3.8h1.4v3.8h2.6v1.2h-2.6v3.1l.8-.6c.9.9 1.7 1.7 2.4 2.3l-1.1.9c-.8-.9-1.4-1.6-2-2.2v10h-1.4v-10.6c-.7 2.3-1.4 4.1-2.3 5.4-.3-.5-.5-1.1-.7-1.6zm6 4.6h2v-11.6h4.2v-1.6h-5.4v-1.3h5.4v-1.9h1.5v1.9h5.7v1.3h-5.7v1.6h4.5v11.6h1.8v1.3h-14zm10.8-10.4h-7.2v1.7h7.2zm-7.3 4.6h7.2v-1.7h-7.2zm0 2.9h7.2v-1.7h-7.2zm0 2.9h7.2v-1.7h-7.2z" fill="#8bbbaf"/><path d="m133.7 36.6c.8-.3 1.6-.7 2.5-1v-3.7h-2.4v-1.4h2.4v-3.7h1.5v3.7h2.3v1.3h-2.3v3.1c.8-.4 1.5-.7 2.2-1.1 0 .6.1 1.1.2 1.5-.5.2-1.2.6-2.4 1.1v6.7c0 1.3-.6 2-1.7 2-.5 0-1.2.1-1.8 0-.1-.5-.1-1-.2-1.6.7.1 1.2.1 1.5.1.5 0 .8-.3.8-.8v-5.8c-.7.3-1.4.7-2.3 1.1zm13.9-5.2-.3.3c1.4 2 3.6 3.6 6.3 4.7-.4.5-.8 1-1 1.4-1-.5-1.9-1.1-2.7-1.7v1h-7.3v-.9c-.8.6-1.7 1.2-2.6 1.8-.2-.3-.6-.7-1-1.2 2.9-1.7 5.2-3.5 6.7-5.5h1.9zm-7.5-2.4h2.7v-2h1.5v2h4.2v-2h1.5v2h3.2v1.3h-3.2v1.9h-1.5v-1.9h-4.2v1.9h-1.5v-1.9h-2.7zm1.1 9.8h10.4v6.7h-1.6v-1h-7.3v1h-1.5zm8.8 1.3h-7.3v3.1h7.3zm-3.6-7.3c-.9 1.1-2 2.1-3.3 3.1h6.4c-1.3-1-2.3-2-3.1-3.1z" fill="#8bbbaf"/><path d="m156.2 31.6h2.8v-2.5h-3.4v-1.2h10.7v1.2h-3.3v2.5h2.9v13.5h-1.3v-1.2h-6.9v1.2h-1.3v-13.5zm5.4 4.3v-3h-1.4v.8c0 2-.6 3.7-1.7 5-.3-.3-.7-.6-1-.9v1.6h6.9v-1.8h-1.4c-.9-.2-1.4-.7-1.4-1.7zm-4.1 1.7c.9-1 1.4-2.4 1.4-4.1v-.7h-1.4zm0 5.1h6.9v-2.2h-6.9zm2.7-11.1h1.4v-2.5h-1.4zm4.2 1.3h-1.6v2.6c0 .6.2.8.7.8h.8v-3.4zm2.8 1.1h5.3v-4.9h-5.7v-1.3h7.1v8.3h-1.4v-.7h-3.9v6.5c0 1 .5 1.5 1.4 1.5h1.9c.8 0 1.2-.4 1.3-1.1.2-.8.3-1.9.4-3.1.4.2.9.4 1.5.6-.1 1-.2 2-.4 2.9-.2 1.3-1.1 2-2.5 2h-2.6c-1.6 0-2.4-.9-2.4-2.7z" fill="#8bbbaf"/><path d="m99.1 130.3h-63.9c-4.7 0-8.5-4.9-8.5-10.9s3.8-10.9 8.5-10.9h63.9c4.7 0 8.5 4.9 8.5 10.9.1 6-3.8 10.9-8.5 10.9zm-63.9-20.9c-4.3 0-7.7 4.4-7.7 9.9 0 5.4 3.5 9.9 7.7 9.9h63.9c4.3 0 7.7-4.4 7.7-9.9 0-5.4-3.5-9.9-7.7-9.9z" fill="#3f8aa8"/><path d="m53.1 116.4v1h-5.5c-.2.5-.4 1-.7 1.4h7.4v1h-3.7c.9 1.1 2.2 2 3.9 2.3l-.5 1.2c-2.1-.5-3.9-1.8-5.1-3.5h-2.8c-1.1 1.4-2.6 2.6-5 3.5l-.6-1.2c1.6-.5 2.8-1.3 3.8-2.3h-3.3l.3-1h4.1c.3-.4.6-.9.8-1.4h-3.9l.3-1h4c.1-.5.3-1 .4-1.5h-5.3l.3-1h2.5l-.6-1.1 1.4-.3.8 1.5h3.1l.8-1.5 1.4.3-.6 1.1h2.9v1h-5.4c-.1.5-.2 1-.3 1.5zm-7 5.4c0 2.3-1.2 3.9-3.5 4.8l-.8-1.1c2-.7 2.9-1.8 3-3.8zm4.5-.1v4.8h-1.3v-4.8z" fill="#3f8aa8"/><path d="m60 116.3h-1.6v3.2l1.5-.5.2 1.1-1.7.6v4.8c0 .6-.3 1-1.1 1l-2-.1v-1.2l1.4.1c.2 0 .3-.1.3-.3v-3.8l-1.6.5-.2-1.2 1.8-.5v-3.7h-1.8l.3-1h1.5v-2.9h1.3v2.9h1.7zm5.6-3.9v1.9h2.8c.4 0 .7.3.7.7v4.1c0 .4-.3.7-.7.7h-6.3v.8c0 2-.7 4.4-1.8 5.9l-1.2-.7c1.2-1.6 1.7-3.5 1.7-5.5v-5.3c0-.4.3-.7.7-.7h2.8v-1.7zm-3.1 2.9c-.2 0-.4.2-.4.4v3.1h5.4c.2 0 .4-.2.4-.4v-2.7c0-.2-.2-.4-.4-.4z" fill="#3f8aa8"/><path d="m75.4 116.1h-2v3.9l1.9-.4.1 1.1-2.1.5v4.2c0 .8-.5 1.2-1 1.1l-2.2-.2v-1.1l1.6.1c.2 0 .3-.1.3-.3v-3.6l-2 .4-.1-1.2 2.1-.4v-4.2h-2.1l.4-1h1.7v-2.7h1.3v2.7h2v1.1zm1.9 9.2 2.1.2c.4 0 .4-.2.4-.4v-10.6h-4.1l.3-1h8v1h-2.9v11c0 .8-.5 1.2-1.2 1.1l-2.6-.2z" fill="#3f8aa8"/><path d="m91.7 112.4v1.9h6v1h-6v2.6h7v1h-14l.4-1h5.3v-5.5zm0 7v7.2h-1.3v-7.2zm1.6 1.3c2 1.1 3.6 2 5.3 3.1l-.7 1.1c-1.7-1.1-3.6-2.2-5.3-3.1z" fill="#3f8aa8"/><path d="m305 10c-24.3-13.8-82.5 19.5-102.5 44s-23.9 57.3-24.4 68.8 17.4 39.9 38.4 48.4 57.6 9 80.1-8.5 28-29 29.5-55.1c1.6-26 .6-85.3-21.1-97.6z" fill="#dcf6fd"/><g enable-background="new"><path d="m196.7 95 31.5-18.3c0 .1.9 2.8 6 6.2l-31.5 18.3c-5-3.3-5.9-6-6-6.2z" fill="#bc7af4"/><path d="m202.8 101.3 31.5-18.3c3 1.7 59.2 34.2 78.9 45.6 2.5 1.4 4.4.7 4.5.6l-31.5 18.3c-.1 0-2 .8-4.5-.6-19.7-11.4-76-43.9-78.9-45.6z" fill="#bc7af4"/><path d="m286.2 147.5 31.5-18.4.8.5-31.5 18.4z" fill="#d6b0ff"/><path d="m196.7 95c0 .1.9 2.8 6 6.2 3 1.7 59.2 34.2 78.9 45.6 2.5 1.4 4.4.7 4.5.6l.8.5c-.1.1-2.6 1.3-6.9-1.2-5-2.9-75.4-43.6-77.9-45.2-4.3-2.7-5.7-6.1-5.7-6.2z" fill="#ac4df2"/></g><path d="m241.9 122.1c7.1 4.1 18.6 4.1 25.7 0s7.2-10.7.1-14.8-18.6-4.1-25.7 0c-7.1 4-7.1 10.7-.1 14.8z" fill="#dde9ed"/><path d="m246.5 84.7s-1.6 3.6-1.4 5.5c.1 1.9-1.4 2.9-4.7 10.2s-4.4 10.9-4.2 11.8c.3.9.3 2.6 3.7.4s5.3-8.9 5.3-8.9 4.4-5.6 5.6-7.6c1.1-2 4.6-2.6 4.7-4.3.2-1.8-7.1-8.1-9-7.1z" fill="#e8a68a"/><path d="m238.3 109.3s3.6-2.6 6.3-3 6-.6 7.3-.6 6.6-2 7.2-2.2c.6-.1.9 1 .3 3.3s.1 3.2-3 3.6c-3.2.4-4.3-1.4-9.5 1.1-5.2 2.6-9.9 3.2-10.2 2.2-.2-1 1.6-4.4 1.6-4.4z" fill="#e8a68a"/><path d="m252.1 109.7-2.9 1.1s-1.3 3.3 1 5.5c2.4 2.2 4.1 3.6 6.7 2.9s7.2-1.1 8.4-6.9-3.2-10.2-3.8-10.4-3.1-1-3.2-1c0 .1-6.2 8.8-6.2 8.8z" fill="#2e2b53"/><path d="m252 93s2.6 2.2 2.7 3.8-.5 3.1-.5 3.1-2.6.9-2.9 1.7-.3 2.6-.6 3-1 2.3-1 2.9.3 1.5.3 1.5-.5 1.6-.6 1.8c-.1.3.8 3.1.8 3.1s2.3 1 2.6 1.5.3 1.1.3 1.1.4-.9 1.4-1 5.9-1.8 6.5-3.3.8-3.6.4-5.8-.9-2.7-.8-4.3.8-8.2.4-9c-.5-.7-7.1-7.9-9-.1z" fill="#f0b699"/><path d="m269.1 93.3-1.2 2.9-7.6-1.2s-4.9-4.5-4.9-4.5l-1.9 3.7s-1.1-.4-2.2-.9c-.7-.4-1.4-.8-1.7-1.2-.9-1.1-2.7-4.2-3.1-5-.4-.7-1.6-3.2-1.8-4.2-.2-1.1 1.1-6.1 1.1-6.1s1.2-8.3 1.4-8.8.1-3.5-.7-5.9c-.9-2.4-.2-4.9-.2-4.9 1.6-.4 13.3 6.7 14.7 7s5.6-.4 5.6-.4-3.2 3.2-3.9 5.6c-.5 1.8 1.2 5 2.9 8.6.1.2.2.4.3.6l.1.2c.5 1.1 1 2.2 1.3 3.3 1.8 5.2 1.8 11.2 1.8 11.2z" fill="#f9c7a9"/><path d="m244.6 81 1.2-4.2.3-2s-.4 1.9 4 2.9 8.2 1.4 10.3.4 3.8-2.9 3.8-2.9l1 2.1s-.8 2.5-1.4 3.1.9.5-1.8 2-3.4 1.9-4.2 1.9-.1.5-3.3-1.1c-3.3-1.6-4.4-1.8-4.4-1.8z" fill="#2e2b53"/><path d="m267.3 82.1s-4.3 1.7-5.3 2.8c-1 1.2-3 4.8-3.1 6.2-.1 1.1.9 3 1.4 3.9 0 0-4.9-4.4-4.9-4.4l-.1.1c-.5-.6-3.7-1.4-3.5-5.6 0-.8-1.3-.9-1.6.2s-1.3 2.1-1.3 3.3 1.9 4.1 2.3 4.7c-.7-.4-1.4-.8-1.7-1.2-.9-1.1-2.7-4.2-3.1-5-.4-.7-3.1-1.7-3.7-4.5-.2-1.1 2.9-5.9 2.9-5.9s0 1.5 4.1 2.9c4.1 1.3 9.5 1.3 11.6.6 2-.6 3.4-2.7 3.7-3.1.2.1 2.3 5 2.3 5z" fill="#ac4df2"/><path d="m264.5 47.7s-1.2 1.3-2.4 4.1c-1.3 2.9-7.1 12.3-7 12.6l-7.6-5.5s-.4 0-2.5.8c-2.1.7-6.5 1.7-12.5 1.7s-7.9-.9-8.5-2.1c-.5-1.3.3-7.6.3-8.3 0-.6-.9-7.7-.4-10.8.4-3.1.3-11.3.1-12.5-.1-1.2-1.2-3.2-1.6-5-.4-1.9-.6-2.7-.6-3s-.8-2.7-.8-3 .1-.6.2-.7c.1-.2.1-.5.1-.5s0 0 .1-.4.5-.3.5-.3-.1-.8.5-.9 1.4.5 1.7 1.2-.2.9.5 1.4 2 3.9 2 4.1 1.4.8 2.2 1.1 1.9 2.1 1.8 3.1-2 2.4-2 2.4 0 0 0 .1c0 .2 0 .6.1 1.6.2 1.4 2.1 8.8 3.6 12.8s-.7 10.8-.7 10.8 14.7-8.9 21.1-10.7c6.3-2 11.8 5.9 11.8 5.9z" fill="#f9c7a9"/><path d="m264.5 47.7s-1.2 1.3-2.4 4.1c-1.3 2.9-7.1 12.3-7 12.6l-7.6-5.5s-.4 0-2.5.8c-2.1.7-6.5 1.7-12.5 1.7s-7.9-.9-8.5-2.1c-.5-1.3.3-7.6.3-8.3 0-.6-.9-7.7-.4-10.8.4-3.1.3-11.3.1-12.5 0 0 .9 1.4 2.6 1 1.5-.4 1.9-1.3 2-1.5 0 .2 0 .6.1 1.6.2 1.4 2.1 8.8 3.6 12.8s-.7 10.8-.7 10.8 14.7-8.9 21.1-10.7c6.3-1.9 11.8 6 11.8 6z" fill="#e92e8d"/><path d="m312.9 52.3c-.3 0-1.3-.3-1.3-.3s-.7.9-1.8.6-2.7-.7-3.8 0c-1 .8-3.6 1.7-5.1 0-.5-.6.7-2.4-.2-4.1-1-1.8-9.5-5-11-7.1s-2.4-4.4-2.4-4.4-6.3 8.8-6.8 11.1-9 12.8-10.5 14-3.3 1.6-3.3 1.6-3 2.3-5 2.4c-2.1.1-8-4.4-8-4.4s1.5-6.5 3.8-10.2 11.4-10.4 14.1-13.1c2.7-2.8 11-10.8 14.7-11.9s6.7 4.3 6.7 4.3 6.7 9.8 8.4 11.3c1 .9 2.5 2.1 3.6 2.9.8.6 1.5 1 1.8 1.1.7.3 3 1.3 3 1.3s1.5.6 1.9 1.1.4.9.4.9.4.4.6.7.1.6.1.6.3.3.4.6c-.1.5-.1 1-.3 1z" fill="#f9c7a9"/><path d="m304.1 47.7c-1.3 1.3-3.4.9-3.4.9-1-1.8-9.5-5-11-7.1s-2.4-4.4-2.4-4.4-6.3 8.8-6.8 11.1-9 12.8-10.5 14-3.3 1.6-3.3 1.6-3 2.3-5 2.4c-2.1.1-8-4.4-8-4.4s1.5-6.5 3.8-10.2 11.4-10.4 14.1-13.1c2.7-2.8 11-10.8 14.7-11.9s6.7 4.3 6.7 4.3 6.7 9.8 8.4 11.3c1 .9 2.5 2.1 3.6 2.9l.1.4c-.2.1.3.9-1 2.2z" fill="#e92e8d"/><path d="m247 61.7-.5 1 .8 3.3s3.9 3.7 9.3 4.4 6.1-.9 6.1-.9l1.3-2z" fill="#3a3960"/><path d="m245.9 57.5s-.2 1.4 0 2.6-.2 1.7 1 3.2c1.2 1.4 9.4 5 12.1 5s5-1 5-1l3.7-4.2-7.7-1.4s-9.2-3.2-10.2-3.5-3.9-.7-3.9-.7z" fill="#e92e8d"/><path d="m259.3 93.2s-.3 5.7.5 7.3c.9 1.6 2.3 6.8 2.5 8.3.3 1.5 0 7.5.2 9.1.2 1.7-.2 4.4-.1 4.7.1.4.2 1.6 1.1 2s1.7 0 3.4-1.8c1.8-1.8 2.5-5.5 2.2-8.6-.3-3-.4-14.2.2-15.7s0-8.7-1.1-9.9-4.6-.7-6 .3-2.8 3.3-2.9 4.3z" fill="#f9c7a9"/><path d="m253 151.7c-2.4 0 1.6 1.9-31-17-1.1-.6-.8-.4-19.3 10.3-2 0-1.6-.3-1.6 1.1-.1.5-1.7-.6 31 18.3.4.2 1.8.6 2.3.3 21.4-12.8 18.6-10.9 18.6-13z" fill="#33647a"/><path d="m232.2 163.2c-32.7-18.9-31.8-18-30.6-18.7 19.8-11.4 19.4-11.6 20.5-10.9 32.7 18.8 31.8 18 30.6 18.7l-18.2 11.2c-.6.2-1.9-.1-2.3-.3z" fill="#3f8aa8"/><path d="m232.7 161.7c-30.6-17.7-29.2-16.6-28.2-17.2 12.7-7.4 12.8-7.6 13.7-7.1 30.6 17.7 29.2 16.6 28.2 17.2-12.7 7.4-12.8 7.7-13.7 7.1z" fill="#003d59"/><path d="m234 145.5-4.8-2.8 3.8-2.2 4.8 2.8z" fill="#003d59"/><path d="m228.6 142.4c-.6-.3-2.4-1-1.2-1.7 3.3-1.9 2.8-1.8 5-.5z" fill="#003d59"/><path d="m234.6 145.8c.6.4 1.7 1.4 2.9.7 3.2-1.9 3.3-1.6.9-2.9z" fill="#003d59"/><g fill="#33647a"><path d="m235 160.7c-1.1.7-1.6 1.1-2.2.7-1.2-.7-2-1-1.2-1.4 1.1-.7 1.6-1.1 2.2-.7 1.2.7 2 .9 1.2 1.4z"/><path d="m232.4 159.2c-1.1.7-1.6 1.1-2.2.7-1.2-.7-2-1-1.2-1.4 1.1-.7 1.6-1.1 2.2-.7 1.2.7 1.9.9 1.2 1.4z"/><path d="m229.8 157.6c-1.1.7-1.6 1.1-2.2.7-1.2-.7-2-1-1.2-1.4 1.1-.7 1.6-1.1 2.2-.7 1.1.7 1.9 1 1.2 1.4z"/><path d="m227.1 156.1c-1.1.7-1.6 1.1-2.2.7-1.2-.7-2-1-1.2-1.4 1.1-.7 1.7-1 2.2-.7 1.2.7 2 1 1.2 1.4z"/><path d="m224.5 154.6c-1.1.7-1.6 1.1-2.2.7-1.2-.7-2-1-1.2-1.4 1.1-.7 1.6-1.1 2.2-.7 1.2.7 1.9 1 1.2 1.4z"/><path d="m221.9 153.1c-1.1.7-1.7 1-2.2.7-1.2-.7-2-1-1.2-1.4 1.1-.7 1.6-1.1 2.2-.7 1.1.7 1.9.9 1.2 1.4z"/><path d="m219.2 151.6c-1.1.7-1.6 1.1-2.2.7-1.2-.7-2-1-1.2-1.4 1.1-.7 1.6-1.1 2.2-.7 1.2.7 2 .9 1.2 1.4z"/><path d="m216.6 150c-1.1.7-1.6 1.1-2.2.7-1.2-.7-2-1-1.2-1.4 1.1-.7 1.6-1.1 2.2-.7 1.2.7 1.9 1 1.2 1.4z"/><path d="m214 148.5c-1.1.7-1.6 1.1-2.2.7-1.2-.7-2-1-1.2-1.4 1.1-.7 1.6-1.1 2.2-.7 1.1.7 1.9 1 1.2 1.4z"/><path d="m211.3 147c-1.1.7-1.6 1.1-2.2.7-1.2-.7-2-1-1.2-1.4 1.1-.7 1.6-1.1 2.2-.7 1.2.7 2 1 1.2 1.4z"/><path d="m208.7 145.5c-1.1.7-1.7 1-2.2.7-1.2-.7-2-1-1.2-1.4 1.1-.7 1.6-1.1 2.2-.7 1.2.7 1.9.9 1.2 1.4z"/><path d="m237.7 159.1c-1.1.7-1.6 1.1-2.2.7-1.5-.9-2.9-1.4-2-1.8 1.1-.7 1.7-1 2.2-.7 1.5.9 2.9 1.3 2 1.8z"/><path d="m234.5 157.3c-1.1.7-1.6 1.1-2.2.7-1.3-.7-2-1-1.2-1.4 1.1-.6 1.6-1.1 2.2-.7 1.2.7 1.9 1 1.2 1.4z"/><path d="m232.2 155.9c-1.1.6-1.6 1.1-2.2.7-1.3-.7-2-1-1.2-1.4 1.1-.6 1.6-1.1 2.2-.7 1.2.8 1.9 1 1.2 1.4z"/><path d="m229.9 154.6c-1.1.6-1.6 1.1-2.2.7-1.3-.7-2-1-1.2-1.4 1.1-.6 1.6-1.1 2.2-.7 1.2.7 1.9 1 1.2 1.4z"/><path d="m227.5 153.2c-1.1.6-1.6 1.1-2.2.7-1.3-.7-2-1-1.2-1.4 1.1-.6 1.6-1.1 2.2-.7 1.2.8 2 1 1.2 1.4z"/><path d="m225.2 151.9c-1.1.6-1.6 1.1-2.2.7-1.3-.7-2-1-1.2-1.4 1.1-.6 1.6-1.1 2.2-.7 1.2.7 1.9 1 1.2 1.4z"/><path d="m222.9 150.6c-1.1.6-1.6 1.1-2.2.7-1.3-.7-2-1-1.2-1.4 1.1-.6 1.6-1.1 2.2-.7 1.2.7 1.9.9 1.2 1.4z"/><path d="m220.5 149.2c-1.1.6-1.6 1.1-2.2.7-1.3-.7-2-1-1.2-1.4 1.1-.6 1.6-1.1 2.2-.7 1.3.7 2 1 1.2 1.4z"/><path d="m218.2 147.9c-1.1.6-1.6 1.1-2.2.7-1.3-.7-2-1-1.2-1.4 1.1-.6 1.6-1.1 2.2-.7 1.2.7 1.9 1 1.2 1.4z"/><path d="m215.9 146.5c-1.1.6-1.6 1.1-2.2.7-1.3-.7-2-1-1.2-1.4 1.1-.6 1.6-1.1 2.2-.7 1.2.8 1.9 1 1.2 1.4z"/><path d="m213.6 145.2c-1.1.6-1.6 1.1-2.2.7-1.2-.7-2-1-1.2-1.4 1.1-.7 1.6-1.1 2.2-.7 1.2.7 1.9 1 1.2 1.4z"/><path d="m236.7 155.4c-1 .6-1.6 1.1-2.3.7-1.2-.7-2-1-1.2-1.4 1.1-.7 1.6-1.1 2.2-.7 1.3.8 2 1 1.3 1.4z"/><path d="m234.4 154.1c-1.1.7-1.7 1-2.2.7-1.2-.7-2-1-1.2-1.4 1.1-.7 1.6-1.1 2.2-.7 1.1.7 1.9 1 1.2 1.4z"/><path d="m232 152.8c-1.1.7-1.6 1.1-2.2.7-1.2-.7-2-1-1.2-1.4 1.1-.7 1.6-1.1 2.2-.7 1.2.7 2 .9 1.2 1.4z"/><path d="m229.7 151.4c-1.1.7-1.7 1-2.2.7-1.2-.7-2-1-1.2-1.4 1.1-.7 1.6-1.1 2.2-.7 1.2.7 2 1 1.2 1.4z"/><path d="m227.4 150.1c-1.1.7-1.7 1-2.2.7-1.2-.7-2-1-1.2-1.4 1.1-.7 1.7-1 2.2-.7 1.2.7 2 1 1.2 1.4z"/><path d="m225.1 148.8c-1.1.7-1.6 1.1-2.2.7-1.2-.7-2-1-1.2-1.4 1.1-.7 1.7-1 2.2-.7 1.2.7 1.9.9 1.2 1.4z"/><path d="m222.8 147.4c-1.1.7-1.6 1.1-2.2.7-1.2-.7-2-1-1.2-1.4 1.1-.7 1.6-1.1 2.2-.7 1.2.7 2 1 1.2 1.4z"/><path d="m220.5 146.1c-1.1.7-1.6 1.1-2.2.7-1.2-.7-2-1-1.2-1.4 1.1-.7 1.7-1 2.2-.7 1.2.7 1.9 1 1.2 1.4z"/><path d="m238.2 153.2c-1.1.7-1.6 1.1-2.2.7-1.2-.7-2-1-1.2-1.4 1.1-.7 1.6-1.1 2.2-.7 1.2.7 1.9 1 1.2 1.4z"/><path d="m235.9 151.9c-1.1.7-1.6 1.1-2.2.7-1.2-.7-2-1-1.2-1.4 1.1-.7 1.6-1.1 2.2-.7 1.1.7 1.9 1 1.2 1.4z"/><path d="m233.6 150.6c-1.1.7-1.6 1.1-2.2.7-1.2-.7-2-1-1.2-1.4 1.1-.7 1.6-1.1 2.2-.7 1.1.7 1.9.9 1.2 1.4z"/><path d="m245.8 154.5c-1.1.7-1.6 1.1-2.2.7-1.2-.7-2-1-1.2-1.4 1.1-.7 1.6-1.1 2.2-.7 1.2.7 1.9 1 1.2 1.4z"/><path d="m243.5 153.2c-1.1.7-1.6 1.1-2.2.7-1.2-.7-2-1-1.2-1.4 1.1-.7 1.6-1.1 2.2-.7 1.1.7 1.9 1 1.2 1.4z"/><path d="m241.2 151.8c-1.1.7-1.6 1.1-2.2.7-1.2-.7-2-1-1.2-1.4 1.1-.7 1.6-1.1 2.2-.7 1.1.7 1.9 1 1.2 1.4z"/><path d="m224 141.9c-1.1.7-1.6 1.1-2.2.7-1.2-.7-2-1-1.2-1.4 1.1-.7 1.6-1.1 2.2-.7 1.2.7 2 1 1.2 1.4z"/><path d="m221.7 140.6c-1.1.7-1.7 1-2.2.7-1.2-.7-2-1-1.2-1.4 1.1-.7 1.6-1.1 2.2-.7 1.2.7 2 1 1.2 1.4z"/><path d="m219.4 139.3c-1.1.7-1.6 1.1-2.2.7-1.2-.7-2-1-1.2-1.4 1.1-.7 1.7-1 2.2-.7 1.2.7 1.9 1 1.2 1.4z"/><path d="m231.3 149.2c-1.1.7-1.6 1.1-2.2.7-1.2-.7-2-1-1.2-1.4 1.1-.7 1.6-1.1 2.2-.7 1.1.7 1.9 1 1.2 1.4z"/><path d="m229 147.9c-1.1.7-1.6 1.1-2.2.7-1.2-.7-2-1-1.2-1.4 1.1-.7 1.6-1.1 2.2-.7 1.1.7 1.9 1 1.2 1.4z"/><path d="m226.6 146.6c-1.1.7-1.6 1.1-2.2.7-1.2-.7-2-1-1.2-1.4 1.1-.7 1.7-1 2.2-.7 1.2.7 2 .9 1.2 1.4z"/><path d="m224.3 145.2c-1.1.7-1.6 1.1-2.2.7-1.2-.7-2-1-1.2-1.4 1.1-.7 1.6-1.1 2.2-.7 1.2.7 2 1 1.2 1.4z"/><path d="m222 143.9c-1.1.7-1.6 1.1-2.2.7-1.2-.7-2-1-1.2-1.4 1.1-.7 1.6-1.1 2.2-.7 1.2.7 2 1 1.2 1.4z"/><path d="m218.2 144.8c-1.1.7-1.6 1.1-2.2.7-1.3-.7-2-1-1.2-1.4 1.1-.6 1.6-1.1 2.2-.7 1.2.7 1.9.9 1.2 1.4z"/><path d="m211.4 143.9c-1.1.7-1.7 1-2.2.7-1.2-.7-2-1-1.2-1.4 1.1-.7 1.6-1.1 2.2-.7 1.1.7 1.9 1 1.2 1.4z"/><path d="m240.4 157.6c-1.1.7-1.6 1.1-2.2.7-2.5-1.4-3.4-1.7-2.6-2.2 1-.6 1.6-1.1 2.3-.7 2.5 1.5 3.3 1.7 2.5 2.2z"/><path d="m219.6 142.5c-1.1.7-1.6 1.1-2.2.7-3.9-2.3-4.9-2.6-4.1-3 1.1-.7 1.6-1.1 2.2-.7 3.9 2.2 4.9 2.5 4.1 3z"/><path d="m238.7 150.4c-1.1.7-1.7 1-2.2.7-13.8-7.9-14.3-7.9-13.4-8.4 1.2-.7 1.6-1.1 2.2-.7 14.1 8.1 14.3 7.9 13.4 8.4z"/><path d="m243.1 156c-1.1.7-1.6 1.1-2.2.7-3.3-1.9-4.3-2.2-3.5-2.7 1.1-.7 1.7-1 2.2-.7 3.3 1.9 4.3 2.3 3.5 2.7z"/><path d="m215.9 143.4c-1.1.6-1.6 1.1-2.2.7-2.7-1.6-3.9-1.9-3.1-2.4 1.1-.7 1.6-1.1 2.2-.7 3.1 1.8 3.8 2 3.1 2.4z"/></g><g fill="#56a8c1"><path d="m233.8 159.2c.9.5 1.9.9 1.2 1.2-1.1.6-1.5 1-2 .7-.9-.5-1.9-.9-1.2-1.2 1-.6 1.5-1 2-.7z"/><path d="m231.1 157.7c.9.5 1.9.9 1.2 1.2-1.1.6-1.5 1-2 .7-.9-.5-1.9-.9-1.2-1.2 1.1-.6 1.6-1 2-.7z"/><path d="m228.5 156.2c.9.5 1.9.9 1.2 1.2-1.1.6-1.5 1-2 .7-.9-.5-1.9-.9-1.2-1.2 1.1-.7 1.5-1 2-.7z"/><path d="m225.9 154.6c.9.5 1.9.9 1.2 1.2-1.1.6-1.5 1-2 .7-.9-.5-1.9-.9-1.2-1.2 1-.6 1.5-.9 2-.7z"/><path d="m223.2 153.1c.9.5 1.9.9 1.2 1.2-1.1.6-1.5 1-2 .7-.9-.5-1.9-.9-1.2-1.2 1.1-.6 1.6-1 2-.7z"/><path d="m220.6 151.6c.9.5 1.9.9 1.2 1.2-1.1.6-1.5 1-2 .7-.9-.5-1.9-.9-1.2-1.2 1.1-.6 1.5-1 2-.7z"/><path d="m218 150.1c.9.5 1.9.9 1.2 1.2-1.1.6-1.5 1-2 .7-.9-.5-1.9-.9-1.2-1.2 1-.6 1.5-1 2-.7z"/><path d="m215.3 148.5c.9.5 1.9.9 1.2 1.2-1.1.6-1.5 1-2 .7-.9-.5-1.9-.9-1.2-1.2 1.1-.6 1.6-.9 2-.7z"/><path d="m212.7 147c.9.5 1.9.9 1.2 1.2-1.1.6-1.5 1-2 .7-.9-.5-1.9-.9-1.2-1.2 1.1-.6 1.5-.9 2-.7z"/><path d="m210.1 145.5c.9.5 1.9.9 1.2 1.2-1.1.6-1.5 1-2 .7-.9-.5-1.9-.9-1.2-1.2 1-.6 1.5-1 2-.7z"/><path d="m207.4 144c.9.5 1.9.9 1.2 1.2-1.1.6-1.5 1-2 .7-.9-.5-1.9-.9-1.2-1.2 1.1-.6 1.6-1 2-.7z"/><path d="m235.7 157.2c1.7 1 2.7 1.3 2 1.7-1.1.6-1.5 1-2 .7-1.7-1-2.7-1.3-2-1.7 1.1-.6 1.5-1 2-.7z"/><path d="m233.3 155.8c.9.5 1.9.9 1.2 1.2-1.1.6-1.5 1-2 .7-.9-.5-1.9-.9-1.2-1.2 1-.6 1.5-1 2-.7z"/><path d="m230.9 154.5c.9.5 1.9.9 1.2 1.2-1.1.6-1.5 1-2 .7-.9-.5-1.9-.9-1.2-1.2 1.1-.6 1.6-1 2-.7z"/><path d="m228.6 153.1c.9.5 1.9.9 1.2 1.2-1.1.6-1.5 1-2 .7-.9-.5-1.9-.9-1.2-1.2 1.1-.6 1.5-1 2-.7z"/><path d="m226.3 151.8c.9.5 1.9.9 1.2 1.2-1.1.6-1.5 1-2 .7-.9-.5-1.9-.9-1.2-1.2 1-.6 1.5-1 2-.7z"/><path d="m223.9 150.4c.9.5 1.9.9 1.2 1.2-1.1.6-1.5 1-2 .7-.9-.5-1.9-.9-1.2-1.2 1.1-.6 1.6-.9 2-.7z"/><path d="m221.6 149.1c.9.5 1.9.9 1.2 1.2-1.1.6-1.5 1-2 .7-.9-.5-1.9-.9-1.2-1.2 1.1-.6 1.5-1 2-.7z"/><path d="m219.3 147.7c.9.5 1.9.9 1.2 1.2-1.1.6-1.5 1-2 .7-.9-.5-1.9-.9-1.2-1.2 1.1-.6 1.5-.9 2-.7z"/><path d="m217 146.4c.9.5 1.9.9 1.2 1.2-1.1.6-1.5 1-2 .7-.9-.5-1.9-.9-1.2-1.2 1.1-.6 1.5-1 2-.7z"/><path d="m214.6 145c.9.5 1.9.9 1.2 1.2-1.1.6-1.5 1-2 .7-.9-.5-1.9-.9-1.2-1.2 1.1-.6 1.6-.9 2-.7z"/><path d="m212.3 143.7c.9.5 1.9.9 1.2 1.2-1.1.6-1.5 1-2 .7-.9-.5-1.9-.9-1.2-1.2 1.1-.6 1.5-1 2-.7z"/><path d="m235.4 154c.9.5 1.9.9 1.2 1.2-1.1.6-1.5 1-2 .7-.9-.5-1.9-.9-1.2-1.2 1.1-.7 1.5-1 2-.7z"/><path d="m233.1 152.6c.9.5 1.9.9 1.2 1.2-1.1.6-1.5 1-2 .7-.9-.5-1.9-.9-1.2-1.2 1.1-.6 1.5-1 2-.7z"/><path d="m230.8 151.3c.9.5 1.9.9 1.2 1.2-1.1.6-1.5 1-2 .7-.9-.5-1.9-.9-1.2-1.2 1.1-.6 1.5-1 2-.7z"/><path d="m228.5 150c.9.5 1.9.9 1.2 1.2-1.1.6-1.5 1-2 .7-.9-.5-1.9-.9-1.2-1.2 1.1-.7 1.5-1 2-.7z"/><path d="m226.2 148.6c.9.5 1.9.9 1.2 1.2-1.1.6-1.5 1-2 .7-.9-.5-1.9-.9-1.2-1.2 1-.6 1.5-1 2-.7z"/><path d="m223.9 147.3c.9.5 1.9.9 1.2 1.2-1.1.6-1.5 1-2 .7-.9-.5-1.9-.9-1.2-1.2 1.1-.6 1.5-1 2-.7z"/><path d="m221.5 145.9c.9.5 1.9.9 1.2 1.2-1.1.6-1.5 1-2 .7-.9-.5-1.9-.9-1.2-1.2 1.2-.6 1.6-.9 2-.7z"/><path d="m219.2 144.6c.9.5 1.9.9 1.2 1.2-1.1.6-1.5 1-2 .7-.9-.5-1.9-.9-1.2-1.2 1.1-.6 1.6-1 2-.7z"/><path d="m236.9 151.7c.9.5 1.9.9 1.2 1.2-1.1.6-1.5 1-2 .7-.9-.5-1.9-.9-1.2-1.2 1.1-.6 1.6-.9 2-.7z"/><path d="m234.6 150.4c.9.5 1.9.9 1.2 1.2-1.1.6-1.5 1-2 .7-.9-.5-1.9-.9-1.2-1.2 1.1-.6 1.5-1 2-.7z"/><path d="m232.3 149.1c.9.5 1.9.9 1.2 1.2-1.1.6-1.5 1-2 .7-.9-.5-1.9-.9-1.2-1.2 1.1-.6 1.5-1 2-.7z"/><path d="m244.5 153c.9.5 1.9.9 1.2 1.2-1.1.6-1.5 1-2 .7-.9-.5-1.9-.9-1.2-1.2 1.1-.6 1.6-.9 2-.7z"/><path d="m242.2 151.7c.9.5 1.9.9 1.2 1.2-1.1.6-1.5 1-2 .7-.9-.5-1.9-.9-1.2-1.2 1.1-.6 1.5-1 2-.7z"/><path d="m239.9 150.4c.9.5 1.9.9 1.2 1.2-1.1.6-1.5 1-2 .7-.9-.5-1.9-.9-1.2-1.2 1.1-.7 1.5-1 2-.7z"/><path d="m222.8 140.5c.9.5 1.9.9 1.2 1.2-1.1.6-1.5 1-2 .7-.9-.5-1.9-.9-1.2-1.2 1.1-.7 1.5-1 2-.7z"/><path d="m220.5 139.1c.9.5 1.9.9 1.2 1.2-1.1.6-1.5 1-2 .7-.9-.5-1.9-.9-1.2-1.2 1.1-.6 1.5-.9 2-.7z"/><path d="m218.2 137.8c.9.5 1.9.9 1.2 1.2-1.1.6-1.5 1-2 .7-.9-.5-1.9-.9-1.2-1.2 1-.6 1.5-1 2-.7z"/><path d="m230 147.7c.9.5 1.9.9 1.2 1.2-1.1.6-1.5 1-2 .7-.9-.5-1.9-.9-1.2-1.2 1.1-.6 1.5-.9 2-.7z"/><path d="m227.7 146.4c.9.5 1.9.9 1.2 1.2-1.1.6-1.5 1-2 .7-.9-.5-1.9-.9-1.2-1.2 1.1-.6 1.5-1 2-.7z"/><path d="m225.4 145.1c.9.5 1.9.9 1.2 1.2-1.1.6-1.5 1-2 .7-.9-.5-1.9-.9-1.2-1.2 1.1-.6 1.5-1 2-.7z"/><path d="m223.1 143.7c.9.5 1.9.9 1.2 1.2-1.1.6-1.5 1-2 .7-.9-.5-1.9-.9-1.2-1.2 1.1-.6 1.5-.9 2-.7z"/><path d="m220.8 142.4c.9.5 1.9.9 1.2 1.2-1.1.6-1.5 1-2 .7-.9-.5-1.9-.9-1.2-1.2 1-.6 1.5-1 2-.7z"/><path d="m216.9 143.3c.9.5 1.9.9 1.2 1.2-1.1.6-1.5 1-2 .7-.9-.5-1.9-.9-1.2-1.2 1.1-.6 1.6-1 2-.7z"/><path d="m210.1 142.4c.9.5 1.9.9 1.2 1.2-1.1.6-1.5 1-2 .7-.9-.5-1.9-.9-1.2-1.2 1.1-.6 1.5-.9 2-.7z"/><path d="m237.8 155.3c2.5 1.4 3.2 1.7 2.6 2-1.1.6-1.5 1-2 .7-2.5-1.4-3.2-1.7-2.6-2 1-.6 1.5-1 2-.7z"/><path d="m215.5 139.3c4.3 2.5 4.7 2.5 4.1 2.9-1.1.6-1.5 1-2 .7-4.3-2.5-4.7-2.5-4.1-2.9 1-.6 1.5-.9 2-.7z"/><path d="m225.3 141.9c14.4 8.3 14 7.9 13.4 8.2-1.1.6-1.5 1-2 .7-14.4-8.3-14-7.9-13.4-8.2 1.1-.6 1.5-1 2-.7z"/><path d="m239.6 153.3c3.5 2 4.1 2.1 3.5 2.5-1.1.6-1.5 1-2 .7-3.5-2-4.1-2.2-3.5-2.5 1.1-.6 1.5-1 2-.7z"/><path d="m212.8 140.9c3 1.7 3.7 1.9 3.1 2.3-1.1.6-1.5 1-2 .7-3-1.7-3.7-1.9-3.1-2.3 1.1-.6 1.5-1 2-.7z"/></g><path d="m231.2 163.7-30.6-18.5c-.3-.2-.5-.6-.5-.9l-.7-18.8c0-.3.9-.8 1.2-.6 33.4 19.3 31.6 18.1 31.6 18.9v19.1c0 .3-.7.9-1 .8z" fill="#4ca4bf"/><path d="m231 163.6c-33.4-19.3-31.6-18.1-31.6-18.9 0-19.9-.3-19.9.5-19.4 33.4 19.3 31.6 18.1 31.6 18.9 0 19.9.3 19.8-.5 19.4z" fill="#3f8aa8"/></svg>