<svg enable-background="new 0 0 25.5 142.8" viewBox="0 0 25.5 142.8" xmlns="http://www.w3.org/2000/svg"><g fill="#fff"><path d="m0 111.1c0-.8.2-2.7.4-3.8h.9s-.2 2.4-.2 3.8c0 2 .9 2.7 4.7 2.7 2.6 0 4.7-.6 4.7-2.7 0-1.6-.1-3.8-.1-3.8h.9c.2 1.1.3 3 .3 3.8 0 2.9-2.5 3.8-5.9 3.8-3.5 0-5.7-.7-5.7-3.8z"/><path d="m0 101.7c0-2.7.5-4.4 5.9-4.4 5.1 0 5.7 1.6 5.7 4.4s-.5 4.5-5.7 4.5c-5.3 0-5.9-1.9-5.9-4.5zm10.5 0c0-2.4-.7-3.3-4.6-3.3-4.7 0-4.7 1.1-4.7 3.3 0 2.1 0 3.3 4.7 3.3 4.1 0 4.6-.8 4.6-3.3z"/><path d="m.1 95.1v-1.6l9.5-3.1-9.5-3v-1.6l11.5-.9v1.2l-9.4.7 9.4 2.9v1.2l-9.4 3 9.4.6v1.2z"/><path d="m.1 83.3v-4.7c0-1.2.5-2.7 3.3-2.7 3.3 0 3.5 1.6 3.5 2.7 0 .6-.3 3.5-.3 3.6h5v1.2h-11.5zm5.7-4.8c0-.8-.2-1.6-2.3-1.6s-2.1 1-2.1 1.6v3.6h4.5v-3.6z"/><path d="m.1 71.6v-1.2l11.5-4v1.4l-3.2 1v4.6l3.2 1v1.4zm7.1-2.4-5.3 1.8 5.3 1.9z"/><path d="m.1 64.7v-1.2l9.3-6.1h-9.3v-1.2h11.5v1.2l-9.3 6.1h9.3v1.2z"/><path d="m.1 53.4 6-3-6-3.3v-1.3l7.4 4h4.1v1.2h-4.1l-7.4 3.7v-1.3z"/><path d="m.1 40.3v-1.2l9.3-6.1h-9.3v-1.2h11.5v1.2l-9.3 6.1h9.3v1.2z"/><path d="m.1 26v-1.2l11.5-4v1.4l-3.2 1v4.6l3.2 1v1.4zm7.1-2.4-5.3 1.8 5.3 1.9z"/><path d="m.1 18.8v-1.6l9.5-3.1-9.5-3v-1.5l11.5-.9v1.2l-9.4.7 9.4 2.9v1.2l-9.4 3 9.4.6v1.2z"/><path d="m2.2 6.9c-1.5 0-2.1-.9-2-2l.2-4.9h.9v4.9c0 .8.5.8.9.8h3.1l.2-5.1h.9l.2 5.1h3.1c.8 0 .8-.5.8-1v-4.7h.9l.3 4.8c.1 1-.2 2.1-2 2.1z"/><path d="m16.7 114.8c-1.5 0-1.9-.9-1.9-2.1 0-.6.1-1.8.2-2.4h.1c0 .7-.1 2.4-.1 2.4 0 1.1.4 1.8 1.6 1.8h.7c1.1 0 1.3-.6 1.3-1.6v-1.2c0-1.4.7-1.7 1.6-1.7h.8c1.5 0 1.7 1 1.7 2.1 0 .5-.1 2-.2 2.5h-.2c0-.5.1-1.5.1-2.5s-.2-1.8-1.5-1.8h-.7c-.9 0-1.3.4-1.3 1.5v1.2c0 1.6-.7 1.8-1.6 1.8z"/><path d="m14.3 108.7v-.3h6.3c1.7 0 1.7-.7 1.8-1 0 0 .1-.7.1-.8h.1v.7c0 .9-.6 1.3-2 1.3h-6.3z"/><path d="m17 104c0-1.8 1-2.3 3-2.3 2.1 0 2.8.6 2.8 2.3 0 1.9-.8 2.3-2.8 2.3-2.4 0-3-.7-3-2.3zm5.5 0c0-1.4-.4-2.1-2.5-2.1-2.3 0-2.7.8-2.7 2.1s.2 2.1 2.7 2.1c2.2-.1 2.5-.8 2.5-2.1z"/><path d="m20.7 99.3c-.3.8-1 .9-1.7.9-1.4 0-2-.5-2-1.8v-3.3h.1l.1 1.2c.1-.2.5-.6 1.8-.6.6 0 1.8.2 1.8 1.8v1.5c0 .2.1.9.6.9.4 0 .6-.6.6-.9v-2.2c0-1 .6-1.5 1.4-1.5h.6c.6 0 1.5.2 1.5 1.6v1.6c0 1-.6 1.7-1.6 1.7h-1l-1.1-.1c-.1.1-.2.1-.4.1-.3 0-.7-.3-.7-.9zm-.2-.8v-1.1c0-1.1-.8-1.5-1.6-1.5-1.2 0-1.8.5-1.8 1.1v1.6c0 1.2.7 1.5 1.8 1.5 1.2-.1 1.6-.7 1.6-1.6zm4.8.1v-1.6c0-.7-.3-1.3-1.3-1.3h-.6c-.6 0-1.2.3-1.2 1.3v2.2c0 .6-.3.9-.3.9h1.9c1.3-.1 1.5-1.1 1.5-1.5z"/><path d="m20.7 94.2c-.9 0-1.4-.5-1.4-1.4v-2.6h-.7c-.7 0-1.4.3-1.4 1.4 0 .8.1 1.5.2 2.4h-.1c-.1-.6-.3-1.4-.3-2.4 0-.9.5-1.6 1.6-1.6h4.1v.2h-.7s.7 1.5.7 2.6c0 .8-.5 1.4-1.4 1.4zm1.8-1.4c0-.9-.6-2.6-.6-2.6h-2.4l.1 2.6c0 .9.5 1.2 1.2 1.2h.6c.8 0 1.1-.7 1.1-1.2z"/><path d="m17 88.4v-.1l.7-.1c-.4-.6-.8-1.4-.8-2.3 0-1.1.9-1.7 1.8-1.7h3.9v.3h-3.9c-.8 0-1.6.5-1.6 1.5 0 .9.2 1.5.6 2.3h4.8v.3h-5.5z"/><path d="m14.9 79.3v-.3h3.9v-4.7h-3.9v-.3h7.8v.3h-3.7v4.7h3.6v.3z"/><path d="m17 70.5c0-1.3.1-2.1 2-2.1.8 0 1 .5 1 1.4v2.6c2.1 0 2.5-.7 2.5-1.6 0-1-.1-1.5-.2-2.3h.2c.2.9.3 1.5.3 2.3 0 1.4-.8 1.9-2.9 1.9-2.6-.1-2.9-.6-2.9-2.2zm2.8-.7c0-.6 0-1.2-.8-1.2-1.6 0-1.7.6-1.7 1.9 0 1.5.3 1.9 2.5 1.9z"/><path d="m17 66.9v-.1l.7-.1c-.4-.6-.8-1.4-.8-2.3 0-.3 0-.6.1-.8h.2c-.1.3-.1.5-.1.8 0 .9.3 1.5.7 2.3h4.7v.3h-5.5z"/><path d="m17 60.6c0-1.3.1-2.1 2-2.1.8 0 1 .5 1 1.4v2.6c2.1 0 2.5-.7 2.5-1.6 0-1-.1-1.5-.2-2.3h.2c.2.9.3 1.5.3 2.3 0 1.4-.8 1.9-2.9 1.9-2.6-.1-2.9-.6-2.9-2.2zm2.8-.7c0-.6 0-1.2-.8-1.2-1.6 0-1.7.6-1.7 1.9 0 1.5.3 1.9 2.5 1.9z"/><path d="m22.7 140.1v-19.1h-19.4z"/><path d="m.8 123.1v19.7h20z"/></g></svg>