<svg enable-background="new 0 0 354.1 109.5" viewBox="0 0 354.1 109.5" xmlns="http://www.w3.org/2000/svg"><path d="m310.6 26.7.7 6.7 5.1-.5-.7-5z" fill="#ffb0a4"/><path d="m311.9 16.1c-3.4 1-3.1 3.3-3.1 3.3s-.1 1.3.2 3.4c-.4-.4-.9-.5-1.5-.3-1.1.6 0 3.6 1.8 3.2.2 1 .8 2.5.9 2.8.6 1 3 2.3 5 2.4s4.4-1.4 4.4-3.6c0-3.1-1.5-11.7-1.5-11.7s-.5-1.3-6.2.5z" fill="#ffc3b6"/><path d="m310.7 17.1c-.9.1-2.4 1.1-3.3 1.1.2.4.5 4.2.5 4.2.9 0 1 .7 1 .7l.3 1.6.9-.2-.4-3.3c.6-.4.8-1.1.8-1.1s.5-1.6.2-3z" fill="#004258"/><path d="m310.7 17.1s4.1 1.9 7.1-.4l-2.6-.2s5.4.3 5-3.6c0 0-.2.7-1.5 1.1 0 0 2.1-.8.5-3.3 0 0-.2 2.5-3.2 2s-6.2-1.3-6.9 2c0 0-4.2-1.4-1.2 7.5z" fill="#004258"/><path d="m312.4 26.7 5.5.1c-.1 0-2.3 2.6-5.5-.1z" fill="#fff"/><path d="m311.5 20.5c0-.4.2-.6.5-.9.2-.2.6-.3.9-.4.3 0 .7 0 1 .2s.5.4.6.8c-.4.1-.6.1-.9.1l-.6.1c-.4.1-.8.2-1.5.1z" fill="#003340"/><path d="m316.1 20.3c0-.4.1-.6.3-.9.2-.2.5-.4.9-.4.3 0 .7.1.9.3s.4.5.4.8c-.4 0-.6 0-.8 0s-.3 0-.5 0c-.2.1-.5.2-1.2.2z" fill="#003340"/><path d="m314.2 23.2c-.4-.5-.9-.8-1.3-.8s-.8.5-1 1.1c-.1-.3-.2-.7 0-1 .1-.3.5-.6.9-.7s.8.1 1.1.4.3.7.3 1z" fill="#000915"/><path d="m318.7 22.8c-.4-.5-.9-.8-1.3-.8s-.8.5-1 1.1c-.1-.3-.2-.7 0-1 .1-.3.5-.6.9-.7s.8.1 1.1.4.3.7.3 1z" fill="#000915"/><path d="m315.5 20.3c.4.7.8 1.4 1 2.1.3.7.5 1.5.6 2.3v.3l-.2.1c-.5.2-.9.3-1.4.4.4-.3.8-.7 1.2-.9l-.1.3c-.3-.7-.6-1.5-.8-2.2-.2-.8-.3-1.6-.3-2.4z" fill="#e37c72"/><ellipse cx="315.8" cy="106.2" opacity=".1" rx="14.3" ry="2.7"/><path d="m316.6 95.6 3.8 3.8 1.8-1.2-3.9-4.2z" fill="#ffb0a4"/><path d="m318.5 99.5s1 1.6.8 3.5-.1 3.6.9 3.9c0 0 2.2-2.1 2.5-6.7l.4.2 1-2.7-3.6-1.3-.7 2.3-.3-.3z" fill="#003340"/><path d="m322.2 102c-.5 4-1.9 4.6-2.1 4.7.1.1.2.1.3.1 0 0 2.2-2.1 2.5-6.7l.4.2 1-2.7-.7-.3c-.4 1.1-1.1 1.8-1.4 4.7z" fill="#002027"/><path d="m306.1 75.2c-1.1 1.1-.3-.2-1.9-.3-1.1 3.4-.6 4.3 1.5 6.5 3.5 3.8 11.6 16.6 11.6 16.6 1.9.5 3.5-2.4 3.5-2.4-.6-1.3-9.9-18-11.9-20.2-.4-.4-.9-1.2-1.4-2-.4.6-.8 1.2-1.4 1.8z" fill="#004258"/><path d="m312.6 81.1c-.6 2.1-1.5 4-2.5 5.9 3.5 5 7.2 11 7.2 11 1.9.5 3.5-2.4 3.5-2.4-.4-.8-4.8-8.7-8.2-14.5z" fill="#003340"/><path d="m312.8 99.8-.7 5.1 2.1.7 1-5.5z" fill="#ffb0a4"/><path d="m315.4 102.6s1.2 1.5 3.1 2c1.9.6 3.6 1.2 3.4 2.3 0 0-2.9 1.2-7.5-.3v.4l-3-.2.1-3.6 2.5.2-.2-.4z" fill="#003340"/><path d="m316.5 106.7c4.1 1 5.2 0 5.4-.1v.3s-2.9 1.2-7.5-.3v.4l-3-.2v-.7c1.2.2 2.1-.1 5.1.6z" fill="#002027"/><path d="m323.3 53.8-13.8 1.8s-4.1 13-5.5 20c.8-.2 1.4 1.9 2.4 2 1.3.2 2.6.7 3.6 1.6v-.1c.4-2.9 4.5-14.4 4.5-14.4l2 .3c-1 12.3-4.8 36.2-4.8 36.2 2 1.6 4.6.6 4.6.6 7.6-21.3 7-48 7-48z" fill="#004258"/><path d="m309.9 50.6s6.1 7.6 13.6 4.6c0 0 .3-13.2.3-21.4 0 0-4.9-1.4-10.2-1.2-2.7.1-7 1.5-9.8 2.4-.1 0 4.7 9.4 6.1 15.6z" fill="#fff"/><path d="m309.3 33.2 2.8 2.3 1.2-3.5-2.7-1.1z" fill="#d7dee2"/><path d="m318.1 32.5-1.4 2.2-2.1-2.8 2.1-1.2z" fill="#d7dee2"/><path d="m313.4 32s-1.9-.5-2.1-.2c-.2.2-.2 2.1.3 2.7s1.9-1.1 1.9-1.1l1.1-.1s1.4 1.1 1.8.7.2-2.7-.2-2.8c-.4-.2-1.8.8-1.8.8z" fill="#e8ab63"/><path d="m325.2 33.8s-3.8-.7-7-1c-.6 3.2-2.7 13.8-2.7 13.8s-4.9-10.7-6.4-13.5c-1.8.5-4.3.7-5.7 1.2 0 0 3.3 9.5 4 13.8l-1.3 13.9s7.8 0 9.9-5.3c3 5.7 7.7 5.4 7.7 5.4s0-6.5-.2-11.2c.1-3.2 1.1-9.7 1.7-17.1z" fill="#002027"/><path d="m315.6 46.6s-4.3-9.6-6.1-14.3c-.4-.1-1.9.6-1.9.6l-.2 3 1.2.6-.9 1.6z" fill="#004258"/><path d="m315.6 46.6s2-9.3 2.5-14.4c.4-.2 2 .2 2 .2l1 2.8-1 .8.9.7z" fill="#004258"/><path d="m307.2 49 5.1.3v1.1l-5.1-.3z" fill="#004258"/><path d="m323.9 49.4-4.9.2-.1 1.1 5-.3z" fill="#004258"/><path d="m316.2 48.2c0 .2-.1.4-.3.4s-.3-.2-.3-.4.1-.4.3-.4.3.2.3.4z" fill="#004258"/><path d="m316.4 51.6c0 .2-.1.4-.3.4s-.3-.2-.3-.4.1-.4.3-.4.3.2.3.4z" fill="#004258"/><path d="m303.5 34.3-24.2 9.7 1.7 3.2 25.1-6.9z" fill="#002027"/><path d="m325.2 33.8 6.9 3.7 3.1-6.8 3.5 1.3s-3.2 11.4-3.9 11.4-11.7-4.1-11.7-4.1z" fill="#002027"/><path d="m337.5 20.2v.7c0 2.3.7 5.7 1.5 5.7s1.5-3.4 1.5-5.7c0-.3 0-.5 0-.7z" fill="#d7dee2"/><path d="m338 21.7v.5c0 1.6.5 4.1 1.1 4.1s1.1-2.4 1.1-4.1c0-.2 0-.3 0-.5z" fill="#e8ab63"/><path d="m338.8 26h.4v5.6h-.4z" fill="#d7dee2"/><path d="m340.9 31.5c0 .3-.9.5-1.9.5s-1.9-.2-1.9-.5.9-.5 1.9-.5c1.1.1 1.9.3 1.9.5z" fill="#d7dee2"/><path d="m338.4 31.3c.4-.7.7-1.4.7-1.6 0-1.8-.8-1.6-.8-1.6s2.2-.6 1.8-.8c-.4-.3-2.4.3-2.9.3-.4 0-1.2 2.2-1.5 3.1z" fill="#ffc3b6"/><path d="m340.5 27.9s-3.8 0-2.3.4c1.4.4 2 .2 2 .2s-4.3.7 0 .8c0 0-4.7.4-1 .7 0 0 1.7.3 1.3-.6 0 0 1-.3.2-.8 0 0 .9-.3-.2-.7z" fill="#ffc3b6"/><path d="m46.1 16.8s-4.7-1.4-6.7 3.6 0 4.9-3.5 6.4c-5.2 2.3-3.1 10.2 2 8.8s8.3.8 8.2-4.6 0-14.2 0-14.2z" fill="#003443"/><path d="m42.3 34.4s2.3.9 2.2 1.2-.7 2.7-2.4 4.1c-1 .8-8.7 6.7-11.4 6.2s-6.7-13.2-5.7-13.1c1.1.1 6.5 8.4 6.5 8.4s4.7-4.1 6.6-5.9c1.9-2 4.2-.9 4.2-.9z" fill="#ffb0a4"/><path d="m25.6 26.8c0 .2 0 .3.1.6.1 1.8-.3 4.6-.9 4.6-.7 0-1.4-2.7-1.5-4.5 0-.2 0-.4 0-.6z" fill="#d7dee2"/><path d="m25.1 35.9h-.3l-.3-4.4h.3z" fill="#d7dee2"/><path d="m23.4 36c0 .2.7.3 1.5.3s1.5-.2 1.5-.4-.7-.3-1.5-.3-1.5.2-1.5.4z" fill="#d7dee2"/><path d="m25.3 27.9v.4c.1 1.3-.2 3.3-.7 3.3s-1-1.9-1.1-3.2c0-.2 0-.3 0-.4z" fill="#e8ab63"/><path d="m25.4 35.7c-.3-.6-.7-1.1-.7-1.3-.1-1.4.6-1.3.6-1.3s-1.8-.4-1.5-.6 1.9.1 2.3.1c.3 0 5.6 8.7 5.8 9.4z" fill="#ffb0a4"/><path d="m23.6 33s3-.2 1.9.2-1.6.2-1.6.2 3.5.4 0 .7c0 0 3.7.1.8.5 0 0-1.3.3-1.1-.4 0 0-.8-.2-.2-.7.1.1-.7-.1.2-.5z" fill="#ffc3b6"/><path d="m37.4 38.3s1.7-4.2 3.7-4.1c2.1.1 3.3.5 3.3-2 0-2.4 4.6.3 4.6.3s-1.6 2.4.2 3c1.8.5 3.5.5 4.1 1.7s-3.1 5.4-3.1 5.4z" fill="#ffb0a4"/><path d="m44.4 34c1.4.2 2.8 0 4.1-.4.2-.6.5-1.1.5-1.1s-4.6-2.7-4.6-.3c0 .9-.2 1.4-.5 1.7.2 0 .4 0 .5.1z" fill="#a9665d" opacity=".3"/><path d="m47.7 19.1s-4.6-.4-6 3c-2.5 6.3-.8 9 1.7 10.2 3 1.3 5.9-2.5 7.9-5.6 2.1-2.9 4.1-6.3-3.6-7.6z" fill="#ffb0a4"/><path d="m50.9 16.6s-5.2-2.6-6.3.9c-.9 2.9.6 4.4 3.3 4.8s3 3.2 1.3 5.1-3.5 7 .3 8.1c3.9 1.1 3.4.8 4.7 1.3 0 0 4.8-2.8 3.2-5.7-1.6-2.8-4.1-2.4-2.8-6 1.4-3.5-.8-6.5-3.7-8.5z" fill="#004258"/><g fill="#fff"><ellipse cx="42.3" cy="34.4" rx=".5" ry=".5"/><ellipse cx="48.2" cy="36.3" rx=".5" ry=".5"/><path d="m47.6 36.9c0 .3-.2.5-.5.5s-.5-.2-.5-.5.2-.5.5-.5c.3.1.5.3.5.5z"/><path d="m46.3 37.3c0 .3-.2.5-.5.5s-.5-.2-.5-.5.2-.5.5-.5c.3.1.5.3.5.5z"/><ellipse cx="44.5" cy="37.3" rx=".5" ry=".5"/><path d="m43.7 36.7c0 .3-.2.5-.5.5s-.5-.2-.5-.5.2-.5.5-.5.5.2.5.5z"/><path d="m42.9 35.6c0 .3-.2.5-.5.5s-.5-.2-.5-.5.2-.5.5-.5c.2 0 .5.2.5.5z"/><path d="m49.5 35.4c0 .3-.2.5-.5.5s-.5-.2-.5-.5.2-.5.5-.5.5.2.5.5z"/><path d="m46 29.8-3.8-.7c-.1 0 1.1 2 3.8.7z"/></g><path d="m43.9 25.2c0 .3-.1.6-.4.9-.2.3-.7.4-1.1.3s-.6-.5-.7-.8 0-.7.2-.9c.1.3.1.6.2.8s.3.4.4.4c.2.1.4 0 .6-.1.4-.2.6-.4.8-.6z" fill="#000915"/><path d="m47.8 26.1c0 .3-.1.6-.4.9-.2.3-.7.4-1.1.3s-.6-.5-.7-.8 0-.7.2-.9c.1.3.1.6.2.8s.3.4.4.4c.2.1.4 0 .6-.1.4-.2.6-.4.8-.6z" fill="#000915"/><path d="m44.2 25.9c0 .4-.2.8-.4 1.1s-.4.6-.7.9v-.4c.2.3.4.6.6 1-.4-.2-.7-.4-1-.6l-.1-.1.1-.3c.2-.4.4-.7.6-1 .2-.1.5-.4.9-.6z" fill="#e37c72"/><path d="m45.6 24.3c.5-.5 1.2-.7 1.9-.5.3.1.7.3.9.5.3.2.4.6.5.9-.6-.4-1-.6-1.5-.7s-1.1-.1-1.8-.2z" fill="#000915"/><path d="m41.7 23.4c.3-.5 1-.8 1.7-.6.3.1.6.2.8.5.2.2.3.5.4.8-.5-.3-.9-.5-1.3-.6-.6-.1-1-.1-1.6-.1z" fill="#000915"/><path d="m68.7 106.3c0 1.8-11.2 3.3-25.1 3.3s-25.1-1.5-25.1-3.3 11.2-3.3 25.1-3.3 25.1 1.5 25.1 3.3z" opacity=".1"/><path d="m37.2 37.7s-3.4 4.1-.2 5.9c0 0-.5 2.1.6 4.1 0 0-7 4.1-7.8 12.9s-3.3 41.6-1.6 45.8c0 0 20.7 5 36-1 0 0-4.2-45.4-18.8-55.9 0 0 4.2-4.7 5.7-7.9.1.1-4.9-3.2-13.9-3.9z" fill="#e8ab63"/><path d="m49.7 37.8s.8-2 1.1-2c.3.1 2.9.3 4.6 1.8.9.8 8.1 7.4 7.9 9.9-.2 2.6-13 8-13 7s8-7.2 8-7.2-5.3-4.4-7.5-6c-2.2-1.5-1.1-3.5-1.1-3.5z" fill="#ffb0a4"/><path d="m54.9 52.7s-4.2 3-5.2 2.4-.7-1.8-.7-1.8-5 .8-.2-.7c0 0-4.5-.5.1-.6 0 0-3.4-1.3.1-.4 0 0 1-.2 1.3 1.6l9.5-7.1s-2.4 5.4-4.9 6.6z" fill="#ffb0a4"/><ellipse cx="176.3" cy="105.7" opacity=".1" rx="104.9" ry="4.2"/><path d="m185.8 69.2c0 12.5-2.2 21.7-6.5 27.7s-11 9-20 9c-8.7 0-15.3-3.1-19.7-9.3s-6.6-15.3-6.6-27.4c0-12.6 2.2-21.9 6.5-27.9s10.9-9 19.9-9c8.7 0 15.3 3.1 19.8 9.4 4.3 6.3 6.6 15.5 6.6 27.5zm-37 0c0 8.8.8 15.1 2.4 18.9s4.3 5.7 8.1 5.7c3.7 0 6.4-1.9 8.1-5.8 1.7-3.8 2.5-10.1 2.5-18.8 0-8.8-.8-15.1-2.5-18.9s-4.3-5.7-8-5.7c-3.8 0-6.4 1.9-8.1 5.7-1.7 3.9-2.5 10.2-2.5 18.9z" fill="#7bd1ae"/><path d="m119.4 38.7s41.5 33.9 101 30" fill="none" stroke="#004258" stroke-miterlimit="10" stroke-width=".4924"/><path d="m130.3 46s-1 10.3-.4 10.4c.6.2 9.1-5.6 9.1-5.6zm2.2 6h-1.2l.7-.9-.3-1.1 1.1.4 1-.6-.1 1.1.9.7-1.1.3-.4 1.1z" fill="#e8ab63"/><path d="m199.8 68.3s4.1 9.6 4.7 9.4 5.4-9 5.4-9zm4.9 4.3-1.1.5.2-1.1-.8-.8 1.2-.1.6-1 .5 1 1.2.2-.9.8.2 1.1z" fill="#004258"/><path d="m184.9 66.6s3.1 9.9 3.7 9.8c.7-.1 6.3-8.4 6.3-8.4zm4.5 4.8-1.1.4.4-1.1-.7-.9h1.2l.7-.9.4 1.1 1.1.3-1 .7v1.1z" fill="#e8ab63"/><path d="m156.4 58.7s1 10.3 1.6 10.3c.7.1 7.9-7.1 7.9-7.1zm3.4 5.5-1.2.2.6-1-.5-1 1.2.2.8-.8.2 1.1 1.1.5-1.1.5-.2 1.1z" fill="#e8ab63"/><ellipse cx="145.5" cy="57.8" fill="#fff" rx="2.3" ry="2.2"/><path d="m142.6 52.7s-.3 10.3.4 10.4 8.7-6.2 8.7-6.2zm2.7 5.8h-1.2l.7-.9-.4-1.1 1.1.3.9-.7v1.1l1 .6-1.1.4-.3 1.1z" fill="#004258"/><ellipse cx="174.8" cy="68" fill="#fff" rx="2.3" ry="2.2"/><path d="m170.9 63.6s1.9 10.2 2.6 10.2 7.2-7.7 7.2-7.7zm3.8 5.2-1.2.3.5-1-.6-1 1.2.1.8-.9.3 1.1 1.1.4-1 .6-.1 1.1z" fill="#004258"/><path d="m130 105h-52.8v-10.5l19-18.2c5.6-5.4 9.3-9.2 11-11.3s3-4.1 3.7-5.8c.8-1.8 1.1-3.7 1.1-5.6 0-2.9-.8-5-2.5-6.4s-3.9-2.1-6.7-2.1c-2.9 0-5.8.6-8.5 1.9-2.8 1.3-5.6 3.1-8.6 5.4l-8.7-9.7c3.7-3 6.8-5.1 9.3-6.4 2.4-1.2 5.1-2.2 8-2.9s6.1-1 9.7-1c4.7 0 8.9.8 12.5 2.4s6.4 3.9 8.4 6.8 3 6.3 3 10.1c0 3.3-.6 6.4-1.8 9.3s-3.1 5.8-5.7 8.9c-2.6 3-7.1 7.4-13.6 13l-9.7 8.7v.7h32.9z" fill="#ffb0a4"/><path d="m241.8 105h-52.8v-10.5l19-18.2c5.6-5.4 9.3-9.2 11-11.3s3-4.1 3.7-5.8c.8-1.8 1.1-3.7 1.1-5.6 0-2.9-.8-5-2.5-6.4s-3.9-2.1-6.7-2.1c-2.9 0-5.8.6-8.5 1.9-2.8 1.3-5.6 3.1-8.6 5.4l-8.7-9.7c3.7-3 6.8-5.1 9.3-6.4 2.4-1.2 5.1-2.2 8-2.9s6.1-1 9.7-1c4.7 0 8.9.8 12.5 2.4s6.4 3.9 8.4 6.8 3 6.3 3 10.1c0 3.3-.6 6.4-1.8 9.3s-3.1 5.8-5.7 8.9c-2.6 3-7.1 7.4-13.6 13l-9.7 8.7v.7h32.9z" fill="#e8ab63"/><path d="m293.9 59.5c5.1 11.5 7 20.8 5.5 27.9s-6.4 12.3-14.7 15.7c-8 3.2-15.4 2.8-22-1.3s-12.4-11.7-17.4-22.8c-5.2-11.6-7.1-21-5.6-28.1s6.4-12.3 14.6-15.6c8-3.2 15.4-2.8 22.1 1.3s12.5 11.8 17.5 22.9zm-34 13.6c3.6 8.1 6.9 13.6 10 16.5 3 2.9 6.3 3.7 9.8 2.3 3.4-1.4 5.1-4.1 5-8.3s-1.9-10.2-5.5-18.2c-3.6-8.1-7-13.6-10.1-16.5s-6.4-3.7-9.8-2.3c-3.5 1.4-5.1 4.1-5.1 8.3.2 4 2 10.1 5.7 18.2z" fill="#004258"/><path d="m122.3 30.1c1.3-2.9 1.4-7.3-1.4-9.4-1.3-.9-3-1.1-4.4-.5-1.3.5-2.1 1.8-1.9 3.2.3 1.5 1.7 3 3.3 3s2.9-1.2 3.8-2.4c2.1-2.8 2.3-7.4.4-10.3-2.7-4.1-8.1-3.9-12.3-2.8-.8.2-.4 1.4.3 1.2 2.9-.7 6.4-1.2 9.1.5s3.3 5.2 2.6 8.2c-.4 1.7-2.7 5.6-4.9 4-1-.7-1.6-2.2-.5-3.1.9-.7 2.2-.8 3.3-.3 2.8 1.4 2.7 5.6 1.6 8.1-.4.7.7 1.4 1 .6z" fill="#004258"/><path d="m281.4.1c-1.8.3-4.3 1.6-4.1 3.7.1.8.6 1.5 1.4 1.8.7.2 1.5.2 2-.4.5-.5.5-1.4.2-2.1-.3-.5-.8-.8-1.3-1-1.4-.3-3 .3-4.2 1-1.4.9-2.6 2.5-2.2 4.3.1.4.7.2.7-.2-.5-2.5 2.6-4.3 4.7-4.5.9-.1 1.9.2 1.9 1.3 0 1.4-1.9 1.2-2.4.2-.4-.9.2-1.8.8-2.3.7-.6 1.7-1 2.6-1.1.6-.1.4-.8-.1-.7z" fill="#7bd1ae"/><path d="m75.7 67.3c.6 1.7 2.1 3.5 4 3.9 1.6.4 3.6-.5 3.7-2.3.2-1.7-1.8-2.7-3.3-2s-1.5 2.8-1 4.1c.8 2.3 2.9 4.1 5.3 4.4.5.1.5-.8 0-.8-1.7-.2-3.2-1.4-4.1-2.9-.6-1-1.1-2.6-.3-3.6.6-.9 2.4-.6 2.5.6.2 1.3-1.4 2-2.5 1.8-1.7-.3-3-1.9-3.6-3.4-.1-.5-.9-.3-.7.2z" fill="#004258"/><path d="m286.2 23.1c-.9 1.2-2.4 2.2-3.8 2.3-1.2.1-2.8-.7-2.6-2.1.2-1.2 2.1-1.4 2.6-.4.5 1.1-.4 2.6-1.1 3.4-1.3 1.3-3.2 2.2-5.1 1.9-.5-.1-.5.8 0 .8 2.1.3 4.4-.7 5.8-2.3 1-1.1 2-3 1-4.4-.9-1.3-3.2-1.2-3.9.3-.7 1.6.6 3.2 2.1 3.5 2.2.5 4.5-1 5.7-2.7.4-.3-.4-.8-.7-.3z" fill="#ffb0a4"/><path d="m234.5 13.1c-2.3-.2-4.8.9-5.5 3.3-.2.8-.4 2.2.2 2.8.5.5 1.4 1 2 .5.8-.6.7-1.7.3-2.5-.3-.6-.9-1.1-1.6-1.4-1.4-.6-3.1-.3-4.4.4-1.7.9-2.5 2.7-2.1 4.7.2.8 1.4.5 1.2-.3-.5-2.4 1.7-3.9 3.9-3.7.9.1 1.7.5 1.9 1.3 0 .1.1.4 0 .6 0 0 .1 0 0 0s-.2-.1-.3-.2c0 0-.1-.1-.1-.1.1.1 0 .2.1.1 0-.1-.1-.4-.1-.6s0-.5 0-.7c.4-2 2.5-2.8 4.4-2.7.9-.2.9-1.4.1-1.5z" fill="#004258"/><path d="m92.7 17.2c-.1-2.3-1.6-4.5-4-4.8-.6-.1-1.1-.1-1.7 0-.4.1-.9.2-1.2.5-.4.5-.8 1.3-.5 1.9.5.9 1.8.7 2.5.3.6-.3 1.1-.9 1.4-1.6.5-1.4.1-3-.8-4.1-1.2-1.6-3.2-2.2-5.1-1.6-.8.2-.4 1.4.3 1.2 1.2-.4 2.4-.2 3.3.6.8.7 1.2 1.7 1.2 2.7 0 .8-.4 1.7-1.4 1.9-.2 0-.3 0-.4 0 0 0 .1.2 0 .1 0 0 0 .2 0 .1 0 0 .1-.2 0-.1 0-.1.1-.2.2-.3 0-.1.1-.1.1-.1-.2.1-.2.1 0 .1.5-.1.9-.2 1.4-.2 2 .1 3.3 1.8 3.4 3.7.1.5 1.4.5 1.3-.3z" fill="#7bd1ae"/><path d="m177.4 13.5c-.3-1.4-1.5-3.2-3.1-3.3-.7-.1-1.7.3-1.9 1s.4 1.3 1 1.6c.7.3 1.4.5 2.2.3.7-.2 1.3-.5 1.8-1.1 1-1 1.3-2.4 1.1-3.8-.2-1.6-1.3-2.9-2.7-3.5-.3-.1-.7.1-.8.4-.1.4.1.6.4.8 1.6.7 2.3 2.9 1.6 4.4-.4.8-1.2 1.5-2 1.5-.5 0-.9-.2-1.3-.4 0 0-.1-.1-.1-.1-.1 0 0-.1 0 0v.1c0 .1-.1.1.1 0 .1-.1.2-.1.4-.1.6-.1 1.1.4 1.4.8.4.5.7 1 .8 1.6.1.9 1.3.6 1.1-.2z" fill="#ffb0a4"/><path d="m71.2 17.2.7 1.3 1.5.2-1.1 1 .3 1.5-1.4-.7-1.4.7.3-1.5-1.1-1 1.5-.2z" fill="#e8ab63"/><path d="m137.4 25.3.7 1.3 1.5.2-1.1 1.1.3 1.4-1.4-.7-1.3.7.2-1.4-1.1-1.1 1.5-.2z" fill="#e8ab63"/><path d="m198.5 16.5.6 1.2 1.3.1-1 .9.3 1.3-1.2-.6-1.2.6.2-1.3-1-.9 1.4-.1z" fill="#e8ab63"/><path d="m288.9 18.6.6 1.1 1.3.2-.9.9.2 1.2-1.2-.5-1.2.5.2-1.2-.9-.9 1.3-.2z" fill="#ffb0a4"/><path d="m273.7 9.5.5.8 1 .2-.7.6.1 1-.9-.5-.9.5.2-1-.7-.6 1-.2z" fill="#7bd1ae"/><path d="m239.2 9.9.7 1.3 1.5.2-1.1 1 .3 1.5-1.4-.7-1.4.7.3-1.5-1.1-1 1.5-.2z" fill="#004258"/><path d="m208.7 55.2.5.9 1.1.2-.8.7.2 1.1-1-.5-1 .5.2-1.1-.8-.7 1.1-.2z" fill="#ffb0a4"/><path d="m98.3 57.7.5 1.1 1.3.1-.9.9.2 1.1-1.1-.5-1.1.5.2-1.1-.9-.9 1.2-.1z" fill="#e8ab63"/><path d="m141.9 24.2-.4-.8-.8-.1.6-.5-.1-.8.7.4.7-.4-.1.8.6.5-.8.1z" fill="#e8ab63"/><path d="m172.3 1 .7 1.3 1.5.2-1.1 1 .3 1.4-1.4-.6-1.4.6.3-1.4-1.1-1 1.5-.2z" fill="#ffb0a4"/><path d="m71.4 60.1.5 1.6 1.8.5-1.8.6-.5 1.6-.6-1.6-1.7-.6 1.7-.5z" fill="#ffb0a4"/><path d="m109.6 1.2.6 1.6 1.7.6-1.7.5-.6 1.6-.6-1.6-1.7-.5 1.7-.6z" fill="#7bd1ae"/><path d="m231.8 80.7.6 1.6 1.7.6-1.7.5-.6 1.7-.6-1.7-1.7-.5 1.7-.6z" fill="#7bd1ae"/><path d="m249.5 26.3.6 1.7 1.7.5-1.7.5-.6 1.7-.5-1.7-1.8-.5 1.8-.5z" fill="#ffb0a4"/><path d="m184.5 24.3.6 1.6 1.7.5-1.7.6-.6 1.6-.6-1.6-1.7-.6 1.7-.5z" fill="#004258"/><path d="m123.8 79.1.6 1.6 1.7.5-1.7.6-.6 1.6-.6-1.6-1.7-.6 1.7-.5z" fill="#004258"/><path d="m137.4 25.3.7 1.3 1.5.2-1.1 1.1.3 1.4-1.4-.7-1.3.7.2-1.4-1.1-1.1 1.5-.2z" fill="#e8ab63"/><path d="m99.8 88.4-.1-.5v-3.8h.1c.1 0 .2-.1.2-.2v-.3c0-.1-.1-.2-.2-.2h-.1v-.3c0-.1-.1-.2-.2-.2h-1.7c-.1 0-.2.1-.2.2v.3h-.1c-.1 0-.2.1-.2.2v.3c0 .1.1.2.2.2h.1v4.2c-1.2 5.3-2.6 7.4-2.6 10.4v5.7c0 1.2 1 2.2 2.3 2.2h2.9c1.3 0 2.3-1 2.3-2.2v-5.7c-.1-2.5-1-4.7-2.7-10.3z" fill="#004258"/><path d="m97.5 84.1.1 3.5h2.2v-3.6h.1c.1 0 .2-.1.2-.2v-.3c0-.1-.1-.2-.2-.2h-.1v-.3c0-.1-.1-.2-.2-.2h-1.7c-.1 0-.2.1-.2.2v.3h-.1c-.1 0-.2.1-.2.2v.3c-.1.2 0 .3.1.3z" fill="#fff"/><path d="m102.4 99.4h-.9c-.4-1.1-1.5-1.8-2.8-1.8s-2.4.8-2.8 1.8h-1v3h1.6c.6.6 1.4 1 2.3 1s1.7-.4 2.3-1h1.4v-3z" fill="#fff"/><path d="m92.3 96.5v.6c-.1 1.8-.7 4.6-1.3 4.5-.7 0-1.1-2.8-1.1-4.6 0-.2 0-.4 0-.6z" fill="#fff"/><path d="m91 105.6h-.3l.1-4.4h.3z" fill="#fff"/><path d="m89.3 105.6c0 .2.7.4 1.5.4s1.5-.1 1.5-.3-.7-.4-1.5-.4c-.8-.1-1.5.1-1.5.3z" fill="#fff"/><path d="m91.9 97.7v.4c0 1.3-.5 3.2-1 3.2s-.8-2-.8-3.3c0-.2 0-.3 0-.4z" fill="#e8ab63"/></svg>