<svg enable-background="new 0 0 25.6 29.8" viewBox="0 0 25.6 29.8" xmlns="http://www.w3.org/2000/svg"><path d="m0 22.3c.1 0 .2 0 .3-.1.9-.6 24.9-14.6 25.3-14.9v-3.8c-1 .8-24.4 17.8-25.6 18.8z" fill="#ef2700"/><path d="m25.2 8.2v.1-.1c.1-.1.1-.1 0 0z"/><g fill="#fff"><path d="m9.3 3.5c-.7.2-1.3.3-1.8.4-.3.1-.3 0-.3-.2 0-.5 0-1 0-1.5 0-.3.1-.3.3-.4 1.3-.4 2.7-.8 4-1.2.8-.2 1.5-.4 2.2-.6.2 0 .3 0 .3.3-.1.7-.2 1.4-.3 2.1-.6.2-1.2.3-1.9.5-.2 0-.3.1-.3.3 0 .5 0 .9-.1 1.4 0 .3.1.3.3.3.5-.1 1-.1 1.5-.2.2 0 .3.1.3.3-.1.4-.1.8-.1 1.2 0 .2-.1.3-.3.3-.5 0-1.1.1-1.6.2-.2 0-.3.1-.3.3-.2 1.8-.4 3.7-.6 5.5 0 .3-.1.6-.1.9 0 .1-.1.2-.1.2-.7.5-1.4 1-2.2 1.5 0 0-.1 0-.2 0 0-.3 0-.5 0-.8.2-2.3.5-4.6.8-7 0-.4 0-.4-.4-.4-.6 0-1.1.1-1.7.1-.2 0-.3-.1-.3-.3 0-.4.1-.9.1-1.3 0-.2.1-.3.3-.3.6-.1 1.3-.1 1.9-.2.3.2.4.1.5-.2 0-.4 0-.7.1-1.2z"/><path d="m15.6 10.2c0-.1 0-.2 0-.3.3-2.1.5-4.2.8-6.3.1-.9.2-1.7.3-2.6 0-.2.1-.3.3-.3h1.3c.3 0 .4 0 .3.4-.1.7-.2 1.4-.3 2.1-.3 1.9-.5 3.7-.8 5.6 0 .2-.1.4-.3.5-.5.3-1 .6-1.5 1 0-.1 0-.1-.1-.1z"/><path d="m5.5 16.7c0-.2 0-.3 0-.5.4-2.5.8-5 1.1-7.5 0-.3.1-.6.2-.9 0-.1.1-.2.2-.2.4-.1.9-.1 1.3-.2.3 0 .4 0 .3.3-.2 1.3-.5 2.6-.7 3.9-.2 1.1-.4 2.3-.6 3.4-.1.3-.2.5-.4.7-.5.4-.9.7-1.4 1z"/><path d="m13.3 9.8c0-.2 0-.4 0-.5.3-1.9.5-3.9.8-5.8.1-.6.2-1.2.2-1.7 0-.2.1-.3.3-.3.4 0 .9-.1 1.3-.1.2 0 .3.1.3.3-.3 2.3-.7 4.6-1 6.9 0 .2-.1.3-.3.4-.5.3-1 .5-1.6.8z"/><path d="m18.2 8.5c.1-.5.1-.9.2-1.3.2-2 .5-4 .7-6 0-.2.1-.3.3-.3.5 0 .9-.1 1.4-.1.2.1.2.2.2.4-.1.8-.2 1.5-.3 2.3-.1 1.1-.3 2.3-.4 3.4 0 .2-.1.4-.3.5-.5.3-1 .7-1.5 1-.1 0-.2 0-.3.1z"/><path d="m10.7 13.3c0-.2 0-.4 0-.5.2-1.7.3-3.4.5-5 0-.3.1-.4.4-.4.4 0 .8-.1 1.2-.2.2 0 .3 0 .3.3-.1.9-.1 1.9-.2 2.8 0 .5-.1.9-.1 1.4 0 .1-.1.3-.2.4-.5.4-1 .7-1.5 1.1-.1 0-.2 0-.4.1z"/><path d="m12.2 18.4v.1c-1.5 1-2.9 1.9-4.4 2.9-.2.2-.5.3-.7.5l-.3 2.1c1-.6 2-1.2 3-1.8 1.5-.9 2.9-1.8 4.4-2.6.1-.1.4-.1.5-.1.9.4 1.8.8 2.6 1.2.2.1.5.2.8.2 1-.1 2-.3 3.1-.4.1 0 .1-.1.3-.1-1.6-.9-3-1.8-4.6-2.7 1.7-1.1 3.3-2.2 4.8-3.3-.1-.1-.2-.1-.2-.1-1.2.1-2.4.2-3.7.3-.1 0-.3.1-.4.2-.8.5-1.5 1.1-2.3 1.6-.2.1-.4.3-.6.1-.4-.2-1.4-.7-1.7-.9-1 .6-1.9 1.4-2.9 2 .6.2 1.7.5 2.3.8z"/><path d="m19.2 21.7c-1.1.1-2.3.3-3.4.4-.7.1-.7.1-.6-.6 0-.2 0-.4-.3-.3-.5 0-1 0-1.5 0-.9 0-.8-.1-.9.8 0 .5-.1.5-.6.6-.7 0-1.4.1-2.1.1-.2 0-.4.1-.6.3-.6.5-1.1.9-1.7 1.4-.3.3-.6.5-.9.8v.2c1.8-.3 3.6-.5 5.5-.8-.1.6-.1 1.2-.2 1.8 0 .2-.2.3-.3.4-.4.2-.9.4-1.3.7-.1.1-.2.1-.2.2-.1.6-.1 1.3-.2 2 .2 0 .2-.1.3-.1 1.3-.7 2.6-1.3 3.9-2 .1-.1.2-.2.2-.3.1-.8.3-1.6.4-2.4 0-.4.2-.5.5-.6 1-.1 2-.2 3-.4.2 0 .4-.2.5-.3.3-.5.5-1.1.8-1.6 0-.1 0-.2.1-.3-.2 0-.3 0-.4 0z"/><path d="m10.1 25.2c-.7.1-1.4.2-2 .3-.2 0-.3.2-.5.3-.9 1.2-1.8 2.4-2.7 3.6-.1.1-.1.2-.2.3h.2c.8-.1 1.7-.3 2.5-.5.2 0 .4-.2.5-.3.4-.6.8-1.2 1.2-1.8s.8-1.2 1.3-1.9c-.1 0-.2 0-.3 0z"/><path d="m18.6 25.1c-.4-.7-.9-1-1.6-.7h-.1c-.6.1-1.2.2-1.8.3v.2c.6 1 1.2 1.9 1.9 2.9.1.1.2.1.3.1.9-.1 1.7-.2 2.6-.3.1 0 .2 0 .3-.1-.1-.1-.1-.2-.2-.3-.4-.7-.9-1.3-1.4-2.1z"/></g></svg>