<svg enable-background="new 0 0 145.4 137.6" viewBox="0 0 145.4 137.6" xmlns="http://www.w3.org/2000/svg"><g fill="#fff"><path d="m12 120.6c.2.1.7.3 1.2.3.9 0 1.2-.6 1.2-1 0-.7-.7-1-1.3-1h-.4v-.5h.3c.5 0 1.2-.3 1.2-.9 0-.4-.3-.8-.9-.8-.4 0-.8.2-1 .3l-.2-.5c.3-.2.8-.4 1.4-.4 1 0 1.5.6 1.5 1.2 0 .5-.3 1-1 1.2.6.1 1.2.6 1.2 1.3 0 .8-.6 1.6-1.9 1.6-.6 0-1.1-.2-1.4-.4z"/><path d="m19.4 118.8c0 1.8-.7 2.7-1.8 2.7-1 0-1.7-1-1.7-2.7s.8-2.7 1.8-2.7c1.1.1 1.7 1 1.7 2.7zm-2.8.1c0 1.4.4 2.1 1.1 2.1s1.1-.8 1.1-2.2c0-1.3-.3-2.1-1.1-2.1-.6 0-1.1.8-1.1 2.2z"/><path d="m20.1 121.4v-.4l.6-.5c1.3-1.3 1.9-1.9 1.9-2.7 0-.5-.3-1-1-1-.5 0-.9.2-1.1.4l-.2-.5c.4-.3.9-.5 1.5-.5 1.1 0 1.6.8 1.6 1.5 0 1-.7 1.7-1.8 2.8l-.4.4h2.3v.6h-3.4z"/><path d="m26.8 116.1v2.3h2.6v-2.3h.7v5.4h-.7v-2.5h-2.6v2.5h-.7v-5.4z"/><path d="m31.7 119.6c0 1 .6 1.3 1.3 1.3.5 0 .8-.1 1.1-.2l.1.5c-.2.1-.7.2-1.3.2-1.2 0-1.9-.8-1.9-2s.7-2.1 1.8-2.1c1.3 0 1.6 1.1 1.6 1.8v.3h-2.7zm2.1-.5c0-.4-.2-1.1-1-1.1-.7 0-1 .7-1.1 1.1z"/><path d="m37.5 121.4-.1-.5c-.2.3-.6.6-1.2.6-.8 0-1.2-.6-1.2-1.1 0-.9.8-1.4 2.3-1.4v-.1c0-.3-.1-.9-.9-.9-.4 0-.7.1-1 .3l-.2-.5c.3-.2.8-.3 1.3-.3 1.2 0 1.5.8 1.5 1.6v1.4c0 .3 0 .7.1.9zm-.1-1.9c-.8 0-1.6.1-1.6.9 0 .5.3.7.7.7.5 0 .8-.3.9-.6 0-.1 0-.2 0-.2z"/><path d="m39.4 117.6.8 2.2c.1.4.2.7.3 1 .1-.3.2-.6.3-1l.8-2.2h.7l-1.5 3.9h-.7l-1.5-3.9z"/><path d="m43.3 119.6c0 1 .6 1.3 1.3 1.3.5 0 .8-.1 1.1-.2l.1.5c-.2.1-.7.2-1.3.2-1.2 0-1.9-.8-1.9-2s.7-2.1 1.8-2.1c1.3 0 1.6 1.1 1.6 1.8v.3h-2.7zm2.1-.5c0-.4-.2-1.1-1-1.1-.7 0-1 .7-1.1 1.1z"/><path d="m46.9 118.6c0-.4 0-.7 0-1h.6v.6c.2-.4.6-.7 1.3-.7.5 0 1.4.3 1.4 1.6v2.3h-.7v-2.2c0-.6-.2-1.1-.9-1.1-.5 0-.8.3-.9.7v.3 2.3h-.7v-2.8z"/><path d="m51.2 120.7c.2.1.6.3.9.3.5 0 .8-.3.8-.6s-.2-.5-.7-.7c-.7-.2-1-.6-1-1.1 0-.6.5-1.1 1.3-1.1.4 0 .7.1 1 .2l-.2.5c-.2-.1-.4-.2-.8-.2s-.6.2-.6.5.2.5.7.7c.7.3 1 .6 1 1.2 0 .7-.5 1.2-1.4 1.2-.4 0-.8-.1-1.1-.3z"/><path d="m56.8 121.4-1.4-5.4h.7l.6 2.7c.2.7.3 1.3.4 1.9.1-.5.3-1.2.4-1.9l.7-2.7h.7l.7 2.7c.2.6.3 1.3.4 1.8.1-.6.3-1.2.4-1.9l.7-2.7h.9l-1.5 5.4h-.7l-.7-2.8c-.2-.7-.3-1.2-.4-1.8-.1.5-.2 1.1-.4 1.8l-.8 2.8h-.7z"/><path d="m64.6 121.4-.1-.5c-.2.3-.6.6-1.2.6-.8 0-1.2-.6-1.2-1.1 0-.9.8-1.4 2.3-1.4v-.1c0-.3-.1-.9-.9-.9-.4 0-.7.1-1 .3l-.2-.5c.3-.2.8-.3 1.3-.3 1.2 0 1.5.8 1.5 1.6v1.4c0 .3 0 .7.1.9zm-.1-1.9c-.8 0-1.6.1-1.6.9 0 .5.3.7.7.7.5 0 .8-.3.9-.6 0-.1 0-.2 0-.2z"/><path d="m66.5 117.6.8 2.3c.1.3.2.6.2.8.1-.2.2-.5.2-.8l.8-2.3h.7l-1.1 2.8c-.5 1.3-.8 2-1.3 2.4-.3.3-.7.4-.9.5l-.2-.6.6-.3c.2-.2.4-.4.6-.8 0-.1.1-.1.1-.2s0-.1 0-.2l-1.4-3.6z"/><path d="m69.2 122.4c.2-.5.4-1.3.5-1.9l.8-.1c-.2.7-.5 1.6-.8 1.9z"/><path d="m73 120.6c.3.2.8.4 1.2.4.7 0 1.1-.4 1.1-.9s-.3-.8-1-1.1c-.9-.3-1.4-.8-1.4-1.5 0-.8.7-1.5 1.7-1.5.6 0 1 .1 1.2.3l-.2.6c-.2-.1-.5-.3-1-.3-.7 0-1 .4-1 .8 0 .5.3.8 1.1 1 .9.4 1.4.8 1.4 1.6s-.6 1.6-1.9 1.6c-.5 0-1.1-.2-1.4-.3z"/><path d="m79.1 121.4-.1-.5c-.2.3-.6.6-1.2.6-.8 0-1.2-.6-1.2-1.1 0-.9.8-1.4 2.3-1.4v-.1c0-.3-.1-.9-.9-.9-.4 0-.7.1-1 .3l-.2-.5c.3-.2.8-.3 1.3-.3 1.2 0 1.5.8 1.5 1.6v1.4c0 .3 0 .7.1.9zm-.1-1.9c-.8 0-1.6.1-1.6.9 0 .5.3.7.7.7.5 0 .8-.3.9-.6 0-.1 0-.2 0-.2z"/><path d="m80.8 118.8c0-.5 0-.8 0-1.2h.6v.8c.2-.5.6-.8 1.1-.8h.2v.7c-.1 0-.1 0-.2 0-.5 0-.8.4-.9.9v.3 2.1h-.7v-2.8z"/><path d="m85.6 121.4-.1-.5c-.2.3-.6.6-1.2.6-.8 0-1.2-.6-1.2-1.1 0-.9.8-1.4 2.3-1.4v-.1c0-.3-.1-.9-.9-.9-.4 0-.7.1-1 .3l-.2-.5c.3-.2.8-.3 1.3-.3 1.2 0 1.5.8 1.5 1.6v1.4c0 .3 0 .7.1.9zm-.1-1.9c-.8 0-1.6.1-1.6.9 0 .5.3.7.7.7.5 0 .8-.3.9-.6 0-.1 0-.2 0-.2z"/><path d="m87.2 120.7c.2.1.6.3.9.3.5 0 .8-.3.8-.6s-.2-.5-.7-.7c-.7-.2-1-.6-1-1.1 0-.6.5-1.1 1.3-1.1.4 0 .7.1 1 .2l-.2.5c-.2-.1-.4-.2-.8-.2s-.6.2-.6.5.2.5.7.7c.7.3 1 .6 1 1.2 0 .7-.5 1.2-1.4 1.2-.4 0-.8-.1-1.1-.3z"/><path d="m94 119.5c0 1.4-1 2.1-1.9 2.1-1 0-1.9-.8-1.9-2 0-1.3.8-2.1 1.9-2.1s1.9.8 1.9 2zm-3.1 0c0 .8.5 1.5 1.2 1.5s1.2-.6 1.2-1.5c0-.7-.3-1.5-1.2-1.5s-1.2.8-1.2 1.5z"/><path d="m95.7 116.5v1.1h1v.5h-1v2.1c0 .5.1.8.5.8h.4v.5c-.1.1-.4.1-.6.1-.3 0-.6-.1-.8-.3s-.3-.6-.3-1v-2.1h-.6v-.5h.7v-.9z"/><path d="m99.6 121.4-.1-.5c-.2.3-.6.6-1.2.6-.8 0-1.2-.6-1.2-1.1 0-.9.8-1.4 2.3-1.4v-.1c0-.3-.1-.9-.9-.9-.4 0-.7.1-1 .3l-.2-.5c.3-.2.8-.3 1.3-.3 1.2 0 1.5.8 1.5 1.6v1.4c0 .3 0 .7.1.9zm-.1-1.9c-.8 0-1.6.1-1.6.9 0 .5.3.7.7.7.5 0 .8-.3.9-.6 0-.1 0-.2 0-.2z"/><path d="m100.9 122.4c.2-.5.4-1.3.5-1.9l.8-.1c-.2.7-.5 1.6-.8 1.9z"/><path d="m104.7 116.1h2.9v.6h-2.2v1.8h2v.6h-2v2.4h-.7z"/><path d="m108.6 116.1h.7v4.8h2.3v.6h-3z"/><path d="m114 120.6c.2.1.7.3 1.2.3.9 0 1.2-.6 1.2-1 0-.7-.7-1-1.3-1h-.4v-.5h.4c.5 0 1.2-.3 1.2-.9 0-.4-.3-.8-.9-.8-.4 0-.8.2-1 .3l-.2-.5c.3-.2.8-.4 1.4-.4 1 0 1.5.6 1.5 1.2 0 .5-.3 1-1 1.2.6.1 1.2.6 1.2 1.3 0 .8-.6 1.6-1.9 1.6-.6 0-1.1-.2-1.4-.4z"/><path d="m120.1 121.4v-1.4h-2.4v-.5l2.3-3.3h.8v3.2h.7v.6h-.7v1.4zm0-1.9v-1.7c0-.3 0-.5 0-.8-.2.3-.3.5-.4.8l-1.3 1.8h1.7z"/><path d="m122 121.4v-.4l.6-.5c1.3-1.3 1.9-1.9 1.9-2.7 0-.5-.3-1-1-1-.5 0-.9.2-1.1.4l-.2-.5c.4-.3.9-.5 1.5-.5 1.1 0 1.6.8 1.6 1.5 0 1-.7 1.7-1.8 2.8l-.4.4h2.3v.6h-3.4z"/><path d="m128.3 121.4v-1.4h-2.4v-.5l2.3-3.3h.8v3.2h.7v.6h-.7v1.4zm0-1.9v-1.7c0-.3 0-.5 0-.8-.2.3-.3.5-.4.8l-1.3 1.8h1.7z"/><path d="m133.7 118.8c0 1.8-.7 2.7-1.8 2.7-1 0-1.7-1-1.7-2.7s.8-2.7 1.8-2.7c1.1.1 1.7 1 1.7 2.7zm-2.8.1c0 1.4.4 2.1 1.1 2.1s1.1-.8 1.1-2.2c0-1.3-.3-2.1-1.1-2.1-.7 0-1.1.8-1.1 2.2z"/><path d="m75.8 132.8c0-.4 0-.7 0-1h.6v.6c.2-.4.6-.7 1.2-.7.5 0 .9.3 1.1.8.1-.2.3-.4.4-.5.2-.2.5-.3.9-.3.5 0 1.3.3 1.3 1.7v2.3h-.7v-2.2c0-.7-.3-1.2-.8-1.2-.4 0-.7.3-.8.6 0 .1-.1.2-.1.4v2.4h-.7v-2.3c0-.6-.3-1.1-.8-1.1-.4 0-.8.4-.9.7 0 .1-.1.2-.1.3v2.3h-.7v-2.8z"/><path d="m84.6 135.6-.1-.5c-.2.3-.6.6-1.2.6-.8 0-1.2-.6-1.2-1.1 0-.9.8-1.4 2.3-1.4v-.1c0-.3-.1-.9-.9-.9-.4 0-.7.1-1 .3l-.2-.5c.3-.2.8-.3 1.3-.3 1.2 0 1.5.8 1.5 1.6v1.4c0 .3 0 .7.1.9zm-.1-2c-.8 0-1.6.1-1.6.9 0 .5.3.7.7.7.5 0 .8-.3.9-.6 0-.1 0-.2 0-.2z"/><path d="m86.4 132.9c0-.5 0-.8 0-1.2h.6v.8c.2-.5.6-.8 1.1-.8h.2v.7c-.1 0-.1 0-.2 0-.5 0-.8.4-.9.9v.3 2.1h-.7v-2.8z"/><path d="m89.4 131.7.8 2.3c.1.3.2.6.2.8.1-.2.2-.5.2-.8l.8-2.3h.7l-1.1 2.8c-.5 1.3-.8 2-1.3 2.4-.3.3-.7.4-.9.5l-.2-.6.6-.3c.2-.2.4-.4.6-.8 0-.1.1-.1.1-.2s0-.1 0-.2l-1.4-3.6z"/><path d="m96.5 136.1c-.4.2-.9.3-1.4.3-1.3 0-2.4-1-2.4-2.5 0-1.6 1.1-3.1 2.9-3.1 1.4 0 2.3 1 2.3 2.3 0 1.2-.7 1.9-1.4 1.9-.3 0-.6-.2-.6-.7-.3.5-.6.7-1.1.7s-.9-.4-.9-1c0-1 .8-1.9 1.9-1.9.3 0 .6.1.9.2l-.3 1.4c-.1.6 0 .9.2.9.4 0 .9-.5.9-1.5 0-1.2-.7-2-1.9-2-1.3 0-2.4 1-2.4 2.7 0 1.3.9 2.2 2.1 2.2.5 0 .9-.1 1.2-.3zm-.4-3.4c-.1 0-.2-.1-.4-.1-.7 0-1.3.7-1.3 1.4 0 .4.2.6.5.6.5 0 .9-.6 1-1.1z"/><path d="m98.8 129.9h.7v5.7h-.7z"/><path d="m104.2 133.6c0 1.4-1 2.1-1.9 2.1-1 0-1.9-.8-1.9-2 0-1.3.8-2.1 1.9-2.1 1.2 0 1.9.9 1.9 2zm-3 .1c0 .8.5 1.5 1.2 1.5s1.2-.6 1.2-1.5c0-.7-.3-1.5-1.2-1.5s-1.2.7-1.2 1.5z"/><path d="m105.1 132.9c0-.5 0-.8 0-1.2h.6v.8c.2-.5.6-.8 1.1-.8h.2v.7c-.1 0-.1 0-.2 0-.5 0-.8.4-.9.9v.3 2.1h-.7v-2.8z"/><path d="m108 133.8c0 1 .6 1.3 1.3 1.3.5 0 .8-.1 1.1-.2l.1.5c-.2.1-.7.2-1.3.2-1.2 0-1.9-.8-1.9-2s.7-2.1 1.8-2.1c1.3 0 1.6 1.1 1.6 1.8v.3h-2.7zm2.1-.5c0-.4-.2-1.1-1-1.1-.7 0-1 .7-1.1 1.1z"/><path d="m111.7 132.8c0-.4 0-.7 0-1h.6v.6c.2-.4.6-.7 1.2-.7.5 0 .9.3 1.1.8.1-.2.3-.4.4-.5.2-.2.5-.3.9-.3.5 0 1.3.3 1.3 1.7v2.3h-.7v-2.2c0-.7-.3-1.2-.8-1.2-.4 0-.7.3-.8.6 0 .1-.1.2-.1.4v2.4h-.7v-2.3c0-.6-.3-1.1-.8-1.1-.4 0-.8.4-.9.7 0 .1-.1.2-.1.3v2.3h-.7v-2.8z"/><path d="m118.2 135.2c0-.3.2-.5.5-.5s.5.2.5.5-.2.5-.5.5-.5-.2-.5-.5z"/><path d="m122.7 135.5c-.2.1-.6.2-1.1.2-1.2 0-1.9-.8-1.9-2s.8-2.1 2.1-2.1c.4 0 .8.1 1 .2l-.2.5c-.2-.1-.4-.2-.8-.2-.9 0-1.4.7-1.4 1.5 0 .9.6 1.4 1.3 1.4.4 0 .7-.1.9-.2z"/><path d="m127 133.6c0 1.4-1 2.1-1.9 2.1-1 0-1.9-.8-1.9-2 0-1.3.8-2.1 1.9-2.1 1.2 0 1.9.9 1.9 2zm-3 .1c0 .8.5 1.5 1.2 1.5s1.2-.6 1.2-1.5c0-.7-.3-1.5-1.2-1.5s-1.2.7-1.2 1.5z"/><path d="m127.9 132.8c0-.4 0-.7 0-1h.6v.6c.2-.4.6-.7 1.2-.7.5 0 .9.3 1.1.8.1-.2.3-.4.4-.5.2-.2.5-.3.9-.3.5 0 1.3.3 1.3 1.7v2.3h-.7v-2.2c0-.7-.3-1.2-.8-1.2-.4 0-.7.3-.8.6 0 .1-.1.2-.1.4v2.4h-.7v-2.3c0-.6-.3-1.1-.8-1.1-.4 0-.8.4-.9.7 0 .1-.1.2-.1.3v2.3h-.7v-2.8z"/><path d="m12.7 135.8c.2.1.7.3 1.2.3.9 0 1.2-.6 1.2-1 0-.7-.7-1-1.3-1h-.4v-.5h.4c.5 0 1.2-.3 1.2-.9 0-.4-.3-.8-.9-.8-.4 0-.8.2-1 .3l-.2-.5c.3-.2.8-.4 1.4-.4 1 0 1.5.6 1.5 1.2 0 .5-.3 1-1 1.2.6.1 1.2.6 1.2 1.3 0 .8-.6 1.6-1.9 1.6-.6 0-1.1-.2-1.4-.4z"/><path d="m18.8 136.6v-1.4h-2.4v-.5l2.3-3.3h.8v3.2h.7v.6h-.7v1.4zm0-2v-1.7c0-.3 0-.5 0-.8-.2.3-.3.5-.4.8l-1.3 1.8h1.7z"/><path d="m23.8 132h-2l-.2 1.3h.4c.4 0 .8.1 1.1.3.4.2.7.7.7 1.3 0 1-.8 1.8-1.9 1.8-.6 0-1-.2-1.3-.3l.2-.5c.2.1.6.3 1.1.3.7 0 1.2-.4 1.2-1.1s-.5-1.2-1.5-1.2c-.3 0-.5 0-.7.1l.3-2.5h2.5v.5z"/><path d="m27.8 131.9c-.1 0-.3 0-.5 0-1.1.2-1.7 1-1.8 1.8.2-.3.7-.6 1.3-.6.9 0 1.6.7 1.6 1.7s-.6 1.8-1.7 1.8-1.8-.9-1.8-2.2c0-1 .4-1.8.9-2.3.4-.4 1-.7 1.7-.8h.5v.6zm-.2 3c0-.7-.4-1.2-1.1-1.2-.4 0-.8.3-1 .6 0 .1-.1.2-.1.3 0 .9.4 1.5 1.1 1.5s1.1-.5 1.1-1.2z"/><path d="m31.9 131.9c-.1 0-.3 0-.5 0-1.1.2-1.7 1-1.8 1.8.2-.3.7-.6 1.3-.6.9 0 1.6.7 1.6 1.7s-.6 1.8-1.7 1.8-1.8-.9-1.8-2.2c0-1 .4-1.8.9-2.3.4-.4 1-.7 1.7-.8h.5v.6zm-.2 3c0-.7-.4-1.2-1.1-1.2-.4 0-.8.3-1 .6 0 .1-.1.2-.1.3 0 .9.4 1.5 1.1 1.5s1.1-.5 1.1-1.2z"/><path d="m36 131.9c-.1 0-.3 0-.5 0-1.1.2-1.7 1-1.8 1.8.2-.3.7-.6 1.3-.6.9 0 1.6.7 1.6 1.7s-.6 1.8-1.7 1.8-1.8-.9-1.8-2.2c0-1 .4-1.8.9-2.3.4-.4 1-.7 1.7-.8h.5v.6zm-.2 3c0-.7-.4-1.2-1.1-1.2-.4 0-.8.3-1 .6 0 .1-.1.2-.1.3 0 .9.4 1.5 1.1 1.5s1.1-.5 1.1-1.2z"/><path d="m40.1 131.9c-.1 0-.3 0-.5 0-1.1.2-1.7 1-1.8 1.8.2-.3.7-.6 1.3-.6.9 0 1.6.7 1.6 1.7s-.6 1.8-1.7 1.8-1.8-.9-1.8-2.2c0-1 .4-1.8.9-2.3.4-.4 1-.7 1.7-.8h.5v.6zm-.2 3c0-.7-.4-1.2-1.1-1.2-.4 0-.8.3-1 .6 0 .1-.1.2-.1.3 0 .9.4 1.5 1.1 1.5s1.1-.5 1.1-1.2z"/><path d="m44.6 131.4v.5l-2.3 4.7h-.7l2.3-4.6h-2.5v-.6z"/><path d="m133.9 126.5h-121.4v.5h46.6v10.6h.4v-10.6h74.4z"/><path d="m12.1 52-1.2-16c-.3 2.7-.7 5.2-1.4 7.5s-1.5 4.1-2.4 5.4-1.8 2.2-2.7 2.7-1.8.8-2.7.8c-.5 0-1-.1-1.3-.3-.3-.3-.4-.5-.4-.8s.1-.5.3-.7.5-.3.8-.3c.2 0 .6.1 1 .2s.7.2 1 .2c.5 0 .9-.2 1.5-.5.8-.5 1.5-1.4 2.3-2.8.7-1.3 1.4-3.2 2-5.6s1-4.7 1.1-7c-2.2 0-4.1.6-5.5 1.7-1.1.9-1.7 1.9-1.7 3 0 .5.3 1.1.8 1.7.3.4.4.7.4.9 0 .3-.1.5-.2.6s-.4.3-.6.3c-.4 0-.7-.2-1-.7-.4-.6-.6-1.3-.6-2.1 0-1.1.4-2.2 1.1-3.2.8-1 1.8-1.8 3.1-2.4s2.9-.8 4.7-.8c1 0 1.7-.1 2.3-.3v1.4.6l.9 11.3c2.4-4.2 4.7-7.6 7-10.3 1.6-1.9 3-3.2 4.2-3.9-.7 1.9-1.4 4.4-2.2 7.4l-1.7 7.3c-.1.4-.2 1-.4 1.7l-.4 1.6c.8.2 1.4.3 2.1.3.5 0 1-.1 1.6-.2l-.2.9c-.5.1-.9.1-1.2.1-.4 0-1 0-1.8-.1-.6-.1-1.2-.1-1.7-.1s-1.1.1-1.7.3c.5-1.4 1.1-3.3 1.7-5.7l1.1-4.5c.5-2 .9-3.3 1.3-4-.8.9-2 2.6-3.7 5-1.3 1.9-2.8 4.4-4.5 7.4z"/><path d="m36.3 38.6 1-.2-1.1 3.8c-.4 1.5-.9 3.2-1.3 5.2-.2 1.1-.3 1.7-.3 2s.1.5.4.5c.2 0 .4-.1.8-.3.6-.4 1.2-.8 1.8-1.4l.5.6c-1.1 1-1.8 1.7-2.2 1.9-.6.4-1.2.8-1.8 1-.4.1-.7.2-1.1.2-.3 0-.4-.1-.6-.2-.1-.1-.2-.3-.2-.5 0-.1 0-.4.1-.6l.6-2c-.9 1-1.9 1.9-3 2.6-.7.5-1.4.7-2 .7s-1-.2-1.3-.6c-.4-.5-.6-1.3-.6-2.1 0-1 .3-2.2.8-3.5.6-1.3 1.3-2.5 2.2-3.5s1.9-1.8 3-2.3c.8-.4 1.8-.6 3.1-.6.3 0 .6 0 1 .1zm-1.9 2.3c-.5-.1-1-.2-1.3-.2-.9 0-1.7.2-2.3.7s-1.3 1.4-1.8 2.6c-.6 1.3-.9 2.5-.9 3.8 0 .7.1 1.2.3 1.5s.5.4.9.4c.7 0 1.4-.4 2.2-1.1s1.4-1.8 1.7-3.2z"/><path d="m41.7 51.4h-2.2l1-4c.5-2 .9-3.8 1.3-5.6.1-.4.1-.7.1-.8 0-.2-.1-.4-.3-.4-.1 0-.4.1-.7.3s-.9.7-1.7 1.5l-.5-.5c.9-1 1.9-1.8 2.8-2.3s1.7-.8 2.2-.8c.2 0 .3 0 .4.1s.2.2.2.3-.1.5-.2 1l-.6 2.8c1-1.6 2.1-2.9 3.4-4 .6-.5 1.1-.8 1.5-.8.3 0 .5.1.7.3s.3.4.3.7-.1.5-.3.7-.7.4-1.4.7c-.7.1-1.3.4-1.7.8-.5.3-1 .9-1.5 1.6s-.9 1.3-1.1 1.9-.5 1.8-1 3.7z"/><path d="m48 41.9-.5-.7 1.1-.7c1.1-.7 1.8-1.2 2.3-1.4.2-.1.5-.2.7-.2s.4.1.6.4c.9 1.1 1.6 2.6 2.2 4.4s.9 3.7.9 5.4v1c1.7-3.1 2.5-5.5 2.5-7.3 0-.4-.1-.9-.3-1.5-.2-.7-.3-1.2-.3-1.5s.1-.5.3-.7.4-.3.7-.3.6.1.8.4.3.6.3 1.1c0 1.3-.3 2.9-.9 4.8s-1.5 3.9-2.8 6.1-2.4 3.8-3.4 4.9-2 1.8-3 2.3-1.9.7-2.7.7c-.7 0-1.1-.1-1.5-.4-.3-.2-.5-.5-.5-.9 0-.3.1-.6.4-.8s.6-.3 1-.3c.3 0 .8.1 1.4.2s1 .2 1.3.2c.6 0 1.2-.3 1.9-.8.9-.7 1.6-1.5 2.2-2.5.5-1 .8-1.9.8-2.9 0-1.4-.2-3-.6-4.9s-1-3.4-1.7-4.4c-.4-.5-.8-.8-1.2-.8-.4.1-1.1.5-2 1.1z"/><path d="m78.9 50.5-.2.8c-.7.1-1.2.2-1.7.2-.4 0-1.1 0-2.1-.1-.7-.1-1.4-.1-1.9-.1-1 0-2 .1-3.1.3l.2-.8c1-.1 1.7-.3 2.2-.6.3-.2.6-.6.8-1.2s.8-2.5 1.6-5.7l1.9-7.9.1-.4c-.6 0-1 0-1.3 0-1.8 0-3.3.2-4.4.6s-1.9 1-2.4 1.7c-.5.8-.8 1.6-.8 2.4 0 .3.1.6.2.8s.3.5.7.9c.3.4.5.7.5 1s-.1.5-.3.7-.4.3-.7.3c-.4 0-.8-.2-1-.6-.4-.6-.6-1.3-.6-2.2 0-1.2.4-2.4 1.1-3.5s1.8-2 3.1-2.6 2.9-.9 4.8-.9c.9 0 2.3.1 4.3.4 1.4.2 2.4.3 3 .3s1.1-.1 1.3-.3.4-.5.4-.8c0-.1 0-.2 0-.4s0-.3 0-.4c0-.3.1-.5.3-.7s.4-.3.6-.3c.3 0 .5.1.7.3s.3.5.3.9c0 .8-.4 1.4-1.2 1.9s-2.1.8-4 .8c-.7 0-1.4 0-2.1-.1-.1.4-.4 1.6-.9 3.6l-1.3 5.1-1 3.2-.8 3.6c.7.1 1.2.1 1.6.1.7 0 1.4-.1 2.1-.3z"/><path d="m83.2 48.1c.4 0 .7.1 1 .4s.4.7.4 1.1c0 .6-.2 1.1-.5 1.5s-.7.5-1.2.5c-.4 0-.7-.1-1-.4s-.4-.6-.4-1c0-.6.2-1.2.5-1.6.4-.3.8-.5 1.2-.5z"/><path d="m113 37.5h-.8c.2-.8.3-1.4.3-1.6 0-.3-.1-.6-.3-.7-.2-.2-.7-.2-1.3-.2h-.9-.3-3c-.1.2-.2.8-.5 1.7-.5 1.9-.9 3.5-1.2 4.7h2.9c.7 0 1.2-.1 1.4-.2s.4-.5.5-1.1h.8c-.3 1.2-.6 2.5-.8 3.9h-.8c.1-.6.1-.9.1-1 0-.2-.1-.4-.4-.5-.1-.1-.5-.1-1.1-.1h-2.8c-.3 1.4-.7 2.9-1.1 4.4s-.9 2.8-1.2 3.7c.8.1 1.5.2 2.1.2.4 0 .8 0 1.2-.1l-.3.8c-.3 0-.6 0-.8 0s-.9 0-2-.1c-.7 0-1.3-.1-1.7-.1-1 0-2 .1-3.1.3l.2-.8c.9-.2 1.5-.4 1.7-.6s.5-.5.6-.8c.3-.6.9-2.5 1.7-5.6l2.3-8.9c-1.3 0-2.5.3-3.5.9s-1.8 1.3-2.4 2.2-.9 1.9-.9 2.8c0 .4 0 .8.1 1.2 0 .2.2.6.4 1 .3.5.4.9.4 1.1s-.1.4-.3.5c-.2.2-.4.2-.7.2-.4 0-.7-.2-1-.6-.3-.6-.5-1.3-.5-2.4 0-2 .8-3.8 2.3-5.5 1.6-1.7 3.6-2.5 6.1-2.5h5.7c.6 0 1.3 0 2.1-.1.2 0 .7-.1 1.5-.3-.3 2.4-.6 3.7-.7 4.2z"/><path d="m123.1 38.6 1-.2-1.1 3.8c-.4 1.5-.9 3.2-1.3 5.2-.2 1.1-.3 1.7-.3 2s.1.5.4.5c.2 0 .4-.1.8-.3.6-.4 1.2-.8 1.8-1.4l.5.6c-1.1 1-1.8 1.7-2.2 1.9-.6.4-1.2.8-1.8 1-.4.1-.7.2-1.1.2-.3 0-.4-.1-.6-.2-.1-.1-.2-.3-.2-.5 0-.1 0-.4.1-.6l.6-2c-.8 1-1.9 1.9-3 2.6-.7.5-1.4.7-2 .7s-1-.2-1.3-.6c-.4-.5-.6-1.3-.6-2.1 0-1 .3-2.2.8-3.5.6-1.3 1.3-2.5 2.2-3.5s1.9-1.8 3-2.3c.8-.4 1.8-.6 3.1-.6.3 0 .6 0 1 .1zm-1.9 2.3c-.5-.1-1-.2-1.3-.2-.9 0-1.7.2-2.3.7s-1.3 1.4-1.8 2.6c-.6 1.3-.9 2.5-.9 3.8 0 .7.1 1.2.3 1.5s.5.4.9.4c.7 0 1.4-.4 2.2-1.1s1.4-1.8 1.7-3.2z"/><path d="m128.4 51.4h-2.2l1-4c.5-2 .9-3.8 1.3-5.6.1-.4.1-.7.1-.8 0-.2-.1-.4-.3-.4-.1 0-.4.1-.7.3s-.9.7-1.7 1.5l-.5-.5c.9-1 1.9-1.8 2.8-2.3s1.7-.8 2.2-.8c.2 0 .3 0 .4.1s.2.2.2.3-.1.5-.2 1l-.6 2.7c1-1.6 2.1-2.9 3.4-4 .6-.5 1.1-.8 1.5-.8.3 0 .5.1.7.3s.3.4.3.7-.1.5-.3.7-.7.4-1.4.7c-.7.2-1.3.5-1.8.9s-1 .9-1.5 1.6-.9 1.3-1.1 1.9c-.2.5-.5 1.8-1 3.7z"/><path d="m137.5 51.4h-2.2l1-4c.5-2 .9-3.8 1.3-5.6.1-.4.1-.7.1-.8 0-.2-.1-.4-.3-.4-.1 0-.4.1-.7.3s-.9.7-1.7 1.5l-.5-.5c.9-1 1.9-1.8 2.8-2.3s1.7-.8 2.2-.8c.2 0 .3 0 .4.1s.2.2.2.3-.1.5-.2 1l-.6 2.7c1-1.6 2.1-2.9 3.4-4 .6-.5 1.1-.8 1.5-.8.3 0 .5.1.7.3s.3.4.3.7-.1.5-.3.7-.7.4-1.4.7c-.7.2-1.3.5-1.8.9s-1 .9-1.5 1.6-.9 1.3-1.1 1.9c-.2.5-.5 1.8-1 3.7z"/><path d="m30.4 21 1 1.4-.4.7-3.3-4.6.5-.7 5.4 1.7-.4.5-1.7-.5zm.6-1.7-1.6-.5c-.4-.1-.7-.2-1-.3.2.3.4.5.6.8l1 1.3z"/><path d="m32.2 13.1c.2-.3.5-.7.9-1 .5-.5 1-.7 1.4-.8.4 0 .7.1 1 .5.5.5.5 1.2.2 1.7.4-.2.8-.1 1.3.2.6.4 1.1.7 1.3.8l-.4.5c-.2 0-.6-.3-1.1-.7-.6-.4-1-.4-1.5 0l-.5.5 1.6 1.7-.5.5zm2.2 1.3.5-.5c.5-.5.6-1.1.2-1.6-.5-.5-1.1-.4-1.6.1-.2.2-.4.4-.5.5z"/><path d="m39.4 7.9-1.4.9-.3-.5 3.3-2.2.3.5-1.3.9 2.6 4-.6.4z"/><path d="m49.3 2.3c.4-.2.9-.4 1.4-.5 1-.3 1.7-.2 2.3 0 .6.3 1 .8 1.3 1.7.2.8.2 1.6-.2 2.2-.4.7-1.1 1.2-2.1 1.4-.5.1-.9.2-1.2.3zm2 4.4c.2 0 .4-.1.7-.2 1.4-.4 2-1.4 1.6-2.8-.3-1.2-1.3-1.8-2.7-1.4-.3.1-.6.2-.8.3z"/><path d="m58.5.3.6 5.4-.7.1-.6-5.4z"/><path d="m63.1.1c.4-.1.9-.1 1.4-.1.7 0 1.2.2 1.5.5.3.2.4.6.4 1 0 .7-.5 1.2-1.1 1.3.5.3.7.6.8 1.2.2.8.3 1.3.4 1.5h-.7c-.1-.2-.2-.6-.3-1.3s-.4-1-1-1.1h-.7l-.1 2.3h-.7zm.7 2.5h.7c.7 0 1.2-.4 1.2-1 0-.7-.5-1-1.2-1-.3 0-.6 0-.7 0z"/><path d="m73.1 4.1-2.1-.5-.4 1.9 2.3.5-.1.6-3-.6 1.1-5.3 2.8.6-.1.6-2.2-.5-.4 1.7 2.1.4z"/><path d="m79.6 8.9c-.3 0-.8-.1-1.4-.3-1.4-.6-2.1-1.9-1.4-3.6.6-1.6 2.1-2.2 3.7-1.6.6.3 1 .5 1.1.7l-.4.5c-.2-.2-.5-.4-1-.6-1.2-.5-2.3 0-2.8 1.3-.5 1.2-.1 2.3 1.1 2.8.4.2.8.2 1.1.2z"/><path d="m86.2 7.3-1.4-.9.3-.5 3.3 2.2-.3.5-1.4-.9-2.6 4-.6-.4z"/><path d="m93.1 15.6c-1.3 1.3-2.8 1.3-3.8.3s-1-2.5.1-3.7c1.2-1.2 2.7-1.3 3.8-.3s1 2.5-.1 3.7zm-3.1-2.9c-.8.8-1 2-.3 2.8.8.8 2 .5 2.8-.4.7-.8 1.1-2 .3-2.8s-1.9-.4-2.8.4z"/><path d="m97.8 17.1c.3.2.6.6.9 1 .4.6.6 1.1.5 1.5 0 .4-.3.7-.6.9-.6.4-1.2.3-1.7 0 .1.4 0 .8-.4 1.3-.5.6-.9 1-1 1.2l-.4-.6c.1-.2.4-.5.8-1 .5-.6.6-1 .2-1.5l-.4-.5-1.9 1.4-.4-.6zm-1.6 2 .4.6c.4.6 1 .8 1.5.4.6-.4.5-1 .1-1.6-.2-.3-.4-.5-.5-.5z"/><path d="m96.1 66-1-1.4.4-.6 3.3 4.6-.5.7-5.4-1.7.4-.6 1.7.5zm-.6 1.8 1.6.5c.4.1.7.2 1 .3-.2-.3-.4-.5-.6-.8l-1-1.3z"/><path d="m94.2 74c-.2.3-.5.7-.9 1-.5.5-1 .7-1.4.8-.4 0-.7-.1-1-.5-.5-.5-.5-1.2-.2-1.7-.4.2-.8.1-1.3-.2-.6-.4-1.1-.7-1.3-.8l.5-.5c.2 0 .6.3 1.1.7.6.4 1 .4 1.5 0l.5-.5-1.6-1.7.5-.5zm-2.2-1.3-.5.5c-.5.5-.6 1.1-.2 1.6.5.5 1.1.4 1.6-.1l.5-.5z"/><path d="m87.1 79.2 1.4-.9.3.5-3.3 2.2-.3-.5 1.4-.9-2.6-4 .6-.4z"/><path d="m77.2 84.7c-.4.2-.9.4-1.4.5-1 .3-1.7.2-2.3 0-.6-.3-1-.8-1.3-1.7-.2-.8-.2-1.6.2-2.2.3-.6 1.1-1.1 2.1-1.4.5-.1.9-.2 1.2-.3zm-2-4.4c-.2 0-.4.1-.7.2-1.4.4-2 1.4-1.6 2.8.3 1.2 1.3 1.8 2.7 1.4.3-.1.6-.2.8-.3z"/><path d="m68 86.8-.6-5.4.7-.1.6 5.4z"/><path d="m63.4 87c-.4.1-.9.1-1.3.1-.7 0-1.2-.2-1.5-.5-.3-.2-.4-.6-.4-1 0-.7.5-1.2 1.1-1.3-.4-.2-.6-.5-.8-1.1-.2-.8-.3-1.3-.4-1.5h.7c.1.2.2.6.3 1.3s.4 1 1 1.1h.7l.1-2.3h.7zm-.7-2.5h-.7c-.7 0-1.2.4-1.2 1 0 .7.5 1 1.2 1h.7z"/><path d="m53.4 83 2.1.4.4-1.9-2.3-.5.1-.6 3 .6-1.1 5.3-2.8-.6.1-.6 2.2.5.4-1.7-2.1-.4z"/><path d="m46.9 78.2c.3 0 .8.1 1.4.3 1.4.6 2.1 1.9 1.4 3.5-.6 1.6-2.1 2.2-3.7 1.6-.6-.3-1-.5-1.1-.7l.4-.5c.2.2.5.4.9.6 1.2.5 2.3 0 2.8-1.3.5-1.2.1-2.3-1.1-2.8-.4-.2-.8-.2-1.1-.2z"/><path d="m40.3 79.8 1.4.9-.3.5-3.4-2.2.3-.5 1.4.9 2.6-4 .6.4z"/><path d="m33.3 71.5c1.3-1.3 2.8-1.3 3.8-.3s1 2.5-.1 3.7c-1.2 1.2-2.7 1.3-3.8.3-1-1.1-1-2.5.1-3.7zm3.1 2.8c.8-.8 1-2 .3-2.8-.8-.8-2-.5-2.8.4-.7.8-1.1 2-.3 2.8.9.9 2 .5 2.8-.4z"/><path d="m28.7 69.9c-.3-.2-.6-.6-.9-1-.4-.6-.6-1.1-.5-1.5 0-.4.3-.7.6-.9.6-.4 1.2-.3 1.7 0-.1-.4 0-.8.4-1.3.5-.6.9-1 1-1.2l.4.6c-.1.2-.4.5-.8 1-.5.6-.6 1-.2 1.5l.4.5 1.9-1.4.4.6zm1.6-1.9-.4-.6c-.4-.6-1-.8-1.5-.4-.6.4-.5 1-.1 1.6.2.3.4.5.5.5z"/></g></svg>