<svg enable-background="new 0 0 500 500" viewBox="0 0 500 500" xmlns="http://www.w3.org/2000/svg" xmlns:xlink="http://www.w3.org/1999/xlink"><clipPath id="a"><path d="m0 0h500v500h-500z"/></clipPath><clipPath id="b"><path d="m0 0h500v500h-500z"/></clipPath><clipPath id="c"><path d="m0 0h500v500h-500z"/></clipPath><linearGradient id="d" gradientTransform="matrix(1 0 0 -1 0 502)" gradientUnits="userSpaceOnUse" x1="292.6" x2="332" y1="202.1" y2="202.1"><stop offset=".0030649" stop-color="#ffbc08"/><stop offset=".9991" stop-color="#eb9100"/></linearGradient><clipPath id="e"><path d="m215.8 249.3c3.4-15.4 4.8-33 4.8-33l-9.5-2.8s-8.5 29.3-9.5 33.5c-.9 3.8-11.4 24-13.6 28.2l-19.1.9-18.1-17.1-6.5-20.5h-7.8s-2 15.3 1 25.8c1.2 4.2 18.5 27.4 18.5 27.4s.5 11.3 3.5 25.9 4.8 19 4.8 19l31.8.8 8.8-3.9s4.5-7.4 4.7-19.9c.1-8.6-2.5-23.8-4.2-32.4.4-1.2.9-2.6 1.4-4.2 1.1-3.9 6-14.7 9-27.7z"/></clipPath><clipPath id="f"><path d="m215.8 249.3c3.4-15.4 4.8-33 4.8-33l-9.5-2.8s-8.5 29.3-9.5 33.5c-.9 3.8-11.4 24-13.6 28.2l-19.1.9-18.1-17.1-6.5-20.5h-7.8s-2 15.3 1 25.8c1.2 4.2 18.5 27.4 18.5 27.4s.5 11.3 3.5 25.9 4.8 19 4.8 19l31.8.8 8.8-3.9s4.5-7.4 4.7-19.9c.1-8.6-2.5-23.8-4.2-32.4.4-1.2.9-2.6 1.4-4.2 1.1-3.9 6-14.7 9-27.7z"/></clipPath><clipPath id="g"><path d="m215.8 249.3c3.4-15.4 4.8-33 4.8-33l-9.5-2.8s-8.5 29.3-9.5 33.5c-.9 3.8-11.4 24-13.6 28.2l-19.1.9-18.1-17.1-6.5-20.5h-7.8s-2 15.3 1 25.8c1.2 4.2 18.5 27.4 18.5 27.4s.5 11.3 3.5 25.9 4.8 19 4.8 19l31.8.8 8.8-3.9s4.5-7.4 4.7-19.9c.1-8.6-2.5-23.8-4.2-32.4.4-1.2.9-2.6 1.4-4.2 1.1-3.9 6-14.7 9-27.7z"/></clipPath><clipPath id="h"><path d="m215.8 249.3c3.4-15.4 4.8-33 4.8-33l-9.5-2.8s-8.5 29.3-9.5 33.5c-.9 3.8-11.4 24-13.6 28.2l-19.1.9-18.1-17.1-6.5-20.5h-7.8s-2 15.3 1 25.8c1.2 4.2 18.5 27.4 18.5 27.4s.5 11.3 3.5 25.9 4.8 19 4.8 19l31.8.8 8.8-3.9s4.5-7.4 4.7-19.9c.1-8.6-2.5-23.8-4.2-32.4.4-1.2.9-2.6 1.4-4.2 1.1-3.9 6-14.7 9-27.7z"/></clipPath><linearGradient id="i"><stop offset=".00012019" stop-color="#f2cf4f"/><stop offset=".9974" stop-color="#ebb04b"/></linearGradient><linearGradient id="j" gradientTransform="matrix(1 0 0 -1 0 502)" gradientUnits="userSpaceOnUse" x1="75.7532" x2="74.0648" xlink:href="#i" y1="123.214" y2="174.2052"/><linearGradient id="k" gradientTransform="matrix(-.359 .9333 .9333 .359 -3443.6365 2022.9755)" gradientUnits="userSpaceOnUse" x1="-2804.8586" x2="-2806.2664" xlink:href="#i" y1="2639.3115" y2="2681.8223"/><linearGradient id="l"><stop offset=".2227" stop-color="#f2cf4f"/><stop offset=".8426" stop-color="#ebb04b"/></linearGradient><linearGradient id="m" gradientTransform="matrix(1 0 0 -1 0 502)" gradientUnits="userSpaceOnUse" x1="102.7874" x2="86.8398" xlink:href="#l" y1="134.9784" y2="181.3378"/><linearGradient id="n" gradientTransform="matrix(-.3287 .9444 .9444 .3287 -3291.2546 1972.5447)" gradientUnits="userSpaceOnUse" x1="-2620.4548" x2="-2632.5876" xlink:href="#l" y1="2645.7764" y2="2681.0459"/><clipPath id="o"><path d="m428 288.2c1.1 3.5 2 6.8 2 7.6 0 1.8 2.5 11.2 2.5 11.2l12.2-3.6-6.2-21.6s-1.8-21.2-10.8-22.4c-5.1-2.4-11.8-2.7-13.5-2.8 0 0-5-.1-9.7 0-.6-3.5-1.4-6.2-1.4-6.2l-4-44.4v-2.6l-12.7.7s3.5 34.3 4 35.9c.5 1.7 1.7 16 1.5 18.6-.1 1.4 0 5.8 1.4 9.3.7 3.7 2 8.7 4 15.5 3 10-.5 22.1-3.4 28.5-3 6.4-3.2 12.1-3.2 12.1l40-.7s-4.6-15.7-4.3-25.6c.2-2.4.8-5.9 1.6-9.5z"/></clipPath><g clip-path="url(#a)" fill="#fff"><path d="m53.4 181.1h72.4c.8-2.9-.3-6.3-2.5-8.3-2.2-2.1-5.5-2.8-8.3-1.9-2.9 1-6.1 3.6-8.7 1.9-.9-.5-1.4-1.5-1.9-2.3-2.7-4.1-6.5-7.6-11.2-9.1s-10.2-.7-13.8 2.5c-1.9 1.7-3.4 4.1-5.7 5.1-2.6 1.2-5.7.5-8.6.6-2.9.2-6.3 2.1-5.9 5-1.9 0-3.9.1-5.5 1.1-1.6 1.1-1.3 3.8-.3 5.4z"/><path d="m411.9 164c.8 4.4-2.1 8.8-5.2 9.5s-6.1-1.2-8.9-3.1c0 0-.1 0-.1-.1-4.4-3.1-9.7-1-12.5 5-2.5 5.2-5.2 9.9-8.7 13.5-5.4 5.5-13 7.4-18.4 2-5.6-5.6-8.6-18.1-15.3-18.3-4.4-.1-8.1 5.6-12.5 6.7-5 1.1-10.8-5.3-10.9-12.8z"/><path d="m217.1 120.3c-.7-2.8.6-6 3-7.7 2.4-1.6 5.9-1.6 8.2.1 1.9 1.4 3.4 3.8 5.8 4 1.5.1 3-.8 4.1-1.9 5.7-5 8.6-12.4 13.2-18.4s12.6-10.9 19.5-7.9c6.9 3.1 8.6 12.1 13.9 17.5 1.2 1.3 2.9 2.4 4.7 2.2 2.2-.2 3.6-2.3 5.5-3.5 4.8-3 12.2 2.2 10.9 7.8 6.5-4.4 16.5-2.2 20.6 4.6z"/></g><path clip-path="url(#b)" d="m309 266.7s12.3.4 15.2 1.5 2.8 14.8 1.3 25-.3 21.5 2.6 27.7c2.9 6.3 3.9 12.2 3.9 12.2l-39.4-.7s6.8-17.9 6.4-27.7c-.3-9.7-3.8-31.9-3.6-34.1.2-2 10.9-3.8 13.6-3.9z" fill="#ffc426"/><g clip-path="url(#c)"><path d="m353.4 413.6c.2 1.3.4 2.9-.6 3.9-1.1 1-3.1.4-4-.8s-.7-3-1.5-4.4c-4.5-7.1-9.4-15.6-11.8-24.3-.3-1.1-.5-2.3-.2-3.5.3-1.1 1.4-2.1 2.5-2.1.9 0 1.7.7 2.3 1.3 8.5 8 11.4 18.8 13.3 29.9z" fill="#efc2ac"/><path d="m348.5 416.1c-1 1.6-.1 3.6.5 5.4.8 2.2 1.3 4.6 1.4 7 0 1.3-.1 2.6.2 3.8s1 2.5 2.1 3c.6.3 1.2.3 1.8.4 1.4.1 2.9.1 4.1-.6 2.1-1.2 2.8-4.1 2.2-6.4-.6-2.4-2.2-4.3-3.7-6.2-.8-1-1.6-2-2.2-3.1-.6-1-.8-2.4-1.4-3.2-1.1-1.6-3.9-1.7-5-.1z" fill="#efc9b6"/><path d="m357.6 437.9c.4.6.5 1.4 0 1.9s-1.5.2-1.9-.4c-.5-.6-.7-1.3-1-2-.4-.7-.9-1.2-1.4-1.8-.2-.2-.4-.5-.4-.8-.2-1.6 2.1-1.2 2.8-.5.7 1 1.3 2.7 1.9 3.6z" fill="#efc7b3"/><path d="m359 437.8c.2.5.7 1 1.1.8.5-.1.6-.8.5-1.3.5 0 .9-.6.7-1.1 0-.1-.1-.2-.1-.4s.2-.5.3-.7c.2-.5 0-1.1 0-1.6s.1-.9.2-1.3c.1-1-.1-2-.6-2.9-.1 0-.2.2-.3.3-.2.6-.2 1.3-.3 1.9s-.4 1.3-.9 1.7c-.5.5-2 .7-2 1.6 0 .4.5 1 .7 1.4.2.6.5 1.1.7 1.6z" fill="#efc7b3"/><path d="m349.5 414.6c1.4-.5 3.2 0 4.1 1.2.8 1 1.1 2.2 1.6 3.3.9 1.9 2.5 3.3 3.7 5 2.3 3.1 3.3 7.1 2.9 11-.1 1.2-.4 2.3-1.1 3.3-.6 1-1.7 1.8-2.8 1.8-1.9.2-3.4-1.3-4.7-2.7-1.5-1.7-3.2-3.5-3.6-5.8-.4-1.7-.1-3.4-.1-5.1-.1-2.7-1-5.1-1.9-7.6-.6-1.6-.2-3.6 1.9-4.4z" fill="#fff"/><path d="m260.2 414.3c-.5 1.3-1 2.8-.2 3.9.9 1.2 3 1 4.1 0 1.2-1 1.3-2.9 2.3-4 5.8-6 12.4-13.3 16.4-21.4.5-1 1-2.2.9-3.4s-.9-2.4-2.1-2.5c-.9-.1-1.8.3-2.5.8-9.8 6.1-14.8 16.1-18.9 26.6z" fill="#efcab8"/><path d="m263.4 418.4c.7 1.8-.6 3.6-1.7 5.2-1.3 2-2.3 4.2-2.8 6.5-.3 1.2-.5 2.5-1 3.7s-1.5 2.2-2.7 2.5c-.6.1-1.3.1-1.9 0-1.4-.2-2.9-.5-3.9-1.5-1.8-1.6-1.9-4.6-.8-6.8s3.1-3.8 5-5.3c1-.8 2-1.6 2.8-2.5.8-.8 1.3-2.2 2.1-2.9 1.4-1.2 4.2-.7 4.9 1.1z" fill="#efc9b6"/><path d="m249.8 437.8c-.5.5-.8 1.3-.4 1.9s1.4.5 2 .1c.6-.5.9-1.2 1.4-1.7.5-.6 1.2-1 1.8-1.4.2-.2.4-.4.5-.7.5-1.5-1.8-1.6-2.6-1.1-.9.5-1.9 2.1-2.7 2.9z" fill="#efc7b3"/><path d="m248.4 437.3c-.3.4-.8.8-1.3.6s-.4-.9-.2-1.4c-.5-.1-.7-.8-.4-1.2.1-.1.2-.2.2-.3.1-.2-.1-.5-.1-.7-.1-.5.2-1.1.4-1.6.1-.4.1-.9.1-1.3.1-1 .5-2 1.2-2.7.1 0 .2.2.2.4 0 .7-.1 1.3-.1 2s.1 1.3.5 1.9 1.8 1.2 1.6 2c-.1.4-.7.9-1 1.2s-.7.7-1.1 1.1z" fill="#efc7b3"/><path d="m262.6 417.1c.9.6 1.5 1.6 1.4 2.7-.1.6-.4 1.2-.7 1.8-1.5 2.6-3.3 5-4.2 7.9-.5 1.8-.7 3.7-1.3 5.4-1.2 3-4.1 5.2-7.3 5.6-1.8.2-3.8-.3-4.8-1.7-1.1-1.5-.9-3.6-.3-5.4 1-3.2 2.9-6.1 5.5-8.3 1.9-1.7 4.2-3 5.6-5.1.4-.7.8-1.5 1.2-2.2 1-1.8 3.2-1.8 4.9-.7z" fill="#fff"/><path d="m328.8 322.5 14 54.8s-11.9 4.5-13.8 0-24.1-34.4-21.6-45.1c2.4-10.7 21.4-9.7 21.4-9.7z" fill="#003952"/><path d="m321.3 330.7-26.4 50s-11.8-4.6-10.2-9.3 5.2-41.7 14.2-47.9c9-6.3 22.4 7.2 22.4 7.2z" fill="#003952"/><path d="m342.7 377.3 8.6 24.7-9.6 3.2-12.9-27.9z" fill="#002d40"/><path d="m294.8 380.5-22.9 27.9-7.6-4.3 20.4-33.3z" fill="#002d40"/><path d="m297.5 207.9-5.8 1-.4 28.4.8.7c1.8 1.7 4.7 1.1 5.9-1.1l1.6-1.8z" fill="#efc2ac"/><path d="m299.5 201.2s-.4 2.9-.8 4.5-1.2 2.2-1.2 2.2l-5.8 1s-.9-3.9-.9-5.5c0-1.5 0-1.8.5-2.2s6.1-1 6.9-.9c.9.1 1.3.9 1.3.9z" fill="#efc2ac"/><path d="m297.2 201.3 2.2.3.6-4c.1-.5-.2-.9-.7-1l-.5-.1c-.5-.1-.9.2-1 .7z" fill="#efc2ac"/><path d="m290.8 203.4 1.9.1.3-3.9c0-.4-.3-.8-.7-.9h-.4c-.4 0-.8.3-.9.7z" fill="#efc2ac"/><path d="m295 202 2.5.2.3-3.8c0-.5-.3-.9-.8-1l-.7-.1c-.5 0-.9.3-1 .8z" fill="#efc2ac"/><path d="m292.8 202.5 2.2.2.4-3.8c0-.5-.3-.9-.8-.9h-.5c-.5 0-.9.3-.9.8z" fill="#efc2ac"/><path d="m302.3 271.7-2-36 .1-2.1-10.3.2s1.9 27.8 2.3 29.2 1 13 .8 15.1-.2 12.5 6.7 11.7c6.8-.8 2.4-18.1 2.4-18.1z" fill="#ffbc08"/><path d="m309 266.7s12.3.4 15.2 1.5 2.8 14.8 1.3 25-.3 21.5 2.6 27.7c2.9 6.3 3.9 12.2 3.9 12.2l-39.4-.7s6.8-17.9 6.4-27.7c-.3-9.7-3.8-31.9-3.6-34.1.2-2 10.9-3.8 13.6-3.9z" fill="url(#d)"/><path d="m333.1 347.7 4.7-2.1 2.6-25.4-.7-.7c-1.7-1.8-4.6-1.5-5.9.6l-1.7 1.7z" fill="#efc2ac"/><path d="m330.5 358.6c0 .3.1.6.3.7.4.1.6-.3.8-.7.3-1 .4-2.6.7-3.6-.4 2-.1 4.7.3 6.7 1.3 1.3 1.7-3.3 1.9-5.1-.2 1.9-.4 4 .5 5.6 1.1 1.4 1.7-4.7 1.7-7.9.1 1.7.1 5.6.8 5.6 2 .6 1.3-6.3 1.2-9.3.2.7.7 2.3 1 2.6 1 1.1 1.2-.6 1.1-1.5-.4-2.6-.9-3.9-1.6-6.4-.1-.2-.6-1.1-.8-1.3s-.5-.3-.8-.3c-7.1-.9-7.3 9.9-7.1 14.9z" fill="#efc2ac"/><path d="m325.7 290.3 5.5 35.7.1 2.1 10.2-1.2s-4.6-27.5-5.1-28.8-2.2-12.9-2.2-15-1-12.5-7.8-11c-6.8 1.4-.7 18.2-.7 18.2z" fill="#ffbc08"/><path d="m326 251.3c-.3 2.1-1 4.3-.5 6.4s2 3.7 3.3 5.4c3 4.2 4.3 9.7 2.8 14.6-1.4 4.9-5.9 9-11 9.5.1 4.4-.6 9-3.2 12.7-2.6 3.6-7.3 5.9-11.5 4.6s-6.9-6.9-4.4-10.5c-2.3 2.3-6.1 3.6-9 2.1-3-1.5-4-6.2-1.4-8.2-3.9.7-8.1-1.6-9.6-5.2s-.2-8.2 3-10.5c2.8-2 6.7-2.4 8.7-5.1 3.4-4.7-1.8-11.8.9-17 1.5-2.9 5.2-4.4 5.9-7.6.2-1.2 0-2.4.1-3.6.6-8.4 11.9-7.6 17.4-5.1 6.8 2.9 9.7 10 8.5 17.5z" fill="#002d40"/><path d="m314.8 237.2c3.1 7 5.8 15.3 2.4 22.2-2 4.1-5.8 7.1-9.6 9.7s-7.7 5.3-10.2 9.1c-2.5 3.9-3.1 9.4 0 12.9" fill="none" stroke="#004866" stroke-miterlimit="10"/><path d="m310.7 236c-1.4 2.1-.9 4.9-.5 7.4s.4 5.5-1.5 7.1c-1.2 1.1-2.9 1.3-4.5 1.8-1.7.6-3.3 1.5-4.4 2.9s-1.7 3.3-1.3 5.1" fill="none" stroke="#004866" stroke-miterlimit="10"/><path d="m323.7 265.1c.5 4.7-1.1 9.6-4.3 13.2-1.2 1.4-2.7 2.5-3.9 3.9-3.4 3.9-4.7 9.6-3.2 14.6" fill="none" stroke="#004866" stroke-miterlimit="10"/><path d="m219 356.4c.1.1.1.1 0 0" fill="#efc9b6"/><path d="m133.7 416.3c.4.2 2 .4 2.4.3.4-.2.1-.6 0-1 0-.4-.2-.8-.4-1.2-1.2-2.1-2.6-4.2-4.6-5.4-1.2-.7-2.8-1.1-4.2-.9-.6.1-2 .6-2.3 1.2-.2.4.5 1.2 1.1 1.7 2.4 2.2 4.6 3.8 8 5.3z" fill="#0187ea"/><path d="m120.7 421c-.6 1.3-1.2 2.8-.5 4 .8 1.4 3 1.3 4.2.3 1.3-1 1.5-2.8 2.7-3.9 6.5-5.7 13.8-12.6 18.7-20.6.6-1 1.2-2.2 1.2-3.4s-.7-2.5-1.9-2.8c-.9-.2-1.8.2-2.6.6-10.7 5.5-16.6 15.4-21.8 25.8z" fill="#efad8d"/><path d="m124.8 424.9c.6 1.9-.9 3.6-2.1 5.2-1.5 1.9-2.6 4.1-3.4 6.5-.4 1.2-.7 2.5-1.3 3.7-.6 1.1-1.7 2.2-3 2.3-.6.1-1.3 0-1.9-.2-1.4-.3-2.9-.7-3.9-1.8-1.8-1.8-1.6-4.8-.3-7s3.4-3.6 5.5-5.1c1.1-.7 2.1-1.5 3.1-2.4.8-.8 1.5-2.1 2.4-2.8 1.5-1.1 4.3-.3 4.9 1.6z" fill="#efc9b6"/><path d="m109.5 443.8c-.5.5-.9 1.3-.6 1.9.4.7 1.4.6 2 .2s1-1.1 1.6-1.6 1.3-.9 1.9-1.3c.2-.2.5-.4.6-.6.6-1.5-1.8-1.8-2.6-1.3-1 .4-2.1 1.9-2.9 2.7z" fill="#efc7b3"/><path d="m108.1 443.3c-.4.4-.9.8-1.4.5s-.3-1-.1-1.5c-.5-.2-.7-.9-.4-1.3.1-.1.2-.2.2-.3.1-.2 0-.5-.1-.8-.1-.6.3-1.1.5-1.6.2-.4.2-.9.2-1.4.2-1 .7-2 1.5-2.7.1 0 .2.2.2.4 0 .7-.2 1.3-.2 2-.1.7 0 1.4.4 1.9.4.6 1.8 1.3 1.5 2.2-.1.4-.8.9-1.1 1.2-.4.5-.8.9-1.2 1.4z" fill="#efc7b3"/><path d="m165.5 340s-12.8 30-15.4 34-3.8 7.7-3.8 7.7l11.7 7.9 28.3-25-3-25.1z" fill="#0187ea"/><path d="m146.3 381.7s-7.6 7.2-10.8 12.7c-3.1 5.5-6.2 12.9-6.2 12.9l7.4 6.7 21.3-24.4z" fill="#0187ea"/><path d="m128.5 403.7s4.4.9 8.2 3.7 4.6 5.3 4.6 5.3l-5.3 3.8s-4.6-6.1-7.4-6.7-4.3-.7-4.3-.7z" fill="#319bea"/><path d="m124.1 422.4c1.2.9 1.1 2.5 1 3.1-.6 3.1-3.2 5.8-3.9 7.3-2.1 4.2-2.2 8-5.3 11.5-1.2 1.3-2.8 2.3-4.5 2.5s-3.6-.4-4.8-1.7c-1.5-1.7-1.6-4.3-.8-6.5.8-2.1 2.3-4.7 4-6.2s4.3-3 5.7-4.8c1.1-1.7 4.6-8.3 8.6-5.2z" fill="#013b6b"/><path d="m164.6 340.8c-3.2 7.8-10.2 28.5-13.4 36.3-1.1 2.7-2.3 5.4-4.1 7.7-1.1 1.3-2.5 2.5-3.7 3.7-4.5 4.3-9.6 10.2-11.6 16.1" fill="none" stroke="#35a2f2" stroke-miterlimit="10"/><path d="m183.3 339.5 21.3-3.1s20.4 42.3 20.7 45.4c.2 3 1.6 6.4-1.8 8.3-3.3 1.9-5.3 3.2-14.8-5.7-9.6-9-22.3-19.7-22.3-19.7z" fill="#0187ea"/><path d="m204.9 338.1c1.7 4.1 3.1 9.1 5.5 12.8 2 3.3 3.4 6.9 4.8 10.5 3.5 8.9 8.7 18 10 26.1" fill="none" stroke="#35a2f2" stroke-miterlimit="10"/><path d="m213.3 387.6c1.7 1.7 3.9 3.1 6.3 3.3s5-1 5.9-3.3c.6-1.5.4-3.3-.3-4.8s-1.7-2.8-2.7-4c-2.4-3-4.9-6-7.3-9-3.1-3.8-9.7-.1-9 4.5.5 4.4 3.9 10.2 7.1 13.3z" fill="#4cabf2"/><path d="m202.9 370.2c.9 1.2 1.9 2.4 2.4 3.7.3.8.5 1.7 1.1 2.3.8.7 1.9.7 2.9.3.9-.4 1.6-1.2 2.3-2s1.4-1.5 2.1-2.3c.6-.7 1.3-1.5 1-2.4-.2-.6-.7-1-1.2-1.3-2.2-1.4-7.1-6-9.8-5.7-3.9.6-1.9 5.3-.8 7.4z" fill="#efc9b6"/><path d="m210.9 375.9c-.1-.1-.1-.2-.2-.3-1.4-1.2-3.8.2-2.6 1.9 1.1 1.7 3.9.2 2.8-1.6z" fill="#efc9b6"/><path d="m210.5 375c.2.2.4.5.6.6.6.4 1.5 0 1.7-.6.3-.6-.1-1.5-.7-1.8-.4-.2-.8-.2-1.2 0s-.6.6-.6 1" fill="#efc9b6"/><path d="m212.5 373.2c.1.2.3.3.4.4.4.2 1 0 1.2-.4s0-1-.5-1.2c-.3-.1-.6-.1-.8 0s-.4.4-.4.7" fill="#efc9b6"/><path d="m213.5 372c.1.2.3.3.4.4.4.2 1 0 1.2-.4s0-1-.5-1.2c-.3-.1-.6-.1-.8 0s-.4.4-.4.7" fill="#efc9b6"/><path d="m213.8 370.8c.1.2.3.3.4.4.4.2 1 0 1.2-.4s0-1-.5-1.2c-.3-.1-.6-.1-.8 0s-.4.4-.4.7" fill="#efc9b6"/><path d="m201.4 368.2c.7 1.5 1.9 2.8 2.7 4.3 1.2 2.1 1.7 4.7 3.6 6.1 1.3.9 3.2 1.2 4.8.7 1.5-.4 2.9-1.3 3.9-2.6.7-.9 1-2.9-.3-5.6-.5-1-2.8-3.3-4.4-4.2-1.2-.7-1.6-1-2.6-1.9-1-1-2.2-1.8-3.5-2.3-3.6-1.4-5.6 2.3-4.2 5.5z" fill="#013b6b"/><path d="m191 346.6 12.7-3 2.8 12.8-5.3 4.6-7.1-1.7z" fill="none" stroke="#35a2f2" stroke-miterlimit="10"/><path d="m191.4 350c4.3-1.5 8.6-2.7 13-3.6" fill="none" stroke="#35a2f2" stroke-miterlimit="10"/><path d="m166.8 345.4 12 1.1-1.6 13.7-6.5 2.6-5.7-3.7z" fill="none" stroke="#35a2f2" stroke-miterlimit="10"/><path d="m166.1 348.5c4.2.4 8.5.8 12.8 1.2" fill="none" stroke="#35a2f2" stroke-miterlimit="10"/><path d="m139 235.4c-.3.9-3.2 11-2 17.1 1.1 6.1 2.2 9.5 2.2 9.5l10.2-4.5s-4.9-16.3-5.4-18.8c-.4-2.6-.6-3.6-.6-3.6z" fill="#efc2ac"/><path d="m142.7 222.4c-.1.6-.1 2.1 0 2.4s-1.1 2.7-1.1 2.7l3 2.2s.4-4.5.4-5.3-.6-2.9-1.1-3.2-1.1.7-1.2 1.2z" fill="#efc2ac"/><path d="m134.8 228.5c-.2.1-.4.1-.5.2-.4.3 0 1.1-.2 1.6 0 .2-.1.3-.2.5 0 .2 0 .4.1.5.6 1.6 1.7 2.9 3.2 3.8.5.3.9.5 1.5.6.4.1.9.1 1.3 0 1.2-.1 2.3-.2 3.5-.4-.1-1.3.5-2.5.9-3.7s.5-2.7-.4-3.6c-.3-.3-.7-.5-1-.7-1.1-.6-2.3-1.2-3.5-1.5-1-.3-2.6-.4-3.6.3-.8.8-.4 2-1.1 2.4z" fill="#efc2ac"/><path d="m213.2 209.6 6.9 2.7-7 35.1-1.1.6c-2.7 1.6-6.1.2-6.9-2.8l-1.5-2.6z" fill="#efc2ac"/><path d="m212.5 200.8s-.3 3.6-.2 5.7.8 3.1.8 3.1l6.9 2.7s2.1-4.6 2.5-6.5.5-2.2-.1-2.9c-.5-.7-7.2-2.8-8.3-2.9-.8-.1-1.6.8-1.6.8z" fill="#efc2ac"/><path d="m215.3 201.4-2.8-.1.3-5.2c0-.6.5-1.1 1.2-1h.6c.6 0 1.1.5 1 1.2z" fill="#efc2ac"/><path d="m222.7 205.7-2.4-.3.7-4.9c.1-.5.6-.9 1.1-.9l.4.1c.5.1.9.6.9 1.1z" fill="#efc2ac"/><path d="m217.8 202.8-3.1-.4.6-4.8c.1-.6.6-1.1 1.3-1l.8.1c.6.1 1.1.6 1 1.3z" fill="#efc2ac"/><path d="m220.5 204.1-2.8-.3.6-4.8c.1-.6.6-1 1.2-.9l.6.1c.6.1 1 .6.9 1.2z" fill="#efc2ac"/><path d="m144.3 238.5 6.5 20.5 19 18-13.8 14.6s-17.3-23.1-18.5-27.4c-3-10.5-1-25.8-1-25.8z" fill="#5d4dcf"/><path d="m211 213.5 9.5 2.8s-1.3 17.6-4.8 33c-2.9 13.1-7.9 23.9-9 27.6-2.5 8.1-4.4 11.4-4.4 11.4l-14.8-12.3s13-24.8 14-29 9.5-33.5 9.5-33.5z" fill="#5d4dcf"/><path d="m153.2 276.8 50.8-2.3s5.7 26.5 5.5 39-4.7 19.9-4.7 19.9l-8.8 3.9-31.8-.8s-1.7-4.4-4.8-19c-3-14.6-3.5-25.9-3.5-25.9z" fill="#5d4dcf"/><path clip-path="url(#e)" d="m152.5 310.3c1.3 1.3 3.1 2.1 4.8 2.8 18.4 7 40.8 3.1 55.6-9.5" fill="none" stroke="#fff" stroke-miterlimit="10" stroke-width="12.3281"/><path clip-path="url(#f)" d="m207.1 221.7c3.6 3.4 9.9 5.3 15.6 4.5" fill="none" stroke="#fff" stroke-miterlimit="10" stroke-width="9"/><path clip-path="url(#g)" d="m131.4 248.1c5.2 2.4 15.5 1.8 20.1-1.6" fill="none" stroke="#fff" stroke-miterlimit="10" stroke-width="10"/><path clip-path="url(#h)" d="m153.5 310.8c9.1 6.1 21.7 6.8 32.6 5.6s21.4-6.4 29-14.3" fill="none" stroke="#3f30ab" stroke-miterlimit="10"/><path d="m174.2 267.8h10.7v12h-10.7z" fill="#efc2ac"/><ellipse cx="179.5" cy="279.9" fill="#efc2ac" rx="5.3" ry="1.4"/><path d="m189.4 264.8c-.3 2.2-1.3 4.7-4.2 5.4-3.4.9-6.8-1.1-8.7-3.3-3.8-4.2-9.2-20.8 2.4-22.6 11.2-1.7 11.2 16.2 10.5 20.5z" fill="#e5b38e"/><path d="m167.6 245.2c-1.3-.2-2.6-.6-3.9-1.3 0 2.8 1.2 5.6 3.3 7.5-.6.7-1 1.5-1 2.4-.2 9.6-.3 11 2.4 14.1 3 3.5 11.7 2.9 15.7 1.1 3.2-1.4 3.4-3.5 3.9-7.5.6-4 .9-6.9.4-11.7-.2-1.8-.6-4.1-1.7-5.6s-3.4-2.1-4.7-.8c.6-1.2-1-2.4-2.2-2.3-1.3.1-2.5.8-3.8.7-.9-.1-1.7-.6-2.5-1-1.3-.7-5.1-3-6.6-1.9-1.1.9-.9 6 .7 6.3z" fill="#013b6b"/><path d="m174.6 298.2c2.1 2 5 3.5 7.8 3.1 1.9-.3 3.5-1.4 5-2.7 3.5-3.1 7.8-8.8 7.4-13.5-.8-9.3-1.9-11.2-8.8-11.5-2.6 2.3-5 3.7-9.5 2.5-1.9-.5-6-2.2-7.8-1-1.7 1.1-2 7.6-1.9 9.3.2 5.7 3.6 10 7.8 13.8z" fill="#7061e8"/><path d="m169.5 276.3c.3-1.1 1.4-1.7 2.5-1.4h.1c2.1.6 5.2 1.6 6.8 1.6 1.5 0 4.6-1.6 6.6-2.5 1.4-.6 3.4.8 3.4.8s4.2 7.8-.5 14.2c-2.7 3.6-5.1 5.3-6.6 6-1 .5-2.2.5-3.2.1-2.7-1.1-8.6-3.9-9.8-8.1-1-4 0-8.5.7-10.7z" fill="#3f30ab"/><path d="m163.8 334.9s7.7 2.4 19 1.7 22-3.6 22-3.6l.6 4.9s-13 3.9-22.8 4.2-18.1-1.4-18.1-1.4z" fill="#293380"/><path d="m170.8 341.9h-1.9v-5.9l1.9.3z" fill="#0187ea"/><path d="m178 336.6h1.9v6.4h-1.9z" fill="#0187ea"/><path d="m199.4 333.8 1.9-.2.8 6.4-1.9.2z" fill="#0187ea"/><path d="m188.3 336 1.9-.2.8 6.4-1.9.2z" fill="#0187ea"/><g fill="#e5b38e"><path d="m85.8 266c-5.5-6.2 14.3-25 23.3-31.9 2.2-1.7 5.6-1.2 6.9 1.2.7 1.3-6.7 11.8-6.7 11.8s-17.5 25.7-23.5 18.9z"/><path d="m110.6 238.8c-3-1.5-3.4-3-3.3-6.3.3-11.3 6.9-29.8 6.9-29.8l3.7 1.5-.9 24.3c0 .1-.4 13.2-6.4 10.3z"/><path d="m113.6 196.1s-.2 2.5-.1 4.1-.5 5.4-.5 5.4l4.8.5s3-4.8 3.3-6.2.3-1.6-.1-2.1-5.3-2.1-6.1-2.1c-.8-.2-1.3.4-1.3.4z"/><path d="m115.6 196.6-2-.1.2-3.8c0-.4.4-.8.8-.8h.4c.4 0 .8.4.8.8z"/><path d="m121.1 199.8-1.8-.2.5-3.6c.1-.4.4-.7.8-.6h.3c.4.1.7.4.6.8z"/><path d="m117.5 197.7-2.3-.3.5-3.5c.1-.5.5-.8.9-.7l.6.1c.5.1.8.5.7.9z"/><path d="m119.5 198.6-2-.2.4-3.6c.1-.4.4-.7.9-.7l.5.1c.4.1.7.4.7.9z"/><path d="m68.3 255.7c-6.4 2.8-6.6 27.1-6.3 43.7.1 3.1 3.5 5.4 6.5 4.4 1.6-.5 3.8-14.7 3.8-14.7s5.2-37.4-4-33.4z"/><path d="m65.4 294.9c-3 1.4-3.4 2.9-3.3 6.2.2 11.3 6.6 29.9 6.6 29.9l3.7-1.5-.7-24.3c.1 0-.2-13.2-6.3-10.3z"/><path d="m74.1 328.6 2.5 3.5s.2 3.2.5 4.6c.2 1.4.3 2.3.3 2.3s-.4.2-.9-.5-1.1-2.4-1-2.7-1.5 2.9-1.5 2.9l-3.2-.6s-1.9.5-2.3-1c-.3-1.5-.6-.2-.8-3s.1-3.4.6-4.1c.4-.7.9-1.7 1.1-2.9s-3.3-18-3.3-18l4.7 12.8z"/><path d="m75.4 339c0 .2 0 .4-.1.6-.2.3-.9.3-1.1 0-.3-.3-.3-.9-.3-1.3-.1.3.1 1.2-.2 1.4-.2.2-1 0-1.2-.3-.1-.3-.2-.7-.2-1.2 0 .4-.3 1.2-.6 1.2-.4 0-.8.1-1.1-.3-.2-.4-.3-.8-.3-1.3 0 .5-.2 1.3-.6 1.4-.3.2-.6.1-.9 0-.5-.2-.8-.8-.9-1.4-.6-2.1-.6-3.9-.3-6.1.1-.5 1.4-3.4 1.8-3.8s-.2 1.4.4 1.5 1.1.5 1.6.8c1 .7 1.9 1.6 2.6 2.6.6.8 1.5 1.3 1.7 2.4.1.4 0 .5.1.9-.1.9-.4 2.3-.4 2.9z"/></g><path d="m68 252.7s14.5-3.9 17.4-1.7c6.8 5.1 4.7 3.3 10.6 16.6 6 13.3.9 43.4.9 43.4l-28.1-6s9.5-23.4 5.8-28-9.7-17-9.7-17z" fill="#d2dee5"/><path d="m79.1 260.5 15-14.6 10.9 11.2-15 14.6z" fill="#d2dee5"/><path d="m100.3 269.9c.6 1 1.1 2.1 1.1 3.2-.2 2.1-2.4 3.5-4.3 4.4-.5.2-1.1.5-1.6.2-.3-.2-.4-.6-.5-.9-1-3.4-3.6-11.7-.9-14.4 2.5 1.7 4.5 4.7 6.2 7.5z" fill="#d2dee5"/><path d="m73.6 242.8-2.5 6.3c-.4 2.7 3.7 4.9 6.9 5.1 2.1.2 3.3-.2 3.3-.2 1.7-.8 2.1-1.7 2.2-2.9l1.3-16.5-7.8-.5z" fill="#dd9d84"/><path d="m80.2 222.5c6.3 4.2 9.5 12.7 7.6 20.1-.4 1.5-1.3 3.2-2.8 3.3-.4 0-.9-.1-1.3-.2-7.1-2-12.9-7.8-15.1-14.9-.5-1.7-.8-3.6-.3-5.3.6-1.8 2.1-3.1 3.8-3.8 2.6-1 5.7-.8 8.1.8z" fill="#e5b38e"/><path d="m88.2 229.1c.4.6.7 1.5.2 2.1s-1.4.5-2 0c-.6-.4-1-1.1-1.6-1.6-.9-.7-2.2-.8-3.4-.9-2.2-.2-4.5-.8-6-2.5-3-3.3-.4-7.4 3.7-5.9 3.9 1.5 7.1 5.2 9.1 8.8z" fill="#5d4dcf"/><path d="m61.2 239.1c-6.8 4-9.4 12.5-10 20.4-.4 5.5-.1 11.1 1.9 16.2s5.7 9.7 10.8 11.9c5 2.2 11.4 1.6 15.4-2.2 2.6-2.4 3.9-6.7 1.6-9.3 3.5 1 7.5-.4 9.6-3.3 2.1-3 2-7.2-.2-10.1-3-4.1-9.4-5.3-11.1-10.1-1.7-5 2.8-9.7 4.3-14.7 1.3-4.4 1.8-11.1-1-14.8-7.7-10.4-26.8 3.6-21.3 16z" fill="#5d4dcf"/><path d="m77.5 228.7c-.7 5.3-3.9 9.8-6 14.7-2.2 4.9-3.1 11 .3 15.1 3.4 4 10.1 4.8 12 9.7" style="fill:none;stroke:#7468d0;stroke-width:.6384;stroke-linecap:round;stroke-linejoin:round;stroke-miterlimit:10"/><path d="m71.1 232.1c-2.1 12.3-9.8 17.4-7.8 32.3.5 3.6 4 6 6.1 9s3.6 7 1.8 10.2" style="fill:none;stroke:#7468d0;stroke-width:.6384;stroke-linecap:round;stroke-linejoin:round;stroke-miterlimit:10"/><path d="m57.6 248.6c-1.5 5.4-2.6 10.9-2.5 16.5s1.6 11.2 4.7 15.8" style="fill:none;stroke:#7468d0;stroke-width:.6384;stroke-linecap:round;stroke-linejoin:round;stroke-miterlimit:10"/><path d="m35.9 348.9-16-7.5-5.9 9.4-1.7 4.6 7.2-7.2 13.5 5.8z" fill="#edc0aa"/><path d="m17.5 341.1-5.4 10.8-1 4.5s.6.5 1 .3c1.2-.8 3.8-4.8 3.8-4.8s-1.1.2-1.2-.5c-.1-.6 2.9-5.9 3.8-7.2 1.6-2.1 2.7-2.5 2.5-2.7-.4-.5-3.5-.4-3.5-.4z" fill="#5d4dcf"/><path d="m83.1 308.2 1.9 63.2s-15 14.3-11.3-6.8c.7-3.8-5.7-19.2-8.9-37.7-1.6-9.1-.2-12.2 4-22.1 1.3-2.9 14.3 3.4 14.3 3.4z" fill="url(#j)"/><path d="m69.9 376.2-41.2-22.8 3.4-6.9s36.1 10.4 54.3 21.4c1.6.9-.5 3.7-3.1 6.4-3.5 3.6-9 4.3-13.4 1.9z" fill="url(#k)"/><path d="m66.3 310.6 3.4.8s-2.3 9.1-2.4 10l-2.9 1.8" fill="none" stroke="#fff" stroke-miterlimit="10" stroke-width=".6151"/><path d="m96.3 307.8s12.9 66.7 12.9 67.7-12.1 1.5-12.1 1.5l-23.1-53.3s-1.7-5.7.2-13c.6-2.3 3.2-8.5 3.2-8.5z" fill="url(#m)"/><path d="m80.8 313.6 11 1-1.3 10.9-5.5 2.3-5.1-3.4z" fill="none" stroke="#fff" stroke-miterlimit="10" stroke-width=".6151"/><path d="m57.6 351.5-15.9-7.4-6 9.4-1.7 4.6 7.3-7.2 13.5 5.8z" fill="#edc0aa"/><path d="m39.3 343.8-5.4 10.8-1 4.5s.6.5 1 .3c1.2-.8 3.8-4.8 3.8-4.8s-1.1.2-1.2-.5c-.1-.6 2.9-5.9 3.8-7.2 1.6-2.1 2.7-2.5 2.5-2.7-.4-.5-3.5-.4-3.5-.4z" fill="#5d4dcf"/><path d="m101.6 386.4c-8.2-.8-52.4-32.2-52.4-32.2l2-5.7s34.1 8.8 41.9 14.3c6.6 4.7 16.3 12 16.3 12s3.3 12.7-7.8 11.6z" fill="url(#n)"/><path d="m70.3 300.9 27.2 5.4-.6 4.7-28.1-5.9z" fill="#293380"/><path d="m72.7 301.2 1.6.4-1.2 4.9-1.6-.4z" fill="#f2cf4f"/><path d="m79.6 302.5 1.6.4-1.2 4.9-1.6-.4z" fill="#f2cf4f"/><path d="m86.9 304 1.6.3-.9 4.9-1.6-.3z" fill="#f2cf4f"/><path d="m94.3 305.5 1.6.3-.9 4.9-1.6-.3z" fill="#f2cf4f"/><path d="m407.5 330.2s-4.4 17.6-3.8 29.5.9 16.8 3.1 18.6 6.1 2.9 11.9-.6c2.2-1.3 11.6-40.1 11-47.6s-22.2.1-22.2.1z" fill="#e8b196"/><path d="m416.1 361.7c4.3-2.6 9.1-4.2 13.7-6.1 4.7-1.9 9.3-4.1 12.8-7.7 1.4-1.5 3-3.4 5-3.4s3.6 1.7 4.6 3.5c.9 1.8 1.5 3.8 2.9 5.3 1.1 1.1 2.6 1.8 4.1 2.6 3.3 1.8 6.1 4.4 8.2 7.5-.5.7-1.5.7-2.3.3-.7-.4-1.3-1.1-1.9-1.6-3.4-2.9-9-1.7-12.5-4.5-1.3-1-2.5-2.6-4.1-2.4-.9.1-1.7.8-2.4 1.4-9.1 8.6-17.9 18.1-29.5 22.7-1.5.6-3.1 1.1-4.7.7-3.6-.9-4.6-5.6-3.1-8.6 2.2-4 5.3-7.3 9.2-9.7z" fill="#e8b196"/><path d="m443.8 356.1 6.3-.3c1.5-.6 2.5-2.5 4.1-2.1 1.7.5 4.3 1.4 7.4 3.3-.1-5.7-7.6-8.2-12.2-9.4-2.3-.5-4.7-1-6.8.1l-4.3 3.4z" fill="#e8b196"/><path d="m459.2 352.7c-3.7-3.5-7.6-6.9-11.7-10-.9-.7-1.7-1.3-2.6-2-.1.2-.3.5-.5.8-1.5 2.3-1.9 6.2-1.9 6.2s3-.1 5 2.1.6 4.9 1.4 6.4c.7 1.3 7.4 4 17.9 7.8-.1-.7-.2-1.5-.4-2.1-1-3.7-4.5-6.6-7.2-9.2z" fill="#e33592"/><path d="m467.4 358.5c-2.4-3.3-18.1-18.7-19.8-19.8-1.5-1-1.6.2-2.7 2 .8.7 1.7 1.3 2.6 2 4.1 3.1 8 6.4 11.7 10 2.7 2.6 6.2 5.4 7.3 9.2.2.6.3 1.3.4 2.1.4.1.7.3 1.1.4.8.3 1.6-.4 1.4-1.2-.1-1.2-.7-2.9-2-4.7z" fill="#f5f0c8"/><path d="m456.2 359.9c-.1-.1-.2 0-.1.1-.2-.2-.2-.5-.2-.8.1-.8.3-1.7.8-2.4" fill="none" stroke="#fcf7ee" stroke-miterlimit="10" stroke-width=".7954"/><path d="m454.6 360c-.2-.5-.1-.9 0-1.4.2-.9.6-1.7 1-2.5" fill="none" stroke="#fcf7ee" stroke-miterlimit="10" stroke-width=".7954"/><path d="m453.3 359.4c0-1.3.3-2.5.9-3.6" fill="none" stroke="#fcf7ee" stroke-miterlimit="10" stroke-width=".7954"/><path d="m452.3 358.9c-.3-1.2-.2-2.5.4-3.5" fill="none" stroke="#fcf7ee" stroke-miterlimit="10" stroke-width=".7954"/><path d="m443.7 309.4s4.8 4.1-7.4 6.7-18 2.1-18 2.1l.3-5.1 14.2-5.3c-.1-.1 8.1-1.6 10.9 1.6z" fill="#efc2ac"/><path d="m425.6 271.6c.5 3.9 1.4 7.7 2.4 11.4 1.4 5.3 2.7 10.6 4.1 15.9.7 2.8 1.4 5.6 2.3 8.3.7 2.2 1.5 4.4 3.3 5.8 1.7 1.4 4.6 1.7 6.1 0 1.3-1.5 1-3.6.7-5.5-.4-2.1-.9-4.1-1.4-6.2-2-7.8-4.9-15.4-6.5-23.3-.9-4.5-1.3-11.5-5.3-14.4-5-3.7-6.1 5-5.7 8z" fill="#efc2ac"/><path d="m394.8 179.9-7.1 1.5.7 35.1 1 .8c2.3 2 5.9 1.2 7.2-1.5l1.9-2.3z" fill="#efc2ac"/><path d="m397 171.6s-.3 3.6-.8 5.6-1.3 2.8-1.3 2.8l-7.1 1.5s-1.3-4.8-1.3-6.7c-.1-1.9-.1-2.2.6-2.8.6-.6 7.5-1.5 8.5-1.4.8 0 1.4 1 1.4 1z" fill="#efc2ac"/><path d="m394.2 171.7 2.7.3.6-5c.1-.6-.3-1.1-.9-1.2l-.6-.1c-.6-.1-1.1.3-1.2.9z" fill="#efc2ac"/><path d="m386.3 174.6 2.4.1.2-4.8c0-.5-.4-1-.9-1h-.4c-.5 0-1 .4-1 .9z" fill="#efc2ac"/><path d="m391.5 172.6 3 .1.2-4.7c0-.6-.4-1.1-1.1-1.2h-.8c-.6 0-1.1.4-1.2 1.1z" fill="#efc2ac"/><path d="m388.7 173.5 2.7.2.3-4.8c0-.6-.4-1.1-1-1.1h-.6c-.6 0-1.1.4-1.1 1z" fill="#efc2ac"/><path d="m396.5 159 1 8.1-2.6-.7s0-6.9.3-7.7c.6-1.7 1.1-1 1.1-1z" fill="#efc2ac"/><path d="m438.4 281.9 6.2 21.6-12.2 3.6s-2.4-9.4-2.5-11.2c0-1.7-4.2-14.8-5.3-17.1-1.1-2.4-6.1-18.4 1.4-19.3 10.5-1.2 12.4 22.4 12.4 22.4z" fill="#ff3ca4"/><path d="m403 250.5-4-44.4v-2.6l-12.7.7s3.5 34.3 4 35.9c.5 1.7 1.7 16 1.5 18.6s.3 15.5 8.8 14.2c8.6-1.1 2.4-22.4 2.4-22.4z" fill="#ff3ca4"/><path d="m414.1 256.7s-14.1-.4-17.1.8c-3 1.1-8.3-2.2.3 26.1 3 10-.5 22.1-3.4 28.5-3 6.4-3.2 12.1-3.2 12.1l40-.7s-4.6-15.7-4.3-25.6 7.5-29.7 7.1-31.9c-1.7-8.5-16.6-9.2-19.4-9.3z" fill="#ff3ca4"/><g clip-path="url(#o)" fill="#fefefe"><path d="m368.1 206.1c-.1.8-.8 1.3-1.6 1.3-.8-.1-1.3-.8-1.3-1.6.1-.8.8-1.3 1.6-1.3.8.1 1.3.8 1.3 1.6z"/><path d="m375.9 206.9c-.1.8-.8 1.3-1.6 1.3-.8-.1-1.3-.8-1.3-1.6.1-.8.8-1.3 1.6-1.3.8.2 1.4.9 1.3 1.6z"/><path d="m383.7 207.8c-.1.8-.8 1.3-1.6 1.3-.8-.1-1.3-.8-1.3-1.6.1-.8.8-1.3 1.6-1.3.8.1 1.4.8 1.3 1.6z"/><path d="m391.5 208.6c-.1.8-.8 1.3-1.6 1.3-.8-.1-1.3-.8-1.3-1.6.1-.8.8-1.3 1.6-1.3.8.1 1.4.8 1.3 1.6z"/><path d="m399.3 209.5c-.1.8-.8 1.3-1.6 1.3-.8-.1-1.3-.8-1.3-1.6.1-.8.8-1.3 1.6-1.3.9.1 1.4.8 1.3 1.6z"/><path d="m407.2 210.3c-.1.8-.8 1.3-1.6 1.3-.8-.1-1.3-.8-1.3-1.6.1-.8.8-1.3 1.6-1.3.8.1 1.3.8 1.3 1.6z"/><path d="m415 211.1c-.1.8-.8 1.3-1.6 1.3-.8-.1-1.3-.8-1.3-1.6s.8-1.3 1.6-1.3c.8.1 1.4.8 1.3 1.6z"/><path d="m371.9 213.6c-.1.8-.8 1.3-1.6 1.3-.8-.1-1.3-.8-1.3-1.6s.8-1.3 1.6-1.3c.8.1 1.3.8 1.3 1.6z"/><path d="m379.7 214.4c-.1.8-.8 1.3-1.6 1.3-.8-.1-1.3-.8-1.3-1.6.1-.8.8-1.3 1.6-1.3.8.2 1.4.9 1.3 1.6z"/><path d="m387.5 215.3c-.1.8-.8 1.3-1.6 1.3-.8-.1-1.3-.8-1.3-1.6.1-.8.8-1.3 1.6-1.3.8.1 1.4.8 1.3 1.6z"/><path d="m395.3 216.1c-.1.8-.8 1.3-1.6 1.3-.8-.1-1.3-.8-1.3-1.6.1-.8.8-1.3 1.6-1.3.8.1 1.4.8 1.3 1.6z"/><path d="m403.1 216.9c-.1.8-.8 1.3-1.6 1.3-.8-.1-1.3-.8-1.3-1.6.1-.8.8-1.3 1.6-1.3.9.2 1.4.9 1.3 1.6z"/><path d="m411 217.8c-.1.8-.8 1.3-1.6 1.3-.8-.1-1.3-.8-1.3-1.6.1-.8.8-1.3 1.6-1.3.8.1 1.3.8 1.3 1.6z"/><path d="m418.8 218.6c-.1.8-.8 1.3-1.6 1.3-.8-.1-1.3-.8-1.3-1.6.1-.8.8-1.3 1.6-1.3.8.1 1.4.8 1.3 1.6z"/><path d="m365.1 220.7c-.1.8-.8 1.3-1.6 1.3-.8-.1-1.3-.8-1.3-1.6.1-.8.8-1.3 1.6-1.3.8.1 1.4.8 1.3 1.6z"/><path d="m372.9 221.5c-.1.8-.8 1.3-1.6 1.3-.8-.1-1.3-.8-1.3-1.6.1-.8.8-1.3 1.6-1.3.8.1 1.4.8 1.3 1.6z"/><path d="m380.7 222.3c-.1.8-.8 1.3-1.6 1.3-.8-.1-1.3-.8-1.3-1.6.1-.8.8-1.3 1.6-1.3.8.2 1.4.9 1.3 1.6z"/><path d="m388.5 223.2c-.1.8-.8 1.3-1.6 1.3-.8-.1-1.3-.8-1.3-1.6.1-.8.8-1.3 1.6-1.3.9.1 1.4.8 1.3 1.6z"/><path d="m396.4 224c-.1.8-.8 1.3-1.6 1.3-.8-.1-1.3-.8-1.3-1.6.1-.8.8-1.3 1.6-1.3.8.1 1.4.8 1.3 1.6z"/><path d="m404.2 224.8c-.1.8-.8 1.3-1.6 1.3-.8-.1-1.3-.8-1.3-1.6.1-.8.8-1.3 1.6-1.3.8.2 1.4.9 1.3 1.6z"/><path d="m412 225.7c-.1.8-.8 1.3-1.6 1.3-.8-.1-1.3-.8-1.3-1.6.1-.8.8-1.3 1.6-1.3.8.1 1.4.8 1.3 1.6z"/><path d="m368.9 228.2c-.1.8-.8 1.3-1.6 1.3-.8-.1-1.3-.8-1.3-1.6.1-.8.8-1.3 1.6-1.3.8.1 1.4.8 1.3 1.6z"/><path d="m376.7 229c-.1.8-.8 1.3-1.6 1.3-.8-.1-1.3-.8-1.3-1.6.1-.8.8-1.3 1.6-1.3.8.1 1.4.8 1.3 1.6z"/><path d="m384.5 229.8c-.1.8-.8 1.3-1.6 1.3-.8-.1-1.3-.8-1.3-1.6.1-.8.8-1.3 1.6-1.3.9.1 1.4.8 1.3 1.6z"/><path d="m392.4 230.7c-.1.8-.8 1.3-1.6 1.3-.8-.1-1.3-.8-1.3-1.6.1-.8.8-1.3 1.6-1.3.8.1 1.3.8 1.3 1.6z"/><path d="m400.2 231.5c-.1.8-.8 1.3-1.6 1.3-.8-.1-1.3-.8-1.3-1.6.1-.8.8-1.3 1.6-1.3.8.1 1.4.8 1.3 1.6z"/><path d="m408 232.3c-.1.8-.8 1.3-1.6 1.3-.8-.1-1.3-.8-1.3-1.6.1-.8.8-1.3 1.6-1.3.8.2 1.4.9 1.3 1.6z"/><path d="m415.8 233.2c-.1.8-.8 1.3-1.6 1.3-.8-.1-1.3-.8-1.3-1.6.1-.8.8-1.3 1.6-1.3.8.1 1.4.8 1.3 1.6z"/><path d="m365.1 234.1c-.1.8-.8 1.3-1.6 1.3-.8-.1-1.3-.8-1.3-1.6.1-.8.8-1.3 1.6-1.3.8.1 1.4.8 1.3 1.6z"/><path d="m372.9 235c-.1.8-.8 1.3-1.6 1.3-.8-.1-1.3-.8-1.3-1.6.1-.8.8-1.3 1.6-1.3.8.1 1.4.8 1.3 1.6z"/><path d="m380.7 235.8c-.1.8-.8 1.3-1.6 1.3-.8-.1-1.3-.8-1.3-1.6.1-.8.8-1.3 1.6-1.3.8.1 1.4.8 1.3 1.6z"/><path d="m388.5 236.6c-.1.8-.8 1.3-1.6 1.3-.8-.1-1.3-.8-1.3-1.6.1-.8.8-1.3 1.6-1.3.8.1 1.4.8 1.3 1.6z"/><path d="m396.3 237.5c-.1.8-.8 1.3-1.6 1.3-.8-.1-1.3-.8-1.3-1.6.1-.8.8-1.3 1.6-1.3.9.1 1.4.8 1.3 1.6z"/><path d="m404.2 238.3c-.1.8-.8 1.3-1.6 1.3-.8-.1-1.3-.8-1.3-1.6.1-.8.8-1.3 1.6-1.3.8.1 1.4.8 1.3 1.6z"/><path d="m412 239.1c-.1.8-.8 1.3-1.6 1.3-.8-.1-1.3-.8-1.3-1.6.1-.8.8-1.3 1.6-1.3.8.2 1.4.9 1.3 1.6z"/><path d="m368.9 241.6c-.1.8-.8 1.3-1.6 1.3-.8-.1-1.3-.8-1.3-1.6.1-.8.8-1.3 1.6-1.3.8.1 1.4.8 1.3 1.6z"/><path d="m376.7 242.4c-.1.8-.8 1.3-1.6 1.3-.8-.1-1.3-.8-1.3-1.6.1-.8.8-1.3 1.6-1.3.8.2 1.4.9 1.3 1.6z"/><path d="m384.5 243.3c-.1.8-.8 1.3-1.6 1.3-.8-.1-1.3-.8-1.3-1.6.1-.8.8-1.3 1.6-1.3s1.4.8 1.3 1.6z"/><path d="m392.3 244.1c-.1.8-.8 1.3-1.6 1.3-.8-.1-1.3-.8-1.3-1.6.1-.8.8-1.3 1.6-1.3.8.1 1.4.8 1.3 1.6z"/><path d="m400.2 245c-.1.8-.8 1.3-1.6 1.3-.8-.1-1.3-.8-1.3-1.6.1-.8.8-1.3 1.6-1.3.8.1 1.3.8 1.3 1.6z"/><path d="m408 245.8c-.1.8-.8 1.3-1.6 1.3-.8-.1-1.3-.8-1.3-1.6.1-.8.8-1.3 1.6-1.3.8.1 1.4.8 1.3 1.6z"/><path d="m415.8 246.6c-.1.8-.8 1.3-1.6 1.3-.8-.1-1.3-.8-1.3-1.6.1-.8.8-1.3 1.6-1.3.8.1 1.4.8 1.3 1.6z"/><path d="m362.1 248.7c-.1.8-.8 1.3-1.6 1.3-.8-.1-1.3-.8-1.3-1.6s.8-1.3 1.6-1.3c.8.1 1.4.8 1.3 1.6z"/><path d="m369.9 249.5c-.1.8-.8 1.3-1.6 1.3-.8-.1-1.3-.8-1.3-1.6.1-.8.8-1.3 1.6-1.3.8.1 1.4.8 1.3 1.6z"/><path d="m377.7 250.4c-.1.8-.8 1.3-1.6 1.3-.8-.1-1.3-.8-1.3-1.6.1-.8.8-1.3 1.6-1.3.9.1 1.4.8 1.3 1.6z"/><path d="m385.6 251.2c-.1.8-.8 1.3-1.6 1.3-.8-.1-1.3-.8-1.3-1.6.1-.8.8-1.3 1.6-1.3.8.1 1.3.8 1.3 1.6z"/><path d="m393.4 252c-.1.8-.8 1.3-1.6 1.3-.8-.1-1.3-.8-1.3-1.6.1-.8.8-1.3 1.6-1.3.8.1 1.4.8 1.3 1.6z"/><path d="m401.2 252.9c-.1.8-.8 1.3-1.6 1.3-.8-.1-1.3-.8-1.3-1.6.1-.8.8-1.3 1.6-1.3.8.1 1.4.8 1.3 1.6z"/><path d="m409 253.7c-.1.8-.8 1.3-1.6 1.3-.8-.1-1.3-.8-1.3-1.6.1-.8.8-1.3 1.6-1.3.8.1 1.4.8 1.3 1.6z"/><path d="m365.9 256.2c-.1.8-.8 1.3-1.6 1.3-.8-.1-1.3-.8-1.3-1.6.1-.8.8-1.3 1.6-1.3.8.1 1.4.8 1.3 1.6z"/><path d="m373.7 257c-.1.8-.8 1.3-1.6 1.3-.8-.1-1.3-.8-1.3-1.6.1-.8.8-1.3 1.6-1.3.8.1 1.4.8 1.3 1.6z"/><path d="m381.5 257.8c-.1.8-.8 1.3-1.6 1.3-.8-.1-1.3-.8-1.3-1.6.1-.8.8-1.3 1.6-1.3.9.2 1.4.9 1.3 1.6z"/><path d="m389.4 258.7c-.1.8-.8 1.3-1.6 1.3-.8-.1-1.3-.8-1.3-1.6.1-.8.8-1.3 1.6-1.3.8.1 1.3.8 1.3 1.6z"/><path d="m397.2 259.5c-.1.8-.8 1.3-1.6 1.3-.8-.1-1.3-.8-1.3-1.6.1-.8.8-1.3 1.6-1.3.8.1 1.4.8 1.3 1.6z"/><path d="m405 260.3c-.1.8-.8 1.3-1.6 1.3-.8-.1-1.3-.8-1.3-1.6.1-.8.8-1.3 1.6-1.3.8.2 1.4.9 1.3 1.6z"/><path d="m361.8 264.4c-.1.8-.8 1.3-1.6 1.3-.8-.1-1.3-.8-1.3-1.6.1-.8.8-1.3 1.6-1.3.8.2 1.4.9 1.3 1.6z"/><path d="m369.7 265.3c-.1.8-.8 1.3-1.6 1.3-.8-.1-1.3-.8-1.3-1.6.1-.8.8-1.3 1.6-1.3.8.1 1.3.8 1.3 1.6z"/><path d="m377.5 266.1c-.1.8-.8 1.3-1.6 1.3-.8-.1-1.3-.8-1.3-1.6.1-.8.8-1.3 1.6-1.3.8.1 1.4.8 1.3 1.6z"/><path d="m385.3 266.9c-.1.8-.8 1.3-1.6 1.3-.8-.1-1.3-.8-1.3-1.6.1-.8.8-1.3 1.6-1.3.8.2 1.4.9 1.3 1.6z"/><path d="m393.1 267.8c-.1.8-.8 1.3-1.6 1.3-.8-.1-1.3-.8-1.3-1.6.1-.8.8-1.3 1.6-1.3.8.1 1.4.8 1.3 1.6z"/><path d="m400.9 268.6c-.1.8-.8 1.3-1.6 1.3-.8-.1-1.3-.8-1.3-1.6.1-.8.8-1.3 1.6-1.3s1.4.8 1.3 1.6z"/><path d="m408.7 269.5c-.1.8-.8 1.3-1.6 1.3-.8-.1-1.3-.8-1.3-1.6.1-.8.8-1.3 1.6-1.3.9.1 1.4.8 1.3 1.6z"/><path d="m365.6 271.9c-.1.8-.8 1.3-1.6 1.3-.8-.1-1.3-.8-1.3-1.6.1-.8.8-1.3 1.6-1.3.9.1 1.4.9 1.3 1.6z"/><path d="m373.5 272.8c-.1.8-.8 1.3-1.6 1.3-.8-.1-1.3-.8-1.3-1.6.1-.8.8-1.3 1.6-1.3.8.1 1.3.8 1.3 1.6z"/><path d="m381.3 273.6c-.1.8-.8 1.3-1.6 1.3-.8-.1-1.3-.8-1.3-1.6.1-.8.8-1.3 1.6-1.3.8.1 1.4.8 1.3 1.6z"/><path d="m389.1 274.4c-.1.8-.8 1.3-1.6 1.3-.8-.1-1.3-.8-1.3-1.6.1-.8.8-1.3 1.6-1.3.8.2 1.4.9 1.3 1.6z"/><path d="m396.9 275.3c-.1.8-.8 1.3-1.6 1.3-.8-.1-1.3-.8-1.3-1.6.1-.8.8-1.3 1.6-1.3s1.4.8 1.3 1.6z"/><path d="m404.7 276.1c-.1.8-.8 1.3-1.6 1.3-.8-.1-1.3-.8-1.3-1.6s.8-1.3 1.6-1.3 1.4.8 1.3 1.6z"/><path d="m412.6 276.9c-.1.8-.8 1.3-1.6 1.3-.8-.1-1.3-.8-1.3-1.6.1-.8.8-1.3 1.6-1.3.8.2 1.3.9 1.3 1.6z"/><path d="m358.9 279c-.1.8-.8 1.3-1.6 1.3-.8-.1-1.3-.8-1.3-1.6.1-.8.8-1.3 1.6-1.3.8.1 1.3.8 1.3 1.6z"/><path d="m366.7 279.8c-.1.8-.8 1.3-1.6 1.3-.8-.1-1.3-.8-1.3-1.6.1-.8.8-1.3 1.6-1.3s1.4.9 1.3 1.6z"/><path d="m374.5 280.7c-.1.8-.8 1.3-1.6 1.3-.8-.1-1.3-.8-1.3-1.6.1-.8.8-1.3 1.6-1.3.8.1 1.4.8 1.3 1.6z"/><path d="m382.3 281.5c-.1.8-.8 1.3-1.6 1.3-.8-.1-1.3-.8-1.3-1.6.1-.8.8-1.3 1.6-1.3.8.1 1.4.8 1.3 1.6z"/><path d="m390.1 282.3c-.1.8-.8 1.3-1.6 1.3-.8-.1-1.3-.8-1.3-1.6.1-.8.8-1.3 1.6-1.3.9.2 1.4.9 1.3 1.6z"/><path d="m398 283.2c-.1.8-.8 1.3-1.6 1.3-.8-.1-1.3-.8-1.3-1.6.1-.8.8-1.3 1.6-1.3.8.1 1.3.8 1.3 1.6z"/><path d="m405.8 284c-.1.8-.8 1.3-1.6 1.3-.8-.1-1.3-.8-1.3-1.6.1-.8.8-1.3 1.6-1.3.8.1 1.4.8 1.3 1.6z"/><path d="m362.7 286.5c-.1.8-.8 1.3-1.6 1.3-.8-.1-1.3-.8-1.3-1.6.1-.8.8-1.3 1.6-1.3.8.1 1.3.8 1.3 1.6z"/><path d="m370.5 287.3c-.1.8-.8 1.3-1.6 1.3-.8-.1-1.3-.8-1.3-1.6.1-.8.8-1.3 1.6-1.3.8.1 1.4.8 1.3 1.6z"/><path d="m378.3 288.2c-.1.8-.8 1.3-1.6 1.3-.8-.1-1.3-.8-1.3-1.6.1-.8.8-1.3 1.6-1.3.8.1 1.4.8 1.3 1.6z"/><path d="m386.1 289c-.1.8-.8 1.3-1.6 1.3-.8-.1-1.3-.8-1.3-1.6.1-.8.8-1.3 1.6-1.3.8.1 1.4.8 1.3 1.6z"/><path d="m393.9 289.8c-.1.8-.8 1.3-1.6 1.3-.8-.1-1.3-.8-1.3-1.6.1-.8.8-1.3 1.6-1.3.9.1 1.4.8 1.3 1.6z"/><path d="m401.8 290.7c-.1.8-.8 1.3-1.6 1.3-.8-.1-1.3-.8-1.3-1.6.1-.8.8-1.3 1.6-1.3.8.1 1.3.8 1.3 1.6z"/><path d="m409.6 291.5c-.1.8-.8 1.3-1.6 1.3-.8-.1-1.3-.8-1.3-1.6.1-.8.8-1.3 1.6-1.3.8.1 1.4.8 1.3 1.6z"/><path d="m358.8 292.5c-.1.8-.8 1.3-1.6 1.3-.8-.1-1.3-.8-1.3-1.6.1-.8.8-1.3 1.6-1.3.9.1 1.4.8 1.3 1.6z"/><path d="m366.7 293.3c-.1.8-.8 1.3-1.6 1.3-.8-.1-1.3-.8-1.3-1.6.1-.8.8-1.3 1.6-1.3.8.1 1.3.8 1.3 1.6z"/><path d="m374.5 294.1c-.1.8-.8 1.3-1.6 1.3-.8-.1-1.3-.8-1.3-1.6.1-.8.8-1.3 1.6-1.3.8.1 1.4.8 1.3 1.6z"/><path d="m382.3 295c-.1.8-.8 1.3-1.6 1.3-.8-.1-1.3-.8-1.3-1.6.1-.8.8-1.3 1.6-1.3.8.1 1.4.8 1.3 1.6z"/><path d="m390.1 295.8c-.1.8-.8 1.3-1.6 1.3-.8-.1-1.3-.8-1.3-1.6.1-.8.8-1.3 1.6-1.3.8.1 1.4.8 1.3 1.6z"/><path d="m397.9 296.6c-.1.8-.8 1.3-1.6 1.3-.8-.1-1.3-.8-1.3-1.6.1-.8.8-1.3 1.6-1.3.9.1 1.4.8 1.3 1.6z"/><path d="m405.8 297.5c-.1.8-.8 1.3-1.6 1.3-.8-.1-1.3-.8-1.3-1.6.1-.8.8-1.3 1.6-1.3.8.1 1.3.8 1.3 1.6z"/><path d="m362.6 299.9c-.1.8-.8 1.3-1.6 1.3-.8-.1-1.3-.8-1.3-1.6.1-.8.8-1.3 1.6-1.3.9.2 1.4.9 1.3 1.6z"/><path d="m370.5 300.8c-.1.8-.8 1.3-1.6 1.3-.8-.1-1.3-.8-1.3-1.6.1-.8.8-1.3 1.6-1.3.8.1 1.3.8 1.3 1.6z"/><path d="m378.3 301.6c-.1.8-.8 1.3-1.6 1.3-.8-.1-1.3-.8-1.3-1.6.1-.8.8-1.3 1.6-1.3.8.1 1.4.8 1.3 1.6z"/><path d="m386.1 302.4c-.1.8-.8 1.3-1.6 1.3-.8-.1-1.3-.8-1.3-1.6.1-.8.8-1.3 1.6-1.3.8.2 1.4.9 1.3 1.6z"/><path d="m393.9 303.3c-.1.8-.8 1.3-1.6 1.3-.8-.1-1.3-.8-1.3-1.6.1-.8.8-1.3 1.6-1.3.8.1 1.4.8 1.3 1.6z"/><path d="m401.7 304.1c-.1.8-.8 1.3-1.6 1.3-.8-.1-1.3-.8-1.3-1.6.1-.8.8-1.3 1.6-1.3.9.1 1.4.8 1.3 1.6z"/><path d="m409.6 305c-.1.8-.8 1.3-1.6 1.3-.8-.1-1.3-.8-1.3-1.6.1-.8.8-1.3 1.6-1.3.8.1 1.3.8 1.3 1.6z"/><path d="m355.9 307c-.1.8-.8 1.3-1.6 1.3-.8-.1-1.3-.8-1.3-1.6.1-.8.8-1.3 1.6-1.3.8.1 1.4.8 1.3 1.6z"/><path d="m363.7 307.8c-.1.8-.8 1.3-1.6 1.3-.8-.1-1.3-.8-1.3-1.6.1-.8.8-1.3 1.6-1.3.8.2 1.4.9 1.3 1.6z"/><path d="m371.5 308.7c-.1.8-.8 1.3-1.6 1.3-.8-.1-1.3-.8-1.3-1.6.1-.8.8-1.3 1.6-1.3.8.1 1.4.8 1.3 1.6z"/><path d="m379.3 309.5c-.1.8-.8 1.3-1.6 1.3-.8-.1-1.3-.8-1.3-1.6.1-.8.8-1.3 1.6-1.3.8.1 1.4.8 1.3 1.6z"/><path d="m387.1 310.4c-.1.8-.8 1.3-1.6 1.3-.8-.1-1.3-.8-1.3-1.6.1-.8.8-1.3 1.6-1.3.9.1 1.4.8 1.3 1.6z"/><path d="m395 311.2c-.1.8-.8 1.3-1.6 1.3-.8-.1-1.3-.8-1.3-1.6.1-.8.8-1.3 1.6-1.3.8.1 1.3.8 1.3 1.6z"/><path d="m402.8 312c-.1.8-.8 1.3-1.6 1.3-.8-.1-1.3-.8-1.3-1.6.1-.8.8-1.3 1.6-1.3.8.1 1.4.8 1.3 1.6z"/><path d="m359.7 314.5c-.1.8-.8 1.3-1.6 1.3-.8-.1-1.3-.8-1.3-1.6.1-.8.8-1.3 1.6-1.3.8.1 1.4.8 1.3 1.6z"/><path d="m367.5 315.3c-.1.8-.8 1.3-1.6 1.3-.8-.1-1.3-.8-1.3-1.6.1-.8.8-1.3 1.6-1.3.8.2 1.4.9 1.3 1.6z"/><path d="m375.3 316.2c-.1.8-.8 1.3-1.6 1.3-.8-.1-1.3-.8-1.3-1.6.1-.8.8-1.3 1.6-1.3.8.1 1.4.8 1.3 1.6z"/><path d="m383.1 317c-.1.8-.8 1.3-1.6 1.3-.8-.1-1.3-.8-1.3-1.6.1-.8.8-1.3 1.6-1.3.8.1 1.4.8 1.3 1.6z"/><path d="m391 317.8c-.1.8-.8 1.3-1.6 1.3-.8-.1-1.3-.8-1.3-1.6.1-.8.8-1.3 1.6-1.3.8.2 1.3.9 1.3 1.6z"/><path d="m398.8 318.7c-.1.8-.8 1.3-1.6 1.3-.8-.1-1.3-.8-1.3-1.6.1-.8.8-1.3 1.6-1.3.8.1 1.4.8 1.3 1.6z"/><path d="m406.6 319.5c-.1.8-.8 1.3-1.6 1.3-.8-.1-1.3-.8-1.3-1.6.1-.8.8-1.3 1.6-1.3.8.1 1.4.8 1.3 1.6z"/><path d="m422.7 211.9c-.1.8-.8 1.3-1.6 1.3-.8-.1-1.3-.8-1.3-1.6.1-.8.8-1.3 1.6-1.3.8.2 1.4.9 1.3 1.6z"/><path d="m430.5 212.8c-.1.8-.8 1.3-1.6 1.3-.8-.1-1.3-.8-1.3-1.6.1-.8.8-1.3 1.6-1.3.8.1 1.4.8 1.3 1.6z"/><path d="m438.3 213.6c-.1.8-.8 1.3-1.6 1.3-.8-.1-1.3-.8-1.3-1.6.1-.8.8-1.3 1.6-1.3.8.1 1.4.8 1.3 1.6z"/><path d="m446.1 214.5c-.1.8-.8 1.3-1.6 1.3-.8-.1-1.3-.8-1.3-1.6.1-.8.8-1.3 1.6-1.3.9.1 1.4.8 1.3 1.6z"/><path d="m454 215.3c-.1.8-.8 1.3-1.6 1.3-.8-.1-1.3-.8-1.3-1.6s.8-1.3 1.6-1.3c.8.1 1.3.8 1.3 1.6z"/><path d="m461.8 216.1c-.1.8-.8 1.3-1.6 1.3-.8-.1-1.3-.8-1.3-1.6.1-.8.8-1.3 1.6-1.3.8.1 1.4.8 1.3 1.6z"/><path d="m469.6 217c-.1.8-.8 1.3-1.6 1.3-.8-.1-1.3-.8-1.3-1.6.1-.8.8-1.3 1.6-1.3.8.1 1.4.8 1.3 1.6z"/><path d="m426.5 219.4c-.1.8-.8 1.3-1.6 1.3-.8-.1-1.3-.8-1.3-1.6.1-.8.8-1.3 1.6-1.3.8.2 1.4.9 1.3 1.6z"/><path d="m434.3 220.3c-.1.8-.8 1.3-1.6 1.3-.8-.1-1.3-.8-1.3-1.6.1-.8.8-1.3 1.6-1.3.8.1 1.4.8 1.3 1.6z"/><path d="m442.1 221.1c-.1.8-.8 1.3-1.6 1.3-.8-.1-1.3-.8-1.3-1.6.1-.8.8-1.3 1.6-1.3.8.1 1.4.8 1.3 1.6z"/><path d="m449.9 221.9c-.1.8-.8 1.3-1.6 1.3-.8-.1-1.3-.8-1.3-1.6.1-.8.8-1.3 1.6-1.3.9.2 1.4.9 1.3 1.6z"/><path d="m457.8 222.8c-.1.8-.8 1.3-1.6 1.3-.8-.1-1.3-.8-1.3-1.6.1-.8.8-1.3 1.6-1.3.8.1 1.3.8 1.3 1.6z"/><path d="m465.6 223.6c-.1.8-.8 1.3-1.6 1.3-.8-.1-1.3-.8-1.3-1.6.1-.8.8-1.3 1.6-1.3.8.1 1.4.8 1.3 1.6z"/><path d="m473.4 224.4c-.1.8-.8 1.3-1.6 1.3-.8-.1-1.3-.8-1.3-1.6.1-.8.8-1.3 1.6-1.3.8.2 1.4.9 1.3 1.6z"/><path d="m419.7 226.5c-.1.8-.8 1.3-1.6 1.3-.8-.1-1.3-.8-1.3-1.6.1-.8.8-1.3 1.6-1.3.8.1 1.4.8 1.3 1.6z"/><path d="m427.5 227.3c-.1.8-.8 1.3-1.6 1.3-.8-.1-1.3-.8-1.3-1.6.1-.8.8-1.3 1.6-1.3.8.2 1.4.9 1.3 1.6z"/><path d="m435.3 228.2c-.1.8-.8 1.3-1.6 1.3-.8-.1-1.3-.8-1.3-1.6.1-.8.8-1.3 1.6-1.3.9.1 1.4.8 1.3 1.6z"/><path d="m443.2 229c-.1.8-.8 1.3-1.6 1.3-.8-.1-1.3-.8-1.3-1.6s.8-1.3 1.6-1.3c.8.1 1.4.8 1.3 1.6z"/><path d="m451 229.8c-.1.8-.8 1.3-1.6 1.3-.8-.1-1.3-.8-1.3-1.6.1-.8.8-1.3 1.6-1.3.8.2 1.4.9 1.3 1.6z"/><path d="m458.8 230.7c-.1.8-.8 1.3-1.6 1.3-.8-.1-1.3-.8-1.3-1.6.1-.8.8-1.3 1.6-1.3.8.1 1.4.8 1.3 1.6z"/><path d="m466.6 231.5c-.1.8-.8 1.3-1.6 1.3-.8-.1-1.3-.8-1.3-1.6.1-.8.8-1.3 1.6-1.3.8.1 1.4.8 1.3 1.6z"/><path d="m423.5 234c-.1.8-.8 1.3-1.6 1.3-.8-.1-1.3-.8-1.3-1.6.1-.8.8-1.3 1.6-1.3.8.1 1.4.8 1.3 1.6z"/><path d="m431.3 234.8c-.1.8-.8 1.3-1.6 1.3-.8-.1-1.3-.8-1.3-1.6.1-.8.8-1.3 1.6-1.3.8.1 1.4.8 1.3 1.6z"/><path d="m439.2 235.7c-.1.8-.8 1.3-1.6 1.3-.8-.1-1.3-.8-1.3-1.6.1-.8.8-1.3 1.6-1.3.8.1 1.3.8 1.3 1.6z"/><path d="m447 236.5c-.1.8-.8 1.3-1.6 1.3-.8-.1-1.3-.8-1.3-1.6.1-.8.8-1.3 1.6-1.3.8.1 1.4.8 1.3 1.6z"/><path d="m454.8 237.3c-.1.8-.8 1.3-1.6 1.3-.8-.1-1.3-.8-1.3-1.6.1-.8.8-1.3 1.6-1.3.8.2 1.4.9 1.3 1.6z"/><path d="m462.6 238.2c-.1.8-.8 1.3-1.6 1.3-.8-.1-1.3-.8-1.3-1.6.1-.8.8-1.3 1.6-1.3.8.1 1.4.8 1.3 1.6z"/><path d="m470.4 239c-.1.8-.8 1.3-1.6 1.3-.8-.1-1.3-.8-1.3-1.6.1-.8.8-1.3 1.6-1.3.8.1 1.4.8 1.3 1.6z"/><path d="m419.7 240c-.1.8-.8 1.3-1.6 1.3-.8-.1-1.3-.8-1.3-1.6.1-.8.8-1.3 1.6-1.3.8.1 1.4.8 1.3 1.6z"/><path d="m427.5 240.8c-.1.8-.8 1.3-1.6 1.3-.8-.1-1.3-.8-1.3-1.6s.8-1.3 1.6-1.3c.8.1 1.4.8 1.3 1.6z"/><path d="m435.3 241.6c-.1.8-.8 1.3-1.6 1.3-.8-.1-1.3-.8-1.3-1.6.1-.8.8-1.3 1.6-1.3.8.1 1.4.8 1.3 1.6z"/><path d="m443.1 242.5c-.1.8-.8 1.3-1.6 1.3-.8-.1-1.3-.8-1.3-1.6.1-.8.8-1.3 1.6-1.3.9.1 1.4.8 1.3 1.6z"/><path d="m451 243.3c-.1.8-.8 1.3-1.6 1.3-.8-.1-1.3-.8-1.3-1.6.1-.8.8-1.3 1.6-1.3.8.1 1.4.8 1.3 1.6z"/><path d="m458.8 244.1c-.1.8-.8 1.3-1.6 1.3-.8-.1-1.3-.8-1.3-1.6.1-.8.8-1.3 1.6-1.3.8.2 1.4.9 1.3 1.6z"/><path d="m466.6 245c-.1.8-.8 1.3-1.6 1.3-.8-.1-1.3-.8-1.3-1.6.1-.8.8-1.3 1.6-1.3.8.1 1.4.8 1.3 1.6z"/><path d="m423.5 247.4c-.1.8-.8 1.3-1.6 1.3-.8-.1-1.3-.8-1.3-1.6.1-.8.8-1.3 1.6-1.3.8.2 1.4.9 1.3 1.6z"/><path d="m431.3 248.3c-.1.8-.8 1.3-1.6 1.3-.8-.1-1.3-.8-1.3-1.6.1-.8.8-1.3 1.6-1.3.8.1 1.4.8 1.3 1.6z"/><path d="m439.1 249.1c-.1.8-.8 1.3-1.6 1.3-.8-.1-1.3-.8-1.3-1.6.1-.8.8-1.3 1.6-1.3.8.1 1.4.8 1.3 1.6z"/><path d="m447 250c-.1.8-.8 1.3-1.6 1.3-.8-.1-1.3-.8-1.3-1.6.1-.8.8-1.3 1.6-1.3.8.1 1.3.8 1.3 1.6z"/><path d="m454.8 250.8c-.1.8-.8 1.3-1.6 1.3-.8-.1-1.3-.8-1.3-1.6s.8-1.3 1.6-1.3c.8.1 1.4.8 1.3 1.6z"/><path d="m462.6 251.6c-.1.8-.8 1.3-1.6 1.3-.8-.1-1.3-.8-1.3-1.6.1-.8.8-1.3 1.6-1.3.8.1 1.4.8 1.3 1.6z"/><path d="m470.4 252.5c-.1.8-.8 1.3-1.6 1.3-.8-.1-1.3-.8-1.3-1.6.1-.8.8-1.3 1.6-1.3.8.1 1.4.8 1.3 1.6z"/><path d="m416.7 254.5c-.1.8-.8 1.3-1.6 1.3-.8-.1-1.3-.8-1.3-1.6.1-.8.8-1.3 1.6-1.3.8.1 1.4.8 1.3 1.6z"/><path d="m424.5 255.3c-.1.8-.8 1.3-1.6 1.3-.8-.1-1.3-.8-1.3-1.6.1-.8.8-1.3 1.6-1.3.9.2 1.4.9 1.3 1.6z"/><path d="m432.4 256.2c-.1.8-.8 1.3-1.6 1.3-.8-.1-1.3-.8-1.3-1.6.1-.8.8-1.3 1.6-1.3.8.1 1.3.8 1.3 1.6z"/><path d="m440.2 257c-.1.8-.8 1.3-1.6 1.3-.8-.1-1.3-.8-1.3-1.6.1-.8.8-1.3 1.6-1.3.8.1 1.4.8 1.3 1.6z"/><path d="m448 257.9c-.1.8-.8 1.3-1.6 1.3-.8-.1-1.3-.8-1.3-1.6.1-.8.8-1.3 1.6-1.3.8.1 1.4.8 1.3 1.6z"/><path d="m455.8 258.7c-.1.8-.8 1.3-1.6 1.3s-1.3-.8-1.3-1.6c.1-.8.8-1.3 1.6-1.3.8.1 1.4.8 1.3 1.6z"/><path d="m463.6 259.5c-.1.8-.8 1.3-1.6 1.3-.8-.1-1.3-.8-1.3-1.6.1-.8.8-1.3 1.6-1.3.9.1 1.4.8 1.3 1.6z"/><path d="m428.3 262.8c-.1.8-.8 1.3-1.6 1.3-.8-.1-1.3-.8-1.3-1.6.1-.8.8-1.3 1.6-1.3.9.2 1.4.9 1.3 1.6z"/><path d="m436.2 263.7c-.1.8-.8 1.3-1.6 1.3-.8-.1-1.3-.8-1.3-1.6.1-.8.8-1.3 1.6-1.3.8.1 1.3.8 1.3 1.6z"/><path d="m444 264.5c-.1.8-.8 1.3-1.6 1.3-.8-.1-1.3-.8-1.3-1.6.1-.8.8-1.3 1.6-1.3.8.1 1.4.8 1.3 1.6z"/><path d="m451.8 265.3c-.1.8-.8 1.3-1.6 1.3-.8-.1-1.3-.8-1.3-1.6.1-.8.8-1.3 1.6-1.3.8.2 1.4.9 1.3 1.6z"/><path d="m459.6 266.2c-.1.8-.8 1.3-1.6 1.3-.8-.1-1.3-.8-1.3-1.6.1-.8.8-1.3 1.6-1.3.8.1 1.4.8 1.3 1.6z"/><path d="m467.4 267c-.1.8-.8 1.3-1.6 1.3-.8-.1-1.3-.8-1.3-1.6.1-.8.8-1.3 1.6-1.3.9.1 1.4.8 1.3 1.6z"/><path d="m416.4 270.3c-.1.8-.8 1.3-1.6 1.3-.8-.1-1.3-.8-1.3-1.6.1-.8.8-1.3 1.6-1.3.9.1 1.4.8 1.3 1.6z"/><path d="m424.3 271.1c-.1.8-.8 1.3-1.6 1.3-.8-.1-1.3-.8-1.3-1.6.1-.8.8-1.3 1.6-1.3.8.1 1.4.8 1.3 1.6z"/><path d="m432.1 271.9c-.1.8-.8 1.3-1.6 1.3-.8-.1-1.3-.8-1.3-1.6.1-.8.8-1.3 1.6-1.3.8.2 1.4.9 1.3 1.6z"/><path d="m439.9 272.8c-.1.8-.8 1.3-1.6 1.3-.8-.1-1.3-.8-1.3-1.6.1-.8.8-1.3 1.6-1.3.8.1 1.4.8 1.3 1.6z"/><path d="m447.7 273.6c-.1.8-.8 1.3-1.6 1.3-.8-.1-1.3-.8-1.3-1.6.1-.8.8-1.3 1.6-1.3.8.1 1.4.8 1.3 1.6z"/><path d="m455.5 274.5c-.1.8-.8 1.3-1.6 1.3-.8-.1-1.3-.8-1.3-1.6.1-.8.8-1.3 1.6-1.3.9.1 1.4.8 1.3 1.6z"/><path d="m463.4 275.3c-.1.8-.8 1.3-1.6 1.3-.8-.1-1.3-.8-1.3-1.6.1-.8.8-1.3 1.6-1.3.8.1 1.4.8 1.3 1.6z"/><path d="m420.3 277.8c-.1.8-.8 1.3-1.6 1.3-.8-.1-1.3-.8-1.3-1.6.1-.8.8-1.3 1.6-1.3.8.1 1.3.8 1.3 1.6z"/><path d="m428.1 278.6c-.1.8-.8 1.3-1.6 1.3-.8-.1-1.3-.8-1.3-1.6.1-.8.8-1.3 1.6-1.3.8.1 1.4.8 1.3 1.6z"/><path d="m435.9 279.4c-.1.8-.8 1.3-1.6 1.3-.8-.1-1.3-.8-1.3-1.6.1-.8.8-1.3 1.6-1.3.8.2 1.4.9 1.3 1.6z"/><path d="m443.7 280.3c-.1.8-.8 1.3-1.6 1.3-.8-.1-1.3-.8-1.3-1.6.1-.8.8-1.3 1.6-1.3.8.1 1.4.8 1.3 1.6z"/><path d="m451.5 281.1c-.1.8-.8 1.3-1.6 1.3-.8-.1-1.3-.8-1.3-1.6.1-.8.8-1.3 1.6-1.3.8.1 1.4.8 1.3 1.6z"/><path d="m459.4 281.9c-.1.8-.8 1.3-1.6 1.3-.8-.1-1.3-.8-1.3-1.6.1-.8.8-1.3 1.6-1.3.8.2 1.3.9 1.3 1.6z"/><path d="m467.2 282.8c-.1.8-.8 1.3-1.6 1.3-.8-.1-1.3-.8-1.3-1.6.1-.8.8-1.3 1.6-1.3.8.1 1.4.8 1.3 1.6z"/><path d="m413.5 284.8c-.1.8-.8 1.3-1.6 1.3-.8-.1-1.3-.8-1.3-1.6.1-.8.8-1.3 1.6-1.3.8.2 1.4.9 1.3 1.6z"/><path d="m421.3 285.7c-.1.8-.8 1.3-1.6 1.3-.8-.1-1.3-.8-1.3-1.6.1-.8.8-1.3 1.6-1.3.8.1 1.4.8 1.3 1.6z"/><path d="m429.1 286.5c-.1.8-.8 1.3-1.6 1.3-.8-.1-1.3-.8-1.3-1.6.1-.8.8-1.3 1.6-1.3.8.1 1.4.8 1.3 1.6z"/><path d="m436.9 287.3c-.1.8-.8 1.3-1.6 1.3-.8-.1-1.3-.8-1.3-1.6.1-.8.8-1.3 1.6-1.3.9.2 1.4.9 1.3 1.6z"/><path d="m444.8 288.2c-.1.8-.8 1.3-1.6 1.3s-1.3-.8-1.3-1.6c.1-.8.8-1.3 1.6-1.3.8.1 1.3.8 1.3 1.6z"/><path d="m452.6 289c-.1.8-.8 1.3-1.6 1.3-.8-.1-1.3-.8-1.3-1.6.1-.8.8-1.3 1.6-1.3.8.1 1.4.8 1.3 1.6z"/><path d="m460.4 289.8c-.1.8-.8 1.3-1.6 1.3-.8-.1-1.3-.8-1.3-1.6.1-.8.8-1.3 1.6-1.3.8.2 1.4.9 1.3 1.6z"/><path d="m417.3 292.3c-.1.8-.8 1.3-1.6 1.3-.8-.1-1.3-.8-1.3-1.6.1-.8.8-1.3 1.6-1.3.8.1 1.4.8 1.3 1.6z"/><path d="m425.1 293.2c-.1.8-.8 1.3-1.6 1.3-.8-.1-1.3-.8-1.3-1.6.1-.8.8-1.3 1.6-1.3.8.1 1.4.8 1.3 1.6z"/><path d="m432.9 294c-.1.8-.8 1.3-1.6 1.3-.8-.1-1.3-.8-1.3-1.6.1-.8.8-1.3 1.6-1.3.8.1 1.4.8 1.3 1.6z"/><path d="m440.7 294.8c-.1.8-.8 1.3-1.6 1.3-.8-.1-1.3-.8-1.3-1.6.1-.8.8-1.3 1.6-1.3.9.1 1.4.8 1.3 1.6z"/><path d="m448.6 295.7c-.1.8-.8 1.3-1.6 1.3-.8-.1-1.3-.8-1.3-1.6.1-.8.8-1.3 1.6-1.3.8.1 1.3.8 1.3 1.6z"/><path d="m456.4 296.5c-.1.8-.8 1.3-1.6 1.3-.8-.1-1.3-.8-1.3-1.6.1-.8.8-1.3 1.6-1.3.8.1 1.4.8 1.3 1.6z"/><path d="m464.2 297.3c-.1.8-.8 1.3-1.6 1.3-.8-.1-1.3-.8-1.3-1.6.1-.8.8-1.3 1.6-1.3.8.2 1.4.9 1.3 1.6z"/><path d="m413.5 298.3c-.1.8-.8 1.3-1.6 1.3-.8-.1-1.3-.8-1.3-1.6.1-.8.8-1.3 1.6-1.3.8.1 1.3.8 1.3 1.6z"/><path d="m421.3 299.1c-.1.8-.8 1.3-1.6 1.3-.8-.1-1.3-.8-1.3-1.6s.8-1.3 1.6-1.3c.8.1 1.4.8 1.3 1.6z"/><path d="m429.1 300c-.1.8-.8 1.3-1.6 1.3-.8-.1-1.3-.8-1.3-1.6.1-.8.8-1.3 1.6-1.3.8.1 1.4.8 1.3 1.6z"/><path d="m436.9 300.8c-.1.8-.8 1.3-1.6 1.3-.8-.1-1.3-.8-1.3-1.6.1-.8.8-1.3 1.6-1.3.8.1 1.4.8 1.3 1.6z"/><path d="m444.7 301.6c-.1.8-.8 1.3-1.6 1.3-.8-.1-1.3-.8-1.3-1.6.1-.8.8-1.3 1.6-1.3.9.1 1.4.8 1.3 1.6z"/><path d="m452.6 302.5c-.1.8-.8 1.3-1.6 1.3-.8-.1-1.3-.8-1.3-1.6.1-.8.8-1.3 1.6-1.3.8.1 1.3.8 1.3 1.6z"/><path d="m460.4 303.3c-.1.8-.8 1.3-1.6 1.3-.8-.1-1.3-.8-1.3-1.6.1-.8.8-1.3 1.6-1.3.8.1 1.4.8 1.3 1.6z"/><path d="m417.3 305.8c-.1.8-.8 1.3-1.6 1.3-.8-.1-1.3-.8-1.3-1.6.1-.8.8-1.3 1.6-1.3.8.1 1.3.8 1.3 1.6z"/><path d="m425.1 306.6c-.1.8-.8 1.3-1.6 1.3-.8-.1-1.3-.8-1.3-1.6.1-.8.8-1.3 1.6-1.3.8.1 1.4.8 1.3 1.6z"/><path d="m432.9 307.4c-.1.8-.8 1.3-1.6 1.3-.8-.1-1.3-.8-1.3-1.6.1-.8.8-1.3 1.6-1.3.8.2 1.4.9 1.3 1.6z"/><path d="m440.7 308.3c-.1.8-.8 1.3-1.6 1.3-.8-.1-1.3-.8-1.3-1.6s.8-1.3 1.6-1.3c.8.1 1.4.8 1.3 1.6z"/><path d="m448.5 309.1c-.1.8-.8 1.3-1.6 1.3-.8-.1-1.3-.8-1.3-1.6.1-.8.8-1.3 1.6-1.3.9.1 1.4.8 1.3 1.6z"/><path d="m456.4 310c-.1.8-.8 1.3-1.6 1.3-.8-.1-1.3-.8-1.3-1.6.1-.8.8-1.3 1.6-1.3.8.1 1.3.8 1.3 1.6z"/><path d="m464.2 310.8c-.1.8-.8 1.3-1.6 1.3-.8-.1-1.3-.8-1.3-1.6.1-.8.8-1.3 1.6-1.3.8.1 1.4.8 1.3 1.6z"/><path d="m410.5 312.8c-.1.8-.8 1.3-1.6 1.3-.8-.1-1.3-.8-1.3-1.6.1-.8.8-1.3 1.6-1.3.8.2 1.4.9 1.3 1.6z"/><path d="m418.3 313.7c-.1.8-.8 1.3-1.6 1.3-.8-.1-1.3-.8-1.3-1.6.1-.8.8-1.3 1.6-1.3.8.1 1.4.8 1.3 1.6z"/><path d="m426.1 314.5c-.1.8-.8 1.3-1.6 1.3-.8-.1-1.3-.8-1.3-1.6.1-.8.8-1.3 1.6-1.3.8.1 1.4.8 1.3 1.6z"/><path d="m433.9 315.4c-.1.8-.8 1.3-1.6 1.3-.8-.1-1.3-.8-1.3-1.6.1-.8.8-1.3 1.6-1.3.9.1 1.4.8 1.3 1.6z"/><path d="m441.8 316.2c-.1.8-.8 1.3-1.6 1.3-.8-.1-1.3-.8-1.3-1.6.1-.8.8-1.3 1.6-1.3.8.1 1.3.8 1.3 1.6z"/><path d="m449.6 317c-.1.8-.8 1.3-1.6 1.3-.8-.1-1.3-.8-1.3-1.6.1-.8.8-1.3 1.6-1.3.8.1 1.4.8 1.3 1.6z"/><path d="m457.4 317.9c-.1.8-.8 1.3-1.6 1.3-.8-.1-1.3-.8-1.3-1.6.1-.8.8-1.3 1.6-1.3.8.1 1.4.8 1.3 1.6z"/><path d="m414.3 320.3c-.1.8-.8 1.3-1.6 1.3-.8-.1-1.3-.8-1.3-1.6.1-.8.8-1.3 1.6-1.3.8.2 1.4.9 1.3 1.6z"/><path d="m422.1 321.2c-.1.8-.8 1.3-1.6 1.3-.8-.1-1.3-.8-1.3-1.6s.8-1.3 1.6-1.3c.8.1 1.4.8 1.3 1.6z"/><path d="m429.9 322c-.1.8-.8 1.3-1.6 1.3-.8-.1-1.3-.8-1.3-1.6.1-.8.8-1.3 1.6-1.3.8.1 1.4.8 1.3 1.6z"/><path d="m437.7 322.8c-.1.8-.8 1.3-1.6 1.3-.8-.1-1.3-.8-1.3-1.6.1-.8.8-1.3 1.6-1.3.9.2 1.4.9 1.3 1.6z"/><path d="m445.6 323.7c-.1.8-.8 1.3-1.6 1.3-.8-.1-1.3-.8-1.3-1.6.1-.8.8-1.3 1.6-1.3.8.1 1.4.8 1.3 1.6z"/><path d="m453.4 324.5c-.1.8-.8 1.3-1.6 1.3-.8-.1-1.3-.8-1.3-1.6.1-.8.8-1.3 1.6-1.3.8.1 1.4.8 1.3 1.6z"/><path d="m461.2 325.3c-.1.8-.8 1.3-1.6 1.3-.8-.1-1.3-.8-1.3-1.6.1-.8.8-1.3 1.6-1.3.8.2 1.4.9 1.3 1.6z"/></g><path d="m390 339.5s-6.2 17-6.9 29c-.7 11.9-.9 16.8 1.1 18.8s6.4 3.8 8.6 2.4c2.2-1.3 19-40.5 19.2-48 .3-7.5-22-2.2-22-2.2z" fill="#efc2ac"/><path d="m399 370.7c4.7-2.8 9.9-4.6 15-6.6s10.1-4.5 13.9-8.4c1.6-1.6 3.2-3.6 5.5-3.7 2.2 0 .6 11.4-1.1 11.5-1 .1-1.9.8-2.6 1.5-9.9 9.3-19.5 19.6-32.2 24.6-1.6.6-3.4 1.2-5.1.8-4-1-5-6.1-3.3-9.3 2.2-4.3 5.7-7.9 9.9-10.4z" fill="#efc2ac"/><path d="m429.9 363.5 6.3-.3c1.5-.6 2.5-2.5 4.1-2.1 1.7.5 4.3 1.4 7.4 3.3-.1-5.7-7.6-8.2-12.2-9.4-2.3-.5-4.7-1-6.8.1l-4.3 3.4z" fill="#efc2ac"/><path d="m445.3 360.1c-3.7-3.5-7.6-6.9-11.7-10-.9-.7-1.7-1.3-2.6-2-.1.2-.3.5-.5.8-1.5 2.3-1.9 6.2-1.9 6.2s3-.1 5 2.1.6 4.9 1.4 6.4c.7 1.3 7.4 4 17.9 7.8-.1-.7-.2-1.5-.4-2.1-1-3.7-4.5-6.6-7.2-9.2z" fill="#ff3ca4"/><path d="m453.5 365.9c-2.4-3.3-18.1-18.7-19.8-19.8-1.5-1-1.6.2-2.7 2 .8.7 1.7 1.3 2.6 2 4.1 3.1 8 6.4 11.7 10 2.7 2.6 6.2 5.4 7.3 9.2.2.6.3 1.3.4 2.1.4.1.7.3 1.1.4.8.3 1.6-.4 1.4-1.2-.2-1.2-.7-2.9-2-4.7z" fill="#f5f0c8"/><path d="m442.3 367.3c-.1-.1-.2 0-.1.1-.2-.2-.2-.5-.2-.8.1-.8.3-1.7.8-2.4" fill="none" stroke="#fcf7ee" stroke-miterlimit="10" stroke-width=".7954"/><path d="m440.7 367.4c-.2-.5-.1-.9 0-1.4.2-.9.6-1.7 1-2.5" fill="none" stroke="#fcf7ee" stroke-miterlimit="10" stroke-width=".7954"/><path d="m439.4 366.8c0-1.3.3-2.5.9-3.6" fill="none" stroke="#fcf7ee" stroke-miterlimit="10" stroke-width=".7954"/><path d="m438.4 366.3c-.3-1.2-.2-2.5.4-3.5" fill="none" stroke="#fcf7ee" stroke-miterlimit="10" stroke-width=".7954"/><path d="m392.8 314.9s-4.8 15.8-6.1 22.2-1.5 10.2-1.5 10.2l23 8.2s7.7-5.8 11.1-10.2c3.3-4.4 6.6-12.4 6-17.3-.7-4.9-2.4-8.6-2.4-8.6z" fill="#002d40"/><path d="m413.2 319 16.4.6s5.2 15.7 1.3 24.8c-3.3 7.5-6.2 13.1-6.2 13.1l-11.5-2.4z" fill="#002d40"/><path d="m389.5 325.9c3.9 1 8.4-1.2 10.1-4.9" fill="none" stroke="#fff" stroke-miterlimit="10" stroke-width=".6151"/><path d="m409.7 245.8h11.5v14.8h-11.5z" fill="#efc2ac"/><path d="m421.1 260.7c0 .9-2.6 1.7-5.7 1.7-3.2 0-5.7-.8-5.7-1.7s2.6-1.7 5.7-1.7c3.2 0 5.7.7 5.7 1.7z" fill="#efc2ac"/><path d="m406.5 222.6c-1.7-.9-3.8.4-5 1.9-2.5 3.3-3.2 7.7-3.2 11.8 0 2.7.6 6.1 3.2 6.9-2 2.1-2.8 5.6-1.2 8.1 1.6 2.4 5.9 2.7 7.4.2.8 1.5 1.6 3 3 4 1.3 1 3.2 1.5 4.7.9s2.5-2.7 1.7-4.1c.9 1.6 3.1 2.4 4.8 1.7s2.7-2.9 2.1-4.6c1.4 1.2 3.7 1.3 5.1.1s1.7-3.5.7-5c2.1.8 4.7-1 4.8-3.2 0-.4 0-.7-.2-1-.3-.4-.8-.6-1.2-1-1.1-.9-1.1-2.6-.8-3.9.3-1.4.9-2.8.7-4.2-.5-2.7-3.6-4-4.7-6.5-.3-.7-.4-1.4-.8-2-.9-1.8-2.8-2.7-4.7-3.3-3.1-.9-7.3-1.8-10.5-1.1-.9.1-6.8 3.8-5.9 4.3z" fill="#002d40"/><path d="m418.3 224.4c.7.3 1.3.7 2 1 .6.3 1.3.6 1.8 1.1 1.7 1.7 1.1 4.5 1 6.9 0 1.4.1 2.8.5 4.1.3 1.1.8 2.2 1.7 2.9s2.4.7 3.1-.2" fill="none" stroke="#004866" stroke-miterlimit="10"/><path d="m405.2 226.9c-1.4 1.5-2.5 3.5-2.7 5.5-.2 2.1.7 4.3 2.5 5.4" fill="none" stroke="#004866" stroke-miterlimit="10"/><path d="m411.3 236.9c-1.5 2.8-2 6.1-1.6 9.2.1 1 .4 2 1 2.9.6.8 1.5 1.5 2.5 1.5" fill="none" stroke="#004866" stroke-miterlimit="10"/></g><g fill="#fff"><path d="m174.5 82.8c-1.4 2.3-3.5 4.2-6.5 5.8s-5.9 2.4-8.6 2.4-6.6-.8-11.5-2.4-8.1-2.4-9.5-2.4c-2.7 0-5 1-6.9 3.1s-2.9 4.6-2.9 7.5c0 2.8.9 5.2 2.7 7s4 3.2 6.6 4.3c2.6 1 6.7 2.3 12.3 3.9 5.6 1.5 10 3 13.4 4.5s6.3 3.6 8.6 6.5c2.4 2.9 3.5 6.7 3.5 11.4 0 7-2.9 13.3-8.7 18.8s-12.9 8.2-21.5 8.2c-7.8 0-14.2-2-19.4-6.1-5.1-4.1-7.7-9-7.7-14.6 0-4.2 1.5-7.6 4.5-10.4s6.9-4.2 11.6-4.2c5 0 9.2 1.4 12.6 4.1s5.2 6 5.2 9.8c0 2.6-.9 4.7-2.7 6.3-1.8 1.7-3.9 2.5-6.4 2.5-4.1 0-7.2-1.9-9.2-5.7l1.5-.8c1.5 1.5 3.1 2.3 4.9 2.3 1.9 0 3.5-.7 4.8-2s1.9-3 1.9-5.1c0-2.5-1.1-4.6-3.2-6.3s-4.7-2.5-7.7-2.5c-3.5 0-6.4 1.3-8.7 3.9s-3.5 5.6-3.5 9.2c0 4.7 2.1 8.8 6.2 12.1 4.1 3.4 9.4 5.1 15.7 5.1 6.7 0 12.3-2.1 16.8-6.3s6.7-9.2 6.7-14.9c0-3.9-1-7.1-3.1-9.5s-4.6-4.2-7.5-5.4-6.9-2.5-12.1-4-9.2-2.8-12.1-4-5.3-3-7.3-5.3-3-5.3-3-9c0-5.1 2-9.4 6-13.1 4-3.6 8.7-5.5 14-5.5 2.5 0 6 .6 10.5 1.9 4.6 1.2 7.9 1.9 9.9 1.9 3.3 0 6.2-1.3 8.6-3.9z"/><path d="m216.2 150.7c-2.3 3.7-4.8 6.5-7.5 8.1s-6.3 2.5-10.7 2.5c-3.2 0-5.8-1-7.7-2.9s-2.8-4.6-2.8-8.1c0-.9.1-1.9.2-3-1.4 1.8-2.5 3.2-3.2 4.3l-1.9-1.3c5.1-7.2 9-11.9 11.7-14.1s5.5-3.4 8.4-3.4c1.6 0 2.9.5 3.9 1.4s1.5 2.1 1.5 3.6c0 5.1-4.5 10-13.4 15 1.2 2.8 3.7 4.2 7.5 4.2 1.8 0 3.9-.7 6.1-2s4.3-3.3 6.1-5.8zm-22.6-.1c6.5-3.2 9.7-6.7 9.7-10.5 0-1.2-.3-2.1-1-2.9-.6-.7-1.5-1.1-2.6-1.1-2 0-3.7.9-5 2.7-1.4 1.8-2 4-2 6.6 0 1.4.2 2.6.5 3.6s.4 1.5.4 1.6z"/><path d="m257.4 150.7c-4.4 6.9-8.8 10.4-13 10.4-1.6 0-2.7-.4-3.4-1.3s-1.1-2.6-1.1-5.4c-2.3 2.9-4.3 4.8-5.9 5.6-1.6.9-3.5 1.3-5.5 1.3-3 0-5.4-1-7.2-3.1s-2.7-4.8-2.7-8.3v-2.5c-.4.5-1.4 1.9-3 4.2l-1.9-1.3c3.4-5.3 7-9.5 10.8-12.5s7.1-4.5 10-4.5c2 0 4 .6 6 1.8l5.1-2.6v19.9c0 2.1.1 3.4.3 3.8s.7.6 1.6.6c.7 0 1.8-.7 3.3-2s3.1-3.2 4.8-5.7zm-17.7-.7v-11.7c-1.6-1.6-3.4-2.4-5.6-2.4-2.3 0-4.5 1.1-6.3 3.3-1.9 2.2-2.8 4.9-2.8 8.1 0 2.8.7 5 2 6.5s3.1 2.3 5.5 2.3c1.8 0 3.5-.9 5-2.7 1.4-1.7 2.2-2.9 2.2-3.4z"/><path d="m268.5 131.8c3 1.6 5.5 3.8 7.3 6.8s2.7 6 2.7 9.1c0 3.6-1.1 6.8-3.2 9.5s-4.8 4-8.1 4c-1.6 0-3.4-.5-5.3-1.6s-3.6-2.7-5-4.8c1.2-1.9 3-3.5 5.3-4.8l.5.6c-.1.4-.1 1-.1 1.7 0 1.7.6 3.2 1.7 4.5 1.2 1.3 2.5 2 4 2 1.8 0 3.3-.8 4.5-2.3s1.7-3.5 1.7-5.8c0-4.8-2.9-9.1-8.6-12.9l-5 7.8c-2 3.2-3.4 5.3-4.3 6.4l-1.8-1.5c4-5.9 7.9-13 11.9-21.5l1.4.1zm20 18.9c-4.2 6.9-9.4 10.6-15.8 11.2l-.4-1.1c2.8-.7 5.2-1.8 7.2-3.3s4.4-4.3 7.2-8.1z"/><path d="m285.8 150.4c5.1-7.2 9.2-11.9 12.4-14s6.6-3.2 10.2-3.2c3.4 0 6 .9 8 2.7 1.9 1.8 2.9 4.3 2.9 7.5 0 4.6-1.8 8.7-5.5 12.5s-7.9 5.6-12.8 5.6c-3.2 0-5.7-.9-7.6-2.8s-2.8-4.3-2.8-7.2c0-1.6.1-3 .4-4.2-.6.7-1.7 2.2-3.2 4.6zm18.9 7.3c3 0 5.3-1.1 7.1-3.2s2.6-5 2.6-8.5c0-3.1-.8-5.5-2.5-7.2-1.6-1.7-3.8-2.6-6.5-2.6-2.8 0-5.1 1-6.8 3.1s-2.5 4.9-2.5 8.6c.1 6.5 2.9 9.8 8.6 9.8zm21.1-7c-3.1 4.4-6.1 7.4-8.8 8.8s-5.5 2.3-8.3 2.6l-.5-1.3c6.4-1.4 11.6-5.3 15.7-11.4z"/><path d="m365.8 150.7c-4.7 6.9-9.2 10.4-13.5 10.4-1.4 0-2.5-.5-3.2-1.4s-1.1-3-1.1-6.3v-13.4c0-2.1-.6-3.1-1.9-3.1-.6 0-1.3.2-2 .7s-1.4 1.2-2.2 2.1-1.9 2.4-3.3 4.6c-1.4 2.1-2.1 3.3-2.1 3.5v10.5l-5.8 3.7v-19.6c-1.2 3.1-3 6.2-5.5 9.3l-1.8-1.5c3.9-5.5 6.4-10.5 7.4-15l5.7-2.7v10.9c2.8-4.1 5.1-6.9 6.9-8.3s3.5-2.1 5.3-2.1c1.6 0 2.9.6 3.8 1.8s1.3 4.1 1.3 8.6v7.8c0 2.1.1 3.5.3 4.3s.7 1.2 1.4 1.2c1.9 0 4.7-2.5 8.5-7.7z"/></g><path d="m-71.8 127.5 1 1" fill="none"/></svg>