<svg viewBox="0 0 66.37 67.6" xmlns="http://www.w3.org/2000/svg"><g transform="translate(-8.84 -8.08)"><g fill="#cf3130"><path d="m22.92 46.44h-2.31a.59.59 0 0 1 -.24 0 .61.61 0 0 1 -.32-.32.55.55 0 0 1 0-.23v-2.26h-1.43v-.44h1.38v-1.19h1.13v1.17h1.87v.44h-1.87v2.19a.21.21 0 0 0 .06.15.2.2 0 0 0 .15.06h1.58z"/><path d="m25.15 45.8a.21.21 0 0 0 .06.15.2.2 0 0 0 .15.06h3v.43h-3.73a.59.59 0 0 1 -.24 0 .62.62 0 0 1 -.32-.32.56.56 0 0 1 0-.23v-2.7h4.38v1.12a.49.49 0 0 1 -.49.49h-2.81zm2-1.44a.17.17 0 0 0 .17-.17v-.56h-2.17v.74z"/><path d="m34 46h.37v.43h-4.18a.59.59 0 0 1 -.24 0 .62.62 0 0 1 -.32-.32.56.56 0 0 1 0-.23v-2a.61.61 0 0 1 .6-.6h3.77zm-3.26-.21a.21.21 0 0 0 .06.15.2.2 0 0 0 .15.06h1.93v-2.37h-1.96a.2.2 0 0 0 -.21.21z"/><path d="m36.42 46.44h-1.12v-4.63h1.13z"/><path d="m41.82 46.44h-2.31a.59.59 0 0 1 -.24 0 .61.61 0 0 1 -.32-.32.56.56 0 0 1 0-.23v-2.26h-1.43v-.44h1.39v-1.19h1.09v1.17h1.9v.44h-1.9v2.19a.21.21 0 0 0 .06.15.2.2 0 0 0 .15.06h1.58z"/><path d="m44.05 43.19h2.66a.56.56 0 0 1 .23 0 .63.63 0 0 1 .19.13.62.62 0 0 1 .13.19.59.59 0 0 1 0 .24v2.65h-1.07v-2.6a.2.2 0 0 0 -.06-.15.21.21 0 0 0 -.15-.06h-1.93v2.81h-1.12v-4.59h1.13z"/><path d="m52.87 45.86a.62.62 0 0 1 -.14.41.61.61 0 0 1 -.49.17h-3.73v-.44h3a.21.21 0 0 0 .21-.21v-.79a.23.23 0 0 0 -.07-.17.24.24 0 0 0 -.18-.07h-2.41a.64.64 0 0 1 -.41-.12.45.45 0 0 1 -.16-.37v-.55a.61.61 0 0 1 .13-.42.6.6 0 0 1 .46-.15h3.79v.43h-3a.32.32 0 0 0 -.17 0 .16.16 0 0 0 -.07.15v.34a.2.2 0 0 0 .21.21h2.44a.58.58 0 0 1 .47.16.62.62 0 0 1 .12.4z"/><path d="m58.43 46.44h-3.78a.59.59 0 0 1 -.24 0 .62.62 0 0 1 -.32-.32.56.56 0 0 1 0-.23v-2a.61.61 0 0 1 .6-.6h3.78v.44h-3a.2.2 0 0 0 -.21.21v2a.21.21 0 0 0 .06.15.2.2 0 0 0 .15.06h3z"/><path d="m60.2 46.44a.59.59 0 0 1 -.24 0 .62.62 0 0 1 -.32-.32.56.56 0 0 1 0-.23v-2.7h4.36v2.65a.56.56 0 0 1 0 .23.64.64 0 0 1 -.13.19.64.64 0 0 1 -.19.13.56.56 0 0 1 -.23 0zm.52-2.81v2.17a.21.21 0 0 0 .06.15.2.2 0 0 0 .15.06h1.72a.21.21 0 0 0 .21-.21v-2.17z"/><path d="m68.94 43.2a.6.6 0 0 1 .23 0 .56.56 0 0 1 .19.13.69.69 0 0 1 .13.19.56.56 0 0 1 0 .23v2a.56.56 0 0 1 0 .23.64.64 0 0 1 -.13.19.64.64 0 0 1 -.19.13.56.56 0 0 1 -.23 0h-2.66v1.3h-1.12v-4.4zm-.73 2.8a.21.21 0 0 0 .21-.21v-2a.2.2 0 0 0 -.06-.15.21.21 0 0 0 -.15-.06h-1.93v2.42z"/><path d="m71.84 45.8a.21.21 0 0 0 .06.15.2.2 0 0 0 .1.05h3v.43h-3.68a.59.59 0 0 1 -.24 0 .62.62 0 0 1 -.32-.32.56.56 0 0 1 0-.23v-2.69h4.34v1.12a.49.49 0 0 1 -.49.49h-2.77zm2-1.44a.17.17 0 0 0 .17-.17v-.56h-2.17v.74z"/><path d="m59.12 31.5c-.91-9-8.24-20.23-10.44-23.42v23.42z"/></g><path d="m37 31.51c0 .54-.08 1.07-.08 1.59v5.46h10.44v-30.48c-2.36 3.4-9.53 14.52-10.36 23.43z" fill="#ff8b00"/><path d="m25 52.26c.91 9 8.24 20.23 10.44 23.42v-23.42z" fill="#cf3130"/><path d="m47.16 52.25c0-.54.08-1.07.08-1.59v-3h-10.44v28c2.33-3.38 9.54-14.51 10.36-23.41z" fill="#ff8b00"/><path d="m11.27 41.45a.65.65 0 0 1 .34-.08h63.59v-.87h-.2s-.45-.73-.57-.65a1.91 1.91 0 0 1 -.85.34c-.07 0-.67.31-.73.31h-62.85a1.21 1.21 0 0 0 -.94.3 1.24 1.24 0 0 0 -.26.84v1.11a.91.91 0 0 0 .32.76 1.3 1.3 0 0 0 .83.25h4.94a.49.49 0 0 1 .37.14.47.47 0 0 1 .13.34v2.06a.43.43 0 0 1 -.42.42h-6.09v.87h7.56a1.24 1.24 0 0 0 1-.34 1.26 1.26 0 0 0 .29-.84v-2.41a1.25 1.25 0 0 0 -.25-.81 1.17 1.17 0 0 0 -1-.32h-5a.41.41 0 0 1 -.42-.42v-.69a.33.33 0 0 1 .21-.31z" fill="#cf3130"/></g></svg>