<svg enable-background="new 0 0 22.9 22.8" viewBox="0 0 22.9 22.8" xmlns="http://www.w3.org/2000/svg"><path d="m10.4 9.2h-5.2c-.3 0-.5.2-.5.5v6.9c0 .3.2.5.5.5h5.2c.3 0 .5-.2.5-.5v-6.9c0-.3-.2-.5-.5-.5z" fill="#adebf6"/><path d="m10.4 8.5h-5.2c-.6 0-1.1.5-1.1 1.1v6.9c0 .6.5 1.1 1.1 1.1h5.2c.6 0 1.1-.5 1.1-1.1v-6.9c0-.5-.5-1.1-1.1-1.1zm.5 8.1c0 .3-.2.5-.5.5h-5.2c-.3 0-.5-.2-.5-.5v-6.9c0-.3.2-.5.5-.5h5.2c.3 0 .5.2.5.5z" fill="#fff"/><path d="m5.2 5.6h5.1v2h-5.1z" fill="#475059"/><g fill="#ff926e"><path d="m5.5 5.9h.9v1.4h-.9z"/><path d="m6.7 5.9h.9v1.4h-.9z"/><path d="m7.9 5.9h.9v1.4h-.9z"/><path d="m9.1 5.9h.9v1.4h-.9z"/></g><path d="m6.1 7.6h3.4v.9h-3.4z" fill="#8bdfe3"/><path d="m10.3 12.6c0 .8-1.2 1.4-2.6 1.4s-2.6-.6-2.6-1.4 1.2-1.4 2.6-1.4c1.5 0 2.6.7 2.6 1.4z" fill="#ff926e"/><path d="m6.6 12.1h2.3v.3h-2.3z" fill="#475059"/><path d="m6.1 12.9h3.4v.3h-3.4z" fill="#475059"/><path d="m14 10.8-.5 1.4v4.8h4.1v-4.8l-.6-1.4z" fill="#e25d34"/><path d="m17.5 10h-4l-.8 2v5.7h5.7v-5.7zm.1 7h-4.1v-4.7l.6-1.4h3l.6 1.4v4.7z" fill="#fff"/><path d="m13.5 8.1v.7h2.9c.1 0 .3.1.3.3 0 .1-.1.3-.3.3h-2.9v.7h4v-2z" fill="#adebf6"/><path d="m16.6 9.1c0-.1-.1-.3-.3-.3h-2.9v.5h2.9c.2 0 .3-.1.3-.2z" fill="#475059"/><path d="m14.3 13.6h4v2h-4z" fill="#adebf6"/><path d="m15.3 14.6c0 .1.1.3.3.3h2.9v-.5h-2.9c-.2-.1-.3 0-.3.2z" fill="#475059"/><path d="m15.8 5.6v-1.7c0-.2-.1-.3-.3-.3s-.3.1-.3.3v1.7h-.6l.9 1.6.9-1.6z" fill="#e25d34"/><path d="m22.9 11.4c0-6.3-5.1-11.4-11.4-11.4-6.4 0-11.5 5.1-11.5 11.4s5.1 11.4 11.4 11.4c6.4.1 11.5-5.1 11.5-11.4z" fill="#adebf6"/><path d="m13.4 14.1h-3.9c-.9 0-1.5-.7-1.5-1.5v-5.6c0-.9.7-1.6 1.5-1.6h3.9c.9 0 1.5.7 1.5 1.5v5.6c0 .9-.7 1.6-1.5 1.6zm-3.9-7.9c-.4 0-.7.3-.7.7v5.6c0 .4.3.7.7.7h3.9c.4 0 .7-.3.7-.7v-5.5c0-.4-.3-.7-.7-.7z" fill="#475059"/><path d="m9.1 8.7v9.1h4.7v-9.1c-1.5-.2-3.2-.2-4.7 0z" fill="#ffdb7a"/><path d="m7.7 8.8v8.9h1.4v-9c-.5 0-1 .1-1.4.1z" fill="#e25d34"/><path d="m13.8 8.7v9.1h1.4v-9c-.4 0-.9-.1-1.4-.1z" fill="#e25d34"/><path d="m3.3 11.2v1h.7c.6 0 1.1.5 1.1 1.1v3.3c0 .6-.4 1-.9 1.1h.2 3.3v-8.9c-2.5.4-4.4 1.2-4.4 2.4z" fill="#ffdb7a"/><path d="m17.7 16.6v-3.3c0-.6.5-1.1 1.1-1.1h.7v-1c0-1.2-1.9-2-4.3-2.3v8.9h3.2.2c-.5-.1-.9-.6-.9-1.2z" fill="#ffdb7a"/><path d="m5.2 16.6v-3.3c0-.6-.5-1.1-1.1-1.1h-.8v4.5c0 .6.4 1 .9 1.1.6-.1 1-.6 1-1.2z" fill="#f5f5f5"/><path d="m19.5 16.6v-4.5h-.7c-.6 0-1.1.5-1.1 1.1v3.3c0 .6.4 1 .9 1.1s.9-.4.9-1z" fill="#f5f5f5"/><path d="m13.3 15.5c0 .1-.1.2-.2.2h-3.3c-.1 0-.2-.1-.2-.2s.1-.2.2-.2h3.3c.1 0 .2.1.2.2z" fill="#475059"/><path d="m6.4 10.8c-.1 0-.2.1-.2.2v4.5c0 .1.1.2.2.2s.2-.1.2-.2v-4.5c.1-.1 0-.2-.2-.2z" fill="#475059"/><path d="m16.4 10.8c-.1 0-.2.1-.2.2v4.5c0 .1.1.2.2.2s.2-.1.2-.2v-4.5c.1-.1 0-.2-.2-.2z" fill="#475059"/><path d="m13.7 5.8c0 .4-.3.7-.7.7h-2.9c-.4 0-.7-.3-.7-.7s.3-.7.7-.7h2.9c.4 0 .7.3.7.7z" fill="#f5f5f5"/></svg>