<svg enable-background="new 0 0 22.8 22.8" viewBox="0 0 22.8 22.8" xmlns="http://www.w3.org/2000/svg"><circle cx="11.4" cy="11.4" fill="#475059" r="11.4"/><path d="m15.2 14.2c0 1.7 1.3 3 3 3s3-1.3 3-3-1.3-3-3-3-3 1.4-3 3z" fill="#fff"/><path d="m15.9 14.2c0 1.3 1 2.3 2.3 2.3s2.3-1 2.3-2.3-1-2.3-2.3-2.3-2.3 1-2.3 2.3z" fill="#adebf6"/><path d="m5.3 14.2c0 1.7 1.3 3 3 3s3-1.3 3-3-1.3-3-3-3-3 1.4-3 3z" fill="#fff"/><path d="m6 14.2c0 1.3 1 2.3 2.3 2.3s2.3-1 2.3-2.3-1-2.3-2.3-2.3c-1.2 0-2.3 1-2.3 2.3z" fill="#adebf6"/><path d="m20.7 10.9c-.7-.6-1.6-.9-2.6-.9-.3 0-.6 0-.9.1v-.2l-.6-2c0-.1-.1-.1-.2-.2-.9-.3-1.6.4-1.7.4-.1.1-.1.2 0 .3s.2.1.3 0c0 0 .5-.4 1.1-.3l.5 1.8-3.3 3.6-1.9-5.3c0-.1-.2-.2-.3-.1-.1 0-.2.2-.2.3l.5 1.4-3.4 4.2v.1.1h.1l5-.1 3.4-3.7 1.1 3.7c0 .1.1.2.2.2h.1c.1 0 .2-.2.2-.3l-1-3.5c.3-.1.5-.1.8-.1.8 0 1.6.3 2.3.8 0 0 .1.1.2.1s.1 0 .2-.1c.3 0 .2-.2.1-.3zm-7.7 3-4.1.1 2.9-3.6z" fill="#ffdb7a"/><path d="m14.4 14.1c0 .6-.5 1-1 1-.6 0-1-.5-1-1 0-.6.5-1 1-1s1 .4 1 1z" fill="#adebf6"/><path d="m13.7 14.1c0 .2-.2.4-.4.4s-.4-.2-.4-.4.2-.4.4-.4.4.2.4.4z" fill="#e25d34"/><path d="m10.2 9.4h-2.1l-1-1.5h-2l-1.7 1.5c-.1.1-.1.2-.2.3v.1 2.4c0 .3.2.5.5.5s.5-.2.5-.5v-2.1l.9-.7v2.7l-.6.9h-1.9c-.5.1-.9.4-.9.8 0 .3.4.6.9.6h2.1.2c.2 0 .4-.2.6-.4l1-1.5 1.2.9v1.9c0 .5.3.8.7.8s.7-.4.7-.8v-2.1s0-.1 0-.2c0-.2-.2-.4-.4-.6l-1.5-1v-1.5l.3.4c.1.2.3.2.5.2h2.4c.3 0 .5-.2.5-.5-.1-.3-.4-.6-.7-.6z" fill="#ff926e"/><path d="m6.1 7.7c.6 0 1-.5 1-1 0-.6-.5-1-1-1-.6 0-1 .5-1 1s.4 1 1 1z" fill="#ff926e"/><path d="m17.5 14.2c0 .4.3.7.7.7s.7-.3.7-.7-.3-.7-.7-.7-.7.3-.7.7z" fill="#e25d34"/><path d="m12.7 9.1h-2.8v-1.4l2.8.7z" fill="#f5f5f5"/></svg>