<svg enable-background="new 0 0 22.9 22.8" viewBox="0 0 22.9 22.8" xmlns="http://www.w3.org/2000/svg">
    <path d="m22.9 11.4c0-6.3-5.1-11.4-11.4-11.4-6.4 0-11.5 5.1-11.5 11.4s5.1 11.4 11.4 11.4c6.4.1 11.5-5.1 11.5-11.4z"
          fill="#adebf6"/>
    <path d="m14.6 8.3c1-.2 1.9-.5 2.8-.9-.1-.4-.3-.8-.4-1.2-.7.4-1.6.6-2.5.8.1.3.2 1.2.1 1.3z" fill="#e25d34"/>
    <path d="m8.3 7.1c-.9-.2-1.7-.5-2.5-.8-.1.4-.2.8-.3 1.2.8.4 1.8.7 2.7.9 0-.2 0-1.1.1-1.3z" fill="#e25d34"/>
    <path d="m8.3 7.7c-.1.9-.4 1.8-.7 2.7 2.2 1.1 5.5 1.1 7.7 0-.3-.9-.6-1.8-.7-2.6-1 .3-2.1.4-3.1.4-1.1-.1-2.2-.2-3.2-.5z"
          fill="#ffdb7a"/>
    <path d="m14.9 6.3c-.1.1-.2.1-.2.1-.1 0-.2 0-.2.1-1.8.5-4.1.5-6 0-.1 0-.2-.1-.3-.1s-.1 0-.2-.1c0 .4-.1.8-.1 1.3.1 0 .2 0 .2.1.1 0 .2 0 .2.1 1 .3 2.1.4 3.1.4 1.1 0 2.2-.1 3.1-.4.1 0 .2 0 .2-.1.1 0 .2 0 .2-.1.1-.4 0-.9 0-1.3z"
          fill="#ff926e"/>
    <path d="m15.5 10.8c-1.2.6-2.6.9-4 .9s-2.9-.3-4-.9c-.1.2-.1.3-.2.5 0 .1-.1.1-.1.2.7.3 2.9 1.5 4.3 3.9 1.4-2.4 3.6-3.6 4.3-3.9-.1-.1-.1-.1-.1-.2-.1-.2-.2-.3-.2-.5z"
          fill="#f5f5f5"/>
    <path d="m11.2 15.9c-1.3-2.5-3.6-3.7-4.3-4-1.2 3.1-.4 7-.3 7.5h4.6z" fill="#ffdb7a"/>
    <path d="m16 11.9c-.7.3-3 1.5-4.3 4v3.5h4.6c.1-.5.8-4.4-.3-7.5z" fill="#ffdb7a"/>
    <path d="m6.9 11.9c.7.3 3 1.5 4.3 4v3.5h.5v-3.5c1.3-2.5 3.6-3.7 4.3-4 1.2 3.1.4 6.9.3 7.5h.4c.2-.9 1-5.2-.6-8.3-.6-1.1-.9-2.4-1.1-3.5-.1 0-.2 0-.2.1-.1 0-.2 0-.2.1.1.9.4 1.8.7 2.6-2.2 1.1-5.5 1.1-7.7 0 .3-.9.6-1.8.7-2.6-.1 0-.2 0-.2-.1-.1 0-.2 0-.2-.1-.2 1.1-.5 2.4-1.1 3.5-1.6 3.2-.8 7.4-.6 8.3h.5c-.2-.5-1-4.4.2-7.5zm.3-.6c.1-.2.2-.3.2-.5 1.2.6 2.6.9 4 .9s2.9-.3 4-.9c.1.2.1.3.2.5 0 .1.1.1.1.2-.7.3-2.9 1.5-4.3 3.9-1.4-2.4-3.6-3.6-4.3-3.9 0-.1.1-.1.1-.2z"
          fill="#475059"/>
    <path d="m14.4 3.4h-6c0 .3.1 1.5 0 3.1 1.8.5 4.1.5 6 0-.1-1.5 0-2.7 0-3.1z" fill="#ffdb7a"/>
    <g fill="#475059">
        <path d="m8.5 3.4h-.5c0 .2.1 1.4 0 2.9.1.1.1.1.2.1s.2 0 .2.1c.2-1.5.1-2.7.1-3.1z"/>
        <path d="m14.4 3.4c0 .3-.1 1.5 0 3.1.1 0 .2 0 .2-.1.1 0 .2 0 .3-.1-.1-1.5 0-2.7 0-2.9z"/>
    </g>
</svg>