<svg enable-background="new 0 0 22.9 22.8" viewBox="0 0 22.9 22.8" xmlns="http://www.w3.org/2000/svg"><path d="m0 11.4c0-6.3 5.1-11.4 11.4-11.4s11.5 5.1 11.5 11.4-5.1 11.4-11.4 11.4-11.5-5.1-11.5-11.4z" fill="#ffdb7a"/><path d="m6.1 13.4h10.7v3.4h-10.7z" fill="#adebf6"/><path d="m10.9 14.1h1.9s2.3.1 3.4-.1c.4-.1.8-.6.8-1 0-.7-1-1.1-2.4-1.1-.1 0-.3 0-.4 0h-.1c-.1 0-.2 0-.4-.1h-.1c-.1 0-.2 0-.2-.1h-.1c-.1 0-.2-.1-.3-.1s-.1 0-.2-.1c0 0-.1 0-.1-.1-.1 0-.1-.1-.2-.1l-1.6.7c-.3.1-.6 0-.7-.3s0-.6.3-.7l1.3-.6c-.1-.2-.2-.3-.3-.5l-1.7.4c-.3.1-.6-.1-.6-.4-.1-.3.1-.6.4-.6l1.6-.4c-.1-.2-.1-.4-.1-.7h-1.8c-.3.2-.6 0-.6-.3s.3-.5.6-.5h1.8c0-.5.1-.9.1-1.2-.8 0-2.5.1-3.7-.2-.2 0-.3-.1-.5-.1.3 2.2-.1 4-.4 5 .6.2 1.1.5 1.7.9 1.1.7 2 1.5 2.6 2.3z" fill="#ff926e"/><g fill="#475059"><path d="m11.1 7.4h-1.8c-.3 0-.6.2-.6.5s.3.5.6.5h1.8c0-.4-.1-.7 0-1z"/><path d="m11.4 9.7c0-.1-.1-.3-.1-.4s0-.2-.1-.2l-1.6.3c-.3.1-.5.3-.4.6s.3.5.6.4l1.7-.4c0-.1-.1-.2-.1-.3z"/><path d="m10.6 11.1c-.3.1-.4.4-.3.7s.4.4.7.3l1.6-.7c-.1 0-.1-.1-.2-.2l-.1-.1-.1-.1-.1-.1c-.1-.1-.1-.2-.2-.2 0 0 0 0 0-.1z"/></g><path d="m12.2 10.2.1.1.6.6-.1-.1c-.5-1-1-2.7-.5-5.3 0-.1 0-.2.1-.4h-5.1c-.2 0-.3 0-.5 0 0 0 0 0 .1.1.8.5 3.5.5 4.5.4.1 0 .2 0 .2.1.1.1.1.2.1.2.1.1-.5 2.7.5 4.3z" fill="#e25d34"/><path d="m6.3 13.5c.2.3.4.4.8.4 1 .1 2.6.2 3.9.2-.6-.8-1.5-1.7-2.6-2.4-.7-.3-1.2-.6-1.8-.9-.1.4-.2.7-.3.7-.1.4-.4 1.4 0 2z" fill="#e25d34"/><path d="m17.7 13c0-.5-.4-1.5-3-1.6-.3 0-.6 0-.8-.1-.3-.3-1.9-2.3-.9-6.4 0-.1 0-.2 0-.2-.1-.1-.1-.1-.2-.1h-5.5c-.4 0-1 0-1 .4v.3c.5 2.3 0 4.3-.3 5.3-.1.4-.2.7-.2.7 0 .1-.6 1.5 0 2.4.2.4.7.6 1.2.7 1.2.1 3 .2 4.3.2h1.5.8c.8 0 2 0 2.7-.2.8 0 1.4-.7 1.4-1.4zm-10.4-7.9h5.1c0 .1-.1.2-.1.4-.5 2.6 0 4.3.5 5.3 0 .1.1.1.1.1-.2-.2-.4-.3-.6-.6l-.1-.1c-1.1-1.6-.5-4.2-.5-4.2 0-.1 0-.2-.1-.2-.1-.1-.1-.1-.2-.1-1 .1-3.7.1-4.5-.4l-.1-.1c.2-.1.3-.1.5-.1zm9 8.9c-1.1.2-3.4.1-3.4.1s-.8 0-1.9 0c-1.2 0-2.8-.1-3.9-.2-.4 0-.7-.2-.8-.4-.4-.6-.1-1.6 0-2 0 0 .1-.3.3-.7.3-1 .7-2.9.4-5 .1.1.3.1.5.1 1.2.3 3 .3 3.7.2 0 .3-.1.7-.1 1.2v1c0 .2.1.4.1.7 0 .1 0 .2.1.2 0 .1.1.3.1.4s.1.3.2.4c.1.2.2.3.3.5v.1c.1.1.1.2.2.2l.1.1.1.1.1.1.2.2s.1.1.2.1c0 0 .1 0 .1.1 0 0 .1.1.2.1s.2.1.3.1h.1c.1 0 .2 0 .2.1h.1c.1 0 .2 0 .4.1h.1.4c1.5 0 2.4.5 2.4 1.1 0 .4-.3.9-.8 1z" fill="#fff"/><circle cx="6.1" cy="16.8" fill="#475059" r="1.5"/><path d="m6.6 16.8c0 .3-.2.5-.5.5s-.5-.2-.5-.5.2-.5.5-.5.5.2.5.5z" fill="#f5f5f5"/><path d="m11.2 16.8c0 .8-.7 1.5-1.5 1.5s-1.5-.7-1.5-1.5.7-1.5 1.5-1.5 1.5.7 1.5 1.5z" fill="#475059"/><path d="m10.2 16.8c0 .3-.2.5-.5.5s-.5-.2-.5-.5.2-.5.5-.5c.2 0 .5.2.5.5z" fill="#f5f5f5"/><circle cx="13.2" cy="16.8" fill="#475059" r="1.5"/><path d="m13.7 16.8c0 .3-.2.5-.5.5s-.5-.2-.5-.5.2-.5.5-.5.5.2.5.5z" fill="#f5f5f5"/><path d="m18.3 16.8c0 .8-.7 1.5-1.5 1.5s-1.5-.7-1.5-1.5.7-1.5 1.5-1.5 1.5.7 1.5 1.5z" fill="#475059"/><path d="m17.3 16.8c0 .3-.2.5-.5.5s-.5-.2-.5-.5.2-.5.5-.5.5.2.5.5z" fill="#f5f5f5"/></svg>