<svg enable-background="new 0 0 22.8 22.8" viewBox="0 0 22.8 22.8" xmlns="http://www.w3.org/2000/svg"><path d="m0 11.4c0-6.3 5.1-11.4 11.4-11.4s11.4 5.1 11.4 11.4-5.1 11.4-11.4 11.4c-6.3.1-11.4-5.1-11.4-11.4z" fill="#ff926e"/><path d="m9.4 9.6c-1-1.1-.5-2.4-.4-2.6.2-.3.3-.6.3-1 0-.9-.5-1.5-.9-1.5s-.9.6-.9 1.5c0 .4 0 .7.2.9.1.2.6 1.5-.3 2.6-.6.7-.9 2-.9 3.3 0 1 .2 2 .6 2.8h2.6c.4-.7.6-1.7.6-2.8 0-1.2-.4-2.4-.9-3.2z" fill="#ffdb7a"/><path d="m9.8 9.3c-.8-1-.3-2.1-.3-2.1.2-.4.3-.8.3-1.2 0-1.1-.6-2-1.4-2s-1.4.9-1.4 2c0 .4.1.8.3 1.2s.6 1.2-.3 2.1c-.6.8-1 2.1-1 3.6 0 1.3.3 2.5.8 3.3h3.2c.5-.8.8-2 .8-3.3 0-1.5-.4-2.8-1-3.6zm-2.8 6.4c-.4-.7-.6-1.7-.6-2.8 0-1.3.3-2.5.9-3.3 1-1.1.5-2.4.4-2.6-.2-.3-.2-.6-.2-1 0-.9.5-1.5.9-1.5s.9.6.9 1.5c0 .3-.1.7-.2.9s-.6 1.5.3 2.6c.6.7.9 2 .9 3.3 0 1-.2 2-.6 2.8h-2.7z" fill="#475059"/><path d="m16.7 9.6c-.9-1.1-.4-2.4-.3-2.6.1-.3.2-.6.2-.9 0-.9-.5-1.5-.9-1.5s-.9.6-.9 1.5c0 .3.1.7.2.9s.6 1.5-.3 2.6c-.6.7-.9 2-.9 3.3 0 1 .2 2 .6 2.8h2.6c.4-.7.6-1.7.6-2.8 0-1.3-.3-2.5-.9-3.3z" fill="#ffdb7a"/><path d="m17.1 9.3c-.8-1-.3-2.1-.3-2.1.2-.3.3-.7.3-1.2 0-1.1-.6-2-1.4-2s-1.4.9-1.4 2c0 .4.1.8.3 1.2s.6 1.2-.3 2.1c-.6.8-1 2.1-1 3.6 0 1.3.3 2.5.8 3.3h3.2c.5-.8.8-2 .8-3.3 0-1.5-.4-2.8-1-3.6zm-2.7 6.4c-.4-.7-.6-1.7-.6-2.8 0-1.3.3-2.5.9-3.3.9-1.1.4-2.4.3-2.6-.1-.3-.2-.6-.2-.9 0-.9.5-1.5.9-1.5s.9.6.9 1.5c0 .3-.1.7-.2.9s-.7 1.5.3 2.6c.6.7.9 2 .9 3.3 0 1-.2 2-.6 2.8z" fill="#475059"/><path d="m13 12.3c-.9-1.1-.4-2.4-.3-2.6.1-.3.2-.6.2-.9 0-.9-.5-1.5-.9-1.5s-.9.6-.9 1.5c0 .3.1.7.2.9s.6 1.5-.3 2.6c-.6.7-.9 2-.9 3.3 0 1 .2 2 .6 2.8h2.6c.4-.7.6-1.7.6-2.8 0-1.3-.3-2.6-.9-3.3z" fill="#adebf6"/><path d="m13.4 12c-.8-1-.3-2.1-.3-2.1.2-.3.3-.7.3-1.2 0-1.1-.6-2-1.4-2s-1.4.9-1.4 2c0 .4.1.8.3 1.2s.6 1.2-.3 2.1c-.6.8-1 2.1-1 3.6 0 1.3.3 2.5.8 3.3h3.2c.5-.8.8-2 .8-3.3 0-1.5-.4-2.8-1-3.6zm-2.7 6.3c-.4-.7-.6-1.7-.6-2.8 0-1.3.3-2.5.9-3.3.9-1.1.4-2.4.3-2.6-.1-.3-.2-.6-.2-.9 0-.9.5-1.5.9-1.5s.9.6.9 1.5c0 .3-.1.7-.2.9s-.6 1.5.3 2.6c.6.7.9 2 .9 3.3 0 1-.2 2-.6 2.8z" fill="#f5f5f5"/><path d="m11 15.7c0 1.7-1.4 3.1-3.1 3.1s-3.1-1.4-3.1-3.1 1.4-3.1 3.1-3.1 3.1 1.4 3.1 3.1z" fill="#fff"/><path d="m10.3 15.7c0 1.3-1.1 2.4-2.4 2.4s-2.4-1.1-2.4-2.4 1.1-2.4 2.4-2.4 2.4 1.1 2.4 2.4z" fill="#e25d34"/><path d="m7.9 17.8c-.1 0-.2-.1-.2-.2s.1-.2.2-.2c.9 0 1.7-.7 1.7-1.7 0-.9-.7-1.7-1.7-1.7-.1 0-.2-.1-.2-.2s.1-.2.2-.2c1.1 0 2.1.9 2.1 2.1 0 1.1-1 2.1-2.1 2.1z" fill="#ff926e"/><g fill="#475059"><path d="m7.1 15c0 .3-.2.5-.5.5s-.5-.2-.5-.5.2-.5.5-.5.5.2.5.5z"/><path d="m7.1 16.4c0 .3-.2.5-.5.5s-.5-.2-.5-.5.2-.5.5-.5c.3.1.5.3.5.5z"/><path d="m8.2 15.7c0 .3-.2.5-.5.5s-.5-.2-.5-.5.2-.5.5-.5c.3.1.5.3.5.5z"/></g></svg>