<svg enable-background="new 0 0 22.8 22.8" viewBox="0 0 22.8 22.8" xmlns="http://www.w3.org/2000/svg"><path d="m0 11.4c0-6.3 5.1-11.4 11.4-11.4s11.4 5.1 11.4 11.4-5.1 11.4-11.4 11.4c-6.3.1-11.4-5-11.4-11.4z" fill="#ffdb7a"/><path d="m10.7 9.8h-5.2c-.3 0-.5.2-.5.5v6.9c0 .3.2.5.5.5h5.2c.3 0 .5-.2.5-.5v-6.9c0-.3-.2-.5-.5-.5z" fill="#adebf6"/><path d="m10.7 9.1h-5.2c-.6 0-1.1.5-1.1 1.1v6.9c0 .6.5 1.1 1.1 1.1h5.2c.6 0 1.1-.5 1.1-1.1v-6.9c0-.5-.5-1.1-1.1-1.1zm.5 8.1c0 .3-.2.5-.5.5h-5.2c-.3 0-.5-.2-.5-.5v-6.9c0-.3.2-.5.5-.5h5.2c.3 0 .5.2.5.5z" fill="#fff"/><path d="m5.5 6.2h5.1v2h-5.1z" fill="#475059"/><g fill="#ff926e"><path d="m5.8 6.5h.9v1.4h-.9z"/><path d="m7 6.5h.9v1.4h-.9z"/><path d="m8.2 6.5h.9v1.4h-.9z"/><path d="m9.4 6.5h.9v1.4h-.9z"/></g><path d="m6.4 8.2h3.4v.9h-3.4z" fill="#8bdfe3"/><path d="m10.6 13.2c0 .8-1.2 1.4-2.6 1.4s-2.6-.6-2.6-1.4 1.2-1.4 2.6-1.4c1.5 0 2.6.7 2.6 1.4z" fill="#ff926e"/><path d="m6.9 12.7h2.3v.3h-2.3z" fill="#475059"/><path d="m6.4 13.5h3.4v.3h-3.4z" fill="#475059"/><path d="m14.3 11.4-.5 1.4v4.8h4.1v-4.8l-.6-1.4z" fill="#e25d34"/><path d="m17.8 10.6h-4l-.8 2v5.7h5.7v-5.7zm.1 7h-4.1v-4.7l.6-1.4h3l.6 1.4v4.7z" fill="#fff"/><path d="m13.8 8.7v.7h2.9c.1 0 .3.1.3.3 0 .1-.1.3-.3.3h-2.9v.7h4v-2z" fill="#adebf6"/><path d="m16.9 9.7c0-.1-.1-.3-.3-.3h-2.9v.5h2.9c.2 0 .3-.1.3-.2z" fill="#475059"/><path d="m14.6 14.2h4v2h-4z" fill="#adebf6"/><path d="m15.6 15.2c0 .1.1.3.3.3h2.9v-.5h-2.9c-.2-.1-.3 0-.3.2z" fill="#475059"/><path d="m16.1 6.2v-1.7c0-.2-.1-.3-.3-.3s-.3.1-.3.3v1.7h-.6l.9 1.6.9-1.6z" fill="#e25d34"/></svg>