<svg enable-background="new 0 0 22.8 22.8" viewBox="0 0 22.8 22.8" xmlns="http://www.w3.org/2000/svg"><circle cx="11.4" cy="11.4" fill="#f5f5f5" r="11.4"/><path d="m4.6 15.4h13.7v1.7h-13.7z" fill="#adebf6"/><path d="m4.6 14.5h13.7v.4h-13.7z" fill="#475059"/><path d="m4.6 17.6h13.7v.4h-13.7z" fill="#475059"/><path d="m6.3 8.5c0 .4.3.7.7.7h3c.2 0 .5-.1.6-.3l.3-.5v1.9l-1.8 1.2c-.3.2-.5.5-.5.7v.2 2.7c0 .6.4 1 .8 1 .5 0 .8-.5.8-1v-2.4l1.5-1 1.2 1.8c.2.3.5.5.7.5h.2 2.7c.6 0 1-.4 1-.8 0-.5-.5-.8-1-.8h-2.4l-.8-1.2v-3.4l1 .9v2.7c0 .4.3.7.7.7s.7-.3.7-.7v-3-.1c0-.1-.1-.3-.2-.4l-2.1-1.9h-2.5l-1.3 1.8h-2.6c-.4 0-.7.4-.7.7z" fill="#ffdb7a"/><path d="m12.2 5.5c-.7 0-1.3-.6-1.3-1.3s.6-1.3 1.3-1.3 1.3.6 1.3 1.3-.6 1.3-1.3 1.3z" fill="#ffdb7a"/><path d="m17.2 5.9h-1.4v1l-1.3-1.3 1.3-1.3v.9h1.4c.2 0 .4.2.4.4 0 .1-.2.3-.4.3z" fill="#e25d34"/></svg>