<svg enable-background="new 0 0 22.9 22.8" viewBox="0 0 22.9 22.8" xmlns="http://www.w3.org/2000/svg"><path d="m22.9 11.4c0 6.3-5.1 11.4-11.4 11.4-6.4.1-11.5-5.1-11.5-11.4s5.1-11.4 11.4-11.4c6.4 0 11.5 5.1 11.5 11.4z" fill="#ff926e"/><path d="m11.4 14.8c3.5 0 6.4-.9 7.2-2.1-.8-1.2-3.7-2.1-7.2-2.1s-6.4.9-7.2 2.1c.8 1.2 3.7 2.1 7.2 2.1z" fill="#f4c162"/><path d="m11.4 16.1c-4.1 0-7.4-1.2-7.4-2.7v.1c0 3.4 3.3 6.1 7.4 6.1s7.4-2.7 7.4-6.1c0 0 0 0 0-.1 0 1.5-3.3 2.7-7.4 2.7z" fill="#ffdb7a"/><path d="m18.8 12.5c0 .1-.1.1-.1.2-.8 1.2-3.7 2.1-7.2 2.1s-6.4-.9-7.2-2.1c0-.1-.1-.1-.1-.2-.1-.1-.1-.3-.1-.4v1.3c0 1.5 3.4 2.7 7.4 2.7 4.1 0 7.4-1.2 7.4-2.7v-1.3c0 .1-.1.2-.1.4z" fill="#e25d34"/><path d="m11.4 9.3c-4.1 0-7.4 1.2-7.4 2.8 0 1.5 3.3 2.8 7.4 2.8s7.4-1.2 7.4-2.8c.1-1.6-3.3-2.8-7.4-2.8z" fill="#f5f5f5"/><path d="m13.4 12s.2-.6.6-1c0-.1 0-.2.1-.3-.2 0-.5-.1-.7-.2s-.3-.2-.4-.4c-.2.6-.8 1.1-.8 1.1.2-.6.2-1.1.2-1.4-.2 0-.4-.1-.6-.2 0 .6-.1 2.1-1.1 3.4l.7.5.7.5c.7-1 1.5-1.6 2.2-2-.1-.2-.2-.3-.3-.5-.1.2-.4.3-.6.5z" fill="#475059"/><path d="m18.4 10.9c.4-.6.3-1.3-.1-1.8.3-.9.1-1.9-.8-2.5-.3-.2-.8-.4-1.2-.3-.1-.3-.3-.5-.5-.6-.6-.4-1.4-.3-1.9.2-1.1-.5-2.2-.2-2.8.6-.7 1-.4 2.3.6 3 .1 0 .1.1.2.1.2.1.4.2.6.2h.5c0 .1.1.1.1.2.1.2.2.3.4.4s.5.2.7.2c0 .1-.1.2-.1.3 0 .2 0 .4.1.6s.2.4.3.5l.3.3c.7.5 1.6.3 2-.4.1-.1.2-.3.2-.5.4.3 1.1 0 1.4-.5z" fill="#adebf6"/><path d="m8.2 7.2c-.5-1.3-1.6-1.5-1.7-1.5s-.2.1-.2.2.1.2.2.2c0 0 .9.2 1.3 1.2.2 0 .3.1.3.1s0-.1.1-.2z" fill="#475059"/><path d="m8.3 3.3s-1.9 1.7-.4 3.1c1.7-1 .4-3.1.4-3.1z" fill="#adebf6"/><path d="m9 6.7c-.4.2-.7.5-.9.8-.4-.1-.8-.2-1.2-.1-1.3.4-1.9 2.3-1.4 3.8s2 2.4 3.3 2c.4-.1.7-.3 1-.6.4.1.8.1 1.1-.1 1.3-.4 2-2 1.5-3.6-.5-1.4-2.1-2.6-3.4-2.2z" fill="#ffdb7a"/></svg>