<svg enable-background="new 0 0 22.8 22.8" viewBox="0 0 22.8 22.8" xmlns="http://www.w3.org/2000/svg"><circle cx="11.4" cy="11.4" fill="#f5f5f5" r="11.4"/><path d="m12.7 15.2c0-.1-.2-.1-.4-.1-.7 0-1.8-.1-2.3-.9-.1-.1-.2-.1-.3-.1h-.1s-.7.2-1.5.2c-1.2 0-2.1-.4-2.7-1.1 0-.6 0-3.4 1.9-5.4l.4.3c-1.2 1.6-.8 3.7-.8 3.8s.1.2.2.2.2 0 .3-.1c.3-.3.6-.5 1.1-.5.6 0 1.1.3 1.1.3.1.1.3 0 .4-.1.5-.6 1.1-.9 2-.9.6 0 1.2.2 1.4.2v-.1c0-.1 0-.2 0-.3.1-.1.1-.1.2-.1h.1c-.2-.1-.9-.3-1.7-.3-.9 0-1.7.3-2.3.9-.2-.1-.7-.2-1.1-.2s-.8.1-1.1.3c0-.7.1-2.1 1-3.1.1-.1.1-.2.1-.3s-.1-.2-.2-.2l-1.1-.4c-.1 0-.2 0-.3.1-2.5 2.5-2.3 6-2.3 6.1s0 .1.1.2c.7.9 1.9 1.3 3.2 1.3.7 0 1.2-.1 1.5-.2.7.9 2 1 2.7 1h.4v-.3s.1-.1.1-.2z" fill="#475059"/><path d="m13.4 11.1c-.2-.1-.8-.2-1.4-.2-.8 0-1.5.3-2 .9-.1.1-.2.1-.4.1 0 0-.5-.3-1.1-.3-.5 0-.8.2-1.1.5-.1.1-.2.1-.3.1s-.2-.1-.2-.2-.4-2.2.8-3.8l-.5-.3c-1.9 2-1.9 4.8-1.9 5.4.6.7 1.5 1.1 2.7 1.1.9 0 1.5-.2 1.5-.2h.1c.1 0 .2.1.3.1.5.8 1.7.9 2.3.9h.5c.3-.4 1.3-1.9.7-4.1z" fill="#fff"/><path d="m10.3 9.1c-.1 0-.2 0-.2-.1-.1-.1-.1-.3 0-.4.7-.6 1.1-1.4 1.1-2.3s-.4-1.8-1.1-2.4c-.1-.1-.1-.3 0-.4s.3-.1.4 0c.8.7 1.3 1.7 1.3 2.8s-.5 2.1-1.3 2.8c0 0-.1 0-.2 0z" fill="#475059"/><path d="m10.6 6.3c0 1.4-1.2 2.6-2.6 2.6s-2.5-1.2-2.5-2.6 1.2-2.6 2.6-2.6 2.5 1.2 2.5 2.6z" fill="#adebf6"/><circle cx="8" cy="6.3" fill="#ff926e" r="1.9"/><path d="m8 7.7c-.8 0-1.4-.6-1.4-1.4s.6-1.4 1.4-1.4c.2 0 .3.1.3.3 0 .1-.1.2-.3.2-.4 0-.8.4-.8.9s.4.8.8.8c.5 0 .8-.4.8-.8 0-.2.1-.3.3-.3s.3.1.3.3c.1.8-.6 1.4-1.4 1.4z" fill="#adebf6"/><path d="m15.6 13.7c-.6-.7-.6-1.9-.6-2.5h-1.1c.6 2.4-.5 4-.8 4.4v3.3h3.6v-4.7c-.4 0-.8-.2-1.1-.5z" fill="#ffdb7a"/><path d="m16.1 13.3c-.5-.6-.5-1.9-.4-2.4 0-.1 0-.2-.1-.2-.1-.1-.1-.1-.2-.1h-1.7-.1c-.1 0-.2 0-.2.1-.1.1-.1.2 0 .3v.1c.6 2.2-.3 3.7-.6 4.1l-.1.1c0 .1-.1.1-.1.2v3.7c0 .2.1.3.3.3h3.9v-.3-.3h-3.6v-3.3c.1-.1.2-.2.3-.4.4-.7.9-1.9.6-3.5 0-.1-.1-.3-.1-.5h.5.6c0 .6 0 1.8.6 2.5.3.3.7.5 1.2.5v-.3-.3c-.4 0-.6-.1-.8-.3z" fill="#e25d34"/><path d="m18.2 10.9c0-.2-.2-.3-.3-.3-.2 0-.3.2-.3.3v8.3c0 .2.2.3.3.3.2 0 .3-.2.3-.3z" fill="#adebf6"/></svg>