<svg enable-background="new 0 0 22.8 22.8" viewBox="0 0 22.8 22.8" xmlns="http://www.w3.org/2000/svg"><path d="m0 11.4c0-6.3 5.1-11.4 11.4-11.4s11.4 5.1 11.4 11.4-5.1 11.4-11.4 11.4c-6.3.1-11.4-5.1-11.4-11.4z" fill="#f5f5f5"/><path d="m6.4 10.2c-.6-1.3-.5-2.2-.4-3.2.1-1.3.8-1 .8-1s1.5.6 2.7.4c.5.3 1.2.7 2.3 1.4 3.1 1.8 5.6.2 6.6-.6 1.2.3 2.1.7 2.2 1.5.2 1.9-4.3 2.7-4.3 2.7l-9.1 1.2c-1.6.2-.8-2.4-.8-2.4z" fill="#e25d34"/><path d="m11.8 7.8c-1.1-.7-1.8-1.1-2.3-1.4.6-.1 1.1-.3 1.4-.7 3.5 2.2 5.3 1.7 6 1.2.5.1 1 .3 1.4.4-.8.7-3.4 2.3-6.5.5z" fill="#ffdb7a"/><path d="m7.3 12.6 9.1-1.2s4.5-.8 4.3-2.7c-1.2.7-5.1 3.2-14.3 1.5 0 0-.8 2.6.9 2.4z" fill="#475059"/><path d="m11 5.7c1.2-1.5 1.7-1 1.7-1 1.2 1.2 2.9 1.8 4.4 2.2-.8.5-2.6 1-6.1-1.2z" fill="#adebf6"/><g fill="#fff"><path d="m15.1 6.9c0 .2.2.3.3.2.2 0 .3-.2.2-.3 0-.2-.2-.3-.3-.2-.1 0-.2.1-.2.3z"/><path d="m13.7 6.4c0 .2.2.3.4.3s.3-.2.3-.4-.2-.3-.4-.3c-.2.1-.4.2-.3.4z"/><path d="m12.1 5.7c0 .2.2.4.5.4.2 0 .4-.2.4-.5 0-.2-.2-.4-.5-.4-.3.1-.4.3-.4.5z"/></g><path d="m3 13.4c0-1.4.3-2.2.7-3.1.6-1.2 1.1-.7 1.1-.7s1.2 1.1 2.4 1.4c.3.4.9 1.1 1.7 2.1 2.2 2.7 5.2 2.2 6.4 1.8 1 .7 1.7 1.4 1.5 2.1-.4 1.8-5 1-5 1l-8.9-2.1c-1.6-.3.1-2.5.1-2.5z" fill="#ff926e"/><path d="m8.9 13.1c-.8-1-1.3-1.7-1.7-2.1.6.1 1.1.1 1.6-.2 2.5 3.3 4.3 3.4 5.2 3.2.4.3.8.6 1.2.8-1.1.5-4 1.1-6.3-1.7z" fill="#ffdb7a"/><path d="m3 16 8.9 2.1s4.5.8 5-1c-1.3.2-5.9 1.2-13.9-3.6 0-.1-1.7 2.1 0 2.5z" fill="#475059"/><path d="m8.9 10.9c1.6-1 1.9-.4 1.9-.4.7 1.6 2.1 2.7 3.3 3.6-.9.2-2.8 0-5.2-3.2z" fill="#adebf6"/><path d="m12.3 13.5c0 .1.1.3.2.3s.3-.1.3-.2-.1-.3-.2-.3c-.1-.1-.2 0-.3.2z" fill="#fff"/><path d="m11.1 12.5c0 .2.1.4.3.4s.4-.1.4-.3-.1-.4-.3-.4-.4.1-.4.3z" fill="#fff"/><path d="m9.9 11.3c-.1.2.1.4.3.5s.4-.1.5-.3-.1-.4-.3-.5-.4.1-.5.3z" fill="#fff"/></svg>