<svg enable-background="new 0 0 22.9 22.8" viewBox="0 0 22.9 22.8" xmlns="http://www.w3.org/2000/svg"><path d="m22.9 11.4c0-6.3-5.1-11.4-11.4-11.4-6.4 0-11.5 5.1-11.5 11.4s5.1 11.4 11.4 11.4c6.4.1 11.5-5.1 11.5-11.4z" fill="#475059"/><path d="m17.2 7.1h-11.5c-.9 0-1.7.8-1.7 1.7v5.7c0 .9.8 1.7 1.7 1.7h11.4c.9 0 1.7-.8 1.7-1.7v-5.7c.1-.9-.7-1.7-1.6-1.7z" fill="#fff"/><path d="m6.9 8.2h9.1v6.9h-9.1z" fill="#adebf6"/><path d="m14.9 11.9c-.1 0-.3-.1-.3-.3v-2h-6.6c-.1 0-.3-.1-.3-.3 0-.1.1-.3.3-.3h6.9c.1 0 .3.1.3.3v2.2c-.1.3-.2.4-.3.4z" fill="#475059"/><path d="m18.9 7.1v7.4c0-.9-.8-1.7-1.7-1.7v-7.4c.9 0 1.7.8 1.7 1.7z" fill="#adebf6"/><path d="m4 7.1v7.4c0-.9.8-1.7 1.7-1.7v-7.4c-.9 0-1.7.8-1.7 1.7z" fill="#adebf6"/><path d="m14.6 18.1c.9-1.2 1-2.7.5-3.9-.7.4-1.7.3-2.4-.2s-1-1.4-.9-2.2c-1.4-.2-2.8.4-3.7 1.5-.9 1.2-1 2.7-.5 3.9.7-.4 1.7-.3 2.4.2s1 1.4.9 2.2c1.4.2 2.8-.3 3.7-1.5z" fill="#ff926e"/><path d="m12.7 16.6c-1 1.3-2.3 1.9-3 1.4s-.5-2 .5-3.2c1-1.3 2.3-1.9 3-1.4s.4 1.9-.5 3.2z" fill="#e25d34"/><g fill="#ffdb7a"><path d="m10.1 17.4c-.7-.5-1.6-.6-2.4-.2.3.6.7 1.2 1.3 1.7s1.3.7 2 .8c.1-.9-.2-1.7-.9-2.3z"/><path d="m12.8 13.9c.7.5 1.6.6 2.4.2-.3-.6-.7-1.2-1.3-1.7s-1.3-.7-2-.8c-.1.9.2 1.8.9 2.3z"/></g></svg>