<svg enable-background="new 0 0 22.8 22.8" viewBox="0 0 22.8 22.8" xmlns="http://www.w3.org/2000/svg"><path d="m22.9 11.4c0-6.3-5.1-11.4-11.4-11.4-6.4 0-11.5 5.1-11.5 11.4s5.1 11.4 11.4 11.4c6.4.1 11.5-5.1 11.5-11.4z" fill="#475059"/><path d="m17.2 7.1h-11.5c-.9 0-1.7.8-1.7 1.7v5.7c0 .9.8 1.7 1.7 1.7h11.4c.9 0 1.7-.8 1.7-1.7v-5.7c.1-.9-.7-1.7-1.6-1.7z" fill="#fff"/><path d="m6.9 8.2h9.1v6.9h-9.1z" fill="#adebf6"/><path d="m14.9 11.9c-.1 0-.3-.1-.3-.3v-2h-6.6c-.1 0-.3-.1-.3-.3 0-.1.1-.3.3-.3h6.9c.1 0 .3.1.3.3v2.2c-.1.3-.2.4-.3.4z" fill="#475059"/><path d="m18.9 7.1v7.4c0-.9-.8-1.7-1.7-1.7v-7.4c.9 0 1.7.8 1.7 1.7z" fill="#adebf6"/><path d="m4 7.1v7.4c0-.9.8-1.7 1.7-1.7v-7.4c-.9 0-1.7.8-1.7 1.7z" fill="#adebf6"/><path d="m14.6 18.1c.9-1.2 1-2.7.5-3.9-.7.4-1.7.3-2.4-.2s-1-1.4-.9-2.2c-1.4-.2-2.8.4-3.7 1.5-.9 1.2-1 2.7-.5 3.9.7-.4 1.7-.3 2.4.2s1 1.4.9 2.2c1.4.2 2.8-.3 3.7-1.5z" fill="#ff926e"/><path d="m12.7 16.6c-1 1.3-2.3 1.9-3 1.4s-.5-2 .5-3.2c1-1.3 2.3-1.9 3-1.4s.4 1.9-.5 3.2z" fill="#e25d34"/><path d="m10.1 17.4c-.7-.5-1.6-.6-2.4-.2.3.6.7 1.2 1.3 1.7s1.3.7 2 .8c.1-.9-.2-1.7-.9-2.3z" fill="#ffdb7a"/><path d="m12.8 13.9c.7.5 1.6.6 2.4.2-.3-.6-.7-1.2-1.3-1.7s-1.3-.7-2-.8c-.1.9.2 1.8.9 2.3z" fill="#ffdb7a"/><path d="m0 11.4c0 6.3 5.1 11.4 11.4 11.4s11.4-5.1 11.4-11.4-5-11.4-11.4-11.4c-6.3 0-11.4 5.1-11.4 11.4z" fill="#475059"/><path d="m17.7 17.7v-9c0-1.1-.6-2-1.6-2.4v-.7h-2v.7c-.9.4-1.6 1.3-1.6 2.4v9c0 .5.4.9.9.9s.9-.4.9-.9c0 .5.4.9.9.9s.9-.4.9-.9c0 .5.4.9.9.9.4-.1.7-.5.7-.9z" fill="#adebf6"/><path d="m5.1 10.7h6.4v1.2h-6.4z" fill="#fff"/><path d="m9.5 9.5v.3h-2.3v-.3h-1.2v1.2h4.6v-1.2z" fill="#fff"/><path d="m6 10.4h4.6v.2h-4.6z" fill="#ffdb7a"/><path d="m10.9 11.8h-5.1l.1 1.9h4.8z" fill="#ff926e"/><path d="m6.4 18.5h3.9l.2-2.9h-4.4z" fill="#ff926e"/><path d="m5.9 13.7.1.7h3.5c.1 0 .2.1.2.2s-.1.2-.2.2h-3.4l.1.7h4.4l.2-1.9z" fill="#f5f5f5"/><path d="m9.5 14.9c.1 0 .2-.1.2-.2s-.1-.2-.2-.2h-3.5v.4z" fill="#adebf6"/><path d="m13.7 4.3h2.9v1.3h-2.9z" fill="#ff926e"/><path d="m12.6 10.1h3.7v4.2h-3.7z" fill="#ffdb7a"/><path d="m12.6 10.7h3.2v3.1h-3.2z" fill="#f5f5f5"/><path d="m12.6 11.2h2.6v.6h-2.6z" fill="#e25d34"/><path d="m12.6 12.6h1.7v.6h-1.7z" fill="#e25d34"/><path d="m17.3 8.6c0-.9-.5-1.7-1.3-2-.1-.1-.2-.2-.2-.4v-.2h-1.2v.3c0 .2-.1.3-.2.4-.8.3-1.3 1.1-1.3 2v.4h4.3v-.5z" fill="#fff"/></svg>