<svg enable-background="new 0 0 22.8 22.8" viewBox="0 0 22.8 22.8" xmlns="http://www.w3.org/2000/svg"><path d="m0 11.4c0-6.3 5.1-11.4 11.4-11.4s11.4 5.1 11.4 11.4-5.1 11.4-11.4 11.4c-6.3.1-11.4-5.1-11.4-11.4z" fill="#ffdb7a"/><path d="m6.5 8.5v-2.2c0-.3.2-.5.5-.5h4.9c.3 0 .5.2.5.5v2.2c.5.4.9.8 1.3 1.3v-3.5c0-1-.8-1.8-1.8-1.8h-4.9c-1 0-1.8.8-1.8 1.8v3.5c.4-.6.8-1 1.3-1.3z" fill="#adebf6"/><path d="m12.6 10.5c-.3-.4-.6-.7-1-1-.7-.5-1.4-.8-2.2-.8s-1.5.3-2.2.8c-.4.3-.7.6-1 1-.6.8-1 1.8-1 2.7 0 2.6 2.9 2.9 4.2 2.9s4.2-.3 4.2-2.9c0-.9-.4-1.9-1-2.7z" fill="#fff"/><path d="m13.6 9.7c-.4-.5-.8-.9-1.3-1.3-.9-.6-1.9-1-3-1s-2.1.4-3 1c-.5.4-.9.8-1.3 1.3-.8 1-1.2 2.3-1.2 3.5 0 2.9 2.4 4.2 5.4 4.2s5.4-1.3 5.4-4.2c.3-1.2-.2-2.5-1-3.5zm-4.2 6.4c-1.3 0-4.2-.3-4.2-2.9 0-.9.3-1.9 1-2.7.3-.4.6-.7 1-1 .7-.5 1.5-.8 2.2-.8.8 0 1.5.3 2.2.8.4.3.7.6 1 1 .6.8 1 1.8 1 2.7 0 2.6-2.9 2.9-4.2 2.9z" fill="#e25d34"/><path d="m6.2 13.3c-.2 0-.2-.1-.2-.2 0 0 .6-3.4 3.4-3.6.1 0 .2.1.2.2s-.1.2-.2.2c-2.5.2-3 3.2-3 3.2 0 .2-.1.2-.2.2z" fill="#ff926e"/><path d="m8.1 13.3v-1.8h.3v1l.4-.5h.4l-.4.5.5.8h-.3l-.3-.6-.2.2v.4z" fill="#475059"/><path d="m9.5 13.4h.4v.1h.2.2s.1 0 .1-.1c0 0 0-.1 0-.2v-.2c-.1.1-.2.2-.4.2s-.3-.1-.4-.2-.1-.3-.1-.4c0-.2.1-.4.2-.5s.2-.2.4-.2.3.1.4.2v-.2h.2v1.2.3c0 .1-.1.1-.1.2 0 0-.1.1-.2.1s-.2 0-.3 0c-.2 0-.4 0-.5-.1 0 .1-.1 0-.1-.2zm.3-.8c0 .1 0 .2.1.3s.1.1.2.1.2 0 .2-.1c.1-.1.1-.2.1-.3s0-.2-.1-.3-.1-.1-.2-.1-.2 0-.2.1c-.1.1-.1.2-.1.3z" fill="#475059"/><path d="m18.3 16.5c-.5.3-1.4.5-2.4.5s-1.9-.2-2.4-.5c-.4-.2-.6-.4-.6-.7v1.4c0 .7 1.3 1.2 3 1.2 1.6 0 3-.5 3-1.2v-1.4c0 .3-.2.5-.6.7z" fill="#adebf6"/><path d="m15.9 14.6c-1.6 0-3 .5-3 1.2 0 .3.2.5.6.7.5.3 1.4.5 2.4.5s1.9-.2 2.4-.5c.4-.2.6-.4.6-.7 0-.6-1.4-1.2-3-1.2z" fill="#475059"/><path d="m15.2 8.2v7.6c0 .1.1.1.1.2.1.1.3.1.6.1.2 0 .4 0 .6-.1.1 0 .1-.1.1-.2v-7.6z" fill="#fff"/><path d="m18.3 9.8c-.5.3-1.4.5-2.4.5s-1.9-.2-2.4-.5c-.4-.2-.6-.4-.6-.7v1.4c0 .7 1.3 1.2 3 1.2 1.6 0 3-.5 3-1.2v-1.4c0 .3-.2.5-.6.7z" fill="#adebf6"/><path d="m15.9 7.9c-1.6 0-3 .5-3 1.2 0 .3.2.5.6.7.5.3 1.4.5 2.4.5s1.9-.2 2.4-.5c.4-.2.6-.4.6-.7 0-.6-1.4-1.2-3-1.2z" fill="#475059"/></svg>