<svg enable-background="new 0 0 22.9 22.8" viewBox="0 0 22.9 22.8" xmlns="http://www.w3.org/2000/svg"><path d="m22.9 11.4c0-6.3-5.1-11.4-11.4-11.4-6.4 0-11.5 5.1-11.5 11.4s5.1 11.4 11.4 11.4c6.4.1 11.5-5.1 11.5-11.4z" fill="#adebf6"/><circle cx="16.2" cy="11.4" fill="#ff926e" r="1.3"/><path d="m15 7.5h-7c-.1 0-.2.1-.2.2v7.6c0 .1.1.2.2.2h7c.1 0 .2-.1.2-.2v-7.7c-.1-.1-.2-.1-.2-.1z" fill="#ffdb7a"/><path d="m11.4 14.7h-2.6c-.2 0-.4-.2-.4-.4v-2.9c0-.2.1-.3.3-.3s.3.1.3.3v2.7h2.4c.2 0 .3.1.3.3s-.1.3-.3.3z" fill="#475059"/><path d="m15 6.3h-7c-.7 0-1.3.6-1.3 1.3v7.6c0 .7.6 1.3 1.3 1.3h7c.7 0 1.3-.6 1.3-1.3v-7.6c-.1-.7-.6-1.3-1.3-1.3zm.1 8.9c0 .1-.1.2-.2.2h-7c-.1 0-.2-.1-.2-.2v-7.6c0-.1.1-.2.2-.2h7c.1 0 .2.1.2.2z" fill="#fff"/><path d="m14.7 6.3h-6.5l.7-1.6h5.1z" fill="#475059"/><path d="m9.6 3h3.7v1h-3.7z" fill="#ff926e"/><path d="m8.9 2.3v2.4h5v-2.4zm4.4 1.7h-3.7v-1h3.7z" fill="#fff"/><path d="m9.6 18.9h3.7v1h-3.7z" fill="#ff926e"/><path d="m8.9 18.2v2.4h5v-2.4zm4.4 1.7h-3.7v-1h3.7z" fill="#fff"/><path d="m14.7 16.5-.7 1.7h-5.1l-.7-1.7z" fill="#475059"/><path d="m11 13c-.1 0-.2-.1-.3-.2l-1-3.7-.8 1.2c0 .2-.2.2-.3.1s-.2-.3-.1-.4l1.1-1.8c.1-.1.2-.1.3-.1s.2.1.2.2l1 3.5.8-1.8c0-.1.1-.2.2-.2s.2.1.3.1l.9 1.7.7-.8c.1-.1.3-.1.4 0s.1.3 0 .4l-.9 1.2c-.1.1-.2.1-.2.1-.1 0-.2-.1-.2-.1l-.8-1.5-.9 2c-.1 0-.2.1-.4.1z" fill="#e25d34"/><path d="m19.1 15.6-1-1-.6.6v-1.8h1.8l-.6.6 1 1c.1.1.1.4 0 .5-.3.3-.5.3-.6.1z" fill="#fff"/></svg>