<svg enable-background="new 0 0 22.8 22.8" viewBox="0 0 22.8 22.8" xmlns="http://www.w3.org/2000/svg"><circle cx="11.4" cy="11.4" fill="#ff926e" r="11.4"/><path d="m15.1 16h-7.3l-.9 2.3h9.1z" fill="#475059"/><path d="m15.6 15.3h-8.3l-1.4 3.7h11zm-.5.7.9 2.4h-9.1l.9-2.4z" fill="#fff"/><path d="m6.9 5.6h9v.6h-9z" fill="#475059"/><path d="m5.8 4.3v.6h-.9v2.1h.9v.5h1.1v-3.2z" fill="#adebf6"/><path d="m17.1 4.9v-.6h-1.1v3.2h1.1v-.5h.9v-2.1z" fill="#adebf6"/><path d="m5.9 6.7s-.1.1 0 0c-.2.1-.2 0-.2 0v-1.5s0-.1.1-.1.1 0 .1.1z" fill="#475059"/><path d="m17.2 6.7s0 .1 0 0c-.1.1-.2 0-.2 0v-1.5s0-.1.1-.1.1 0 .1.1z" fill="#475059"/><g fill="#ffdb7a"><path d="m11.4 8.3c.5 0 .9-.4.9-.9s-.4-.9-.9-.9-.9.4-.9.9.4.9.9.9z"/><path d="m14.5 6.1c-.3 0-.5.2-.5.4v2h-5.1v-2c0-.2-.2-.4-.4-.4 0 0 0 0-.1 0-.2 0-.4.2-.4.4v2.9h1.9c.1 0 .2.1.2.2v7.6.1c0 .3.3.5.5.5h.1c.3 0 .5-.2.5-.5v-4h.4v4c0 .3.2.5.5.5h.1c.3 0 .5-.2.5-.5 0 0 0 0 0-.1v-7.6c0-.1.1-.2.2-.2h1.9v-2.9c0-.2-.1-.3-.3-.4z"/></g></svg>