<svg enable-background="new 0 0 22.8 22.8" viewBox="0 0 22.8 22.8" xmlns="http://www.w3.org/2000/svg"><ellipse cx="11.4" cy="11.4" fill="#adebf6" rx="11.4" ry="11.4"/><path d="m13.2 11.1h3.7c.8 0 1.4-.6 1.4-1.4h1.2c0-2.2-2-4-4.4-4-2.5 0-4.4 1.8-4.4 4h1.2c-.1.8.5 1.4 1.3 1.4z" fill="#e25d34"/><path d="m12.3 15.8h5.5l.5-3.9h-1.4-3.7-1.5z" fill="#ff926e"/><path d="m14.6 5.1h.9v6h-.9z" fill="#ffdb7a"/><path d="m13.5 7.6h.9v3.5h-.9z" fill="#ffdb7a"/><path d="m12.3 8.3h.9v2.8h-.9z" fill="#ffdb7a"/><path d="m15.8 6.7h.9v4.4h-.9z" fill="#ffdb7a"/><path d="m16.9 9.2h.9v1.9h-.9z" fill="#ffdb7a"/><path d="m18.3 9.7c0 .8-.6 1.4-1.4 1.4h-3.7c-.8 0-1.4-.6-1.4-1.4h-1.2l1 6.9h6.9l1-6.9zm-6 6.1-.6-3.9h6.6l-.6 3.9z" fill="#fff"/><path d="m12.8 12.8h4.6v.4h-4.6z" fill="#475059"/><path d="m13 13.8h4v.4h-4z" fill="#475059"/><path d="m13.3 14.7h3.4v.4h-3.4z" fill="#475059"/><path d="m4.1 13.6h9.3v2.4h-9.3z" fill="#fff"/><path d="m3.4 15.6c.3 2.5 2.5 2.2 5.3 2.2s5.1.3 5.3-2.1h-10.6z" fill="#ffdb7a"/><path d="m13.9 13.9c-.6-2.2-2.7-3.5-5.2-3.5s-4.6 1.3-5.2 3.5z" fill="#ffdb7a"/><path d="m13.6 14.2c-.1 0-.2 0-.3.1-.1-.1-.2-.1-.3-.1s-.2 0-.3.1c-.1-.1-.2-.1-.3-.1s-.2 0-.3.1c-.1-.1-.2-.1-.3-.1s-.2 0-.3.1c-.1-.1-.2-.1-.3-.1s-.2 0-.3.1c-.1-.1-.2-.1-.3-.1s-.2 0-.3.1c-.1-.1-.2-.1-.3-.1s-.2 0-.3.1c-.1-.1-.2-.1-.3-.1s-.2 0-.3.1c-.1-.1-.2-.1-.3-.1s-.2 0-.3.1c-.1-.1-.2-.1-.3-.1s-.2 0-.3.1c-.1-.1-.2-.1-.3-.1s-.2 0-.3.1c-.1-.1-.2-.1-.3-.1s-.2 0-.3.1c-.1-.1-.2-.1-.3-.1s-.2 0-.3.1c-.1-.1-.2-.1-.3-.1s-.2 0-.3.1c-.1-.1-.2-.1-.3-.1s-.2 0-.3.1c-.1-.1-.2-.1-.3-.1s-.2 0-.3.1c-.1-.1-.2-.1-.3-.1-.3 0-.5.2-.5.5s.2.5.5.5c.1 0 .2 0 .3-.1.1.1.2.1.3.1s.2 0 .3-.1c.2.1.4.1.6 0 .2.1.4.1.6 0 .2.1.4.1.6 0 .2.1.4.1.6 0 .2.1.4.1.6 0 .2.1.4.1.6 0 .2.1.4.1.6 0 .2.1.4.1.6 0 .2.1.4.1.6 0 .2.1.4.1.6 0 .2.1.4.1.6 0 .2.1.4.1.6 0 .2.1.4.1.6 0 .1.1.2.1.3.1s.2 0 .3-.1c.1.1.2.1.3.1.3 0 .5-.2.5-.5s-.3-.5-.5-.5z" fill="#e25d34"/><path d="m13.7 15.4h-10c-.1 0-.1.1-.1.1 0 .1.1.1.1.1h4.6l3.3.9 1.3-.9h.8c.1 0 .1-.1.1-.1.1-.1 0-.1-.1-.1z" fill="#475059"/><g fill="#ff926e"><path d="m6.3 13.4c0 .1-.1.2-.2.2s-.2-.1-.2-.2.1-.2.2-.2c.1-.1.2 0 .2.2z"/><path d="m7.6 13.4c0 .1-.1.2-.2.2s-.2-.1-.2-.2.1-.2.2-.2c.1-.1.2 0 .2.2z"/><path d="m8.8 13.4c0 .1-.1.2-.2.2s-.2-.1-.2-.2.1-.2.2-.2c.1-.1.2 0 .2.2z"/><path d="m10.1 13.4c0 .1-.1.2-.2.2s-.2-.1-.2-.2.1-.2.2-.2c.1-.1.2 0 .2.2z"/><path d="m7.6 11.7c0 .1-.1.2-.2.2s-.2-.1-.2-.2.1-.2.2-.2.2.1.2.2z"/><path d="m8.8 11.7c0 .1-.1.2-.2.2s-.2-.1-.2-.2.1-.2.2-.2.2.1.2.2z"/><path d="m6.3 11.7c0 .1-.1.2-.2.2s-.2-.1-.2-.2.1-.2.2-.2.2.1.2.2z"/><path d="m10.1 11.7c0 .1-.1.2-.2.2s-.2-.1-.2-.2.1-.2.2-.2.2.1.2.2z"/><path d="m11.4 11.7c0 .1-.1.2-.2.2s-.2-.1-.2-.2.1-.2.2-.2.2.1.2.2z"/><path d="m11.4 13.4c0 .1-.1.2-.2.2s-.2-.1-.2-.2.1-.2.2-.2c.1-.1.2 0 .2.2z"/><path d="m6.9 12.5c0 .1-.1.2-.2.2s-.2-.1-.2-.2.1-.2.2-.2.2.1.2.2z"/><path d="m8.2 12.5c0 .1-.1.2-.2.2s-.2-.1-.2-.2.1-.2.2-.2.2.1.2.2z"/><path d="m5.1 13.4c0 .1-.1.2-.2.2s-.2-.1-.2-.2.1-.2.2-.2c.1-.1.2 0 .2.2z"/><path d="m5.7 12.5c0 .1-.1.2-.2.2s-.2-.1-.2-.2.1-.2.2-.2.2.1.2.2z"/><path d="m9.5 12.5c0 .1-.1.2-.2.2s-.2-.1-.2-.2.1-.2.2-.2.2.1.2.2z"/><path d="m10.7 12.5c0 .1-.1.2-.2.2s-.2-.1-.2-.2.1-.2.2-.2.2.1.2.2z"/><path d="m12.6 13.4c0 .1-.1.2-.2.2s-.2-.1-.2-.2.1-.2.2-.2c.1-.1.2 0 .2.2z"/><path d="m12 12.5c0 .1-.1.2-.2.2s-.2-.1-.2-.2.1-.2.2-.2.2.1.2.2z"/></g></svg>