<svg enable-background="new 0 0 22.8 22.8" viewBox="0 0 22.8 22.8" xmlns="http://www.w3.org/2000/svg"><ellipse cx="11.4" cy="11.4" fill="#adebf6" rx="11.4" ry="11.4"/><path d="m17.7 8.1v.7h-2.5v-.7h-4.8v4.6h8l1.4-4.6z" fill="#ffdb7a"/><path d="m5.1 12.1h1v1.1h-1z" fill="#475059"/><path d="m14.9 12.7c0 2.5-2 4.6-4.6 4.6-2.5 0-4.6-2-4.6-4.6s2-4.6 4.6-4.6 4.6 2.1 4.6 4.6z" fill="#e25d34"/><path d="m13.2 12.7c0 1.6-1.3 2.9-2.9 2.9s-2.9-1.3-2.9-2.9 1.3-2.9 2.9-2.9 2.9 1.3 2.9 2.9z" fill="#ffdb7a"/><path d="m5.4 12.7c0 .6-.5 1.1-1.1 1.1s-1.1-.5-1.1-1.1.5-1.1 1.1-1.1 1.1.5 1.1 1.1z" fill="#475059"/><path d="m4.9 12.7c0 .4-.3.7-.7.7s-.7-.3-.7-.7.3-.7.7-.7.7.3.7.7z" fill="#adebf6"/><g fill="#fff"><path d="m16.4 5.5c-.1 0-.2.1-.2.2v1.6c0 .1.1.2.2.2s.3 0 .3-.2v-1.6c0-.1-.1-.2-.3-.2z"/><path d="m14.5 6s-.1-.1-.2-.1-.1 0-.2.1-.1.2 0 .3l1.2 1.2s.1.1.2.1.1 0 .2-.1c0 0 .1-.1.1-.2s0-.1-.1-.2z"/><path d="m18.7 6c-.1-.1-.2-.1-.3 0l-1.2 1.2s-.1.1-.1.2 0 .1.1.2c0 0 .1.1.2.1s.1 0 .2-.1l1.1-1.3c.1-.1.1-.2 0-.3z"/></g></svg>