<svg enable-background="new 0 0 22.8 22.8" viewBox="0 0 22.8 22.8" xmlns="http://www.w3.org/2000/svg"><path d="m0 11.4c0-6.3 5.1-11.4 11.4-11.4s11.4 5.1 11.4 11.4-5.1 11.4-11.4 11.4c-6.3.1-11.4-5.1-11.4-11.4z" fill="#ff926e"/><path d="m18.3 12.3c0-3.8-3.1-6.9-6.9-6.9s-6.9 3.1-6.9 6.9 3.1 6.9 6.9 6.9c3.8-.1 6.9-3.1 6.9-6.9z" fill="#fff"/><path d="m16.8 12.3c0-2.9-2.4-5.3-5.3-5.3s-5.3 2.4-5.3 5.3 2.4 5.3 5.3 5.3 5.3-2.4 5.3-5.3z" fill="#ffdb7a"/><path d="m15.3 10.8c-.1-.3-.3-.5-.5-.7s-.5-.4-.7-.5c-.3-.1-.6-.2-.9-.2s-.6.1-.9.2-.5.3-.7.6c-.1.1-.1.1-.2.2-.1-.1-.1-.1-.2-.2-.2-.2-.5-.4-.7-.6-.2-.1-.5-.2-.8-.2s-.6.1-.9.2-.5.3-.7.5-.4.5-.5.7c-.1.3-.2.6-.2.9s.1.6.2.9.2.6.4.8 3.1 2.9 3.4 3c.3-.1 3.2-2.8 3.4-3s.4-.5.5-.7c.1-.3.2-.6.2-.9 0-.4 0-.7-.2-1z" fill="#e25d34"/><path d="m11.4 15.5c-.1 0-.2-.1-.3-.2l-1.7-4.1-.7 1.5c-.1.1-.2.2-.4.1s-.2-.2-.1-.4l1.1-2c0-.1.1-.2.3-.2.1 0 .2.1.3.2l1.6 4 1-3.3c0-.1.1-.2.2-.2s.2.1.3.2l.6 1.4.6-2c0-.1.2-.2.3-.2s.2.2.2.3l-.8 2.7c0 .1-.1.2-.2.2s-.2-.1-.3-.2l-.7-1.3-1 3.3c0 .1-.1.2-.3.2z" fill="#fff"/><path d="m12.1 4.3v2.4h1.6l-2.2 2.2-2.2-2.3h1.6v-2.4c0-.3.3-.6.6-.6.3.1.6.4.6.7z" fill="#adebf6"/></svg>